<svg width="333" height="243" viewBox="0 0 333 243" fill="none" xmlns="http://www.w3.org/2000/svg">
<path d="M170.741 240.597C209.968 240.597 241.767 239.357 241.767 237.827C241.767 236.297 209.968 235.057 170.741 235.057C131.515 235.057 99.7155 236.297 99.7155 237.827C99.7155 239.357 131.515 240.597 170.741 240.597Z" fill="#F9F0E3"/>
<path opacity="0.5" d="M45.7814 235.93C70.6821 235.93 90.8681 234.396 90.8681 232.505C90.8681 230.614 70.6821 229.081 45.7814 229.081C20.8807 229.081 0.694702 230.614 0.694702 232.505C0.694702 234.396 20.8807 235.93 45.7814 235.93Z" fill="#F9EAD4"/>
<path d="M329.159 240.604C329.159 241.76 313.81 242.691 294.873 242.691C275.936 242.691 260.588 241.76 260.588 240.604C260.588 239.448 275.936 238.518 294.873 238.518C313.803 238.518 329.159 239.448 329.159 240.604Z" fill="#F9F0E3"/>
<path d="M246.068 74.824L244.484 77.5575H247.644L246.068 74.824Z" fill="#E7CCA8"/>
<path d="M246.068 79.8403L244.484 82.5739H247.644L246.068 79.8403Z" fill="#E7CCA8"/>
<path d="M249.344 76.8814L247.876 79.8403H250.804L249.344 76.8814Z" fill="#E7CCA8"/>
<path d="M8.11835 91.1307L6.53484 93.8716H9.69461L8.11835 91.1307Z" fill="#E7CCA8"/>
<path d="M8.11836 96.1472L6.53484 98.8807H9.69461L8.11836 96.1472Z" fill="#E7CCA8"/>
<path d="M11.3943 93.1883L9.92705 96.1472H12.8544L11.3943 93.1883Z" fill="#E7CCA8"/>
<path d="M242.908 195.9L241.331 198.634H244.484L242.908 195.9Z" fill="#E7CCA8"/>
<path d="M242.908 200.909L241.331 203.65H244.484L242.908 200.909Z" fill="#E7CCA8"/>
<path d="M246.184 197.951L244.724 200.909H247.644L246.184 197.951Z" fill="#E7CCA8"/>
<path d="M180.642 55.5074C180.642 57.434 179.088 58.9898 177.163 58.9898C175.238 58.9898 173.683 57.434 173.683 55.5074C173.683 53.5808 175.238 52.025 177.163 52.025C179.08 52.025 180.642 53.5881 180.642 55.5074Z" stroke="white" stroke-miterlimit="10"/>
<path d="M330.982 203.636H258.874C257.806 203.636 256.941 202.771 256.941 201.702C256.941 200.633 257.806 199.768 258.874 199.768H330.982C332.05 199.768 332.914 200.633 332.914 201.702C332.914 202.771 332.05 203.636 330.982 203.636Z" fill="#3A8B78"/>
<path d="M268.832 237.827C267.75 237.827 266.857 237.165 266.813 236.322L264.939 202.443H272.726L270.852 236.322C270.801 237.165 269.915 237.827 268.832 237.827Z" fill="#3A8B78"/>
<path d="M321.72 237.827C320.638 237.827 319.745 237.165 319.701 236.322L317.827 202.443H325.614L323.74 236.322C323.689 237.165 322.803 237.827 321.72 237.827Z" fill="#3A8B78"/>
<path d="M294.931 237.827C293.849 237.827 292.956 237.165 292.912 236.322L291.038 202.443H298.825L296.951 236.322C296.907 237.165 296.014 237.827 294.931 237.827Z" fill="#3A8B78"/>
<path d="M311.108 192.997C312.146 188.366 309.236 183.77 304.609 182.732C299.982 181.693 295.389 184.606 294.352 189.237C293.314 193.868 296.224 198.464 300.851 199.502C305.479 200.541 310.071 197.628 311.108 192.997Z" fill="#3A8B78"/>
<path d="M307.055 184.057H298.2C297.706 184.057 297.307 183.657 297.307 183.163C297.307 182.669 297.706 182.269 298.2 182.269H307.055C307.549 182.269 307.948 182.669 307.948 183.163C307.948 183.657 307.549 184.057 307.055 184.057Z" fill="#3A8B78"/>
<path d="M298.81 167.99C299.123 168.136 299.493 168.688 299.617 169.451C299.74 170.215 299.58 170.869 299.319 171.095C299.014 170.956 298.636 170.397 298.513 169.633C298.389 168.87 298.571 168.223 298.81 167.99Z" fill="#3A8B78"/>
<path d="M299.392 171.019L299.212 171.049L300.018 175.948L300.197 175.919L299.392 171.019Z" fill="#3A8B78"/>
<path d="M301.389 170.884C301.055 170.862 300.503 171.174 300.096 171.792C299.689 172.418 299.58 173.079 299.718 173.414C300.045 173.443 300.605 173.123 301.011 172.505C301.425 171.887 301.513 171.218 301.389 170.884Z" fill="#3A8B78"/>
<path d="M297.292 171.56C297.605 171.429 298.222 171.545 298.81 172.003C299.399 172.461 299.711 173.057 299.689 173.421C299.391 173.559 298.759 173.435 298.171 172.977C297.583 172.519 297.285 171.916 297.292 171.56Z" fill="#3A8B78"/>
<path d="M297.684 173.959C297.997 173.828 298.614 173.952 299.203 174.402C299.791 174.86 300.103 175.457 300.082 175.82C299.784 175.958 299.152 175.835 298.563 175.377C297.975 174.919 297.677 174.315 297.684 173.959Z" fill="#3A8B78"/>
<path d="M301.789 173.29C301.454 173.268 300.902 173.581 300.496 174.199C300.089 174.817 299.98 175.485 300.118 175.82C300.445 175.849 301.004 175.529 301.411 174.911C301.818 174.286 301.912 173.617 301.789 173.29Z" fill="#3A8B78"/>
<path d="M300.176 175.811L299.997 175.84L300.802 180.74L300.981 180.71L300.176 175.811Z" fill="#3A8B78"/>
<path d="M302.181 175.675C301.847 175.653 301.295 175.966 300.888 176.584C300.481 177.209 300.372 177.87 300.51 178.205C300.837 178.234 301.396 177.921 301.803 177.296C302.21 176.678 302.304 176.009 302.181 175.675Z" fill="#3A8B78"/>
<path d="M298.077 176.351C298.389 176.22 299.006 176.336 299.595 176.794C300.183 177.252 300.496 177.849 300.474 178.212C300.176 178.35 299.544 178.227 298.956 177.769C298.367 177.311 298.069 176.707 298.077 176.351Z" fill="#3A8B78"/>
<path d="M298.476 178.757C298.789 178.626 299.406 178.75 299.994 179.201C300.583 179.659 300.895 180.255 300.873 180.618C300.575 180.757 299.943 180.633 299.355 180.175C298.767 179.717 298.462 179.106 298.476 178.757Z" fill="#3A8B78"/>
<path d="M302.573 178.081C302.239 178.059 301.687 178.372 301.28 178.99C300.873 179.608 300.764 180.277 300.902 180.611C301.229 180.64 301.788 180.32 302.195 179.702C302.609 179.084 302.696 178.408 302.573 178.081Z" fill="#3A8B78"/>
<path d="M300.967 180.601L300.788 180.63L301.593 185.53L301.772 185.5L300.967 180.601Z" fill="#3A8B78"/>
<path d="M306.495 171.531C306.742 171.749 306.917 172.316 306.793 172.978C306.67 173.639 306.314 174.119 305.994 174.221C305.747 174.01 305.573 173.436 305.689 172.774C305.82 172.12 306.19 171.647 306.495 171.531Z" fill="#3A8B78"/>
<path d="M305.919 174.176L305.138 178.423L305.317 178.456L306.097 174.209L305.919 174.176Z" fill="#3A8B78"/>
<path d="M308.021 174.715C307.709 174.592 307.098 174.672 306.51 175.042C305.929 175.42 305.617 175.929 305.646 176.242C305.943 176.373 306.568 176.286 307.156 175.915C307.738 175.537 308.028 175.021 308.021 174.715Z" fill="#3A8B78"/>
<path d="M303.931 173.959C304.265 173.952 304.81 174.243 305.224 174.803C305.638 175.362 305.747 175.951 305.609 176.235C305.282 176.249 304.73 175.951 304.316 175.391C303.902 174.832 303.815 174.243 303.931 173.959Z" fill="#3A8B78"/>
<path d="M303.554 176.046C303.888 176.038 304.433 176.329 304.847 176.889C305.261 177.449 305.37 178.038 305.232 178.321C304.905 178.336 304.353 178.038 303.939 177.478C303.525 176.918 303.43 176.329 303.554 176.046Z" fill="#3A8B78"/>
<path d="M307.636 176.794C307.324 176.671 306.713 176.751 306.125 177.122C305.544 177.5 305.232 178.008 305.261 178.321C305.558 178.452 306.183 178.365 306.772 177.994C307.353 177.623 307.65 177.1 307.636 176.794Z" fill="#3A8B78"/>
<path d="M305.159 178.332L304.379 182.579L304.558 182.612L305.338 178.364L305.159 178.332Z" fill="#3A8B78"/>
<path d="M307.258 178.866C306.946 178.743 306.336 178.823 305.747 179.193C305.166 179.571 304.854 180.08 304.883 180.393C305.181 180.524 305.805 180.437 306.394 180.066C306.975 179.695 307.265 179.179 307.258 178.866Z" fill="#3A8B78"/>
<path d="M303.169 178.118C303.503 178.11 304.048 178.401 304.462 178.961C304.876 179.521 304.985 180.11 304.847 180.393C304.52 180.408 303.968 180.11 303.554 179.55C303.14 178.99 303.052 178.401 303.169 178.118Z" fill="#3A8B78"/>
<path d="M304.391 182.484L303.611 186.731L303.789 186.764L304.57 182.517L304.391 182.484Z" fill="#3A8B78"/>
<path d="M312.583 130.338C312.96 130.578 313.36 131.342 313.403 132.352C313.454 133.356 313.142 134.177 312.779 134.431C312.401 134.213 312.001 133.428 311.951 132.418C311.907 131.414 312.241 130.607 312.583 130.338Z" fill="#0C4F47"/>
<path d="M312.894 134.336L312.654 134.348L312.966 140.803L313.206 140.791L312.894 134.336Z" fill="#0C4F47"/>
<path d="M315.488 134.468C315.06 134.388 314.304 134.708 313.679 135.45C313.055 136.191 312.822 137.042 312.953 137.492C313.374 137.587 314.137 137.253 314.762 136.511C315.379 135.769 315.597 134.919 315.488 134.468Z" fill="#0C4F47"/>
<path d="M310.091 134.73C310.512 134.613 311.297 134.853 311.987 135.529C312.677 136.206 312.997 137.027 312.909 137.492C312.503 137.623 311.704 137.369 311.014 136.693C310.316 136.017 310.018 135.188 310.091 134.73Z" fill="#0C4F47"/>
<path d="M310.244 137.892C310.665 137.776 311.449 138.016 312.139 138.692C312.83 139.368 313.149 140.189 313.062 140.655C312.655 140.786 311.856 140.531 311.166 139.855C310.469 139.179 310.178 138.35 310.244 137.892Z" fill="#0C4F47"/>
<path d="M315.641 137.63C315.212 137.55 314.457 137.87 313.832 138.612C313.207 139.353 312.975 140.204 313.106 140.655C313.527 140.749 314.29 140.415 314.914 139.673C315.532 138.932 315.75 138.081 315.641 137.63Z" fill="#0C4F47"/>
<path d="M313.187 140.682L312.947 140.694L313.259 147.149L313.498 147.137L313.187 140.682Z" fill="#0C4F47"/>
<path d="M315.793 140.785C315.365 140.705 314.609 141.025 313.984 141.767C313.36 142.508 313.127 143.359 313.258 143.81C313.679 143.904 314.442 143.57 315.067 142.828C315.684 142.087 315.902 141.229 315.793 140.785Z" fill="#0C4F47"/>
<path d="M310.396 141.047C310.817 140.931 311.602 141.171 312.292 141.847C312.982 142.523 313.302 143.344 313.214 143.81C312.808 143.941 312.009 143.686 311.319 143.01C310.621 142.327 310.323 141.498 310.396 141.047Z" fill="#0C4F47"/>
<path d="M310.549 144.21C310.97 144.093 311.754 144.333 312.445 145.009C313.135 145.685 313.454 146.507 313.367 146.972C312.96 147.103 312.161 146.849 311.471 146.173C310.774 145.496 310.476 144.668 310.549 144.21Z" fill="#0C4F47"/>
<path d="M315.946 143.948C315.517 143.868 314.762 144.188 314.137 144.929C313.512 145.671 313.28 146.522 313.411 146.972C313.832 147.067 314.595 146.732 315.219 145.991C315.837 145.249 316.055 144.399 315.946 143.948Z" fill="#0C4F47"/>
<path d="M313.505 146.971L313.266 146.983L313.577 153.438L313.817 153.426L313.505 146.971Z" fill="#0C4F47"/>
<path d="M318.001 199.681H311.246C308.551 199.681 306.423 197.376 306.641 194.686L310.149 151.538H319.091L322.599 194.686C322.825 197.376 320.696 199.681 318.001 199.681Z" fill="#3A8B78"/>
<path d="M320.013 151.669H309.234C308.602 151.669 308.094 151.16 308.094 150.527C308.094 149.895 308.602 149.386 309.234 149.386H320.013C320.645 149.386 321.154 149.895 321.154 150.527C321.154 151.153 320.645 151.669 320.013 151.669Z" fill="#0C4F47"/>
<path d="M315.975 160.226C316.076 156.605 316.258 152.985 316.447 149.372C316.636 145.758 316.89 142.145 317.115 138.532C317.391 134.919 317.638 131.306 317.951 127.7L318.43 122.291C318.619 120.488 318.779 118.685 318.982 116.882C318.938 118.692 318.851 120.502 318.786 122.312L318.51 127.736C318.321 131.349 318.067 134.962 317.842 138.576C317.558 142.189 317.319 145.802 317.006 149.408C316.694 153.014 316.374 156.62 315.975 160.226Z" fill="#0C4F47"/>
<path d="M316.316 156.082C315.771 148.848 315.561 141.607 315.43 134.366C315.328 127.125 315.314 119.884 315.633 112.636C316.178 119.869 316.389 127.111 316.52 134.352C316.614 141.593 316.629 148.834 316.316 156.082Z" fill="#0C4F47"/>
<path d="M315.394 162.872C315.844 159.273 316.367 155.689 316.912 152.112C317.449 148.528 318.052 144.959 318.619 141.382C319.243 137.812 319.839 134.242 320.493 130.68L321.488 125.337C321.844 123.563 322.178 121.782 322.556 120.008C322.338 121.803 322.076 123.599 321.837 125.395L321.045 130.767C320.507 134.352 319.905 137.921 319.338 141.498C318.713 145.068 318.118 148.637 317.464 152.2C316.803 155.769 316.142 159.324 315.394 162.872Z" fill="#0C4F47"/>
<path d="M314.057 112.745C314.057 113.167 313.716 113.508 313.294 113.508C312.873 113.508 312.532 113.167 312.532 112.745C312.532 112.323 312.873 111.981 313.294 111.981C313.716 111.981 314.057 112.323 314.057 112.745Z" stroke="#0C4F47" stroke-miterlimit="10"/>
<path d="M318.147 110.877C319.158 110.877 319.977 110.056 319.977 109.044C319.977 108.033 319.158 107.212 318.147 107.212C317.136 107.212 316.316 108.033 316.316 109.044C316.316 110.056 317.136 110.877 318.147 110.877Z" stroke="#0C4F47" stroke-miterlimit="10"/>
<path d="M321.829 118.481C322.162 118.481 322.432 118.211 322.432 117.877C322.432 117.544 322.162 117.274 321.829 117.274C321.497 117.274 321.227 117.544 321.227 117.877C321.227 118.211 321.497 118.481 321.829 118.481Z" stroke="#0C4F47" stroke-miterlimit="10"/>
<path d="M323.892 130.906C323.892 131.218 323.638 131.473 323.326 131.473C323.013 131.473 322.759 131.218 322.759 130.906C322.759 130.593 323.013 130.339 323.326 130.339C323.638 130.339 323.892 130.593 323.892 130.906Z" stroke="#0C4F47" stroke-miterlimit="10"/>
<path d="M309.394 126.115C309.939 126.115 310.382 125.672 310.382 125.126C310.382 124.58 309.939 124.137 309.394 124.137C308.848 124.137 308.406 124.58 308.406 125.126C308.406 125.672 308.848 126.115 309.394 126.115Z" stroke="#0C4F47" stroke-miterlimit="10"/>
<path d="M285.663 171.095H260.486V198.547H285.663V171.095Z" fill="#26968B"/>
<path d="M282.844 174.17H263.312V195.471H282.844V174.17Z" fill="#3A8B78"/>
<path d="M32.0455 45.8306H27.9922V225.213H32.0455V45.8306Z" fill="#3A8B78"/>
<path d="M50.699 231.764H9.34595C9.34595 227.336 18.6074 223.752 30.0261 223.752C41.4449 223.752 50.699 227.336 50.699 231.764Z" fill="#3A8B78"/>
<path d="M58.4641 48.2953H1.57364L2.62689 44.6021L2.83754 43.8751L4.74794 37.1866L4.95859 36.4596L15.3749 0H46.1156L55.4351 36.4596L55.6239 37.1866L57.3309 43.8751L57.5198 44.6021L58.4641 48.2953Z" fill="#3A8B78"/>
<path d="M5.30725 38.8223L3.3678 42.181H7.23943L5.30725 38.8223Z" fill="#1D615A"/>
<path d="M9.69461 42.181L7.75516 38.8223H11.6341L9.69461 42.181Z" fill="#1D615A"/>
<path d="M13.5662 38.8223L11.634 42.181H15.5057L13.5662 38.8223Z" fill="#1D615A"/>
<path d="M17.9609 42.181L16.0214 38.8223H19.8931L17.9609 42.181Z" fill="#1D615A"/>
<path d="M21.8325 38.8223L19.893 42.181H23.7647L21.8325 38.8223Z" fill="#1D615A"/>
<path d="M26.2199 42.181L24.2804 38.8223H28.1593L26.2199 42.181Z" fill="#1D615A"/>
<path d="M30.0915 38.8223L28.1593 42.181H32.0309L30.0915 38.8223Z" fill="#1D615A"/>
<path d="M34.4789 42.181L32.5467 38.8223H36.4183L34.4789 42.181Z" fill="#1D615A"/>
<path d="M38.3578 38.8223L36.4183 42.181H40.2899L38.3578 38.8223Z" fill="#1D615A"/>
<path d="M42.7451 42.181L40.8057 38.8223H44.6773L42.7451 42.181Z" fill="#1D615A"/>
<path d="M46.6168 38.8223L44.6773 42.181H48.5562L46.6168 38.8223Z" fill="#1D615A"/>
<path d="M51.0041 42.181L49.0719 38.8223H52.9436L51.0041 42.181Z" fill="#1D615A"/>
<path d="M54.8757 38.8223L52.9436 42.181H56.8152L54.8757 38.8223Z" fill="#1D615A"/>
<path d="M55.6239 37.1865H4.74793L4.95858 36.4595H55.4351L55.6239 37.1865Z" fill="#1D615A"/>
<path d="M57.5198 44.6021H2.62688L2.83753 43.8751H57.3309L57.5198 44.6021Z" fill="#1D615A"/>
<path d="M64.8847 154.707C66.3665 148.964 69.5554 143.831 72.8314 138.887C75.7369 134.496 78.7805 130.127 82.6158 126.521C86.4511 122.908 91.1798 120.065 96.3808 119.265C95.1096 123.366 93.8384 127.466 92.5672 131.566C91.2961 135.667 89.9813 139.854 87.4753 143.337C84.853 146.972 81.054 149.632 77.0008 151.537C72.9403 153.442 68.5965 154.642 64.2746 155.834" fill="#11E2CC"/>
<path d="M65.1541 154.781C67.3405 147.009 72.0911 139.942 76.8852 133.523C79.3622 130.2 82.0861 127.074 85.3839 124.552C86.9456 123.352 94.9141 118.067 95.7059 120.56C96.0545 121.665 94.1223 125.657 93.7955 126.711C93.1853 128.681 92.5897 130.651 91.965 132.614C90.7955 136.3 89.5243 140.03 87.2507 143.199C81.9045 150.622 72.5778 153.261 64.2098 155.573C63.8757 155.668 64.0137 156.191 64.3551 156.097C72.5342 153.836 81.4106 151.291 86.9965 144.413C92.5098 137.63 94.1296 127.467 96.6502 119.339C96.7155 119.128 96.5049 118.968 96.316 119.004C88.4493 120.444 82.3549 125.613 77.539 131.771C72.2291 138.561 66.9846 146.267 64.6311 154.643C64.5294 154.97 65.0524 155.115 65.1541 154.781Z" fill="#11E2CC"/>
<path d="M56.1687 174.01C61.9071 161.738 67.6383 149.459 73.3768 137.187C73.6746 136.554 72.7303 136.002 72.4325 136.634C66.694 148.906 60.9628 161.186 55.2244 173.457C54.9339 174.09 55.8709 174.643 56.1687 174.01Z" fill="#80B996"/>
<path d="M56.9968 147.598C57.3309 134.737 62.1832 121.738 65.4156 109.371C65.5028 109.03 64.9798 108.884 64.8926 109.226C61.6457 121.658 56.7934 134.664 56.4593 147.598C56.4448 147.947 56.9895 147.947 56.9968 147.598Z" fill="#80B996"/>
<path d="M48.3383 150.288C42.8614 145.417 37.3408 140.495 33.0479 134.548C28.7622 128.601 25.7477 121.469 25.9874 114.141C29.4813 119.688 36.8614 121.76 40.5006 127.212C41.6991 129.008 42.4183 131.08 43.1229 133.123C45.0986 138.845 47.0816 144.573 49.0574 150.295" fill="#11E2CC"/>
<path d="M48.5272 150.099C42.7814 144.988 36.9413 139.812 32.5757 133.414C30.4038 130.23 28.6242 126.747 27.5056 123.054C26.9245 121.135 26.5322 119.172 26.3434 117.18C26.1836 115.464 25.6751 114.846 26.9463 115.9C28.7477 117.398 30.2949 119.012 32.2271 120.379C34.8784 122.247 37.6822 123.999 39.6798 126.609C42.2585 129.975 43.3044 134.512 44.6773 138.481C46.0502 142.443 47.4158 146.406 48.7887 150.368C48.9049 150.695 49.4279 150.557 49.3116 150.222C47.7862 145.817 46.2681 141.418 44.7427 137.013C43.5441 133.537 42.6071 129.706 40.4352 126.674C36.658 121.396 29.9026 119.39 26.2126 113.995C26.0673 113.777 25.7041 113.85 25.7041 114.134C25.5879 129.735 37.3336 140.858 48.1349 150.477C48.4037 150.717 48.7959 150.331 48.5272 150.099Z" fill="#11E2CC"/>
<path d="M37.6895 123.556C46.6458 141.811 52.5295 161.375 55.1227 181.549C55.2099 182.233 56.2995 182.247 56.2123 181.549C53.5973 161.178 47.6773 141.447 38.6265 123.003C38.3214 122.37 37.3771 122.923 37.6895 123.556Z" fill="#80B996"/>
<path d="M53.851 107.197C49.3692 91.4715 49.5 74.4595 54.2287 58.7997C57.5193 63.5325 60.0398 68.8034 61.6669 74.3286C63.4829 80.4864 64.1875 87.0368 63.1197 93.369C62.0519 99.7013 59.1318 105.801 54.4467 110.185" fill="#11E2CC"/>
<path d="M54.113 107.125C51.8177 98.8226 50.6845 90.2657 50.8806 81.6506C50.9896 77.0341 51.4545 72.4321 52.2971 67.8883C52.6603 65.9327 53.0961 63.9915 53.59 62.065C54.4399 58.7861 55.0356 60.4074 56.2995 62.5884C64.7037 77.0414 67.1662 97.3468 54.2438 109.997C53.9896 110.244 54.3745 110.629 54.6288 110.382C68.9531 96.3581 64.6674 73.7408 54.4544 58.6625C54.3237 58.4735 54.0259 58.4953 53.9532 58.728C49.2971 74.5986 49.1736 91.3271 53.5755 107.27C53.6845 107.605 54.2075 107.46 54.113 107.125Z" fill="#11E2CC"/>
<path d="M66.527 150.288C65.3357 142.378 67.878 134.264 71.9966 127.409C76.1152 120.553 81.7447 114.751 87.3234 109.022C88.6817 119.942 86.3645 131.291 80.8367 140.8C79.3186 143.417 77.5172 145.94 75.1056 147.765C72.694 149.59 69.585 150.666 66.6141 150.128" fill="#80B996"/>
<path d="M66.803 150.288C65.7642 142.022 68.2485 134.024 72.5632 127.009C74.7569 123.446 77.3719 120.168 80.1394 117.034C81.3961 115.617 82.689 114.221 83.9965 112.847C84.5558 112.258 85.1079 111.516 85.7471 111.022C86.7277 110.266 86.6042 109.735 87.2289 110.84C87.8246 111.88 87.425 114.541 87.4105 115.726C87.3887 117.558 87.2725 119.39 87.0619 121.215C86.5824 125.228 85.6309 129.212 84.2072 132.999C81.3961 140.495 76.1152 150.942 66.5996 149.859C66.2509 149.822 66.2582 150.368 66.5996 150.404C75.3162 151.4 80.4881 142.959 83.5462 136.038C87.3088 127.539 88.6091 118.234 87.5776 109.023C87.5558 108.804 87.2943 108.644 87.1127 108.826C76.1733 120.08 64.1081 133.319 66.2437 150.288C66.3018 150.629 66.8466 150.637 66.803 150.288Z" fill="#80B996"/>
<path d="M58.0568 136.147C57.3812 126.477 59.3279 116.764 62.5095 107.604C65.6911 98.4437 70.093 89.7705 74.4803 81.1191C77.3931 91.0137 78.3229 101.65 75.8677 111.668C73.4125 121.686 67.3472 131.007 58.4781 136.256" fill="#80B996"/>
<path d="M58.3334 136.147C57.7595 126.18 59.6917 116.387 63.0113 107.023C64.7764 102.043 66.8974 97.1941 69.171 92.4249C70.2606 90.1275 71.3938 87.852 72.5342 85.5837C72.6649 85.322 73.8199 82.4794 74.0959 82.4939C75.0112 82.5303 75.0693 84.3042 75.2581 85.0966C79.6528 103.701 75.6286 125.38 58.3406 136.024C58.0428 136.205 58.3188 136.678 58.6167 136.496C77.5898 124.82 80.3937 100.895 74.7497 81.0472C74.6916 80.829 74.3574 80.7636 74.2485 80.9817C65.51 98.2191 56.6409 116.285 57.7886 136.147C57.8104 136.496 58.3552 136.504 58.3334 136.147Z" fill="#80B996"/>
<path d="M52.1809 101.331C56.5319 126.682 57.2946 152.483 54.4835 178.052C54.4036 178.75 55.5005 178.743 55.5731 178.052C58.3915 152.389 57.5924 126.485 53.2341 101.04C53.1106 100.349 52.0646 100.64 52.1809 101.331Z" fill="#80B996"/>
<path d="M53.9961 109.596C49.8194 106.106 46.1802 100.181 45.1996 94.8305C44.219 89.4797 44.5095 83.9762 44.8437 78.5454C45.1851 73.1147 45.5701 67.633 44.7856 62.2458C48.8606 67.7348 52.2891 73.7035 54.984 79.9922C57.0252 84.7541 58.6595 89.7777 58.8411 94.9541C59.0227 100.13 57.6281 105.51 54.2068 109.4" fill="#80B996"/>
<path d="M54.1929 109.408C47.4376 103.446 44.8444 95.5582 44.8081 86.7251C44.7935 82.632 45.164 78.5535 45.3674 74.4749C45.4691 72.432 45.5417 70.3891 45.5127 68.3462C45.5054 67.7573 44.9461 63.6425 45.3093 63.4244C46.6168 62.6392 55.8636 82.8137 56.3794 84.2968C59.2704 92.5775 59.8951 102.05 54.0186 109.212C53.8007 109.481 54.1784 109.866 54.4036 109.597C66.0475 95.4056 53.9823 74.3804 45.0187 62.1157C44.8807 61.9267 44.4739 61.9558 44.5102 62.2539C45.7233 71.7704 43.6604 81.2725 44.4085 90.7963C44.9897 98.2191 48.193 104.849 53.8007 109.793C54.0695 110.026 54.4544 109.64 54.1929 109.408Z" fill="#80B996"/>
<path d="M47.8582 146.928C49.9647 139.52 48.7226 129.422 45.1924 122.573C41.6621 115.732 36.1634 110.069 30.0618 105.372C30.3959 113.267 31.0061 121.272 33.6356 128.724C36.2724 136.183 40.805 143.373 47.8582 146.928Z" fill="#80B996"/>
<path d="M48.1204 147.002C52.5223 130.128 43.1083 115.246 30.2586 105.184C30.0915 105.053 29.7792 105.118 29.7937 105.38C30.462 120.466 32.9026 139.23 47.7209 147.169C48.0332 147.336 48.302 146.863 47.9969 146.696C41.2633 143.09 36.9413 136.685 34.2755 129.67C32.9026 126.056 32.0237 122.269 31.4426 118.452C31.0503 115.864 30.8034 113.261 30.6218 110.651C30.5636 109.8 30.3966 108.863 30.462 108.012C30.5564 106.776 30.0842 106.42 31.3046 106.703C32.5322 106.987 34.537 109.466 35.4304 110.317C36.7524 111.574 38.0164 112.897 39.2076 114.279C41.8662 117.361 44.2124 120.793 45.8032 124.551C48.7378 131.458 49.5005 139.579 47.5974 146.856C47.5102 147.198 48.0332 147.343 48.1204 147.002Z" fill="#80B996"/>
<path d="M78.6431 204.835C78.6431 217.136 73.8707 227.853 66.8175 233.429H44.5756C37.5224 227.853 32.7501 217.136 32.7501 204.835C32.7501 193.341 36.9195 183.229 43.2173 177.398H68.1686C74.4736 183.229 78.6431 193.334 78.6431 204.835Z" fill="#3A8B78"/>
<path d="M45.3529 189.27L39.382 199.63H51.331L45.3529 189.27Z" fill="#3A8B78" stroke="#E6CAA6" stroke-miterlimit="10"/>
<path d="M45.3529 191.8L41.5611 198.372H49.1446L45.3529 191.8Z" fill="#3A8B78" stroke="#E6CAA6" stroke-width="0.5" stroke-miterlimit="10"/>
<path d="M53.9823 223.287L46.762 227.46V219.121L53.9823 223.287Z" fill="#3A8B78" stroke="#E6CAA6" stroke-width="0.75" stroke-miterlimit="10"/>
<path d="M51.5852 223.287L47.9606 225.381V221.193L51.5852 223.287Z" fill="#3A8B78" stroke="#E6CAA6" stroke-width="0.5" stroke-miterlimit="10"/>
<path d="M64.1081 180.444L58.3261 190.47H69.8974L64.1081 180.444Z" fill="#3A8B78" stroke="#E6CAA6" stroke-miterlimit="10"/>
<path d="M64.1081 184.247L61.6166 188.565H66.6069L64.1081 184.247Z" fill="#3A8B78" stroke="#E6CAA6" stroke-width="0.5" stroke-miterlimit="10"/>
<path d="M64.1081 224.472L57.469 209.197H70.7545L64.1081 224.472Z" fill="#3A8B78" stroke="#E6CAA6" stroke-miterlimit="10"/>
<path d="M64.1081 220.75L59.8951 211.059H68.3284L64.1081 220.75Z" fill="#3A8B78" stroke="#E6CAA6" stroke-width="0.5" stroke-miterlimit="10"/>
<path d="M42.0914 211.56C42.0914 210.543 42.9195 209.714 43.9364 209.714C44.9533 209.714 45.7814 210.543 45.7814 211.56C45.7814 212.578 44.9533 213.407 43.9364 213.407C42.9195 213.407 42.0914 212.578 42.0914 211.56Z" fill="#3A8B78" stroke="#E6CAA6" stroke-miterlimit="10"/>
<path d="M64.1081 202.254C65.7449 202.254 67.0718 200.926 67.0718 199.288C67.0718 197.65 65.7449 196.322 64.1081 196.322C62.4713 196.322 61.1445 197.65 61.1445 199.288C61.1445 200.926 62.4713 202.254 64.1081 202.254Z" fill="#3A8B78" stroke="#E6CAA6" stroke-miterlimit="10"/>
<path d="M52.1663 184.894C52.8042 184.894 53.3213 184.376 53.3213 183.738C53.3213 183.099 52.8042 182.582 52.1663 182.582C51.5285 182.582 51.0114 183.099 51.0114 183.738C51.0114 184.376 51.5285 184.894 52.1663 184.894Z" fill="#3A8B78" stroke="#E6CAA6" stroke-miterlimit="10"/>
<g opacity="0.25">
<path opacity="0.25" d="M69.8393 179.114C65.8587 198.794 56.7353 217.42 43.5732 232.571C43.9001 232.862 44.2342 233.16 44.5756 233.429H66.8175C73.8707 227.853 78.6431 217.136 78.6431 204.835C78.6431 194.388 75.2 185.097 69.8393 179.114Z" fill="#3A8B78"/>
</g>
<path d="M68.1323 177.398H43.2609C42.5054 177.398 41.8953 176.787 41.8953 176.031V175.748C41.8953 174.992 42.5054 174.381 43.2609 174.381H68.1323C68.8877 174.381 69.4979 174.992 69.4979 175.748V176.031C69.5052 176.787 68.8877 177.398 68.1323 177.398Z" fill="#26968B"/>
<path d="M69.7158 144.85C70.4131 142.48 71.292 140.16 72.2727 137.885C73.246 135.609 74.3647 133.392 75.5632 131.225C76.7835 129.066 78.091 126.965 79.5293 124.951C80.2556 123.948 80.9893 122.952 81.752 121.978C82.5365 121.018 83.3137 120.066 84.1491 119.15C83.8004 119.659 83.4445 120.168 83.0813 120.662L82.0353 122.189C81.3379 123.207 80.6551 124.232 79.9941 125.264C78.6721 127.343 77.3937 129.437 76.1951 131.582C74.9821 133.719 73.8634 135.907 72.7739 138.118C71.6916 140.335 70.6964 142.589 69.7158 144.85Z" fill="#11E2CC"/>
<path d="M52.268 103.345C51.8685 101.113 51.5489 98.8734 51.2438 96.6342C50.9315 94.395 50.67 92.1486 50.4085 89.9094C50.1688 87.6629 49.9291 85.4165 49.7402 83.1627L49.4642 79.7821C49.3988 78.6553 49.3117 77.5211 49.2681 76.3943C49.4715 77.5066 49.6313 78.6262 49.8201 79.7458L50.2923 83.1046C50.6046 85.3438 50.8661 87.5902 51.1276 89.8367C51.3673 92.0831 51.607 94.3296 51.7959 96.5906C51.992 98.8298 52.1663 101.084 52.268 103.345Z" fill="#11E2CC"/>
<path d="M35.2198 116.031C36.4546 117.957 37.5515 119.964 38.5829 122.007C39.6217 124.05 40.5369 126.143 41.394 128.274C42.2294 130.404 42.9994 132.563 43.6531 134.759C43.9727 135.856 44.2851 136.961 44.5683 138.066C44.8298 139.179 45.0986 140.291 45.3093 141.418L44.2269 138.168C43.871 137.085 43.5006 136.009 43.1228 134.933C42.3529 132.788 41.5684 130.651 40.7258 128.543C39.8977 126.427 38.997 124.333 38.089 122.247C37.1592 120.16 36.1931 118.103 35.2198 116.031Z" fill="#11E2CC"/>
<path d="M61.3333 126.885C62.4737 124.115 63.6069 121.353 64.6747 118.561C65.7425 115.769 66.7957 112.978 67.74 110.149C68.7424 107.336 69.6359 104.486 70.5076 101.636C70.9434 100.211 71.3647 98.779 71.7787 97.3395L73.0063 93.0211C72.7521 94.4969 72.4325 95.9582 72.1201 97.4268C71.7787 98.8881 71.4155 100.342 71.0451 101.789C70.2751 104.69 69.3744 107.547 68.4228 110.389C67.4204 113.21 66.3672 116.024 65.1832 118.779C64.0064 121.52 62.7425 124.239 61.3333 126.885Z" fill="#11E2CC"/>
<path d="M197.436 97.652H142.427C129.105 97.652 118.304 108.463 118.304 121.796V180.822H221.567V121.796C221.567 108.463 210.765 97.652 197.436 97.652Z" fill="#5C6193"/>
<path d="M209.341 167.83H130.521V180.822H209.341V167.83Z" fill="#4E5567"/>
<path d="M209.341 180.822H124.413V213.843H209.341V180.822Z" fill="#276B6B"/>
<path d="M216.068 218.736H123.802C121.1 218.736 118.914 216.548 118.914 213.843H220.956C220.956 216.548 218.763 218.736 216.068 218.736Z" fill="#3F414E"/>
<path d="M121.362 234.025H118.304L123.802 218.736H128.081L121.362 234.025Z" fill="#3F414E"/>
<path d="M218.508 234.025H221.567L216.068 218.736H211.789L218.508 234.025Z" fill="#3F414E"/>
<path d="M109.543 107.125C106.587 105.155 104.103 102.349 102.933 98.9897C101.764 95.631 102.025 91.7051 104.008 88.7534C105.991 85.8018 109.776 84.0424 113.241 84.8348C113.386 80.1529 117.686 76.7432 121.848 74.5985C126.432 72.2357 131.219 70.869 135.904 73.0136C138.512 74.2132 141.257 76.1616 142.638 78.6843C144.018 81.1998 144.839 83.977 145.638 86.7396C148.914 84.7912 153.374 85.0893 156.366 87.4521C159.359 89.8149 160.674 94.0897 159.541 97.732C163.245 96.1617 167.734 95.4637 171.141 97.6084C174.722 99.8622 175.957 104.493 176.204 108.724C176.414 112.359 176.051 116.213 173.988 119.208C171.548 122.756 167.226 124.428 163.136 125.773C156.061 128.092 148.776 130.033 141.33 130.251C133.885 130.469 126.214 128.855 120.112 124.588C114.003 120.32 109.696 113.166 109.914 105.715" fill="#4E5567"/>
<path d="M105.643 112.417C101.938 112.614 98.4225 114.962 96.8172 118.314C95.2119 121.665 95.5751 125.874 97.7325 128.892C94.6526 128.935 91.6672 130.767 90.2289 133.493C88.7907 136.22 88.9723 139.717 90.672 142.283C92.1102 144.45 94.4565 145.86 96.8899 146.776C103.638 149.313 111.309 148.455 118.006 145.787C121.856 144.253 125.553 142.08 128.146 138.852C130.739 135.624 132.09 131.211 130.972 127.219C130.187 124.435 128.291 122.072 126.054 120.255C123.81 118.437 121.216 117.107 118.638 115.82C114.192 113.602 109.536 111.407 104.568 111.32" fill="#3F4553"/>
<path d="M127.471 161.251H106.086C99.3378 161.251 93.8681 155.777 93.8681 149.023C93.8681 142.269 99.3378 136.794 106.086 136.794H123.032C125.488 136.794 127.478 138.786 127.478 141.244V161.251H127.471Z" fill="#276B6B"/>
<path d="M130.521 213.843H116.292C111.33 213.843 107.306 209.815 107.306 204.85V136.787H121.536C126.497 136.787 130.521 140.815 130.521 145.78V213.843Z" fill="#276B6B"/>
<path d="M133.035 75.878C134.967 75.42 137.146 75.7689 138.86 76.9467C139.703 77.5356 140.444 78.2989 140.916 79.2077C141.199 79.6366 141.345 80.131 141.526 80.5963C141.664 81.0761 141.759 81.5778 141.839 82.0576C141.599 81.6141 141.446 81.1488 141.199 80.7272C140.945 80.3128 140.742 79.8766 140.437 79.5058C139.906 78.7206 139.216 78.0663 138.446 77.5356C137.684 76.9976 136.812 76.6123 135.904 76.3433C134.989 76.0961 134.03 75.9216 133.035 75.878Z" fill="white"/>
<path d="M165.373 99.8184C167.407 99.782 169.514 100.538 171.054 101.999C171.446 102.356 171.758 102.792 172.071 103.213C172.318 103.686 172.608 104.13 172.746 104.638C172.95 105.126 173.015 105.649 173.095 106.158C173.146 106.674 173.124 107.19 173.109 107.692C172.884 106.696 172.659 105.722 172.223 104.849C171.824 103.962 171.257 103.17 170.553 102.516C169.862 101.847 169.049 101.301 168.177 100.858C167.284 100.436 166.354 100.066 165.373 99.8184Z" fill="white"/>
<path d="M153.134 89.146C153.584 89.2114 154.013 89.3714 154.427 89.5749C154.841 89.7785 155.219 90.0475 155.553 90.3601C155.887 90.68 156.163 91.0726 156.352 91.4942C156.548 91.9159 156.62 92.3885 156.606 92.8392C156.461 92.4103 156.337 91.9886 156.097 91.6251C155.865 91.2616 155.611 90.9199 155.291 90.6218C154.674 90.0257 153.933 89.5531 153.134 89.146Z" fill="white"/>
<path d="M164.189 120.691C165.105 117.361 164.807 113.596 162.875 110.731C160.942 107.867 157.238 106.136 153.897 107.009C154.921 104.602 153.439 101.731 151.274 100.255C149.117 98.7791 146.444 98.3211 143.887 97.7395C136.376 96.031 129.178 92.9412 122.764 88.6736C119.517 86.5144 118.979 87.0015 117.447 83.5191C116.531 84.8641 114.737 87.0524 114.686 88.7173C111.788 86.0709 105.977 85.7947 104.001 88.7463C102.018 91.698 101.757 95.6239 102.926 98.9827C104.096 102.341 106.58 105.148 109.536 107.118L109.899 105.708C109.681 113.159 113.989 120.313 120.098 124.581C126.207 128.848 133.877 130.462 141.316 130.244C148.18 130.041 154.906 128.376 161.458 126.296C162.671 124.573 163.637 122.705 164.189 120.691Z" fill="#3F4553"/>
<path d="M123.919 145.78V205.41H112.296V155.115H109.108C105.744 155.115 103.021 152.389 103.021 149.023C103.021 145.657 105.744 142.93 109.108 142.93H121.071C122.647 142.93 123.919 144.203 123.919 145.78Z" stroke="#26968B" stroke-miterlimit="10"/>
<path d="M136.093 96.438C135.606 92.6284 138.018 89.1824 141.475 88.7389C144.94 88.2954 148.144 91.0145 148.638 94.824C149.124 98.6335 146.713 102.08 143.255 102.523C139.79 102.967 136.587 100.24 136.093 96.438Z" fill="#26968B"/>
<path d="M136.093 96.4398C136.58 100.249 139.79 102.976 143.255 102.525C144.693 102.343 145.943 101.631 146.887 100.606C142.587 97.8429 141.831 90.9872 141.693 88.7262C141.621 88.7335 141.555 88.7335 141.483 88.7407C138.018 89.1842 135.606 92.6302 136.093 96.4398Z" fill="#26968B"/>
<path d="M126.861 112.178L129.301 123.185L137.858 125.628C137.858 125.628 140.916 122.567 140.916 121.956C140.916 121.345 136.638 109.728 136.638 109.728L126.861 112.178Z" fill="#FDBCA0"/>
<path d="M136.63 109.735L126.853 112.178L127.689 115.936C129.439 116.693 131.415 117.252 133.667 117.529C134.894 117.681 136.158 117.449 137.233 116.823C137.785 116.504 138.301 116.111 138.795 115.697C137.72 112.694 136.63 109.735 136.63 109.735Z" fill="#DF8370"/>
<path d="M113.415 90.1638C113.415 90.1638 112.195 114.017 133.58 115.238C140.299 112.796 144.577 103.621 143.357 96.278C142.136 88.9425 134.19 76.7069 122.582 80.3783C116.473 82.8283 113.415 90.1638 113.415 90.1638Z" fill="#FDBCA0"/>
<path d="M181.238 117.689L196.775 98.6773C197.393 97.9212 197.734 96.9761 197.734 95.9946V90.8329C197.734 90.4403 197.988 90.084 198.359 89.9605C198.954 89.7642 199.564 90.2076 199.564 90.8329V94.4534L205.063 84.6678L212.392 84.0571L202.615 101.178L187.949 126.864L181.238 117.689Z" fill="#FDBCA0"/>
<path d="M249.67 100.56L275.334 109.124L283.229 102.465C286.186 99.9713 290.522 99.7314 293.595 102.08C295.375 103.439 296.312 105.351 294.27 107.903C289.382 114.017 275.326 120.742 275.326 120.742L246.605 114.628L249.67 100.56Z" fill="#FDBCA0"/>
<path opacity="0.5" d="M246.62 114.628L260.879 117.667C261.794 112.527 261.082 107.336 260.421 104.152L249.678 100.568L246.62 114.628Z" fill="#DF8370"/>
<path d="M170.85 144.595C170.85 144.595 203.022 108.819 217.412 96.6051C219.809 94.5695 222.918 93.5807 226.056 93.8352C236.675 94.693 258.837 98.728 258.837 98.728C258.837 98.728 263.116 114.628 255.169 123.803C250.281 123.192 228.286 118.91 228.286 118.91L183.678 167.83L170.85 144.595Z" fill="#26968B"/>
<path d="M256.389 131.749L277.164 154.984L294.488 157.958C297.706 158.51 299.726 161.913 298.447 164.922C297.619 166.864 295.636 169.481 291.22 168.441C280.832 165.998 271.055 162.938 271.055 162.938L246.612 143.367L256.389 131.749Z" fill="#FDBCA0"/>
<path opacity="0.5" d="M269.188 146.064L256.389 131.749L246.612 143.367L263.697 157.049C266.515 154.134 268.905 150.419 269.188 146.064Z" fill="#DF8370"/>
<path opacity="0.2" d="M217.274 103.679L172.361 147.321L183.686 167.83L228.293 118.91C228.293 118.91 250.288 123.192 255.176 123.803C255.685 123.221 256.135 122.603 256.549 121.97C248.559 115.435 239.022 107.932 231.918 102.69C227.443 99.3968 221.254 99.8112 217.274 103.679Z" fill="#BF00E3"/>
<path d="M153.134 164.159C153.134 164.159 164.131 180.059 180.017 178.227C194.85 176.511 211.274 155.079 222.838 136.816C224.022 134.94 226.673 134.73 228.148 136.38C237.242 146.58 253.339 161.716 253.339 161.716C253.339 161.716 268.614 154.381 268.614 142.756C264.401 137.696 246.823 119.55 236.312 108.768C231.78 104.115 224.443 103.715 219.424 107.838L170.233 148.259L153.134 164.159Z" fill="#26968B"/>
<g opacity="0.5">
<path opacity="0.5" d="M180.017 178.227C194.85 176.511 211.274 155.079 222.838 136.816C224.022 134.94 226.673 134.73 228.148 136.38C237.242 146.58 253.339 161.716 253.339 161.716C253.339 161.716 256.898 160 260.581 156.925C252.394 148.768 243.721 141.105 234.612 134.003C231.663 131.705 228.162 129.335 224.494 130.062C221.305 130.702 219.061 133.486 217.107 136.089C212.879 141.716 208.659 147.343 204.431 152.97C199.819 159.114 194.945 165.475 188.037 168.826C182.146 171.676 175.078 171.996 168.954 169.692C164.204 167.903 160.078 164.544 157.281 160.313L153.134 164.166C153.134 164.159 164.131 180.059 180.017 178.227Z" fill="#DD3DFB"/>
</g>
<path d="M212.4 161.251H233.784C240.532 161.251 246.002 155.777 246.002 149.023C246.002 142.269 240.532 136.794 233.784 136.794H216.838C214.383 136.794 212.392 138.786 212.392 141.244V161.251H212.4Z" fill="#276B6B"/>
<path d="M209.341 213.843H223.571C228.533 213.843 232.557 209.815 232.557 204.85V136.787H218.327C213.366 136.787 209.341 140.815 209.341 145.78V213.843Z" fill="#276B6B"/>
<path d="M215.421 145.78V205.41H227.044V155.115H230.232C233.596 155.115 236.319 152.389 236.319 149.023C236.319 145.657 233.596 142.93 230.232 142.93H218.269C216.693 142.93 215.421 144.203 215.421 145.78Z" stroke="#26968B" stroke-miterlimit="10"/>
<path d="M118.914 101.171L108.527 104.232C108.527 104.232 111.585 114.628 126.86 121.353L128.691 120.742C128.691 120.742 137.241 125.533 139.383 117.325C142.841 116.118 147.192 115.115 150.599 114.424C154.122 113.712 157.775 114.272 160.921 115.995L173.138 122.705C174.293 123.337 175.739 123.068 176.589 122.058L184.906 112.178L193.39 118.568L181.63 137.303C180.867 138.525 179.291 138.954 178.013 138.292L166.579 132.36L173.298 142.756C173.298 142.756 172.688 161.716 153.134 164.159C146.415 157.434 137.858 148.87 132.969 145.199C128.081 141.527 112.195 131.131 107.916 126.849C103.638 122.567 92.6405 107.278 92.0303 99.3315C92.0303 95.0494 116.473 91.9959 116.473 91.9959L118.914 101.171Z" fill="#63C2BC"/>
<path d="M115.006 125.031C102.236 116.271 96.8245 104.828 94.5364 96.9541C92.9964 97.6884 92.0303 98.4881 92.0303 99.3387C92.6405 107.292 103.638 122.574 107.916 126.856C112.195 131.138 128.081 141.534 132.969 145.206C133.841 145.86 134.836 146.674 135.904 147.605C133.296 142.065 127.558 133.646 115.006 125.031Z" fill="#26968B"/>
<path d="M154.913 124.464C155.422 124.319 155.945 124.239 156.475 124.195C157.005 124.144 157.536 124.152 158.073 124.203C159.134 124.304 160.209 124.573 161.175 125.097C162.148 125.591 163.005 126.347 163.63 127.241C163.979 127.67 164.204 128.172 164.458 128.652C164.698 129.139 164.829 129.67 165.017 130.179L164.967 130.077C165.562 130.884 166.114 131.727 166.688 132.549C167.262 133.377 167.8 134.221 168.337 135.079C167.662 134.33 166.993 133.574 166.361 132.803C165.729 132.025 165.068 131.262 164.458 130.469L164.436 130.448L164.4 130.368C164.204 129.902 164.051 129.415 163.826 128.957C163.579 128.521 163.376 128.056 163.049 127.67C162.78 127.249 162.417 126.907 162.068 126.544C161.676 126.238 161.306 125.904 160.855 125.671C159.991 125.17 159.032 124.806 158.015 124.632C157.005 124.457 155.959 124.377 154.913 124.464Z" fill="#DD3DFB"/>
<path d="M130.892 97.9938C131.429 98.8444 131.894 100.56 133.253 100.291C133.718 100.197 133.936 99.8404 134.291 99.5642C135.541 98.59 136.195 100.088 135.308 100.909C134.851 101.331 134.212 101.433 133.623 101.498C133.282 101.534 133.275 102.08 133.623 102.043C134.48 101.949 135.381 101.752 135.933 101.025C136.376 100.444 136.463 99.6441 135.977 99.0625C135.526 98.5391 134.858 98.4519 134.291 98.8299C133.761 99.1789 133.463 100.008 132.599 99.6369C131.982 99.3752 131.691 98.2338 131.364 97.7176C131.175 97.4268 130.703 97.6958 130.892 97.9938Z" fill="#444359"/>
<path d="M128.008 106.013C130.848 108.397 134.8 107.881 136.899 104.813C137.095 104.522 136.623 104.246 136.427 104.537C134.546 107.292 130.957 107.779 128.393 105.627C128.124 105.402 127.739 105.787 128.008 106.013Z" fill="#444359"/>
<path d="M121.42 96.3798C122.081 94.6786 123.752 93.7407 125.553 94.0606C125.894 94.1188 126.04 93.5953 125.698 93.5372C123.592 93.1664 121.667 94.2424 120.897 96.2416C120.766 96.5615 121.296 96.6997 121.42 96.3798Z" fill="#444359"/>
<path d="M123.156 101.214L121.71 100.378L123.374 100.524L123.156 101.214Z" fill="#444359"/>
<path d="M123.505 101.418C124.275 99.3386 126.396 98.379 128.488 99.0842C128.822 99.1932 128.967 98.6698 128.633 98.5607C126.25 97.761 123.846 98.9315 122.982 101.28C122.858 101.6 123.381 101.745 123.505 101.418Z" fill="#444359"/>
<path d="M124.449 99.2149L123.802 97.3174L125.081 98.8587L124.449 99.2149Z" fill="#444359"/>
<path d="M127.434 98.6261L127.877 97.3174L128.161 98.6769L127.434 98.6261Z" fill="#444359"/>
<path d="M138.432 94.1624L139.449 92.832L139.093 94.4678L138.432 94.1624Z" fill="#444359"/>
<path d="M139.209 94.3515C136.906 93.45 134.444 94.4606 133.463 96.7288C133.325 97.0487 133.797 97.325 133.935 97.0051C134.829 94.9404 136.965 94.0534 139.071 94.875C139.391 95.0058 139.529 94.4751 139.209 94.3515Z" fill="#444359"/>
<path d="M136.057 94.3151L135.773 92.3303L136.747 94.0824L136.057 94.3151Z" fill="#444359"/>
<path d="M133.856 96.4742L133.035 95.3546L134.306 95.9072L133.856 96.4742Z" fill="#444359"/>
<path d="M198.62 100.567L205.848 77.8847C206.036 77.2958 206.574 76.8887 207.199 76.8742L220.165 76.5325C221.16 76.5034 221.886 77.4631 221.596 78.4154L214.39 101.978C214.194 102.61 213.598 103.032 212.937 103.01L199.949 102.479C198.991 102.421 198.33 101.483 198.62 100.567Z" fill="#3F4553"/>
<path d="M197.4 100.568L204.627 77.8848C204.816 77.2959 205.354 76.8888 205.978 76.8743L218.944 76.5326C219.939 76.5035 220.666 77.4631 220.375 78.4155L213.17 101.978C212.973 102.61 212.378 103.032 211.717 103.01L198.729 102.48C197.763 102.421 197.109 101.484 197.4 100.568Z" fill="#4E5567"/>
<path d="M218.022 80.2257L213.191 96.0091L212.501 98.2774L212.174 99.3461C212.058 99.7241 211.768 100.008 211.419 100.124C211.281 100.168 211.143 100.189 210.998 100.182L208.288 100.073L200.458 99.7532C199.673 99.7169 199.143 98.9535 199.376 98.212L203.116 86.4635L204.533 82.0214L205.245 79.7968C205.274 79.7023 205.317 79.6078 205.375 79.5278C205.579 79.2006 205.935 78.9898 206.334 78.9753L206.712 78.968L216.86 78.699C217.666 78.6772 218.254 79.4551 218.022 80.2257Z" fill="#F2EDE4"/>
<g opacity="0.35">
<path opacity="0.35" d="M213.191 96.0091L212.501 98.2774L205.375 79.5278C205.579 79.2006 205.935 78.9898 206.334 78.9753L206.712 78.968L213.191 96.0091Z" fill="white"/>
</g>
<g opacity="0.35">
<path opacity="0.35" d="M211.419 100.124C211.281 100.168 211.143 100.189 210.998 100.182L208.288 100.073L203.116 86.4635L204.533 82.0215L211.419 100.124Z" fill="white"/>
</g>
<path d="M116.248 104.69C118.769 98.9608 119.437 92.4322 118.137 86.3035C119.045 89.2188 122.219 90.8691 125.248 91.2545C128.277 91.6398 131.35 91.1018 134.4 91.2545C137.451 91.4071 140.749 92.4831 142.289 95.1221C142.572 95.602 142.885 96.1981 143.437 96.2417C144.127 96.2999 144.533 95.4857 144.679 94.8095C145.805 89.7423 143.727 84.1806 139.768 80.8218C135.81 77.4631 130.202 76.2926 125.139 77.434C120.076 78.5754 115.616 81.9051 112.754 86.2308C110.96 88.9426 109.747 92.076 109.565 95.3257C109.384 98.5682 110.284 101.92 112.311 104.457C112.812 105.082 113.43 105.686 114.214 105.86C114.999 106.035 115.957 105.591 116.081 104.791" fill="#3F4553"/>
<path d="M116.179 111.997C119.937 111.23 122.315 107.33 121.491 103.286C120.667 99.2413 116.953 96.5846 113.195 97.3515C109.438 98.1185 107.059 102.019 107.883 106.063C108.707 110.107 112.421 112.764 116.179 111.997Z" fill="#26968B"/>
<path d="M111.941 101.672C107.815 89.0806 112.979 84.3333 113.212 84.0279L113.364 84.0134H113.401L113.553 84.0061C113.379 84.246 111.301 89.9531 114.694 100.306L111.941 101.672Z" fill="#26968B"/>
<path d="M120.65 108.71C109.972 111.545 108.214 105.824 108.236 101.694C107.728 103.025 107.582 104.537 107.895 106.071C108.723 110.12 112.434 112.774 116.19 112.01C118.129 111.603 119.698 110.367 120.65 108.71Z" fill="#26968B"/>
</svg>
