<svg width="24" height="24" viewBox="0 0 24 24" fill="none" xmlns="http://www.w3.org/2000/svg">
<path d="M23.6889 12.3888L12.89 0.380076C12.4352 -0.126692 11.5617 -0.126692 11.107 0.380076L0.308055 12.3888C0.1529 12.5613 0.0510261 12.7751 0.0147608 13.0044C-0.0215045 13.2336 0.00939296 13.4685 0.103715 13.6806C0.198036 13.8926 0.351739 14.0728 0.546226 14.1992C0.740712 14.3256 0.967645 14.393 1.19957 14.393H3.59933V22.7991C3.59933 23.1176 3.72574 23.4231 3.95076 23.6483C4.17579 23.8735 4.48098 24 4.79921 24H19.1978C19.516 24 19.8212 23.8735 20.0462 23.6483C20.2712 23.4231 20.3977 23.1176 20.3977 22.7991V14.393H22.7974C23.0298 14.394 23.2574 14.3273 23.4526 14.2011C23.6477 14.0748 23.802 13.8945 23.8965 13.682C23.991 13.4695 24.0217 13.2341 23.9848 13.0045C23.948 12.7749 23.8452 12.5609 23.6889 12.3888ZM11.9985 16.7948C11.0438 16.7948 10.1282 16.4152 9.45316 15.7396C8.7781 15.064 8.39885 14.1476 8.39885 13.1922C8.39885 12.2367 8.7781 11.3204 9.45316 10.6447C10.1282 9.96911 11.0438 9.58955 11.9985 9.58955C12.9532 9.58955 13.8688 9.96911 14.5438 10.6447C15.2189 11.3204 15.5981 12.2367 15.5981 13.1922C15.5981 14.1476 15.2189 15.064 14.5438 15.7396C13.8688 16.4152 12.9532 16.7948 11.9985 16.7948Z" fill="#D70404"/>
</svg>
