<svg width="25" height="24" viewBox="0 0 25 24" fill="none" xmlns="http://www.w3.org/2000/svg">
<path d="M12.5 0C9.3174 0 6.26516 1.26428 4.01472 3.51472C1.76428 5.76516 0.5 8.8174 0.5 12C0.5 15.1826 1.76428 18.2348 4.01472 20.4853C6.26516 22.7357 9.3174 24 12.5 24C15.6826 24 18.7348 22.7357 20.9853 20.4853C23.2357 18.2348 24.5 15.1826 24.5 12C24.5 8.8174 23.2357 5.76516 20.9853 3.51472C18.7348 1.26428 15.6826 0 12.5 0ZM3.56 6.489C4.0475 8.4825 7.358 10.299 9.1355 11.274C9.8555 11.6685 10.325 11.925 10.25 12C10.129 12.12 10.008 12.237 9.887 12.351C9.263 12.945 8.7065 13.4745 8.75 14.25C8.8025 15.201 9.677 15.486 10.571 15.7755C11.4365 16.0575 12.323 16.3455 12.5 17.25C12.623 17.8755 12.3875 18.732 12.17 19.53C11.8475 20.703 11.561 21.75 12.5 21.75C14.75 21 18.197 16.971 18.5 14.25C18.707 12.3855 15.5 11.25 13.25 10.5C12.533 10.26 12.1175 10.6215 11.765 10.926C11.507 11.151 11.282 11.3445 11 11.25C10.3325 11.028 7.25 8.25 8.75 7.5C9.92 6.915 10.178 7.2435 10.5905 7.773C10.7075 7.9215 10.835 8.085 11 8.25C11.9135 8.706 11.993 8.052 12.0845 7.3005C12.143 6.8175 12.206 6.294 12.5 6C13.151 5.349 14.3975 4.8135 15.542 4.32C16.61 3.861 17.5895 3.4395 17.9105 3C19.6943 4.07269 21.1191 5.65138 22.0038 7.53554C22.8885 9.4197 23.1933 11.5243 22.8793 13.582C22.5654 15.6397 21.6469 17.5577 20.2406 19.0923C18.8343 20.6269 17.0036 21.7089 14.981 22.2009C12.9585 22.6928 10.8353 22.5725 8.88127 21.8553C6.92723 21.138 5.23046 19.8561 4.00649 18.1725C2.78253 16.4888 2.0866 14.4794 2.0071 12.3994C1.9276 10.3194 2.46812 8.26116 3.56 6.489Z" fill="#D70404"/>
</svg>
