<svg width="24" height="24" viewBox="0 0 24 24" fill="none" xmlns="http://www.w3.org/2000/svg">
<path opacity="0.5" d="M0 3.27273C0 2.40475 0.344805 1.57232 0.95856 0.95856C1.57232 0.344805 2.40475 0 3.27273 0H15.6364C16.5043 0 17.3368 0.344805 17.9505 0.95856C18.5643 1.57232 18.9091 2.40475 18.9091 3.27273V14.5455H24V19.2727C24 20.5265 23.502 21.7289 22.6154 22.6154C21.7289 23.502 20.5265 24 19.2727 24H3.27273C2.40475 24 1.57232 23.6552 0.95856 23.0414C0.344805 22.4277 0 21.5953 0 20.7273V3.27273ZM18.9091 21.8182H19.2727C19.9478 21.8182 20.5953 21.55 21.0726 21.0726C21.55 20.5953 21.8182 19.9478 21.8182 19.2727V16.7273H18.9091V21.8182ZM5.45455 5.81818C5.16522 5.81818 4.88774 5.93312 4.68316 6.1377C4.47857 6.34229 4.36364 6.61976 4.36364 6.90909C4.36364 7.19842 4.47857 7.47589 4.68316 7.68048C4.88774 7.88507 5.16522 8 5.45455 8H13.4545C13.7439 8 14.0213 7.88507 14.2259 7.68048C14.4305 7.47589 14.5455 7.19842 14.5455 6.90909C14.5455 6.61976 14.4305 6.34229 14.2259 6.1377C14.0213 5.93312 13.7439 5.81818 13.4545 5.81818H5.45455ZM5.45455 10.9091C5.16522 10.9091 4.88774 11.024 4.68316 11.2286C4.47857 11.4332 4.36364 11.7107 4.36364 12C4.36364 12.2893 4.47857 12.5668 4.68316 12.7714C4.88774 12.976 5.16522 13.0909 5.45455 13.0909H13.4545C13.7439 13.0909 14.0213 12.976 14.2259 12.7714C14.4305 12.5668 14.5455 12.2893 14.5455 12C14.5455 11.7107 14.4305 11.4332 14.2259 11.2286C14.0213 11.024 13.7439 10.9091 13.4545 10.9091H5.45455ZM5.45455 16C5.16522 16 4.88774 16.1149 4.68316 16.3195C4.47857 16.5241 4.36364 16.8016 4.36364 17.0909C4.36364 17.3802 4.47857 17.6577 4.68316 17.8623C4.88774 18.0669 5.16522 18.1818 5.45455 18.1818H9.09091C9.38024 18.1818 9.65771 18.0669 9.8623 17.8623C10.0669 17.6577 10.1818 17.3802 10.1818 17.0909C10.1818 16.8016 10.0669 16.5241 9.8623 16.3195C9.65771 16.1149 9.38024 16 9.09091 16H5.45455Z" fill="black"/>
</svg>
