<svg width="25" height="24" viewBox="0 0 25 24" fill="none" xmlns="http://www.w3.org/2000/svg">
<path d="M0.5 3.27273C0.5 2.40475 0.844805 1.57232 1.45856 0.95856C2.07232 0.344805 2.90475 0 3.77273 0H16.1364C17.0043 0 17.8368 0.344805 18.4505 0.95856C19.0643 1.57232 19.4091 2.40475 19.4091 3.27273V14.5455H24.5V19.2727C24.5 20.5265 24.002 21.7289 23.1154 22.6154C22.2289 23.502 21.0265 24 19.7727 24H3.77273C2.90475 24 2.07232 23.6552 1.45856 23.0414C0.844805 22.4277 0.5 21.5953 0.5 20.7273V3.27273ZM19.4091 21.8182H19.7727C20.4478 21.8182 21.0953 21.55 21.5726 21.0726C22.05 20.5953 22.3182 19.9478 22.3182 19.2727V16.7273H19.4091V21.8182ZM5.95455 5.81818C5.66522 5.81818 5.38774 5.93312 5.18316 6.1377C4.97857 6.34229 4.86364 6.61976 4.86364 6.90909C4.86364 7.19842 4.97857 7.47589 5.18316 7.68048C5.38774 7.88507 5.66522 8 5.95455 8H13.9545C14.2439 8 14.5213 7.88507 14.7259 7.68048C14.9305 7.47589 15.0455 7.19842 15.0455 6.90909C15.0455 6.61976 14.9305 6.34229 14.7259 6.1377C14.5213 5.93312 14.2439 5.81818 13.9545 5.81818H5.95455ZM5.95455 10.9091C5.66522 10.9091 5.38774 11.024 5.18316 11.2286C4.97857 11.4332 4.86364 11.7107 4.86364 12C4.86364 12.2893 4.97857 12.5668 5.18316 12.7714C5.38774 12.976 5.66522 13.0909 5.95455 13.0909H13.9545C14.2439 13.0909 14.5213 12.976 14.7259 12.7714C14.9305 12.5668 15.0455 12.2893 15.0455 12C15.0455 11.7107 14.9305 11.4332 14.7259 11.2286C14.5213 11.024 14.2439 10.9091 13.9545 10.9091H5.95455ZM5.95455 16C5.66522 16 5.38774 16.1149 5.18316 16.3195C4.97857 16.5241 4.86364 16.8016 4.86364 17.0909C4.86364 17.3802 4.97857 17.6577 5.18316 17.8623C5.38774 18.0669 5.66522 18.1818 5.95455 18.1818H9.59091C9.88024 18.1818 10.1577 18.0669 10.3623 17.8623C10.5669 17.6577 10.6818 17.3802 10.6818 17.0909C10.6818 16.8016 10.5669 16.5241 10.3623 16.3195C10.1577 16.1149 9.88024 16 9.59091 16H5.95455Z" fill="#D70404"/>
</svg>
