<svg width="24" height="24" viewBox="0 0 24 24" fill="none" xmlns="http://www.w3.org/2000/svg">
<path d="M21.3333 0H2.66667C1.95942 0 1.28115 0.252856 0.781048 0.702944C0.280951 1.15303 0 1.76348 0 2.4V18C0 18.6365 0.280951 19.247 0.781048 19.6971C1.28115 20.1471 1.95942 20.4 2.66667 20.4H8L12 24L16 20.4H21.3333C22.0406 20.4 22.7189 20.1471 23.219 19.6971C23.719 19.247 24 18.6365 24 18V2.4C24 1.76348 23.719 1.15303 23.219 0.702944C22.7189 0.252856 22.0406 0 21.3333 0ZM12 3.6C14.3027 3.6 16 5.1264 16 7.2C16 9.2736 14.3027 10.8 12 10.8C9.69867 10.8 8 9.2736 8 7.2C8 5.1264 9.69867 3.6 12 3.6ZM5.56933 16.8C6.31333 14.7324 8.89733 13.2 12 13.2C15.1027 13.2 17.688 14.7324 18.4307 16.8H5.56933Z" fill="#D70404"/>
</svg>
