<svg width="24" height="24" viewBox="0 0 24 24" fill="none" xmlns="http://www.w3.org/2000/svg">
<path d="M1.6 3.20058C1.6 2.35173 1.93714 1.53765 2.53726 0.937428C3.13738 0.337203 3.95131 0 4.8 0H16C16.8487 0 17.6626 0.337203 18.2627 0.937428C18.8629 1.53765 19.2 2.35173 19.2 3.20058V14.4026H24V17.6032C24 18.8765 23.4943 20.0976 22.5941 20.9979C21.6939 21.8983 20.473 22.4041 19.2 22.4041H15.8672C15.748 22.067 15.555 21.7608 15.3024 21.5079L12.1024 18.3073C12.6409 17.1805 12.8771 15.933 12.7879 14.6873C12.6987 13.4417 12.2871 12.2406 11.5936 11.202H13.6C13.8122 11.202 14.0157 11.1177 14.1657 10.9677C14.3157 10.8176 14.4 10.6141 14.4 10.4019C14.4 10.1897 14.3157 9.98615 14.1657 9.8361C14.0157 9.68604 13.8122 9.60174 13.6 9.60174H10.1344C8.93874 8.63583 7.46564 8.07756 5.93024 8.00846C4.39483 7.93937 2.87756 8.36306 1.6 9.21767V3.20058ZM19.2 20.8038C20.0487 20.8038 20.8626 20.4666 21.4627 19.8663C22.0629 19.2661 22.4 18.452 22.4 17.6032V16.0029H19.2V20.8038ZM7.2 4.80087C6.98783 4.80087 6.78435 4.88517 6.63432 5.03523C6.48429 5.18529 6.4 5.3888 6.4 5.60102C6.4 5.81323 6.48429 6.01675 6.63432 6.1668C6.78435 6.31686 6.98783 6.40116 7.2 6.40116H13.6C13.8122 6.40116 14.0157 6.31686 14.1657 6.1668C14.3157 6.01675 14.4 5.81323 14.4 5.60102C14.4 5.3888 14.3157 5.18529 14.1657 5.03523C14.0157 4.88517 13.8122 4.80087 13.6 4.80087H7.2ZM8.96 19.6836C7.82681 20.5336 6.41364 20.9226 5.00516 20.7721C3.59668 20.6216 2.29755 19.9428 1.36946 18.8726C0.441372 17.8023 -0.0467121 16.42 0.0035264 15.0041C0.0537649 13.5882 0.638593 12.244 1.64021 11.2422C2.64182 10.2404 3.98579 9.65551 5.40139 9.60527C6.81699 9.55502 8.19904 10.0432 9.26913 10.9714C10.3392 11.8997 11.0179 13.1991 11.1683 14.6078C11.3188 16.0165 10.9299 17.43 10.08 18.5634L14.1712 22.6329C14.2456 22.7072 14.3046 22.7954 14.3449 22.8925C14.3852 22.9896 14.406 23.0937 14.406 23.1988C14.4061 23.304 14.3855 23.4081 14.3453 23.5053C14.3052 23.6024 14.2463 23.6907 14.172 23.7651C14.0977 23.8395 14.0095 23.8985 13.9124 23.9388C13.8154 23.9791 13.7113 23.9999 13.6062 24C13.5011 24.0001 13.397 23.9794 13.2998 23.9393C13.2027 23.8991 13.1144 23.8402 13.04 23.7659L8.96 19.6836ZM3.3776 18.5298C3.81454 18.8218 4.3047 19.0248 4.8201 19.1274C5.3355 19.2299 5.86605 19.2299 6.38145 19.1274C6.89685 19.0249 7.38701 18.8218 7.82395 18.5298C8.26089 18.2378 8.63605 17.8626 8.928 17.4256C9.21996 16.9885 9.42299 16.4983 9.52552 15.9828C9.62804 15.4673 9.62804 14.9367 9.52553 14.4212C9.42301 13.9057 9.21998 13.4154 8.92804 12.9784C8.63609 12.5414 8.26094 12.1662 7.824 11.8742C6.94136 11.2842 5.86056 11.0691 4.81936 11.2762C3.77815 11.4833 2.86184 12.0956 2.272 12.9784C1.68216 13.8612 1.46711 14.9422 1.67415 15.9835C1.88119 17.0249 2.49336 17.9414 3.376 18.5314L3.3776 18.5298Z" fill="#D70404"/>
</svg>
