<svg width="60" height="56" viewBox="0 0 60 56" fill="none" xmlns="http://www.w3.org/2000/svg">
<rect width="60" height="56" rx="10" fill="#F7F7F7"/>
<rect x="9.44141" y="8.2334" width="42.4998" height="41.3045" rx="10" fill="white"/>
<path d="M31.7827 20.5106C31.6547 20.5399 31.5396 20.5572 31.4403 20.5669C31.4465 20.3964 31.4646 20.1857 31.5067 19.9508C31.6188 19.3262 31.8966 18.5507 32.5542 17.8932C33.2397 17.2076 33.9521 16.8594 34.4881 16.682C34.6205 16.6382 34.742 16.6048 34.8495 16.5795C34.8416 16.7537 34.8223 16.9625 34.7817 17.1925C34.6634 17.8638 34.3686 18.6947 33.6697 19.3936C32.9467 20.1166 32.2644 20.4004 31.7827 20.5106Z" fill="#9999A0" stroke="#9999A0"/>
<path d="M31.1245 22.3391C30.0188 22.3315 29.3396 21.3768 27.4566 21.3768C25.7622 21.3768 24.0637 22.47 23.3415 23.5278C22.6226 24.5806 22 25.7353 22 28.0787C22 30.4221 23.1283 34.4523 25.9028 37.1806C26.378 37.6478 27.007 37.9991 27.7245 38.0208C29.0151 38.0599 29.8076 37.0938 31.4377 37.0938C33.0679 37.0938 33.5585 38.0208 35.0302 38.0208C35.6994 38.0208 36.4626 37.716 37.2038 36.9278C38.1547 35.9165 39.3347 33.9904 39.9358 32.1429C39.9358 32.1429 36.9258 30.9804 36.9622 27.6297C36.9924 24.8523 39.3509 23.4863 39.3509 23.4863C39.3509 23.4863 37.9735 21.29 35.0453 21.29C33.0226 21.3052 32.1169 22.3459 31.1245 22.3391Z" fill="#9999A0"/>
</svg>
