<svg width="11" height="18" viewBox="0 0 11 18" fill="none" xmlns="http://www.w3.org/2000/svg">
<path d="M9.5 4.70326V13.3584C9.5 15.0681 7.97 16.5897 5.89 16.7533C5.33435 16.7987 4.77322 16.7483 4.24288 16.6053C3.71253 16.4623 3.22475 16.2298 2.81104 15.923C2.39733 15.6162 2.06689 15.2418 1.84107 14.824C1.61524 14.4062 1.49905 13.9543 1.5 13.4974V3.38618C1.5 2.31452 2.44 1.34102 3.74 1.23467C4.08863 1.20485 4.44104 1.23534 4.77434 1.32416C5.10763 1.41298 5.41437 1.55814 5.67464 1.75023C5.93491 1.94232 6.14289 2.17703 6.28508 2.43914C6.42728 2.70125 6.5005 2.98489 6.5 3.27165V11.8613C6.5 12.3112 6.05 12.6794 5.5 12.6794C4.95 12.6794 4.5 12.3112 4.5 11.8613V4.70326C4.5 4.36786 4.16 4.08971 3.75 4.08971C3.34 4.08971 3 4.36786 3 4.70326V11.7468C3 12.8184 3.94 13.7919 5.24 13.8983C5.58863 13.9281 5.94104 13.8976 6.27434 13.8088C6.60763 13.72 6.91437 13.5748 7.17464 13.3827C7.43491 13.1906 7.64289 12.9559 7.78508 12.6938C7.92728 12.4317 8.0005 12.1481 8 11.8613V3.41072C8 1.70097 6.47 0.179372 4.39 0.0157595C3.8345 -0.029013 3.2737 0.0218694 2.74369 0.165131C2.21369 0.308392 1.72622 0.540857 1.31269 0.847562C0.899149 1.15427 0.568702 1.52841 0.342618 1.94591C0.116534 2.36341 -0.000176281 2.81502 1.99848e-07 3.27165V13.3093C1.99848e-07 15.6571 2.1 17.7595 4.96 17.9804C8.25 18.2258 11 16.1316 11 13.4974V4.70326C11 4.36786 10.66 4.08971 10.25 4.08971C9.84 4.08971 9.5 4.36786 9.5 4.70326Z" fill="#D70404"/>
</svg>
