<svg width="38" height="25" viewBox="0 0 38 25" fill="none" xmlns="http://www.w3.org/2000/svg">
<path fill-rule="evenodd" clip-rule="evenodd" d="M18.9338 5.45646C19.1322 5.45646 19.3298 5.41539 19.5158 5.33324L24.7438 3.03134C25.4697 2.71104 25.7981 1.86472 25.4762 1.14449L25.344 0.849056C25.0206 0.129554 24.169 -0.196871 23.441 0.122708L18.2138 2.42497C17.8628 2.57954 17.5932 2.86128 17.4545 3.21833C17.3157 3.57574 17.3251 3.96414 17.4814 4.31218L17.6136 4.60726C17.7691 4.95494 18.0532 5.22227 18.4129 5.35954C18.5822 5.4244 18.758 5.45646 18.9338 5.45646ZM23.4124 13.9476C23.464 13.9476 23.5156 13.9368 23.5636 13.9159L28.1521 11.8904C28.3396 11.8075 28.4246 11.5895 28.341 11.4033L24.8838 3.68943C24.8438 3.60008 24.769 3.53018 24.6775 3.49487C24.5845 3.46028 24.4827 3.46244 24.3926 3.50244L19.8048 5.528C19.6174 5.6105 19.5324 5.82848 19.6159 6.01439L20.4719 7.93042L20.0228 8.12786C19.9327 8.16749 19.8622 8.24099 19.8266 8.3325C19.791 8.42366 19.7939 8.52526 19.8339 8.61461L21.173 11.6094C21.2573 11.796 21.476 11.8796 21.6642 11.7971L22.1191 11.5967L23.0724 13.7282C23.1123 13.8179 23.1865 13.8878 23.2787 13.9231C23.3216 13.9394 23.3674 13.9476 23.4124 13.9476ZM24.2317 17.2897C24.4301 17.2897 24.6277 17.2486 24.8138 17.1665L30.0417 14.8649C30.7676 14.545 31.096 13.6983 30.7741 12.9781L30.6419 12.6826C30.3185 11.9631 29.4669 11.6367 28.7389 11.9563L23.5117 14.2582C23.1607 14.4131 22.8912 14.6949 22.7524 15.0515C22.6136 15.409 22.623 15.7973 22.7793 16.1454L22.9115 16.4408C23.067 16.7881 23.3511 17.0555 23.7115 17.1931C23.8808 17.2572 24.0566 17.2897 24.2317 17.2897ZM2.48335 19.8618C2.77907 19.8618 3.09951 19.7962 3.43592 19.6485L20.3818 11.7008C20.5642 11.6151 20.6449 11.4007 20.5628 11.2177L19.733 9.36325C19.6509 9.17878 19.438 9.09483 19.2498 9.17193L1.94929 16.3064C1.9485 16.3069 1.94761 16.3074 1.94665 16.3078L1.94489 16.3085L1.9413 16.31C0.651569 16.8778 0.447392 17.9911 0.802704 18.7852C1.07591 19.3956 1.6928 19.8618 2.48335 19.8618ZM18.6045 24.9988H37.4541V22.7851C37.4541 21.5983 36.4804 20.6328 35.2837 20.6328H20.7749C19.5781 20.6328 18.6045 21.5983 18.6045 22.7851V24.9988ZM20.4647 20.1532H35.7801V18.3575H20.4647V20.1532Z" fill="#C61620"/>
</svg>
