<svg width="97" height="27" viewBox="0 0 97 27" fill="none" xmlns="http://www.w3.org/2000/svg">
<path d="M0 21.068C0 19.16 1.224 17.252 3.744 16.352C4.644 16.028 5.364 15.524 5.832 14.948L8.748 11.168C11.412 7.892 14.148 5.192 15.408 3.608C15.552 3.428 15.768 3.356 15.984 3.356C16.452 3.356 16.812 3.752 16.812 4.22C16.812 4.436 16.74 4.652 16.56 4.832C15.84 5.516 12.672 8.612 12.672 9.368C12.672 10.196 14.148 10.376 14.904 10.376C17.568 10.376 21.888 8.144 21.888 5.012C21.888 2.6 19.368 1.484 17.136 1.484C14.652 1.484 11.772 2.816 10.512 4.616C10.188 5.084 10.008 5.156 9.792 5.156C9.468 5.156 9.18 4.868 9.18 4.508C9.18 4.4 9.252 4.256 9.468 3.932C11.016 1.664 14.4 0.151998 17.46 0.151998C20.484 0.151998 23.688 1.664 23.688 4.976C23.688 8.036 20.952 10.484 18.324 11.24C17.712 11.42 17.352 11.636 17.352 11.888C17.352 11.96 17.352 11.996 17.388 12.068C19.332 13.4 20.16 15.02 20.16 17C20.16 23.084 12.24 26.072 7.128 26.072C4.104 26.072 0 24.524 0 21.068ZM3.168 18.08C2.304 18.08 1.332 19.664 1.332 20.924C1.332 23.228 4.824 24.272 6.804 24.272C11.7 24.272 18.468 21.752 18.468 15.848C18.468 12.644 15.048 11.492 12.42 11.492H11.988C11.124 11.492 10.404 11.96 9.828 12.5L8.244 14.552C8.172 14.66 8.136 14.768 8.136 14.84C8.136 15.056 8.388 15.128 8.568 15.128L9 15.056C11.052 14.732 14.184 14.192 16.2 14.192H16.848C17.568 14.192 17.892 14.624 17.892 14.948C17.892 15.236 17.604 15.524 17.136 15.56C14.184 15.74 10.872 15.92 7.884 16.532C7.164 16.676 6.372 17.072 5.904 17.648L3.78 20.528C3.6 20.744 3.348 20.888 3.096 20.888C2.628 20.888 2.232 20.492 2.232 20.024C2.232 19.88 2.304 19.7 2.412 19.556L3.204 18.44C3.276 18.332 3.348 18.224 3.348 18.188C3.348 18.116 3.312 18.08 3.168 18.08ZM17.388 12.068C17.424 12.14 17.46 12.176 17.496 12.212L17.388 12.068ZM19.7677 22.22C19.7677 21.752 19.8757 21.248 20.1277 20.672C20.7397 19.34 22.2157 17.648 23.1157 16.496L24.0157 15.344C24.3397 14.912 24.7357 14.732 25.0597 14.732C25.4557 14.732 25.8157 15.02 25.8157 15.452C25.8157 15.632 25.7437 15.884 25.5637 16.1L24.6637 17.216C23.5837 18.584 21.9997 20.816 21.6037 21.608C21.5677 21.68 21.5677 21.86 21.5677 22.004C21.5677 22.616 21.8557 22.868 22.2517 22.868C23.5117 22.868 26.0317 20.312 26.9317 19.556L27.1837 19.34C27.3277 19.196 27.5077 19.124 27.6517 19.124C27.9757 19.124 28.2637 19.376 28.2637 19.664C28.2637 19.844 28.1557 19.988 28.0117 20.168L27.7957 20.42C25.3477 23.264 23.4037 24.092 21.8557 24.092C20.6317 24.092 19.7677 23.408 19.7677 22.22ZM25.4557 13.472C25.4557 12.968 25.8517 12.536 26.3557 12.536C26.8597 12.536 27.2917 12.968 27.2917 13.472C27.2917 13.976 26.8597 14.372 26.3557 14.372C25.8517 14.372 25.4557 13.976 25.4557 13.472ZM25.2335 11.852C25.2335 10.844 28.6175 10.232 29.7695 10.232C30.4175 10.232 31.3895 10.448 32.5055 10.628L33.3335 10.772L34.6655 9.152C35.0615 8.684 35.3495 8.576 35.6375 8.576C36.1055 8.576 36.6095 8.9 36.6095 9.404C36.6095 9.584 36.5375 9.764 36.3935 9.908L35.3855 11.096C35.9615 11.168 36.4655 11.204 36.8975 11.204C37.8695 11.204 38.6255 10.88 39.9935 10.196C40.1375 10.124 40.3175 10.052 40.5335 10.052C40.8215 10.052 41.2895 10.232 41.2895 10.628C41.2895 11.6 37.6895 12.392 36.5375 12.392C36.1415 12.392 35.3855 12.284 34.5575 12.14L33.9455 12.896C32.0735 15.2 28.5815 19.304 28.1495 21.428C28.1135 21.608 28.0775 21.752 28.0775 21.896C28.0775 22.4 28.3655 22.76 29.0135 22.76C30.6695 22.76 33.8015 20.564 34.9175 19.376L34.9535 19.34C35.0615 19.232 35.2415 19.196 35.4215 19.196C35.8175 19.196 36.1055 19.412 36.1055 19.7C36.1055 19.808 36.0335 19.988 35.8895 20.096L35.8535 20.132C34.4135 21.572 30.8135 24.128 28.2215 24.128C26.7815 24.128 26.0615 23.336 26.0615 22.256C26.0615 22.076 26.0975 21.896 26.1335 21.68C26.6015 19.412 30.3455 14.624 31.9295 12.572L32.5055 11.816C31.4975 11.636 30.5975 11.492 29.7335 11.492C28.6535 11.492 27.6455 11.744 26.7095 12.248C26.3135 12.464 26.1335 12.5 25.9535 12.5C25.5215 12.5 25.2335 12.176 25.2335 11.852ZM38.7622 24.02C35.8822 24.02 34.5502 22.796 34.5502 21.104C34.5502 18.008 38.7622 14.552 41.8582 14.552C43.4422 14.552 44.5222 15.452 44.5222 16.64C44.5222 19.232 39.4462 20.096 37.4302 20.276C36.8542 20.384 36.7102 20.78 36.7102 21.212C36.7102 22.4 38.0422 22.76 39.3382 22.76C42.0022 22.76 44.3782 21.248 46.2862 19.34C46.3942 19.232 46.5742 19.16 46.7182 19.16C47.0422 19.16 47.3662 19.412 47.3662 19.736C47.3662 19.844 47.3302 19.988 47.1862 20.132C44.7742 22.472 42.0382 24.02 38.7622 24.02ZM41.8222 16.316C40.6702 16.316 37.6462 17.9 37.6462 18.836C37.6462 18.98 37.7182 19.088 38.0422 19.088L38.2222 19.052C39.0502 18.872 42.7942 18.368 42.7942 17.036C42.7942 16.604 42.3262 16.316 41.8222 16.316ZM43.7465 23.156C43.7465 23.012 43.7825 22.868 43.8905 22.724C45.0065 20.924 46.3385 19.196 47.6345 17.432L49.4705 14.948C49.7585 14.588 50.0825 14.444 50.3705 14.444C50.6585 14.444 50.8385 14.624 51.1265 15.02C51.1625 15.056 51.3065 15.236 51.5225 15.236C51.5945 15.236 51.7385 15.2 51.8825 15.128C52.4585 14.804 53.3945 14.624 54.0065 14.624C54.5825 14.624 55.0865 14.732 55.3385 15.236L55.4105 15.38C55.5545 15.668 55.6985 15.74 55.8785 15.74C56.0945 15.74 56.3105 15.632 56.5625 15.488C57.3545 14.984 58.5425 14.588 59.4065 14.588C60.3785 14.588 61.1345 15.092 61.1345 16.136C61.1345 16.64 60.9185 17.288 60.4865 18.008L58.4345 20.816C57.9305 21.5 57.7865 22.004 57.7865 22.292C57.7865 22.508 57.8945 22.616 58.1105 22.616C59.1905 22.616 61.9265 20.132 62.5385 19.52C62.9345 19.124 63.2225 18.98 63.4745 18.98C63.7625 18.98 63.9785 19.16 63.9785 19.412C63.9785 19.628 63.8705 19.844 63.6185 20.132L63.5825 20.168C62.1785 21.572 59.5865 23.912 57.5705 23.912C56.6345 23.912 56.0585 23.408 56.0585 22.544C56.0585 21.968 56.3105 21.212 56.8145 20.384C57.2465 19.664 57.8585 18.836 58.3265 18.188L58.8305 17.504C59.1545 17.072 59.2265 16.748 59.2265 16.568C59.2265 16.244 59.0105 16.136 58.7585 16.136C57.4625 16.136 55.6985 17.756 54.7985 18.728L51.3425 23.552C51.1625 23.804 50.8745 23.984 50.5865 23.984C50.1545 23.984 49.7585 23.588 49.7585 23.156C49.7585 23.012 49.7945 22.868 49.9025 22.724L53.2865 17.936C53.4665 17.72 53.5385 17.432 53.5385 17.18C53.5385 16.676 53.2145 16.244 52.4945 16.244C51.4865 16.244 49.8665 17.108 48.0665 19.556L45.3305 23.552C45.1505 23.804 44.8625 23.984 44.5745 23.984C44.1425 23.984 43.7465 23.588 43.7465 23.156ZM61.8204 21.788C61.8204 18.728 66.9684 14.552 70.0644 14.552C70.7124 14.552 71.3244 14.768 71.9364 15.02L72.1164 15.092C72.5484 15.272 72.8724 15.452 73.5564 15.452C73.6644 15.416 73.7724 15.38 73.8804 15.38C74.3484 15.38 74.7804 15.776 74.7804 16.208C74.7804 16.388 74.6724 16.64 74.2764 16.964C73.3404 17.684 70.9284 20.204 70.9284 21.752C70.9284 22.112 71.0724 22.436 71.6844 22.436C73.3404 22.436 75.6444 20.204 76.5804 19.412C76.8324 19.196 77.0484 19.088 77.2644 19.088C77.5884 19.088 77.8044 19.34 77.8044 19.628C77.8044 19.808 77.6964 20.024 77.5164 20.204C75.8244 21.68 73.0164 24.128 70.8204 24.128C69.8124 24.128 68.9484 23.588 68.6604 22.688C68.5884 22.508 68.4444 22.436 68.2644 22.436C67.9404 22.436 67.4724 22.724 66.9324 23.048L66.1404 23.552C65.4204 24.02 64.7364 24.092 64.1604 24.092C62.7564 24.092 61.8204 23.12 61.8204 21.788ZM63.8364 21.032C63.8364 21.788 64.3044 22.184 65.0244 22.184C66.9684 22.184 71.1804 18.548 71.1804 16.784C71.1804 16.136 70.7124 15.776 70.0284 15.776C68.0484 15.776 63.8364 18.836 63.8364 21.032ZM74.7335 11.852C74.7335 10.844 78.1175 10.232 79.2695 10.232C79.9175 10.232 80.8895 10.448 82.0055 10.628L82.8335 10.772L84.1655 9.152C84.5615 8.684 84.8495 8.576 85.1375 8.576C85.6055 8.576 86.1095 8.9 86.1095 9.404C86.1095 9.584 86.0375 9.764 85.8935 9.908L84.8855 11.096C85.4615 11.168 85.9655 11.204 86.3975 11.204C87.3695 11.204 88.1255 10.88 89.4935 10.196C89.6375 10.124 89.8175 10.052 90.0335 10.052C90.3215 10.052 90.7895 10.232 90.7895 10.628C90.7895 11.6 87.1895 12.392 86.0375 12.392C85.6415 12.392 84.8855 12.284 84.0575 12.14L83.4455 12.896C81.5735 15.2 78.0815 19.304 77.6495 21.428C77.6135 21.608 77.5775 21.752 77.5775 21.896C77.5775 22.4 77.8655 22.76 78.5135 22.76C80.1695 22.76 83.3015 20.564 84.4175 19.376L84.4535 19.34C84.5615 19.232 84.7415 19.196 84.9215 19.196C85.3175 19.196 85.6055 19.412 85.6055 19.7C85.6055 19.808 85.5335 19.988 85.3895 20.096L85.3535 20.132C83.9135 21.572 80.3135 24.128 77.7215 24.128C76.2815 24.128 75.5615 23.336 75.5615 22.256C75.5615 22.076 75.5975 21.896 75.6335 21.68C76.1015 19.412 79.8455 14.624 81.4295 12.572L82.0055 11.816C80.9975 11.636 80.0975 11.492 79.2335 11.492C78.1535 11.492 77.1455 11.744 76.2095 12.248C75.8135 12.464 75.6335 12.5 75.4535 12.5C75.0215 12.5 74.7335 12.176 74.7335 11.852ZM88.2622 24.02C85.3822 24.02 84.0502 22.796 84.0502 21.104C84.0502 18.008 88.2622 14.552 91.3582 14.552C92.9422 14.552 94.0222 15.452 94.0222 16.64C94.0222 19.232 88.9462 20.096 86.9302 20.276C86.3542 20.384 86.2102 20.78 86.2102 21.212C86.2102 22.4 87.5422 22.76 88.8382 22.76C91.5022 22.76 93.8782 21.248 95.7862 19.34C95.8942 19.232 96.0742 19.16 96.2182 19.16C96.5422 19.16 96.8662 19.412 96.8662 19.736C96.8662 19.844 96.8302 19.988 96.6862 20.132C94.2742 22.472 91.5382 24.02 88.2622 24.02ZM91.3222 16.316C90.1702 16.316 87.1462 17.9 87.1462 18.836C87.1462 18.98 87.2182 19.088 87.5422 19.088L87.7222 19.052C88.5502 18.872 92.2942 18.368 92.2942 17.036C92.2942 16.604 91.8262 16.316 91.3222 16.316Z" fill="black"/>
</svg>