<svg width="15" height="15" viewBox="0 0 15 15" fill="none" xmlns="http://www.w3.org/2000/svg">
<path fill-rule="evenodd" clip-rule="evenodd" d="M5.48854 1.22046H9.08771C10.6685 1.22046 11.946 1.84463 11.9635 3.43129V12.2863C11.9635 12.3855 11.9402 12.4846 11.8935 12.5721C11.8177 12.7121 11.6894 12.8171 11.5319 12.8638C11.3802 12.9105 11.211 12.8871 11.071 12.8055L7.29104 10.9155L3.50521 12.8055C3.41829 12.8515 3.31854 12.8813 3.21938 12.8813C2.89271 12.8813 2.63021 12.613 2.63021 12.2863V3.43129C2.63021 1.84463 3.91354 1.22046 5.48854 1.22046ZM5.0921 5.66544H9.4846C9.73544 5.66544 9.9396 5.46069 9.9396 5.20461C9.9396 4.94794 9.73544 4.74378 9.4846 4.74378H5.0921C4.84127 4.74378 4.6371 4.94794 4.6371 5.20461C4.6371 5.46069 4.84127 5.66544 5.0921 5.66544Z" fill="#61C7CF"/>
</svg>
