<svg width="62" height="40" viewBox="0 0 62 40" fill="none" xmlns="http://www.w3.org/2000/svg">
<path fill-rule="evenodd" clip-rule="evenodd" d="M15.3558 29.4607C16.7163 28.4358 18.278 26.3664 18.0097 22.3711C17.9809 21.9591 17.6842 21.605 17.2627 21.5379C16.4387 21.3559 15.6435 21.2696 14.8866 21.2696C13.3249 21.2696 11.9644 21.6337 10.8339 22.3715C10.5177 22.5822 10.2303 22.8217 9.95241 23.0804V21.6529V21.6337V20.1965C10.4219 20.2828 10.8913 20.3307 11.3512 20.3307C12.8458 20.3307 14.235 19.8804 15.356 19.0277C16.7165 18.0024 18.2782 15.9329 18.0099 11.9473C17.9812 11.5257 17.6745 11.1808 17.2626 11.085C16.4386 10.9126 15.6434 10.8168 14.8865 10.8168C13.3248 10.8168 11.9643 11.1904 10.8337 11.9281C10.5176 12.1389 10.2301 12.3688 9.95229 12.6371V11.9089C11.8589 10.6538 13.0661 8.75683 13.2002 6.72567C13.3152 5.07793 12.7691 2.60602 9.58824 0.191619C9.42536 0.0670697 9.22416 0 9.02296 0C8.81218 0 8.62056 0.0670697 8.45769 0.191619C5.27682 2.60583 4.73071 5.07775 4.84568 6.72567C4.97022 8.74727 6.17745 10.6443 8.09364 11.9089V15.3868C6.95349 14.2563 5.296 13.4323 3.0349 13.4323C2.30675 13.4323 1.5594 13.5186 0.773797 13.691C0.352205 13.7772 0.0551954 14.1413 0.0264525 14.5533C-0.222621 18.5486 1.33903 20.6181 2.69955 21.6337C3.82051 22.4864 5.20016 22.9367 6.70436 22.9367C7.16424 22.9367 7.62412 22.8888 8.09358 22.8025V25.9739C7.81572 25.7152 7.52829 25.4852 7.2217 25.2745C6.09118 24.5272 4.72109 24.1535 3.14981 24.1535C2.3929 24.1535 1.59773 24.2397 0.773736 24.4218C0.352143 24.508 0.0551341 24.8721 0.0263912 25.2745C-0.222683 29.279 1.33897 31.3389 2.69949 32.3641C3.82045 33.2168 5.2001 33.6671 6.69473 33.6671H6.70431C7.1642 33.6671 7.62407 33.6192 8.09353 33.5233V39.0707C8.09353 39.5785 8.50552 40.0001 9.02287 40.0001C9.54022 40.0001 9.95221 39.5785 9.95221 39.0707V32.3638V32.3446V30.6296C10.4217 30.7158 10.8815 30.7637 11.351 30.7637C12.8456 30.7637 14.2348 30.3134 15.3558 29.4607ZM51.6389 9.39891C56.5633 10.1464 60.4915 13.1549 61.2101 16.7191C61.6316 18.8556 60.8076 20.8197 58.9489 22.1419L59.016 36.1874C59.016 37.1646 58.6519 38.0653 57.962 38.7551C57.2818 39.4354 56.3716 39.809 55.4039 39.809H25.8756C24.0839 39.809 22.6276 38.3527 22.6276 36.5611V22.1894C20.5869 20.9726 19.7342 19.0372 20.3091 16.8432C21.2773 13.1929 26.2686 9.23603 32.6591 9.23603C32.9465 9.23603 33.234 9.24561 33.5214 9.26477H49.3586C50.0868 9.26477 50.8533 9.28394 51.6389 9.39891ZM30.829 16.9298L31.0397 16.7286C31.3942 16.3645 31.3943 15.7706 31.0398 15.3969C30.8578 15.2245 30.6278 15.1191 30.3787 15.1191C30.12 15.1191 29.8901 15.2245 29.708 15.3969L29.5068 15.6077C29.1427 15.9717 29.1427 16.5658 29.5068 16.9298C29.6888 17.1119 29.9188 17.2077 30.1679 17.2077C30.4266 17.2077 30.6565 17.1119 30.829 16.9298ZM27.7056 22.4005L27.5044 22.6017C27.1307 22.9658 27.1307 23.5599 27.5044 23.9239C27.6864 24.106 27.9163 24.2018 28.1654 24.2018C28.4241 24.2018 28.6541 24.106 28.8265 23.9239L29.0373 23.7227C29.3918 23.3491 29.3918 22.755 29.0277 22.391C28.8553 22.2185 28.6253 22.1227 28.3666 22.1227C28.1176 22.1227 27.8876 22.2185 27.7056 22.4005ZM34.7191 23.646L34.5179 23.8472C34.1539 24.2113 34.1539 24.8053 34.5179 25.179C34.7 25.3514 34.9203 25.4472 35.179 25.4472C35.4281 25.4472 35.658 25.3514 35.8401 25.1694L36.0413 24.9682C36.4054 24.5946 36.4054 24.0005 36.0413 23.646C35.8593 23.464 35.6293 23.3682 35.3802 23.3682C35.1215 23.3682 34.8916 23.464 34.7191 23.646ZM37.2964 18.5106L37.4976 18.2999C37.8713 17.9358 37.8713 17.3418 37.4976 16.9777C37.3252 16.7957 37.0952 16.6999 36.8366 16.6999C36.5875 16.6999 36.3575 16.7957 36.1755 16.9777L35.9743 17.1789C35.7923 17.3609 35.6964 17.5909 35.6964 17.84C35.6964 18.0987 35.7923 18.3286 35.9743 18.5011C36.1467 18.6831 36.3767 18.7789 36.6354 18.7789C36.8844 18.7789 37.1144 18.6831 37.2964 18.5106ZM57.0809 21.6532C57.0809 21.3178 57.2438 21.0208 57.5217 20.8484C59.0354 19.919 59.6771 18.6255 59.3705 17.0925C58.9106 14.7931 56.209 11.9859 51.3611 11.2577C50.7 11.1523 50.0006 11.1428 49.3491 11.1428H41.9241C44.4439 12.4649 45.9865 14.3332 46.4751 16.1727C47.0978 18.4626 46.1973 20.6758 44.0703 22.1513L44.0032 36.58C44.0032 37.0686 43.8978 37.5381 43.6966 37.9501H55.4139C55.8833 37.9501 56.324 37.768 56.6498 37.4423C56.9755 37.1166 57.1576 36.6663 57.148 36.2064L57.0809 21.6532Z" fill="black"/>
</svg>
