<svg width="13" height="13" viewBox="0 0 13 13" fill="none" xmlns="http://www.w3.org/2000/svg">
<path d="M4.33333 5.85H2.88889V7.15H4.33333V5.85ZM7.22222 5.85H5.77778V7.15H7.22222V5.85ZM10.1111 5.85H8.66667V7.15H10.1111V5.85ZM11.5556 1.3H10.8333V0H9.38889V1.3H3.61111V0H2.16667V1.3H1.44444C0.642778 1.3 0.00722222 1.885 0.00722222 2.6L0 11.7C0 12.0448 0.152182 12.3754 0.423068 12.6192C0.693954 12.863 1.06135 13 1.44444 13H11.5556C12.35 13 13 12.415 13 11.7V2.6C13 1.885 12.35 1.3 11.5556 1.3ZM11.5556 11.7H1.44444V4.55H11.5556V11.7Z" fill="#D70404"/>
</svg>
