<svg width="34" height="20" viewBox="0 0 34 20" fill="none" xmlns="http://www.w3.org/2000/svg">
<path d="M32.9383 3.45667C32.6917 3.305 32.3867 3.29 32.1283 3.42167L26.6667 6.15167V4.16667C26.6667 1.86833 24.7967 0 22.5 0H4.16667C1.87 0 0 1.86833 0 4.16667V15.8333C0 18.1317 1.87 20 4.16667 20H22.5C24.7967 20 26.6667 18.1317 26.6667 15.8333V13.8483L32.1267 16.58C32.3867 16.7083 32.6917 16.6933 32.9367 16.545C33.1833 16.39 33.3333 16.1217 33.3333 15.8333V4.16667C33.3333 3.87833 33.1833 3.61 32.9383 3.45667ZM31.6667 14.485L26.2067 11.7533C25.9483 11.6267 25.64 11.6417 25.3967 11.7883C25.15 11.9433 25 12.2117 25 12.5V15.8333C25 17.2117 23.8783 18.3333 22.5 18.3333H4.16667C2.78833 18.3333 1.66667 17.2117 1.66667 15.8333V4.16667C1.66667 2.78833 2.78833 1.66667 4.16667 1.66667H22.5C23.8783 1.66667 25 2.78833 25 4.16667V7.5C25 7.78833 25.15 8.05667 25.395 8.21C25.6383 8.36 25.9467 8.375 26.205 8.245L31.6667 5.515V14.485Z" fill="#D70404"/>
</svg>