<svg width="21" height="19" viewBox="0 0 21 19" fill="none" xmlns="http://www.w3.org/2000/svg">
<path d="M2.625 3.16667C1.92881 3.16667 1.26113 3.5003 0.768845 4.09416C0.276562 4.68803 0 5.49348 0 6.33333L0 15.8333C0 16.6732 0.276562 17.4786 0.768845 18.0725C1.26113 18.6664 1.92881 19 2.625 19H18.375C19.0712 19 19.7389 18.6664 20.2312 18.0725C20.7234 17.4786 21 16.6732 21 15.8333V6.33333C21 5.49348 20.7234 4.68803 20.2312 4.09416C19.7389 3.5003 19.0712 3.16667 18.375 3.16667H16.8368C16.1406 3.16649 15.473 2.83274 14.9809 2.23883L13.8941 0.927833C13.402 0.333927 12.7344 0.000179352 12.0382 0H8.96175C8.26561 0.000179352 7.59804 0.333927 7.10588 0.927833L6.01912 2.23883C5.52696 2.83274 4.85939 3.16649 4.16325 3.16667H2.625ZM3.28125 6.33333C3.1072 6.33333 2.94028 6.24993 2.81721 6.10146C2.69414 5.95299 2.625 5.75163 2.625 5.54167C2.625 5.3317 2.69414 5.13034 2.81721 4.98187C2.94028 4.83341 3.1072 4.75 3.28125 4.75C3.4553 4.75 3.62222 4.83341 3.74529 4.98187C3.86836 5.13034 3.9375 5.3317 3.9375 5.54167C3.9375 5.75163 3.86836 5.95299 3.74529 6.10146C3.62222 6.24993 3.4553 6.33333 3.28125 6.33333ZM15.0938 10.2917C15.0938 11.7614 14.6098 13.171 13.7483 14.2102C12.8868 15.2495 11.7183 15.8333 10.5 15.8333C9.28166 15.8333 8.11322 15.2495 7.25173 14.2102C6.39023 13.171 5.90625 11.7614 5.90625 10.2917C5.90625 8.82193 6.39023 7.41238 7.25173 6.37312C8.11322 5.33385 9.28166 4.75 10.5 4.75C11.7183 4.75 12.8868 5.33385 13.7483 6.37312C14.6098 7.41238 15.0938 8.82193 15.0938 10.2917Z" fill="#D70404"/>
</svg>
