<svg width="17" height="17" viewBox="0 0 17 17" fill="none" xmlns="http://www.w3.org/2000/svg">
<g clip-path="url(#clip0_617_3032)">
<path fill-rule="evenodd" clip-rule="evenodd" d="M2.97852 0.210571C2.44808 0.210571 1.93937 0.421285 1.5643 0.796358C1.18923 1.17143 0.978516 1.68014 0.978516 2.21057L0.978516 14.2106C0.978516 14.741 1.18923 15.2497 1.5643 15.6248C1.93937 15.9999 2.44808 16.2106 2.97852 16.2106H14.9785C15.5089 16.2106 16.0177 15.9999 16.3927 15.6248C16.7678 15.2497 16.9785 14.741 16.9785 14.2106V2.21057C16.9785 1.68014 16.7678 1.17143 16.3927 0.796358C16.0177 0.421285 15.5089 0.210571 14.9785 0.210571L2.97852 0.210571ZM13.0085 5.18057C12.9371 5.10939 12.852 5.05334 12.7584 5.01579C12.6649 4.97823 12.5647 4.95993 12.4638 4.96198C12.363 4.96404 12.2636 4.9864 12.1717 5.02774C12.0797 5.06908 11.997 5.12854 11.9285 5.20257L8.45552 9.62757L6.36252 7.53357C6.22034 7.40109 6.03229 7.32897 5.83799 7.3324C5.64369 7.33582 5.45831 7.41454 5.32089 7.55195C5.18348 7.68936 5.10477 7.87475 5.10134 8.06905C5.09791 8.26335 5.17004 8.4514 5.30252 8.59357L7.94852 11.2406C8.0198 11.3117 8.10468 11.3678 8.1981 11.4054C8.29152 11.4431 8.39156 11.4615 8.49226 11.4596C8.59296 11.4578 8.69225 11.4356 8.78421 11.3946C8.87617 11.3535 8.95892 11.2943 9.02752 11.2206L13.0195 6.23057C13.1556 6.08907 13.2308 5.89985 13.2289 5.70353C13.2271 5.50721 13.1483 5.31945 13.0095 5.18057H13.0085Z" fill="#61C7CF"/>
</g>
<defs>
<clipPath id="clip0_617_3032">
<rect width="16" height="16" fill="white" transform="translate(0.978516 0.210571)"/>
</clipPath>
</defs>
</svg>
