<svg width="20" height="20" viewBox="0 0 20 20" fill="none" xmlns="http://www.w3.org/2000/svg">
<path d="M19.5 5.29417C19.5 6.69828 18.9701 8.04487 18.0269 9.03772C17.0837 10.0306 15.8045 10.5883 14.4706 10.5883C13.1367 10.5883 11.8575 10.0306 10.9143 9.03772C9.97106 8.04487 9.44118 6.69828 9.44118 5.29417C9.44118 3.89007 9.97106 2.54348 10.9143 1.55063C11.8575 0.557777 13.1367 0 14.4706 0C15.8045 0 17.0837 0.557777 18.0269 1.55063C18.9701 2.54348 19.5 3.89007 19.5 5.29417ZM15.0294 2.94121C15.0294 2.7852 14.9705 2.63557 14.8657 2.52526C14.7609 2.41494 14.6188 2.35297 14.4706 2.35297C14.3224 2.35297 14.1802 2.41494 14.0754 2.52526C13.9706 2.63557 13.9118 2.7852 13.9118 2.94121V4.70593H12.2353C12.0871 4.70593 11.9449 4.76791 11.8401 4.87822C11.7353 4.98854 11.6765 5.13816 11.6765 5.29417C11.6765 5.45018 11.7353 5.59981 11.8401 5.71012C11.9449 5.82044 12.0871 5.88242 12.2353 5.88242H13.9118V7.64714C13.9118 7.80315 13.9706 7.95277 14.0754 8.06309C14.1802 8.17341 14.3224 8.23538 14.4706 8.23538C14.6188 8.23538 14.7609 8.17341 14.8657 8.06309C14.9705 7.95277 15.0294 7.80315 15.0294 7.64714V5.88242H16.7059C16.8541 5.88242 16.9962 5.82044 17.101 5.71012C17.2058 5.59981 17.2647 5.45018 17.2647 5.29417C17.2647 5.13816 17.2058 4.98854 17.101 4.87822C16.9962 4.76791 16.8541 4.70593 16.7059 4.70593H15.0294V2.94121ZM17.2647 13.266V11.0589C17.6628 10.8448 18.0376 10.5856 18.3824 10.286V13.266C18.3824 14.9343 17.0814 16.2849 15.4765 16.2849H10.3465L5.86359 19.7684C5.62566 19.9531 5.32839 20.032 5.03576 19.9882C4.74312 19.9444 4.47851 19.7814 4.29888 19.5343C4.15489 19.3346 4.07679 19.0909 4.07647 18.8402V16.2849H3.40588C1.80094 16.2849 0.5 14.9331 0.5 13.266V5.37182C0.5 3.70475 1.80094 2.35297 3.40588 2.35297H8.99412C8.81134 2.72898 8.66421 3.12305 8.55488 3.52945H3.40588C2.40447 3.52945 1.61765 4.36828 1.61765 5.37182V13.266C1.61765 14.2696 2.40447 15.1084 3.40588 15.1084H5.19412V18.8237H5.19747L5.19971 18.8226L9.97876 15.1084H15.4765C16.4779 15.1084 17.2647 14.2696 17.2647 13.266Z" fill="black"/>
</svg>
