<svg width="19" height="25" viewBox="0 0 19 25" fill="none" xmlns="http://www.w3.org/2000/svg">
<path fill-rule="evenodd" clip-rule="evenodd" d="M0.758556 19.3761C1.16872 19.0235 1.7145 18.8075 2.31019 18.8075H17.8646L17.8635 1.32587C17.8635 1.16962 17.7995 1.02748 17.6964 0.924401C17.5933 0.821318 17.4512 0.757302 17.295 0.757302H1.92276C1.47245 0.757302 1.17298 0.838682 1.00262 1.01012C0.832265 1.18048 0.758479 1.47018 0.758479 1.88468L0.758556 19.3761ZM5.41771 21.3628V23.559L6.04055 22.7973C6.05682 22.7767 6.07635 22.7571 6.09805 22.7387C6.25973 22.6063 6.49844 22.6302 6.63083 22.7919L7.258 23.559V21.3628L5.41771 21.3628ZM8.01538 23.1608V24.6213C8.01538 24.8307 7.8461 25 7.63668 25C7.51407 25 7.40448 24.9414 7.33504 24.8503L6.33788 23.6307L5.33202 24.8611C5.19964 25.0228 4.96094 25.0467 4.79924 24.9143C4.7081 24.8394 4.66035 24.7309 4.66035 24.6213V23.1608H2.31011C1.68078 23.1608 1.10678 22.9199 0.689028 22.5304C0.264779 22.1344 0.00108507 21.5875 0.00108507 20.9842L0 1.88477C0 1.26519 0.142144 0.801888 0.466583 0.477444C0.789943 0.154083 1.26194 0 1.92275 0H17.2949C17.6606 0 17.9916 0.148655 18.2314 0.388444C18.4712 0.628243 18.6198 0.960276 18.6198 1.32486V22.7809C18.6198 22.9904 18.4505 23.1596 18.2411 23.1596H8.01446L8.01538 23.1608ZM8.01538 21.3628V22.4023H17.8634V21.3628H8.01538ZM7.62802 20.6055H5.03905H5.03037H3.34526C3.13584 20.6055 2.96657 20.7747 2.96657 20.9841C2.96657 21.1936 3.13584 21.3628 3.34526 21.3628H4.66037V22.4023H2.31012C1.87826 22.4023 1.48657 22.2396 1.20443 21.977C0.929909 21.7209 0.758458 21.3694 0.758458 20.9842C0.758458 20.599 0.928814 20.2474 1.20443 19.9913C1.48654 19.7288 1.87826 19.566 2.31012 19.566H17.8645V20.6055H7.63789H7.62921L7.62802 20.6055ZM12.1288 9.28603H6.49191V8.86178C6.49191 8.69685 6.38665 8.55794 6.24126 8.50478C5.94179 8.36589 5.6922 8.16405 5.51859 7.921C5.35366 7.69097 5.25926 7.42403 5.25926 7.13975C5.25926 6.74261 5.44481 6.37803 5.74754 6.10134C6.0709 5.8062 6.52554 5.60981 7.03767 5.57292C7.21671 5.5599 7.35667 5.42535 7.3849 5.25609C7.46411 4.89801 7.6974 4.57792 8.02834 4.34681C8.37231 4.10593 8.81937 3.95945 9.31089 3.95945C9.80242 3.95945 10.2506 4.10485 10.5934 4.34681C10.9287 4.58227 11.1642 4.90778 11.2401 5.27345C11.2759 5.44272 11.4192 5.56209 11.583 5.57292C12.0952 5.60981 12.5498 5.80621 12.8732 6.10134C13.177 6.37803 13.3614 6.74261 13.3614 7.13975C13.3614 7.42403 13.267 7.69097 13.1021 7.921C12.9231 8.17057 12.6638 8.37672 12.3523 8.51669C12.2124 8.57963 12.1288 8.71743 12.1288 8.86175H12.1277V9.286L12.1288 9.28603ZM12.1288 10.9787H6.49191V10.0423H12.1288V10.9787ZM12.8862 9.09397V11.3585C12.8862 11.5679 12.717 11.7372 12.5075 11.7372H6.1131C5.90368 11.7372 5.73441 11.5679 5.73441 11.3585V9.09397C5.39696 8.90625 5.11266 8.65561 4.90216 8.36264C4.64717 8.00675 4.50069 7.58897 4.50069 7.14086C4.50069 6.52128 4.78063 5.96139 5.23744 5.54364C5.62371 5.19209 6.13805 4.94251 6.71638 4.85137C6.8748 4.4054 7.18296 4.01695 7.59202 3.73048C8.05968 3.4017 8.65862 3.20423 9.30968 3.20423C9.96073 3.20423 10.5608 3.40171 11.0273 3.73048C11.4364 4.01692 11.7446 4.4054 11.903 4.85137C12.4813 4.9436 12.9956 5.19209 13.3819 5.54364C13.8398 5.96139 14.1187 6.52128 14.1187 7.14086C14.1187 7.589 13.9722 8.00675 13.7172 8.36264C13.5067 8.65561 13.2224 8.90517 12.885 9.09397H12.8862ZM4.64069 14.2784C4.43127 14.2784 4.26199 14.1091 4.26199 13.8997C4.26199 13.6903 4.43127 13.521 4.64069 13.521H14.4596C14.669 13.521 14.8383 13.6903 14.8383 13.8997C14.8383 14.1091 14.669 14.2784 14.4596 14.2784H4.64069ZM4.64069 16.3129C4.43127 16.3129 4.26199 16.1436 4.26199 15.9342C4.26199 15.7248 4.43127 15.5555 4.64069 15.5555H14.4596C14.669 15.5555 14.8383 15.7248 14.8383 15.9342C14.8383 16.1436 14.669 16.3129 14.4596 16.3129H4.64069Z" fill="#979797"/>
</svg>