<svg width="32" height="25" viewBox="0 0 32 25" fill="none" xmlns="http://www.w3.org/2000/svg">
<mask id="mask0_1234_2066" style="mask-type:luminance" maskUnits="userSpaceOnUse" x="0" y="0" width="32" height="25">
<path d="M31.2694 0H0.832031V25H31.2694V0Z" fill="white"/>
</mask>
<g mask="url(#mask0_1234_2066)">
<path d="M31.2314 5.16403L26.5346 1.2963C26.0097 0.857149 25.2035 0.920639 24.7868 1.49207C24.4297 2.0053 24.0455 2.50265 23.6613 3.01588C23.2771 3.56085 22.8875 4.0582 22.4871 4.57143C22.2869 4.83069 22.0705 5.08466 21.8702 5.3545C21.4861 5.86773 21.0694 6.39683 20.6365 6.9418C20.4363 7.20106 20.2523 7.45503 20.0467 7.72487C15.6745 13.1799 10.9615 18.4815 6.41616 23.8307C6.18348 24.09 6.32417 24.4974 6.6813 24.5556L8.39662 24.8148C8.87821 24.9048 9.33815 24.6614 9.57083 24.2116C10.2526 22.9101 11.1617 21.3862 12.3684 19.7989C12.9852 19.0159 14.1919 17.5767 15.3174 16.2804L17.9147 19.0476H17.9472C19.2459 20.1481 20.696 21.5873 22.1679 23.3704C22.6494 23.9735 23.1418 24.6085 23.5585 25.1852L25.8907 24.037L17.0219 14.3968C17.3466 14.0476 17.6388 13.7619 17.8227 13.5661C17.7903 13.5661 18.2069 13.2804 18.7967 13.7619L20.2469 15.0317L20.9882 15.6984L21.8973 16.4815L31.2314 5.16403ZM11.1617 17.0265C12.4928 15.4709 13.851 13.8836 15.1767 12.328L3.81884 0C0.837325 6.40741 8.00702 14.1111 11.1563 17.0265H11.1617ZM13.7103 16.1799C13.943 16.1799 14.127 16.3757 14.127 16.619C14.127 16.8466 13.9268 17.0265 13.7103 17.0265C13.4452 17.0265 13.2612 16.8307 13.2612 16.619C13.2612 16.3598 13.4614 16.1799 13.7103 16.1799ZM11.903 18.3228C12.1682 18.3228 12.3521 18.5503 12.3521 18.7619C12.3521 19.0212 12.1519 19.2011 11.903 19.2011C11.6703 19.2011 11.4864 19.0053 11.4864 18.7619C11.4701 18.5503 11.6703 18.3228 11.903 18.3228ZM10.139 20.4868C10.3717 20.4868 10.5556 20.6825 10.5556 20.9259C10.5556 21.1534 10.3554 21.3651 10.139 21.3651C9.87385 21.3651 9.68987 21.1376 9.68987 20.9259C9.68987 20.6825 9.89008 20.4868 10.139 20.4868ZM25.7175 3.11111C25.4253 2.85185 25.3929 2.44445 25.6255 2.15873C25.8907 1.87302 26.3344 1.84127 26.632 2.06878C26.9242 2.32804 26.9567 2.73545 26.6915 3.02117C26.4264 3.30688 26.0097 3.32275 25.7175 3.11111Z" fill="#C61620"/>
</g>
</svg>
