<svg width="19" height="19" viewBox="0 0 19 19" fill="none" xmlns="http://www.w3.org/2000/svg">
<path d="M7.125 1.1875C6.81006 1.1875 6.50801 1.31261 6.28531 1.53531C6.06261 1.75801 5.9375 2.06006 5.9375 2.375V2.96875C5.9375 3.12622 5.87494 3.27724 5.76359 3.38859C5.65224 3.49994 5.50122 3.5625 5.34375 3.5625C5.18628 3.5625 5.03526 3.49994 4.92391 3.38859C4.81256 3.27724 4.75 3.12622 4.75 2.96875V2.375C4.75 1.74511 5.00022 1.14102 5.44562 0.695621C5.89102 0.250222 6.49511 0 7.125 0H7.71875C7.87622 0 8.02725 0.0625557 8.1386 0.173905C8.24994 0.285255 8.3125 0.436278 8.3125 0.59375C8.3125 0.751222 8.24994 0.902245 8.1386 1.01359C8.02725 1.12494 7.87622 1.1875 7.71875 1.1875H7.125ZM5.9375 11.875C5.9375 12.1899 6.06261 12.492 6.28531 12.7147C6.50801 12.9374 6.81006 13.0625 7.125 13.0625H7.71875C7.87622 13.0625 8.02725 13.1251 8.1386 13.2364C8.24994 13.3478 8.3125 13.4988 8.3125 13.6562C8.3125 13.8137 8.24994 13.9647 8.1386 14.0761C8.02725 14.1874 7.87622 14.25 7.71875 14.25H7.125C6.49511 14.25 5.89102 13.9998 5.44562 13.5544C5.00022 13.109 4.75 12.5049 4.75 11.875V11.2812C4.75 11.1238 4.81256 10.9728 4.92391 10.8614C5.03526 10.7501 5.18628 10.6875 5.34375 10.6875C5.50122 10.6875 5.65224 10.7501 5.76359 10.8614C5.87494 10.9728 5.9375 11.1238 5.9375 11.2812V11.875ZM5.9375 5.34375C5.9375 5.18628 5.87494 5.03525 5.76359 4.92391C5.65224 4.81256 5.50122 4.75 5.34375 4.75C5.18628 4.75 5.03526 4.81256 4.92391 4.92391C4.81256 5.03525 4.75 5.18628 4.75 5.34375V8.90625C4.75 9.06372 4.81256 9.21475 4.92391 9.3261C5.03526 9.43744 5.18628 9.5 5.34375 9.5C5.50122 9.5 5.65224 9.43744 5.76359 9.3261C5.87494 9.21475 5.9375 9.06372 5.9375 8.90625V5.34375Z" fill="#D70404"/>
<path d="M16.625 1.1875C16.9399 1.1875 17.242 1.31261 17.4647 1.53531C17.6874 1.75801 17.8125 2.06006 17.8125 2.375V2.96875C17.8125 3.12622 17.8751 3.27724 17.9864 3.38859C18.0978 3.49994 18.2488 3.5625 18.4062 3.5625C18.5637 3.5625 18.7147 3.49994 18.8261 3.38859C18.9374 3.27724 19 3.12622 19 2.96875V2.375C19 1.74511 18.7498 1.14102 18.3044 0.695621C17.859 0.250222 17.2549 0 16.625 0H16.0312C15.8738 0 15.7228 0.0625557 15.6114 0.173905C15.5001 0.285255 15.4375 0.436278 15.4375 0.59375C15.4375 0.751222 15.5001 0.902245 15.6114 1.01359C15.7228 1.12494 15.8738 1.1875 16.0312 1.1875H16.625ZM16.625 13.0625C16.9399 13.0625 17.242 12.9374 17.4647 12.7147C17.6874 12.492 17.8125 12.1899 17.8125 11.875V11.2812C17.8125 11.1238 17.8751 10.9728 17.9864 10.8614C18.0978 10.7501 18.2488 10.6875 18.4062 10.6875C18.5637 10.6875 18.7147 10.7501 18.8261 10.8614C18.9374 10.9728 19 11.1238 19 11.2812V11.875C19 12.5049 18.7498 13.109 18.3044 13.5544C17.859 13.9998 17.2549 14.25 16.625 14.25H16.0312C15.8738 14.25 15.7228 14.1874 15.6114 14.0761C15.5001 13.9647 15.4375 13.8137 15.4375 13.6562C15.4375 13.4988 15.5001 13.3478 15.6114 13.2364C15.7228 13.1251 15.8738 13.0625 16.0312 13.0625H16.625ZM18.4062 4.75C18.2488 4.75 18.0978 4.81256 17.9864 4.92391C17.8751 5.03525 17.8125 5.18628 17.8125 5.34375V8.90625C17.8125 9.06372 17.8751 9.21475 17.9864 9.3261C18.0978 9.43744 18.2488 9.5 18.4062 9.5C18.5637 9.5 18.7147 9.43744 18.8261 9.3261C18.9374 9.21475 19 9.06372 19 8.90625V5.34375C19 5.18628 18.9374 5.03525 18.8261 4.92391C18.7147 4.81256 18.5637 4.75 18.4062 4.75ZM10.0938 0C9.93628 0 9.78525 0.0625557 9.6739 0.173905C9.56256 0.285255 9.5 0.436278 9.5 0.59375C9.5 0.751222 9.56256 0.902245 9.6739 1.01359C9.78525 1.12494 9.93628 1.1875 10.0938 1.1875H13.6562C13.8137 1.1875 13.9647 1.12494 14.0761 1.01359C14.1874 0.902245 14.25 0.751222 14.25 0.59375C14.25 0.436278 14.1874 0.285255 14.0761 0.173905C13.9647 0.0625557 13.8137 0 13.6562 0H10.0938Z" fill="#D70404"/>
<path d="M9.5 13.6562C9.5 13.4988 9.56256 13.3478 9.6739 13.2364C9.78525 13.1251 9.93628 13.0625 10.0938 13.0625H13.6562C13.8137 13.0625 13.9647 13.1251 14.0761 13.2364C14.1874 13.3478 14.25 13.4988 14.25 13.6562C14.25 13.8137 14.1874 13.9647 14.0761 14.0761C13.9647 14.1874 13.8137 14.25 13.6562 14.25H10.0938C9.93628 14.25 9.78525 14.1874 9.6739 14.0761C9.56256 13.9647 9.5 13.8137 9.5 13.6562Z" fill="#D70404"/>
<path d="M2.375 4.75H3.5625V12.4688C3.5625 13.2561 3.87528 14.0112 4.43203 14.568C4.98878 15.1247 5.74389 15.4375 6.53125 15.4375H14.25V16.625C14.25 17.2549 13.9998 17.859 13.5544 18.3044C13.109 18.7498 12.5049 19 11.875 19H4.15625C3.05394 19 1.99679 18.5621 1.21734 17.7827C0.437889 17.0032 0 15.9461 0 14.8438V7.125C0 6.49511 0.250222 5.89102 0.695621 5.44562C1.14102 5.00022 1.74511 4.75 2.375 4.75Z" fill="#D70404"/>
</svg>
