<svg width="20" height="19" viewBox="0 0 20 19" fill="none" xmlns="http://www.w3.org/2000/svg">
<path d="M7.625 1.1875C7.31006 1.1875 7.00801 1.31261 6.78531 1.53531C6.56261 1.75801 6.4375 2.06006 6.4375 2.375V2.96875C6.4375 3.12622 6.37494 3.27724 6.26359 3.38859C6.15224 3.49994 6.00122 3.5625 5.84375 3.5625C5.68628 3.5625 5.53526 3.49994 5.42391 3.38859C5.31256 3.27724 5.25 3.12622 5.25 2.96875V2.375C5.25 1.74511 5.50022 1.14102 5.94562 0.695621C6.39102 0.250222 6.99511 0 7.625 0H8.21875C8.37622 0 8.52725 0.0625557 8.6386 0.173905C8.74994 0.285255 8.8125 0.436278 8.8125 0.59375C8.8125 0.751222 8.74994 0.902245 8.6386 1.01359C8.52725 1.12494 8.37622 1.1875 8.21875 1.1875H7.625ZM6.4375 11.875C6.4375 12.1899 6.56261 12.492 6.78531 12.7147C7.00801 12.9374 7.31006 13.0625 7.625 13.0625H8.21875C8.37622 13.0625 8.52725 13.1251 8.6386 13.2364C8.74994 13.3478 8.8125 13.4988 8.8125 13.6562C8.8125 13.8137 8.74994 13.9647 8.6386 14.0761C8.52725 14.1874 8.37622 14.25 8.21875 14.25H7.625C6.99511 14.25 6.39102 13.9998 5.94562 13.5544C5.50022 13.109 5.25 12.5049 5.25 11.875V11.2812C5.25 11.1238 5.31256 10.9728 5.42391 10.8614C5.53526 10.7501 5.68628 10.6875 5.84375 10.6875C6.00122 10.6875 6.15224 10.7501 6.26359 10.8614C6.37494 10.9728 6.4375 11.1238 6.4375 11.2812V11.875ZM6.4375 5.34375C6.4375 5.18628 6.37494 5.03525 6.26359 4.92391C6.15224 4.81256 6.00122 4.75 5.84375 4.75C5.68628 4.75 5.53526 4.81256 5.42391 4.92391C5.31256 5.03525 5.25 5.18628 5.25 5.34375V8.90625C5.25 9.06372 5.31256 9.21475 5.42391 9.3261C5.53526 9.43744 5.68628 9.5 5.84375 9.5C6.00122 9.5 6.15224 9.43744 6.26359 9.3261C6.37494 9.21475 6.4375 9.06372 6.4375 8.90625V5.34375Z" fill="black"/>
<path d="M17.125 1.1875C17.4399 1.1875 17.742 1.31261 17.9647 1.53531C18.1874 1.75801 18.3125 2.06006 18.3125 2.375V2.96875C18.3125 3.12622 18.3751 3.27724 18.4864 3.38859C18.5978 3.49994 18.7488 3.5625 18.9062 3.5625C19.0637 3.5625 19.2147 3.49994 19.3261 3.38859C19.4374 3.27724 19.5 3.12622 19.5 2.96875V2.375C19.5 1.74511 19.2498 1.14102 18.8044 0.695621C18.359 0.250222 17.7549 0 17.125 0H16.5312C16.3738 0 16.2228 0.0625557 16.1114 0.173905C16.0001 0.285255 15.9375 0.436278 15.9375 0.59375C15.9375 0.751222 16.0001 0.902245 16.1114 1.01359C16.2228 1.12494 16.3738 1.1875 16.5312 1.1875H17.125ZM17.125 13.0625C17.4399 13.0625 17.742 12.9374 17.9647 12.7147C18.1874 12.492 18.3125 12.1899 18.3125 11.875V11.2812C18.3125 11.1238 18.3751 10.9728 18.4864 10.8614C18.5978 10.7501 18.7488 10.6875 18.9062 10.6875C19.0637 10.6875 19.2147 10.7501 19.3261 10.8614C19.4374 10.9728 19.5 11.1238 19.5 11.2812V11.875C19.5 12.5049 19.2498 13.109 18.8044 13.5544C18.359 13.9998 17.7549 14.25 17.125 14.25H16.5312C16.3738 14.25 16.2228 14.1874 16.1114 14.0761C16.0001 13.9647 15.9375 13.8137 15.9375 13.6562C15.9375 13.4988 16.0001 13.3478 16.1114 13.2364C16.2228 13.1251 16.3738 13.0625 16.5312 13.0625H17.125ZM18.9062 4.75C18.7488 4.75 18.5978 4.81256 18.4864 4.92391C18.3751 5.03525 18.3125 5.18628 18.3125 5.34375V8.90625C18.3125 9.06372 18.3751 9.21475 18.4864 9.3261C18.5978 9.43744 18.7488 9.5 18.9062 9.5C19.0637 9.5 19.2147 9.43744 19.3261 9.3261C19.4374 9.21475 19.5 9.06372 19.5 8.90625V5.34375C19.5 5.18628 19.4374 5.03525 19.3261 4.92391C19.2147 4.81256 19.0637 4.75 18.9062 4.75ZM10.5938 0C10.4363 0 10.2853 0.0625557 10.1739 0.173905C10.0626 0.285255 10 0.436278 10 0.59375C10 0.751222 10.0626 0.902245 10.1739 1.01359C10.2853 1.12494 10.4363 1.1875 10.5938 1.1875H14.1562C14.3137 1.1875 14.4647 1.12494 14.5761 1.01359C14.6874 0.902245 14.75 0.751222 14.75 0.59375C14.75 0.436278 14.6874 0.285255 14.5761 0.173905C14.4647 0.0625557 14.3137 0 14.1562 0H10.5938Z" fill="black"/>
<path d="M10 13.6562C10 13.4988 10.0626 13.3478 10.1739 13.2364C10.2853 13.1251 10.4363 13.0625 10.5938 13.0625H14.1562C14.3137 13.0625 14.4647 13.1251 14.5761 13.2364C14.6874 13.3478 14.75 13.4988 14.75 13.6562C14.75 13.8137 14.6874 13.9647 14.5761 14.0761C14.4647 14.1874 14.3137 14.25 14.1562 14.25H10.5938C10.4363 14.25 10.2853 14.1874 10.1739 14.0761C10.0626 13.9647 10 13.8137 10 13.6562Z" fill="black"/>
<path d="M2.875 4.75H4.0625V12.4688C4.0625 13.2561 4.37528 14.0112 4.93203 14.568C5.48878 15.1247 6.24389 15.4375 7.03125 15.4375H14.75V16.625C14.75 17.2549 14.4998 17.859 14.0544 18.3044C13.609 18.7498 13.0049 19 12.375 19H4.65625C3.55394 19 2.49679 18.5621 1.71734 17.7827C0.937889 17.0032 0.5 15.9461 0.5 14.8438V7.125C0.5 6.49511 0.750222 5.89102 1.19562 5.44562C1.64102 5.00022 2.24511 4.75 2.875 4.75Z" fill="black"/>
</svg>
