<svg width="23" height="20" viewBox="0 0 23 20" fill="none" xmlns="http://www.w3.org/2000/svg">
<path fill-rule="evenodd" clip-rule="evenodd" d="M17.6114 0.349577C18.0482 -0.10376 18.7685 -0.118008 19.223 0.317535L22.4591 3.42545C22.6834 3.64025 22.8092 3.93693 22.8092 4.24785C22.8092 4.55758 22.6834 4.85427 22.4591 5.06906L19.223 8.17698C18.7685 8.6137 18.0482 8.59826 17.6114 8.14493C17.1759 7.6916 17.1901 6.97006 17.6447 6.53453L18.8397 5.38697H16.1885C15.3934 5.38697 14.6386 5.743 14.1343 6.35772L11.1473 9.99395L14.1604 13.6466C14.6648 14.2589 15.4172 14.6126 16.2111 14.6126H18.8492L17.6577 13.4638C17.2044 13.0271 17.1913 12.3056 17.6281 11.8523C18.0648 11.4001 18.7863 11.3871 19.2396 11.8238L22.4615 14.9317C22.6834 15.1465 22.8092 15.4432 22.8092 15.7517C22.8092 16.0614 22.6834 16.357 22.4615 16.5717L19.2396 19.6809C18.7863 20.1176 18.0648 20.1045 17.6281 19.6512C17.1913 19.1991 17.2044 18.4775 17.6577 18.0408L18.8492 16.8908H16.2111C14.7372 16.8908 13.3404 16.2322 12.4029 15.0953L4.71516 5.77581C4.21078 5.16346 3.45841 4.8098 2.66448 4.8098H1.41721C0.787063 4.8098 0.277948 4.2995 0.277948 3.67054C0.277948 3.04039 0.787063 2.53127 1.41721 2.53127H2.66448C4.13842 2.53127 5.53519 3.18992 6.47266 4.32681L9.66959 8.20275L12.373 4.91072C13.3105 3.76909 14.7108 3.10807 16.1884 3.10807H18.8396L17.6446 1.96051C17.1901 1.52498 17.1758 0.803446 17.6113 0.348925L17.6114 0.349577ZM6.63408 11.899L8.11157 13.6898L6.4881 15.6657C5.55059 16.8073 4.15143 17.4683 2.67384 17.4683H1.4171C0.786947 17.4683 0.277832 16.9592 0.277832 16.3291C0.277832 15.7001 0.786947 15.1898 1.4171 15.1898H2.67384C3.46896 15.1898 4.22255 14.8338 4.72808 14.2191L6.63408 11.899Z" fill="black"/>
</svg>
