<svg width="54" height="64" viewBox="0 0 54 64" fill="none" xmlns="http://www.w3.org/2000/svg">
<path fill-rule="evenodd" clip-rule="evenodd" d="M0.865601 26.5367C0.865601 12.1666 12.874 0.551758 27.3994 0.551758C41.9658 0.551758 53.9742 12.1666 53.9742 26.5367C53.9742 33.778 51.3407 40.5008 47.006 46.1988C42.2241 52.4842 36.3301 57.9605 29.6959 62.259C28.1775 63.2524 26.8072 63.3274 25.1408 62.259C18.4687 57.9605 12.5748 52.4842 7.83376 46.1988C3.49599 40.5008 0.865601 33.778 0.865601 26.5367ZM18.6556 27.3459C18.6556 32.1599 22.5838 35.9461 27.4004 35.9461C32.2202 35.9461 36.1862 32.1599 36.1862 27.3459C36.1862 22.5693 32.2202 18.5988 27.4004 18.5988C22.5838 18.5988 18.6556 22.5693 18.6556 27.3459Z" fill="url(#paint0_linear_848_2156)"/>
<circle cx="27.4195" cy="26.8861" r="17.1068" fill="white"/>
<g clip-path="url(#clip0_848_2156)">
<path d="M19.509 23.21L22.009 19.71C22.109 19.58 22.259 19.5 22.419 19.5H32.4189C32.5789 19.5 32.7289 19.58 32.8289 19.71L35.3289 23.21C35.3589 23.3 35.3889 23.39 35.4189 23.48C35.4289 24.59 34.5289 25.4999 33.4189 25.4999C32.8189 25.4999 32.2889 25.2399 31.9189 24.8199C31.5489 25.2399 31.0189 25.4999 30.4189 25.4999C29.8189 25.4999 29.2889 25.2399 28.9189 24.8199C28.5489 25.2399 28.0189 25.4999 27.4189 25.4999C26.8189 25.4999 26.289 25.2399 25.919 24.8199C25.549 25.2399 25.019 25.4999 24.419 25.4999C23.819 25.4999 23.289 25.2399 22.919 24.8199C22.549 25.2399 22.019 25.4999 21.419 25.4999C20.309 25.4999 19.409 24.59 19.419 23.48C19.449 23.39 19.479 23.3 19.509 23.21Z" fill="#39BDB7"/>
<path d="M21.4191 26.5002C21.9501 26.5002 22.4671 26.3582 22.9191 26.0962C23.823 26.6192 25.015 26.6192 25.919 26.0962C26.823 26.6192 28.016 26.6192 28.919 26.0962C29.822 26.6192 31.016 26.6192 31.919 26.0962C32.67 26.5322 33.6 26.5882 34.4189 26.3052V31.5001C34.4189 32.0521 33.9709 32.5001 33.419 32.5001H25.419V27.5002H22.4191V32.5001H21.4191C20.8671 32.5001 20.4191 32.0521 20.4191 31.5001V26.3172C20.7371 26.4302 21.0721 26.5002 21.4191 26.5002ZM28.419 30.5001H32.419V27.5002H28.419V30.5001Z" fill="#39BDB7"/>
</g>
<defs>
<linearGradient id="paint0_linear_848_2156" x1="27.4199" y1="0.551758" x2="27.4199" y2="63.0325" gradientUnits="userSpaceOnUse">
<stop stop-color="#81D2E8"/>
<stop offset="1" stop-color="#068083"/>
</linearGradient>
<clipPath id="clip0_848_2156">
<rect width="16" height="16" fill="white" transform="matrix(-1 0 0 1 35.4193 18)"/>
</clipPath>
</defs>
</svg>
