<svg width="13" height="13" viewBox="0 0 13 13" fill="none" xmlns="http://www.w3.org/2000/svg">
<path d="M5.39283 6.56302H3.7479V0.546982C3.7479 -0.182327 2.61798 -0.182327 2.61798 0.546982V6.56302H0.972833C0.442867 6.56302 0 7.06526 0 7.66695C0 8.26908 0.44265 8.77153 0.972833 8.77153H2.61798V12.4532C2.61798 13.1823 3.7479 13.1823 3.7479 12.4532V8.77153H5.39283C5.92345 8.77153 6.36588 8.26929 6.36588 7.66695C6.36588 7.06505 5.92345 6.56302 5.39283 6.56302ZM10.3434 11.6699H7.66393C6.83042 11.6699 6.83042 12.9998 7.66393 12.9998H10.3434C11.1772 12.9998 11.1772 11.6699 10.3434 11.6699ZM10.7497 9.33596H7.66393C6.83042 9.33596 6.83042 10.6661 7.66393 10.6661H10.7497C11.5834 10.6661 11.5834 9.33596 10.7497 9.33596ZM11.1559 7.002H7.66393C6.83042 7.002 6.83042 8.33191 7.66393 8.33191H11.1559C11.9897 8.33191 11.9897 7.002 11.1559 7.002ZM11.5622 4.66803H7.66393C6.83042 4.66803 6.83042 5.99795 7.66393 5.99795H11.5622C12.3959 5.99795 12.3959 4.66803 11.5622 4.66803ZM11.5622 5.56461H7.66393C7.4971 5.56461 7.47218 5.41944 7.47218 5.33321C7.47218 5.24676 7.4971 5.10159 7.66393 5.10159H11.5622C11.7292 5.10159 11.754 5.24676 11.754 5.33321C11.754 5.41944 11.7292 5.56461 11.5622 5.56461ZM11.9684 2.33429H7.66393C6.83042 2.33429 6.83042 3.6642 7.66393 3.6642H11.9684C12.8022 3.6642 12.8022 2.33429 11.9684 2.33429ZM11.9684 3.23087H7.66393C7.4971 3.23087 7.47218 3.0857 7.47218 2.99946C7.47218 2.91301 7.4971 2.76784 7.66393 2.76784H11.9684C12.1355 2.76784 12.1602 2.91301 12.1602 2.99946C12.1602 3.0857 12.1355 3.23087 11.9684 3.23087ZM12.3747 0.000108288H7.66393C6.83042 0.000108288 6.83042 1.33002 7.66393 1.33002H12.3747C13.2084 1.33002 13.2084 0.000108288 12.3747 0.000108288ZM12.3747 0.896686H7.66393C7.4971 0.896686 7.47218 0.751518 7.47218 0.665067C7.47218 0.578832 7.4971 0.433664 7.66393 0.433664H12.3747C12.5417 0.433664 12.5665 0.578832 12.5665 0.665067C12.5665 0.751518 12.5417 0.896686 12.3747 0.896686Z" fill="#D70404"/>
</svg>
