<svg width="15" height="5" viewBox="0 0 15 5" fill="none" xmlns="http://www.w3.org/2000/svg">
<g clip-path="url(#clip0_617_3733)">
<path d="M3.66416 0.506077C2.92201 0.307302 2.2136 1.69043 2.44293 2.65717C2.45394 2.70357 2.4895 2.74009 2.53549 2.7524L3.51847 3.01584C3.56634 3.02842 3.61463 3.01306 3.64618 2.97964C4.33403 2.25093 4.3981 0.702819 3.66416 0.506077Z" fill="#39BDB7"/>
<path d="M3.39778 3.25192L2.52162 3.01715C2.45254 2.9986 2.38143 3.03966 2.36297 3.10874L2.27907 3.42166C2.1959 3.73224 2.38087 4.05261 2.69144 4.13578C3.00016 4.21895 3.3216 4.03672 3.40555 3.72349L3.48937 3.41057C3.5078 3.34188 3.46719 3.27055 3.39778 3.25192Z" fill="#39BDB7"/>
<path d="M1.79375 2.17894C1.93661 1.57669 1.71336 0.746492 1.28453 0.29947C0.817898 -0.186918 0.255676 -0.0478853 0.0917169 0.619113C-0.0560865 1.22 0.165161 2.05099 0.590495 2.50142C0.622168 2.53494 0.670516 2.55016 0.718207 2.53762L1.70119 2.27418C1.74719 2.26187 1.78274 2.22527 1.79375 2.17894Z" fill="#39BDB7"/>
<path d="M1.87256 2.63022C1.85403 2.56116 1.78295 2.52009 1.71383 2.53863L0.837752 2.7734C0.768592 2.79187 0.727614 2.86297 0.746159 2.93205L0.829977 3.24497C0.912824 3.55413 1.23171 3.74064 1.54409 3.65726C1.85539 3.57382 2.03984 3.25453 1.95638 2.94314L1.87256 2.63022Z" fill="#39BDB7"/>
</g>
<g clip-path="url(#clip1_617_3733)">
<path d="M13.9817 0.506077C13.2395 0.307302 12.5311 1.69043 12.7604 2.65717C12.7714 2.70357 12.807 2.74009 12.853 2.7524L13.836 3.01584C13.8838 3.02842 13.9321 3.01306 13.9637 2.97964C14.6515 2.25093 14.7156 0.702819 13.9817 0.506077Z" fill="#39BDB7"/>
<path d="M13.7153 3.25192L12.8391 3.01715C12.77 2.9986 12.6989 3.03966 12.6805 3.10874L12.5966 3.42166C12.5134 3.73224 12.6984 4.05261 13.0089 4.13578C13.3177 4.21895 13.6391 4.03672 13.7231 3.72349L13.8069 3.41057C13.8253 3.34188 13.7847 3.27055 13.7153 3.25192Z" fill="#39BDB7"/>
<path d="M12.1113 2.17894C12.2541 1.57669 12.0309 0.746492 11.602 0.29947C11.1354 -0.186918 10.5732 -0.0478853 10.4092 0.619113C10.2614 1.22 10.4827 2.05099 10.908 2.50142C10.9397 2.53494 10.988 2.55016 11.0357 2.53762L12.0187 2.27418C12.0647 2.26187 12.1002 2.22527 12.1113 2.17894Z" fill="#39BDB7"/>
<path d="M12.1901 2.63022C12.1715 2.56116 12.1005 2.52009 12.0313 2.53863L11.1553 2.7734C11.0861 2.79187 11.0451 2.86297 11.0637 2.93205L11.1475 3.24497C11.2303 3.55413 11.5492 3.74064 11.8616 3.65726C12.1729 3.57382 12.3573 3.25453 12.2739 2.94314L12.1901 2.63022Z" fill="#39BDB7"/>
</g>
<mask maskUnits="userSpaceOnUse" x="0" y="0" width="0" height="0" fill="black">
<rect fill="white" width="0" height="0"/>
</mask>
<path d="M5.33105 2.43418L6.33105 3.01153V1.85683L5.33105 2.43418ZM9.22014 2.43418L8.22014 1.85683V3.01153L9.22014 2.43418ZM6.23105 2.53418H8.32014V2.33418H6.23105V2.53418Z" fill="#39BDB7" mask="url(#)"/>
<defs>
<clipPath id="clip0_617_3733">
<rect width="4.14604" height="4.14604" fill="white" transform="translate(0.0439453 0.00976562)"/>
</clipPath>
<clipPath id="clip1_617_3733">
<rect width="4.14604" height="4.14604" fill="white" transform="translate(10.3615 0.00976562)"/>
</clipPath>
</defs>
</svg>
