<svg width="30" height="15" viewBox="0 0 30 15" fill="none" xmlns="http://www.w3.org/2000/svg">
<path fill-rule="evenodd" clip-rule="evenodd" d="M17.8174 4.45438C17.056 4.11174 16.2565 3.80716 15.457 3.61681C15.2666 3.57873 15.1524 3.42645 15.2286 3.23609V0.380716C15.2286 0.152287 15.3808 0 15.6093 0C16.8276 0.0380716 18.0078 0.266502 19.1499 0.609146C19.3403 0.68529 19.4545 0.91372 19.3784 1.10408L18.3504 4.22595C18.2743 4.45438 18.0078 4.5686 17.8174 4.45438ZM11.3454 3.08382C11.3835 3.2361 11.5738 3.35032 11.7261 3.35032C12.0688 3.31225 12.4495 3.31225 12.7921 3.31225H12.7921C13.3632 3.31225 13.8962 3.35032 14.4292 3.42646C14.6576 3.46453 14.8861 3.27417 14.8861 3.04574V0.418802C14.8861 0.190372 14.6957 0.0380859 14.5053 0.0380859C13.2871 0.0761576 12.0688 0.304588 10.9647 0.647232C10.7743 0.723375 10.6601 0.913733 10.7363 1.14216L11.3454 3.08382ZM3.31203 13.1345L12.6396 14.9619C12.7157 14.9619 12.7919 14.9619 12.8299 15C13.3629 15 13.7817 14.5812 13.8198 14.0482C13.8198 13.5152 13.401 13.0964 12.868 13.0583H3.31203C3.27396 13.0583 3.23588 13.1345 3.31203 13.1345ZM13.3249 13.7817C13.4391 14.0482 13.3629 14.3528 13.0964 14.5051C12.8299 14.6193 12.5254 14.5431 12.3731 14.2766C12.2589 14.0101 12.335 13.7056 12.6015 13.5533C12.9061 13.401 13.2107 13.5152 13.3249 13.7817ZM26.4597 6.73877L23.2617 9.06114C23.1094 9.17536 23.0713 9.36572 23.1474 9.55607C23.4901 10.1652 23.7566 10.7744 23.985 11.4216C24.0612 11.6119 24.2515 11.7262 24.4419 11.65L28.1729 10.4317C28.3633 10.3556 28.4775 10.1652 28.4013 9.93679C28.0206 8.83271 27.5257 7.76671 26.9546 6.81492C26.9165 6.66263 26.65 6.62456 26.4597 6.73877ZM10.7363 3.46456C9.78452 3.65492 8.8708 3.99756 7.99515 4.41635C7.80479 4.49249 7.61444 4.45442 7.53829 4.30213L6.77686 3.23613C6.66264 3.04577 6.70072 2.81734 6.853 2.70312C7.80479 1.97976 8.8708 1.40869 9.97488 0.951829C10.1652 0.875686 10.3937 0.989901 10.4698 1.18026L11.0409 2.96962C11.117 3.19805 10.9647 3.42649 10.7363 3.46456ZM19.6071 1.21862L18.5411 4.49278C18.503 4.64507 18.5411 4.83543 18.6934 4.91157C19.3406 5.29229 19.9878 5.74914 20.5589 6.28215C20.7112 6.43443 20.9777 6.39636 21.1299 6.24408L23.3 3.23642C23.4142 3.08413 23.3762 2.81763 23.2239 2.70341C22.2721 1.98005 21.2061 1.40898 20.102 0.952119C19.9117 0.914047 19.6832 1.02826 19.6071 1.21862ZM22.6528 8.68036C22.272 8.07121 21.8152 7.53821 21.3203 7.00521C21.168 6.89099 21.168 6.70063 21.2441 6.54835L23.4903 3.46454C23.6426 3.27419 23.9091 3.23611 24.0614 3.3884C24.9371 4.14983 25.7366 5.02548 26.4219 5.97727C26.5361 6.16763 26.498 6.39606 26.3457 6.51028L23.1858 8.79457C22.9954 8.90879 22.767 8.87072 22.6528 8.68036ZM4.75897 6.85292C5.44426 6.09149 6.24377 5.44427 7.11941 4.91127C7.30977 4.79705 7.34784 4.53055 7.23363 4.37826L6.54834 3.46454C6.43413 3.27419 6.16762 3.23611 5.97727 3.3884C5.10162 4.14983 4.30211 5.02548 3.61682 5.97727C3.50261 6.12956 3.54068 6.39606 3.69297 6.51027L4.22597 6.89099C4.41633 7.00521 4.60669 6.96713 4.75897 6.85292ZM2.01808 10.5079L1.82772 10.4318C1.63736 10.3937 1.52315 10.1653 1.59929 9.97489C1.94193 8.87082 2.43687 7.80481 3.04601 6.85302C3.16023 6.66266 3.38866 6.62459 3.57901 6.73881L3.9978 7.04338C4.18816 7.15759 4.22623 7.4241 4.07395 7.57638C3.42673 8.37589 2.89373 9.28961 2.47494 10.2795C2.39879 10.4698 2.20844 10.584 2.01808 10.5079ZM24.3278 12.373C24.4801 13.0202 24.5943 13.7055 24.6705 14.3908C24.6705 14.5811 24.8608 14.7334 25.0512 14.7334H28.9345C29.1629 14.7334 29.3152 14.543 29.3152 14.3527C29.2771 13.1725 29.1248 12.0684 28.8203 10.9643C28.7822 10.7359 28.5538 10.6217 28.3253 10.6978L24.5943 11.9161C24.3659 11.9922 24.2517 12.1826 24.3278 12.373ZM2.32237 14.3914C2.32237 14.5817 2.13201 14.734 1.94165 14.734H0.380716C0.152287 14.734 0 14.6198 0 14.3533C0 13.0969 0.152287 11.7644 0.418788 10.6604C0.494931 10.4319 0.723361 10.3177 0.913719 10.3939L2.77923 11.003C2.96959 11.0791 3.0838 11.3076 3.00766 11.4979L3.00297 11.5115C2.66224 12.4958 2.36027 13.3681 2.32237 14.3914Z" fill="#D70404"/>
</svg>
