<svg width="13" height="11" viewBox="0 0 13 11" fill="none" xmlns="http://www.w3.org/2000/svg">
<g clip-path="url(#clip0_993_3390)">
<path d="M10.045 5.52785C9.77898 5.52785 9.56399 5.72798 9.56399 5.97448V9.54774C9.56399 9.79383 9.34846 9.99437 9.083 9.99437H2.3488C2.08325 9.99437 1.86782 9.79383 1.86782 9.54774V3.29455C1.86782 3.04846 2.08325 2.84793 2.3488 2.84793H6.19693C6.46292 2.84793 6.67791 2.6478 6.67791 2.4013C6.67791 2.15472 6.46292 1.95459 6.19693 1.95459H2.3488C1.55321 1.95459 0.905762 2.55579 0.905762 3.29455V9.54774C0.905762 10.2865 1.55321 10.8877 2.3488 10.8877H9.083C9.87859 10.8877 10.526 10.2865 10.526 9.54774V5.97448C10.526 5.72749 10.311 5.52785 10.045 5.52785Z" fill="white"/>
<path d="M5.41557 5.12133C5.38192 5.15257 5.35929 5.19231 5.34969 5.23517L5.00963 6.8146C4.99377 6.8878 5.01879 6.96328 5.07551 7.01644C5.12122 7.05889 5.18278 7.08163 5.24585 7.08163C5.26117 7.08163 5.27711 7.08032 5.29297 7.07721L6.99336 6.76144C7.04048 6.75244 7.08329 6.73151 7.11649 6.70018L10.9223 3.16626L9.22186 1.5874L5.41557 5.12133Z" fill="white"/>
<path d="M12.0983 0.495085C11.6294 0.0595809 10.8665 0.0595809 10.3979 0.495085L9.73224 1.11322L11.4326 2.69215L12.0983 2.07394C12.3254 1.86359 12.4504 1.58307 12.4504 1.28472C12.4504 0.986367 12.3254 0.705845 12.0983 0.495085Z" fill="white"/>
</g>
<defs>
<clipPath id="clip0_993_3390">
<rect width="11.5443" height="10.7197" fill="white" transform="translate(0.905762 0.147461)"/>
</clipPath>
</defs>
</svg>
