<svg width="20" height="20" viewBox="0 0 20 20" fill="none" xmlns="http://www.w3.org/2000/svg">
<path d="M19.6688 2.80285L17.1594 0.317329C16.9437 0.113634 16.6571 0 16.3591 0C16.061 0 15.7744 0.113634 15.5587 0.317329L13.3273 2.53415H1.35647C0.996713 2.53415 0.651689 2.6757 0.397301 2.92766C0.142914 3.17962 0 3.52135 0 3.87768V18.6565C0 19.0128 0.142914 19.3545 0.397301 19.6065C0.651689 19.8584 0.996713 20 1.35647 20H16.2777C16.6374 20 16.9824 19.8584 17.2368 19.6065C17.4912 19.3545 17.6341 19.0128 17.6341 18.6565V6.40351L19.6688 4.38822C19.8809 4.17788 20 3.89278 20 3.59553C20 3.29829 19.8809 3.01319 19.6688 2.80285ZM10.0582 12.0262L7.21643 12.6509L7.89467 9.86309L14.3718 3.43431L16.5625 5.60411L10.0582 12.0262ZM17.295 4.8383L15.1043 2.6685L16.3591 1.42574L18.5498 3.59553L17.295 4.8383Z" fill="#D70404"/>
</svg>
