<svg width="30" height="25" viewBox="0 0 30 25" fill="none" xmlns="http://www.w3.org/2000/svg">
<path d="M28.6924 23.6134H27.6112V8.48482C27.6112 8.10107 27.3003 7.79154 26.9179 7.79154H23.4166C23.0328 7.79154 22.7233 8.10247 22.7233 8.48482V23.6134H20.9488V10.5339C20.9488 10.1501 20.6379 9.8406 20.2555 9.8406H16.6953C16.3116 9.8406 16.0021 10.1515 16.0021 10.5339V23.6134H14.1183V8.48482C14.1183 8.10107 13.8074 7.79154 13.4251 7.79154H9.92369C9.53994 7.79154 9.23041 8.10247 9.23041 8.48482V23.6134H7.37188V13.2972C7.37188 12.9134 7.06096 12.6039 6.6786 12.6039H3.17584C2.79209 12.6039 2.48256 12.9148 2.48256 13.2972V23.6134H1.40275C1.019 23.6134 0.709473 23.9244 0.709473 24.3067C0.709473 24.6891 1.0204 25 1.40275 25H28.6981C29.0819 25 29.3914 24.6891 29.3914 24.3067C29.3914 23.9244 29.0805 23.6134 28.6981 23.6134H28.6924ZM24.1099 9.17788H26.2233V23.6134H24.1099V9.17788ZM17.3873 11.2269H19.5595V23.6134H17.3873V11.2269ZM10.6141 9.17788H12.7275V23.6134H10.6141V9.17788ZM3.86492 13.9902H5.97974V23.6134H3.86492V13.9902ZM4.92093 9.45646C6.26965 9.45646 7.36768 8.35843 7.36768 7.00971C7.36768 6.75201 7.32707 6.5041 7.25284 6.27162L10.117 4.33327C10.5399 4.68201 11.0806 4.8907 11.6688 4.8907C12.4909 4.8907 13.2192 4.48175 13.6618 3.8571L15.9993 4.65403C15.9979 4.69044 15.9965 4.72545 15.9965 4.76187C15.9965 6.12601 17.1071 7.23662 18.4698 7.23662C19.834 7.23662 20.9432 6.12597 20.9432 4.76187C20.9432 4.72125 20.9418 4.68064 20.9404 4.64142L23.1757 3.8669C23.6196 4.48596 24.3451 4.89071 25.1617 4.89071C26.5104 4.89071 27.6056 3.79268 27.6056 2.44396C27.6056 1.09523 26.509 0 25.1617 0C23.8143 0 22.7177 1.09663 22.7177 2.44396C22.7177 2.48177 22.7191 2.51819 22.7205 2.556L20.4852 3.33052C20.0356 2.70028 19.3003 2.28853 18.4698 2.28853C17.6351 2.28853 16.8956 2.70451 16.4474 3.34035L14.1099 2.54342C14.1113 2.5098 14.1127 2.47759 14.1127 2.44398C14.1127 1.09665 13.0161 2.15417e-05 11.6688 2.15417e-05C10.3214 2.15417e-05 9.22481 1.09665 9.22481 2.44398C9.22481 2.70168 9.26543 2.94959 9.33966 3.18347L6.47413 5.12181C6.05116 4.77308 5.51055 4.56439 4.92093 4.56439C3.5736 4.56439 2.47697 5.66102 2.47697 7.00835C2.47697 8.35567 3.5736 9.4551 4.92093 9.4551V9.45646ZM25.1659 1.38786C25.7486 1.38786 26.222 1.86124 26.222 2.44387C26.222 3.0265 25.7486 3.50268 25.1659 3.50268C24.5833 3.50268 24.1099 3.0279 24.1099 2.44387C24.1099 1.85984 24.5833 1.38786 25.1659 1.38786ZM18.4727 3.67636C19.0721 3.67636 19.5595 4.16376 19.5595 4.76316C19.5595 5.36257 19.0721 5.84997 18.4727 5.84997C17.8733 5.84997 17.3859 5.36257 17.3859 4.76316C17.3859 4.16376 17.8733 3.67636 18.4727 3.67636ZM11.6701 1.38786C12.2527 1.38786 12.7261 1.86124 12.7261 2.44387C12.7261 3.0265 12.2527 3.50268 11.6701 3.50268C11.0875 3.50268 10.6141 3.0279 10.6141 2.44387C10.6141 1.85984 11.0875 1.38786 11.6701 1.38786ZM4.92093 5.95352C5.50496 5.95352 5.97974 6.4269 5.97974 7.00953C5.97974 7.59216 5.50496 8.06834 4.92093 8.06834C4.3369 8.06834 3.86492 7.59356 3.86492 7.00953C3.86492 6.4255 4.3383 5.95352 4.92093 5.95352Z" fill="#C61620"/>
</svg>
