<svg width="24" height="24" viewBox="0 0 24 24" fill="none" xmlns="http://www.w3.org/2000/svg">
<path d="M16.8988 17.0406C17.2282 16.7895 17.2917 16.3188 17.0406 15.9894C16.7895 15.66 16.3189 15.5965 15.9894 15.8476L16.8988 17.0406ZM12 17.9853V18.7354L12.0123 18.7352L12 17.9853ZM8.01116 8.15206C8.34036 7.90068 8.40345 7.43001 8.15206 7.1008C7.90068 6.7716 7.43001 6.70851 7.1008 6.9599L8.01116 8.15206ZM4.2923 12.8926L4.92374 12.4879L4.2923 12.8926ZM4.29412 11.1061L4.92652 11.5093L4.29412 11.1061ZM10.258 5.46396C9.85467 5.55837 9.60425 5.96185 9.69865 6.36516C9.79306 6.76847 10.1965 7.01889 10.5998 6.92449L10.258 5.46396ZM12 6.01467L11.9983 6.76467H12V6.01467ZM18.0399 13.9037C17.7732 14.2206 17.8139 14.6937 18.1309 14.9604C18.4478 15.2271 18.9209 15.1864 19.1876 14.8694L18.0399 13.9037ZM19.7089 11.1091L19.0774 11.5137L19.7089 11.1091ZM19.7086 12.893L20.3418 13.295L19.7086 12.893ZM14.1348 14.0973C14.4172 13.7942 14.4004 13.3196 14.0974 13.0373C13.7944 12.7549 13.3198 12.7716 13.0374 13.0747L14.1348 14.0973ZM10.9252 10.9625C11.2283 10.6801 11.245 10.2055 10.9626 9.9025C10.6803 9.59945 10.2057 9.5827 9.90263 9.86508L10.9252 10.9625ZM15.9894 15.8476C14.8378 16.7254 13.4356 17.2117 11.9878 17.2354L12.0123 18.7352C13.7802 18.7063 15.4925 18.1125 16.8988 17.0406L15.9894 15.8476ZM12 17.2353C10.2466 17.2353 8.74981 16.4791 7.53728 15.4847C6.32247 14.4884 5.43518 13.2859 4.92374 12.4879L3.66086 13.2973C4.21872 14.1677 5.20465 15.5116 6.58607 16.6445C7.96976 17.7793 9.79216 18.7353 12 18.7353V17.2353ZM4.92652 11.5093C5.74846 10.2201 6.79195 9.08306 8.01116 8.15206L7.1008 6.9599C5.7415 7.99788 4.5781 9.26554 3.66171 10.7029L4.92652 11.5093ZM4.92374 12.4879C4.73285 12.19 4.73227 11.814 4.92652 11.5093L3.66171 10.7029C3.15726 11.4941 3.15044 12.5009 3.66086 13.2973L4.92374 12.4879ZM10.5998 6.92449C11.0582 6.81719 11.5275 6.76356 11.9983 6.76467L12.0018 5.26467C11.4148 5.26329 10.8296 5.33017 10.258 5.46396L10.5998 6.92449ZM12 6.76467C13.7541 6.76467 15.2513 7.52137 16.4641 8.51633C17.6791 9.51314 18.5663 10.7161 19.0774 11.5137L20.3404 10.7045C19.7829 9.83444 18.7971 8.49014 17.4155 7.35666C16.0316 6.22132 14.2087 5.26467 12 5.26467V6.76467ZM19.0754 12.4911C18.7623 12.9842 18.4164 13.4562 18.0399 13.9037L19.1876 14.8694C19.6073 14.3707 19.9929 13.8446 20.3418 13.295L19.0754 12.4911ZM19.0774 11.5137C19.2679 11.811 19.2688 12.1864 19.0754 12.4911L20.3418 13.295C20.8437 12.5043 20.8499 11.4997 20.3404 10.7045L19.0774 11.5137ZM13.0374 13.0747C12.6648 13.4745 12.1037 13.6391 11.5742 13.5039L11.2031 14.9572C12.2641 15.2282 13.3883 14.8984 14.1348 14.0973L13.0374 13.0747ZM11.5742 13.5039C11.0447 13.3686 10.6313 12.9552 10.496 12.4257L9.04268 12.7968C9.31363 13.8578 10.1421 14.6863 11.2031 14.9572L11.5742 13.5039ZM10.496 12.4257C10.3608 11.8962 10.5254 11.3351 10.9252 10.9625L9.90263 9.86508C9.1015 10.6116 8.77172 11.7358 9.04268 12.7968L10.496 12.4257Z" fill="#ABB3BB"/>
<path d="M5 5L19 19" stroke="#ABB3BB" stroke-width="1.5" stroke-linecap="round" stroke-linejoin="round"/>
</svg>
