<svg width="60" height="56" viewBox="0 0 60 56" fill="none" xmlns="http://www.w3.org/2000/svg">
<rect width="60" height="56" rx="10" fill="#F7F7F7"/>
<rect x="9.44141" y="7.19824" width="42.4998" height="41.3045" rx="10" fill="white"/>
<g clip-path="url(#clip0_2_842)">
<path d="M41 28.055C41 23.0533 36.9702 18.9988 32 18.9988C27.0275 18.9999 22.9977 23.0533 22.9977 28.0562C22.9977 32.5753 26.2895 36.3215 30.5915 37.001V30.6729H28.3077V28.0562H30.5937V26.0593C30.5937 23.7902 31.9381 22.5369 33.9935 22.5369C34.979 22.5369 36.0084 22.7135 36.0084 22.7135V24.941H34.8732C33.7561 24.941 33.4074 25.6397 33.4074 26.3563V28.055H35.9026L35.5044 30.6718H33.4062V36.9999C37.7082 36.3204 41 32.5742 41 28.055Z" fill="#005FCE"/>
</g>
<defs>
<clipPath id="clip0_2_842">
<rect width="18" height="18" fill="white" transform="translate(23 19)"/>
</clipPath>
</defs>
</svg>
