<svg width="20" height="18" viewBox="0 0 20 18" fill="none" xmlns="http://www.w3.org/2000/svg">
<g clip-path="url(#clip0_462_4814)">
<path d="M17.5 1.125C17.8315 1.125 18.1495 1.24353 18.3839 1.4545C18.6183 1.66548 18.75 1.95163 18.75 2.25V15.75C18.75 16.0484 18.6183 16.3345 18.3839 16.5455C18.1495 16.7565 17.8315 16.875 17.5 16.875H2.5C2.16848 16.875 1.85054 16.7565 1.61612 16.5455C1.3817 16.3345 1.25 16.0484 1.25 15.75V2.25C1.25 1.95163 1.3817 1.66548 1.61612 1.4545C1.85054 1.24353 2.16848 1.125 2.5 1.125H17.5ZM2.5 0C1.83696 0 1.20107 0.237053 0.732233 0.65901C0.263392 1.08097 0 1.65326 0 2.25L0 15.75C0 16.3467 0.263392 16.919 0.732233 17.341C1.20107 17.7629 1.83696 18 2.5 18H17.5C18.163 18 18.7989 17.7629 19.2678 17.341C19.7366 16.919 20 16.3467 20 15.75V2.25C20 1.65326 19.7366 1.08097 19.2678 0.65901C18.7989 0.237053 18.163 0 17.5 0L2.5 0Z" fill="#D70404"/>
<path d="M7.5 12.9375C7.5 12.7883 7.56585 12.6452 7.68306 12.5398C7.80027 12.4343 7.95924 12.375 8.125 12.375H11.875C12.0408 12.375 12.1997 12.4343 12.3169 12.5398C12.4342 12.6452 12.5 12.7883 12.5 12.9375C12.5 13.0867 12.4342 13.2298 12.3169 13.3352C12.1997 13.4407 12.0408 13.5 11.875 13.5H8.125C7.95924 13.5 7.80027 13.4407 7.68306 13.3352C7.56585 13.2298 7.5 13.0867 7.5 12.9375ZM5 9.5625C5 9.41332 5.06585 9.27024 5.18306 9.16475C5.30027 9.05926 5.45924 9 5.625 9H14.375C14.5408 9 14.6997 9.05926 14.8169 9.16475C14.9342 9.27024 15 9.41332 15 9.5625C15 9.71168 14.9342 9.85476 14.8169 9.96025C14.6997 10.0657 14.5408 10.125 14.375 10.125H5.625C5.45924 10.125 5.30027 10.0657 5.18306 9.96025C5.06585 9.85476 5 9.71168 5 9.5625ZM2.5 6.1875C2.5 6.03832 2.56585 5.89524 2.68306 5.78975C2.80027 5.68426 2.95924 5.625 3.125 5.625H16.875C17.0408 5.625 17.1997 5.68426 17.3169 5.78975C17.4342 5.89524 17.5 6.03832 17.5 6.1875C17.5 6.33668 17.4342 6.47976 17.3169 6.58525C17.1997 6.69074 17.0408 6.75 16.875 6.75H3.125C2.95924 6.75 2.80027 6.69074 2.68306 6.58525C2.56585 6.47976 2.5 6.33668 2.5 6.1875Z" fill="#D70404"/>
</g>
<defs>
<clipPath id="clip0_462_4814">
<rect width="20" height="18" fill="white"/>
</clipPath>
</defs>
</svg>
