<svg width="23" height="20" viewBox="0 0 23 20" fill="none" xmlns="http://www.w3.org/2000/svg">
<path fill-rule="evenodd" clip-rule="evenodd" d="M17.3336 0.349577C17.7703 -0.10376 18.4907 -0.118008 18.9452 0.317535L22.1813 3.42545C22.4056 3.64025 22.5314 3.93693 22.5314 4.24785C22.5314 4.55758 22.4056 4.85427 22.1813 5.06906L18.9452 8.17698C18.4907 8.6137 17.7703 8.59826 17.3336 8.14493C16.8981 7.6916 16.9123 6.97006 17.3668 6.53453L18.5619 5.38697H15.9107C15.1156 5.38697 14.3608 5.743 13.8565 6.35772L10.8695 9.99395L13.8826 13.6466C14.387 14.2589 15.1393 14.6126 15.9333 14.6126H18.5714L17.3799 13.4638C16.9266 13.0271 16.9135 12.3056 17.3502 11.8523C17.7869 11.4001 18.5085 11.3871 18.9618 11.8238L22.1837 14.9317C22.4056 15.1465 22.5314 15.4432 22.5314 15.7517C22.5314 16.0614 22.4056 16.357 22.1837 16.5717L18.9618 19.6809C18.5085 20.1176 17.7869 20.1045 17.3502 19.6512C16.9135 19.1991 16.9266 18.4775 17.3799 18.0408L18.5714 16.8908H15.9333C14.4593 16.8908 13.0626 16.2322 12.1251 15.0953L4.43733 5.77581C3.93295 5.16346 3.18058 4.8098 2.38665 4.8098H1.13938C0.50923 4.8098 0.000115602 4.2995 0.000115602 3.67054C0.000115602 3.04039 0.50923 2.53127 1.13938 2.53127H2.38665C3.86058 2.53127 5.25735 3.18992 6.19483 4.32681L9.39176 8.20275L12.0951 4.91072C13.0326 3.76909 14.433 3.10807 15.9106 3.10807H18.5618L17.3667 1.96051C16.9122 1.52498 16.898 0.803446 17.3335 0.348925L17.3336 0.349577ZM6.35625 11.899L7.83374 13.6898L6.21027 15.6657C5.27276 16.8073 3.87359 17.4683 2.39601 17.4683H1.13927C0.509115 17.4683 0 16.9592 0 16.3291C0 15.7001 0.509115 15.1898 1.13927 15.1898H2.39601C3.19113 15.1898 3.94471 14.8338 4.45024 14.2191L6.35625 11.899Z" fill="#979797"/>
</svg>
