<svg width="29" height="34" viewBox="0 0 29 34" fill="none" xmlns="http://www.w3.org/2000/svg">
<path fill-rule="evenodd" clip-rule="evenodd" d="M4.25094 17.4745C4.25094 16.993 4.60108 16.832 4.7584 16.7596L4.77287 16.753L10.2619 14.1626C10.6554 13.982 10.9269 13.6095 10.9797 13.1798C11.0329 12.7501 10.8594 12.3236 10.5216 12.0526C9.22318 11.0101 8.61818 8.71889 8.61818 7.49824V4.37512C8.61818 3.06918 10.8916 1.25293 12.9957 1.25293C15.1182 1.25293 17.3691 3.04074 17.3691 4.37512V7.49855C17.3691 8.70074 16.8691 11.0007 15.5282 12.0563C15.36 12.1887 15.2286 12.3621 15.1467 12.5598C15.0647 12.7575 15.0349 12.9729 15.0601 13.1854C15.1113 13.6182 15.3841 13.9923 15.7797 14.1742L17.6532 15.0629L17.9619 13.8154L16.3016 13.0385C18.0332 11.6757 18.6191 8.99885 18.6191 7.49854V4.37508C18.6191 2.30633 15.7554 0.00292969 12.9957 0.00292969C10.2357 0.00292969 7.36814 2.30637 7.36814 4.37508V7.49852C7.36814 8.8632 7.99096 11.6245 9.7391 13.0276L4.25004 15.6179C4.25004 15.6179 3.00098 16.1745 3.00098 16.8673V18.7429C3.00098 19.4332 3.56035 19.9923 4.25 19.9923H17.9984V18.7423L4.25096 18.7429L4.25094 17.4745Z" fill="black"/>
<path d="M24.39 20L22.3467 17.9572C21.9005 18.2515 21.361 18.3698 20.8326 18.2892C20.3042 18.2085 19.8245 17.9347 19.4865 17.5207C19.1484 17.1067 18.976 16.582 19.0027 16.0482C19.0293 15.5144 19.2532 15.0094 19.6308 14.6312C20.009 14.2534 20.514 14.0295 21.0479 14.0027C21.5818 13.9759 22.1066 14.1482 22.5207 14.4862C22.9348 14.8243 23.2088 15.3039 23.2895 15.8323C23.3702 16.3607 23.2519 16.9003 22.9575 17.3464L25 19.3901L24.39 20ZM21.1568 14.8626C20.8134 14.8624 20.4841 14.9986 20.2412 15.2411C19.9982 15.4837 19.8616 15.8129 19.8614 16.1562C19.8612 16.4995 19.9973 16.8288 20.2399 17.0717C20.4826 17.3146 20.8117 17.4512 21.155 17.4515C21.325 17.4516 21.4934 17.4182 21.6505 17.3533C21.8076 17.2883 21.9504 17.1931 22.0707 17.0729C22.1909 16.9528 22.2864 16.8102 22.3515 16.6532C22.4167 16.4962 22.4503 16.3279 22.4504 16.1579C22.4505 15.9879 22.4172 15.8196 22.3522 15.6625C22.2873 15.5054 22.192 15.3626 22.0719 15.2424C21.9517 15.1221 21.8091 15.0266 21.6521 14.9615C21.4951 14.8963 21.3268 14.8627 21.1568 14.8626Z" fill="black"/>
<path d="M0.883789 25.4453V29H0.412598V25.4453H0.883789ZM2.37305 27.0444V27.4302H0.78125V27.0444H2.37305ZM2.61475 25.4453V25.8311H0.78125V25.4453H2.61475ZM3.69863 26.3584V29H3.24453V26.3584H3.69863ZM3.21035 25.6577C3.21035 25.5845 3.23232 25.5226 3.27627 25.4722C3.32184 25.4217 3.38857 25.3965 3.47646 25.3965C3.56273 25.3965 3.62865 25.4217 3.67422 25.4722C3.72142 25.5226 3.74502 25.5845 3.74502 25.6577C3.74502 25.7277 3.72142 25.7879 3.67422 25.8384C3.62865 25.8872 3.56273 25.9116 3.47646 25.9116C3.38857 25.9116 3.32184 25.8872 3.27627 25.8384C3.23232 25.7879 3.21035 25.7277 3.21035 25.6577ZM4.97539 26.9224V29H4.52373V26.3584H4.95098L4.97539 26.9224ZM4.86797 27.5791L4.67998 27.5718C4.68161 27.3911 4.70846 27.2243 4.76055 27.0713C4.81263 26.9167 4.88587 26.7824 4.98027 26.6685C5.07467 26.5545 5.18698 26.4666 5.31719 26.4048C5.44902 26.3413 5.59469 26.3096 5.7542 26.3096C5.88441 26.3096 6.00159 26.3275 6.10576 26.3633C6.20993 26.3975 6.29863 26.4528 6.37187 26.5293C6.44674 26.6058 6.50371 26.7051 6.54277 26.8271C6.58184 26.9476 6.60137 27.0949 6.60137 27.269V29H6.14727V27.2642C6.14727 27.1258 6.12692 27.0151 6.08623 26.9321C6.04554 26.8475 5.98613 26.7865 5.90801 26.749C5.82988 26.71 5.73385 26.6904 5.61992 26.6904C5.50762 26.6904 5.40508 26.714 5.3123 26.7612C5.22116 26.8084 5.14222 26.8735 5.07549 26.9565C5.01038 27.0396 4.95911 27.1348 4.92168 27.2422C4.88587 27.348 4.86797 27.4603 4.86797 27.5791ZM9.05244 28.4873V25.25H9.50654V29H9.0915L9.05244 28.4873ZM7.2751 27.7085V27.6572C7.2751 27.4554 7.29951 27.2723 7.34834 27.1079C7.3988 26.9419 7.4696 26.7995 7.56074 26.6807C7.65352 26.5618 7.76338 26.4707 7.89033 26.4072C8.01891 26.3421 8.16214 26.3096 8.32002 26.3096C8.48604 26.3096 8.63089 26.3389 8.75459 26.3975C8.87992 26.4544 8.98571 26.5382 9.07197 26.6489C9.15986 26.758 9.22904 26.8898 9.27949 27.0444C9.32995 27.1991 9.36494 27.374 9.38447 27.5693V27.7939C9.36657 27.9876 9.33158 28.1618 9.27949 28.3164C9.22904 28.471 9.15986 28.6029 9.07197 28.7119C8.98571 28.821 8.87992 28.9048 8.75459 28.9634C8.62926 29.0203 8.48278 29.0488 8.31514 29.0488C8.16051 29.0488 8.01891 29.0155 7.89033 28.9487C7.76338 28.882 7.65352 28.7884 7.56074 28.668C7.4696 28.5475 7.3988 28.4059 7.34834 28.2432C7.29951 28.0788 7.2751 27.9006 7.2751 27.7085ZM7.7292 27.6572V27.7085C7.7292 27.8403 7.74222 27.964 7.76826 28.0796C7.79593 28.1951 7.83825 28.2969 7.89522 28.3848C7.95218 28.4727 8.02461 28.5418 8.1125 28.5923C8.20039 28.6411 8.30537 28.6655 8.42744 28.6655C8.57718 28.6655 8.70007 28.6338 8.79609 28.5703C8.89375 28.5068 8.97188 28.423 9.03047 28.3188C9.08906 28.2147 9.13464 28.1016 9.16719 27.9795V27.3911C9.14766 27.3016 9.11917 27.2153 9.08174 27.1323C9.04593 27.0477 8.99873 26.9728 8.94014 26.9077C8.88317 26.841 8.81237 26.7881 8.72773 26.749C8.64473 26.71 8.54626 26.6904 8.43232 26.6904C8.30863 26.6904 8.20202 26.7165 8.1125 26.7686C8.02461 26.819 7.95218 26.889 7.89522 26.9785C7.83825 27.0664 7.79593 27.1689 7.76826 27.2861C7.74222 27.4017 7.7292 27.5254 7.7292 27.6572ZM12.1895 25.4453V29H11.7183V25.4453H12.1895ZM13.6787 27.0444V27.4302H12.0869V27.0444H13.6787ZM13.9204 25.4453V25.8311H12.0869V25.4453H13.9204ZM15.0043 26.3584V29H14.5502V26.3584H15.0043ZM14.516 25.6577C14.516 25.5845 14.538 25.5226 14.5819 25.4722C14.6275 25.4217 14.6942 25.3965 14.7821 25.3965C14.8684 25.3965 14.9343 25.4217 14.9799 25.4722C15.0271 25.5226 15.0507 25.5845 15.0507 25.6577C15.0507 25.7277 15.0271 25.7879 14.9799 25.8384C14.9343 25.8872 14.8684 25.9116 14.7821 25.9116C14.6942 25.9116 14.6275 25.8872 14.5819 25.8384C14.538 25.7879 14.516 25.7277 14.516 25.6577ZM16.2811 26.7734V29H15.8294V26.3584H16.2688L16.2811 26.7734ZM17.1062 26.3438L17.1038 26.7637C17.0664 26.7555 17.0306 26.7507 16.9964 26.749C16.9638 26.7458 16.9264 26.7441 16.8841 26.7441C16.7799 26.7441 16.688 26.7604 16.6082 26.793C16.5285 26.8255 16.4609 26.8711 16.4056 26.9297C16.3502 26.9883 16.3063 27.0583 16.2737 27.1396C16.2428 27.2194 16.2225 27.3073 16.2127 27.4033L16.0857 27.4766C16.0857 27.3171 16.1012 27.1673 16.1321 27.0273C16.1647 26.8874 16.2143 26.7637 16.2811 26.6562C16.3478 26.5472 16.4324 26.4626 16.535 26.4023C16.6391 26.3405 16.7628 26.3096 16.9061 26.3096C16.9386 26.3096 16.976 26.3136 17.0184 26.3218C17.0607 26.3283 17.09 26.3356 17.1062 26.3438ZM18.6711 29.0488C18.4872 29.0488 18.3203 29.0179 18.1706 28.9561C18.0225 28.8926 17.8947 28.8039 17.7873 28.6899C17.6815 28.576 17.6001 28.4409 17.5432 28.2847C17.4862 28.1284 17.4577 27.9575 17.4577 27.772V27.6694C17.4577 27.4546 17.4895 27.2633 17.5529 27.0957C17.6164 26.9264 17.7027 26.7832 17.8117 26.666C17.9208 26.5488 18.0445 26.4601 18.1828 26.3999C18.3212 26.3397 18.4644 26.3096 18.6125 26.3096C18.8013 26.3096 18.9641 26.3421 19.1008 26.4072C19.2391 26.4723 19.3522 26.5635 19.4401 26.6807C19.528 26.7962 19.5931 26.9329 19.6354 27.0908C19.6778 27.2471 19.6989 27.418 19.6989 27.6035V27.8062H17.7263V27.4375H19.2473V27.4033C19.2408 27.2861 19.2163 27.1722 19.174 27.0615C19.1333 26.9508 19.0682 26.8597 18.9787 26.7881C18.8892 26.7165 18.7671 26.6807 18.6125 26.6807C18.51 26.6807 18.4156 26.7026 18.3293 26.7466C18.243 26.7889 18.169 26.8524 18.1071 26.937C18.0453 27.0216 17.9973 27.125 17.9631 27.2471C17.9289 27.3691 17.9118 27.5099 17.9118 27.6694V27.772C17.9118 27.8973 17.9289 28.0153 17.9631 28.126C17.9989 28.235 18.0502 28.3311 18.1169 28.4141C18.1853 28.4971 18.2674 28.5622 18.3635 28.6094C18.4611 28.6566 18.5718 28.6802 18.6955 28.6802C18.855 28.6802 18.9901 28.6476 19.1008 28.5825C19.2115 28.5174 19.3083 28.4303 19.3913 28.3213L19.6647 28.5386C19.6078 28.6248 19.5354 28.707 19.4475 28.7852C19.3596 28.8633 19.2513 28.9268 19.1228 28.9756C18.9958 29.0244 18.8452 29.0488 18.6711 29.0488ZM20.7779 26.9224V29H20.3263V26.3584H20.7535L20.7779 26.9224ZM20.6705 27.5791L20.4825 27.5718C20.4841 27.3911 20.511 27.2243 20.5631 27.0713C20.6152 26.9167 20.6884 26.7824 20.7828 26.6685C20.8772 26.5545 20.9895 26.4666 21.1197 26.4048C21.2516 26.3413 21.3972 26.3096 21.5567 26.3096C21.6869 26.3096 21.8041 26.3275 21.9083 26.3633C22.0125 26.3975 22.1012 26.4528 22.1744 26.5293C22.2493 26.6058 22.3062 26.7051 22.3453 26.8271C22.3844 26.9476 22.4039 27.0949 22.4039 27.269V29H21.9498V27.2642C21.9498 27.1258 21.9295 27.0151 21.8888 26.9321C21.8481 26.8475 21.7887 26.7865 21.7105 26.749C21.6324 26.71 21.5364 26.6904 21.4225 26.6904C21.3102 26.6904 21.2076 26.714 21.1148 26.7612C21.0237 26.8084 20.9448 26.8735 20.878 26.9565C20.8129 27.0396 20.7617 27.1348 20.7242 27.2422C20.6884 27.348 20.6705 27.4603 20.6705 27.5791ZM24.855 28.4873V25.25H25.3091V29H24.894L24.855 28.4873ZM23.0776 27.7085V27.6572C23.0776 27.4554 23.1021 27.2723 23.1509 27.1079C23.2013 26.9419 23.2721 26.7995 23.3633 26.6807C23.4561 26.5618 23.5659 26.4707 23.6929 26.4072C23.8215 26.3421 23.9647 26.3096 24.1226 26.3096C24.2886 26.3096 24.4334 26.3389 24.5571 26.3975C24.6825 26.4544 24.7882 26.5382 24.8745 26.6489C24.9624 26.758 25.0316 26.8898 25.082 27.0444C25.1325 27.1991 25.1675 27.374 25.187 27.5693V27.7939C25.1691 27.9876 25.1341 28.1618 25.082 28.3164C25.0316 28.471 24.9624 28.6029 24.8745 28.7119C24.7882 28.821 24.6825 28.9048 24.5571 28.9634C24.4318 29.0203 24.2853 29.0488 24.1177 29.0488C23.9631 29.0488 23.8215 29.0155 23.6929 28.9487C23.5659 28.882 23.4561 28.7884 23.3633 28.668C23.2721 28.5475 23.2013 28.4059 23.1509 28.2432C23.1021 28.0788 23.0776 27.9006 23.0776 27.7085ZM23.5317 27.6572V27.7085C23.5317 27.8403 23.5448 27.964 23.5708 28.0796C23.5985 28.1951 23.6408 28.2969 23.6978 28.3848C23.7547 28.4727 23.8271 28.5418 23.915 28.5923C24.0029 28.6411 24.1079 28.6655 24.23 28.6655C24.3797 28.6655 24.5026 28.6338 24.5986 28.5703C24.6963 28.5068 24.7744 28.423 24.833 28.3188C24.8916 28.2147 24.9372 28.1016 24.9697 27.9795V27.3911C24.9502 27.3016 24.9217 27.2153 24.8843 27.1323C24.8485 27.0477 24.8013 26.9728 24.7427 26.9077C24.6857 26.841 24.6149 26.7881 24.5303 26.749C24.4473 26.71 24.3488 26.6904 24.2349 26.6904C24.1112 26.6904 24.0046 26.7165 23.915 26.7686C23.8271 26.819 23.7547 26.889 23.6978 26.9785C23.6408 27.0664 23.5985 27.1689 23.5708 27.2861C23.5448 27.4017 23.5317 27.5254 23.5317 27.6572ZM27.6503 28.2993C27.6503 28.2342 27.6356 28.174 27.6063 28.1187C27.5787 28.0617 27.5209 28.0104 27.433 27.9648C27.3467 27.9176 27.2165 27.877 27.0424 27.8428C26.8959 27.8118 26.7632 27.7752 26.6444 27.7329C26.5272 27.6906 26.4271 27.6393 26.3441 27.5791C26.2628 27.5189 26.2001 27.4481 26.1562 27.3667C26.1122 27.2853 26.0902 27.1901 26.0902 27.0811C26.0902 26.9769 26.113 26.8784 26.1586 26.7856C26.2058 26.6929 26.2717 26.6107 26.3563 26.5391C26.4426 26.4674 26.546 26.4113 26.6664 26.3706C26.7868 26.3299 26.9211 26.3096 27.0692 26.3096C27.2808 26.3096 27.4615 26.347 27.6112 26.4219C27.761 26.4967 27.8757 26.5968 27.9555 26.7222C28.0352 26.8459 28.0751 26.9834 28.0751 27.1348H27.6234C27.6234 27.0615 27.6015 26.9907 27.5575 26.9224C27.5152 26.8524 27.4525 26.7946 27.3695 26.749C27.2882 26.7035 27.1881 26.6807 27.0692 26.6807C26.9439 26.6807 26.8422 26.7002 26.7641 26.7393C26.6876 26.7767 26.6314 26.8247 26.5956 26.8833C26.5614 26.9419 26.5443 27.0037 26.5443 27.0688C26.5443 27.1177 26.5525 27.1616 26.5688 27.2007C26.5867 27.2381 26.6176 27.2731 26.6615 27.3057C26.7055 27.3366 26.7673 27.3659 26.8471 27.3936C26.9268 27.4212 27.0285 27.4489 27.1522 27.4766C27.3687 27.5254 27.5469 27.584 27.6869 27.6523C27.8269 27.7207 27.9311 27.8045 27.9994 27.9038C28.0678 28.0031 28.102 28.1235 28.102 28.2651C28.102 28.3807 28.0775 28.4865 28.0287 28.5825C27.9815 28.6785 27.9123 28.7616 27.8212 28.8315C27.7317 28.8999 27.6243 28.9536 27.4989 28.9927C27.3752 29.0301 27.2361 29.0488 27.0814 29.0488C26.8487 29.0488 26.6518 29.0073 26.4906 28.9243C26.3295 28.8413 26.2074 28.7339 26.1244 28.6021C26.0414 28.4702 25.9999 28.3311 25.9999 28.1846H26.454C26.4605 28.3083 26.4963 28.4067 26.5614 28.48C26.6265 28.5516 26.7063 28.6029 26.8007 28.6338C26.8951 28.6631 26.9887 28.6777 27.0814 28.6777C27.2051 28.6777 27.3085 28.6615 27.3915 28.6289C27.4761 28.5964 27.5404 28.5516 27.5844 28.4946C27.6283 28.4377 27.6503 28.3726 27.6503 28.2993Z" fill="black"/>
</svg>
