<svg width="20" height="34" viewBox="0 0 20 34" fill="none" xmlns="http://www.w3.org/2000/svg">
<g clip-path="url(#clip0_1003_4813)">
<path d="M1.25118 17.4745C1.25118 16.9776 1.62405 16.822 1.77312 16.753L7.26218 14.1626C7.65561 13.982 7.92718 13.6095 7.97999 13.1798C8.03312 12.7501 7.85968 12.3236 7.52186 12.0526C6.22343 11.0101 5.61843 8.71889 5.61843 7.49824V4.37512C5.61843 3.06918 7.89187 1.25293 9.99593 1.25293C12.1184 1.25293 14.3694 3.04074 14.3694 4.37512V7.49855C14.3694 8.70074 13.8694 11.0007 12.5284 12.0563C12.3603 12.1887 12.2289 12.3621 12.1469 12.5598C12.065 12.7575 12.0351 12.9729 12.0603 13.1854C12.1116 13.6182 12.3844 13.9923 12.78 14.1742L14.6534 15.0629L14.9622 13.8154L13.3019 13.0385C15.0334 11.6757 15.6194 8.99885 15.6194 7.49854V4.37508C15.6194 2.30633 12.7556 0.00292969 9.99593 0.00292969C7.23593 0.00292969 4.36839 2.30637 4.36839 4.37508V7.49852C4.36839 8.8632 4.9912 11.6245 6.73935 13.0276L1.25028 15.6179C1.25028 15.6179 0.0012207 16.1745 0.0012207 16.8673V18.7429C0.0012207 19.4332 0.560596 19.9923 1.25024 19.9923H14.9987V18.7423L1.2512 18.7429V17.4745H1.25118ZM19.3737 16.2476H17.4987V14.3726C17.4987 14.0273 17.2187 13.7476 16.8737 13.7476C16.5287 13.7476 16.2487 14.0273 16.2487 14.3726V16.2476H14.3737C14.0287 16.2476 13.7487 16.5273 13.7487 16.8726C13.7487 17.2176 14.0287 17.4976 14.3737 17.4976H16.2487V19.3726C16.2487 19.7176 16.5287 19.9976 16.8737 19.9976C17.2187 19.9976 17.4987 19.7176 17.4987 19.3726V17.4976H19.3737C19.7187 17.4976 19.9987 17.2176 19.9987 16.8726C19.9987 16.5273 19.7191 16.2476 19.3737 16.2476Z" fill="black"/>
</g>
<path d="M2.88379 25.4453V29H2.4126V25.4453H2.88379ZM4.37305 27.0444V27.4302H2.78125V27.0444H4.37305ZM4.61475 25.4453V25.8311H2.78125V25.4453H4.61475ZM5.03457 27.7085V27.6523C5.03457 27.4619 5.06224 27.2853 5.11758 27.1226C5.17292 26.9582 5.25267 26.8158 5.35684 26.6953C5.461 26.5732 5.58714 26.4788 5.73525 26.4121C5.88337 26.3438 6.04938 26.3096 6.2333 26.3096C6.41885 26.3096 6.58568 26.3438 6.73379 26.4121C6.88353 26.4788 7.01048 26.5732 7.11465 26.6953C7.22044 26.8158 7.30101 26.9582 7.35635 27.1226C7.41169 27.2853 7.43936 27.4619 7.43936 27.6523V27.7085C7.43936 27.8989 7.41169 28.0755 7.35635 28.2383C7.30101 28.401 7.22044 28.5435 7.11465 28.6655C7.01048 28.786 6.88434 28.8804 6.73623 28.9487C6.58975 29.0155 6.42373 29.0488 6.23818 29.0488C6.05264 29.0488 5.88581 29.0155 5.7377 28.9487C5.58958 28.8804 5.46263 28.786 5.35684 28.6655C5.25267 28.5435 5.17292 28.401 5.11758 28.2383C5.06224 28.0755 5.03457 27.8989 5.03457 27.7085ZM5.48623 27.6523V27.7085C5.48623 27.8403 5.50169 27.9648 5.53262 28.082C5.56354 28.1976 5.60993 28.3001 5.67178 28.3896C5.73525 28.4792 5.81419 28.55 5.90859 28.6021C6.00299 28.6525 6.11286 28.6777 6.23818 28.6777C6.36188 28.6777 6.47012 28.6525 6.56289 28.6021C6.65729 28.55 6.73542 28.4792 6.79727 28.3896C6.85911 28.3001 6.9055 28.1976 6.93643 28.082C6.96898 27.9648 6.98525 27.8403 6.98525 27.7085V27.6523C6.98525 27.5221 6.96898 27.3993 6.93643 27.2837C6.9055 27.1665 6.8583 27.0632 6.79482 26.9736C6.73298 26.8825 6.65485 26.8109 6.56045 26.7588C6.46768 26.7067 6.35863 26.6807 6.2333 26.6807C6.1096 26.6807 6.00055 26.7067 5.90615 26.7588C5.81338 26.8109 5.73525 26.8825 5.67178 26.9736C5.60993 27.0632 5.56354 27.1665 5.53262 27.2837C5.50169 27.3993 5.48623 27.5221 5.48623 27.6523ZM8.59648 25.25V29H8.14238V25.25H8.59648ZM9.9123 25.25V29H9.4582V25.25H9.9123ZM10.6178 27.7085V27.6523C10.6178 27.4619 10.6454 27.2853 10.7008 27.1226C10.7561 26.9582 10.8359 26.8158 10.94 26.6953C11.0442 26.5732 11.1703 26.4788 11.3185 26.4121C11.4666 26.3438 11.6326 26.3096 11.8165 26.3096C12.0021 26.3096 12.1689 26.3438 12.317 26.4121C12.4667 26.4788 12.5937 26.5732 12.6979 26.6953C12.8036 26.8158 12.8842 26.9582 12.9396 27.1226C12.9949 27.2853 13.0226 27.4619 13.0226 27.6523V27.7085C13.0226 27.8989 12.9949 28.0755 12.9396 28.2383C12.8842 28.401 12.8036 28.5435 12.6979 28.6655C12.5937 28.786 12.4675 28.8804 12.3194 28.9487C12.1729 29.0155 12.0069 29.0488 11.8214 29.0488C11.6358 29.0488 11.469 29.0155 11.3209 28.9487C11.1728 28.8804 11.0458 28.786 10.94 28.6655C10.8359 28.5435 10.7561 28.401 10.7008 28.2383C10.6454 28.0755 10.6178 27.8989 10.6178 27.7085ZM11.0694 27.6523V27.7085C11.0694 27.8403 11.0849 27.9648 11.1158 28.082C11.1467 28.1976 11.1931 28.3001 11.255 28.3896C11.3185 28.4792 11.3974 28.55 11.4918 28.6021C11.5862 28.6525 11.6961 28.6777 11.8214 28.6777C11.9451 28.6777 12.0533 28.6525 12.1461 28.6021C12.2405 28.55 12.3186 28.4792 12.3805 28.3896C12.4423 28.3001 12.4887 28.1976 12.5196 28.082C12.5522 27.9648 12.5685 27.8403 12.5685 27.7085V27.6523C12.5685 27.5221 12.5522 27.3993 12.5196 27.2837C12.4887 27.1665 12.4415 27.0632 12.378 26.9736C12.3162 26.8825 12.2381 26.8109 12.1437 26.7588C12.0509 26.7067 11.9418 26.6807 11.8165 26.6807C11.6928 26.6807 11.5838 26.7067 11.4894 26.7588C11.3966 26.8109 11.3185 26.8825 11.255 26.9736C11.1931 27.0632 11.1467 27.1665 11.1158 27.2837C11.0849 27.3993 11.0694 27.5221 11.0694 27.6523ZM14.3579 28.5312L15.0366 26.3584H15.3345L15.2759 26.7905L14.585 29H14.2944L14.3579 28.5312ZM13.9014 26.3584L14.48 28.5557L14.5215 29H14.2163L13.4497 26.3584H13.9014ZM15.9839 28.5386L16.5356 26.3584H16.9849L16.2183 29H15.9155L15.9839 28.5386ZM15.4004 26.3584L16.0645 28.4946L16.1401 29H15.8521L15.1416 26.7856L15.083 26.3584H15.4004Z" fill="black"/>
<defs>
<clipPath id="clip0_1003_4813">
<rect width="20" height="20" fill="white"/>
</clipPath>
</defs>
</svg>
