<svg width="307" height="317" viewBox="0 0 307 317" fill="none" xmlns="http://www.w3.org/2000/svg">
<g clip-path="url(#clip0_691_2146)">
<path d="M96.1901 243.915H63.9698L36.3541 194.872C36.1359 194.103 36.3426 193.333 36.8134 192.77L51.7867 197.664C72.8804 204.557 89.5187 221.134 95.7538 242.318C95.8916 242.835 96.0523 243.375 96.1901 243.915Z" fill="#E3CFC5"/>
<path d="M68.9992 243.915H27.2828C24.1365 243.915 21.3692 241.824 20.5195 238.814L8.10674 194.643C7.88857 193.873 8.09526 193.103 8.56605 192.54C8.97942 192.046 9.61097 191.713 10.3344 191.713H28.6492C43.8407 191.713 57.1606 201.765 61.2369 216.297L68.9992 243.915Z" fill="#E3CFC5"/>
<path d="M108.419 315.117L84.6156 250.015H88.0489L111.841 315.117H108.419Z" fill="#293569"/>
<path d="M44.8627 315.117L69.2748 250.015H65.8415L41.4409 315.117H44.8627Z" fill="#293569"/>
<path d="M93.0439 248.487H30.1534V251.922H93.0439V248.487Z" fill="#3D509D"/>
<path d="M74.6831 315.117L50.8911 250.015H54.3129L78.1164 315.117H74.6831Z" fill="#3D509D"/>
<path d="M11.1381 315.117L35.5388 250.015H32.1055L7.70483 315.117H11.1381Z" fill="#3D509D"/>
<path d="M94.1003 248.866H27.2483C26.0885 248.866 25.147 247.924 25.147 246.764V243.857H96.1786V246.764C96.1901 247.924 95.2485 248.866 94.1003 248.866Z" fill="#3D509D"/>
<path d="M94.1003 248.866H58.4581V243.857H96.1901V246.764C96.1901 247.924 95.2485 248.866 94.1003 248.866Z" fill="#1A68FF"/>
<path d="M168.186 296.587C166.211 297.184 161.423 297.667 158.828 297.885L151.146 286.512C149.022 289.487 146.622 292.267 144.279 295.082C149.251 298.77 153.201 301.504 153.201 301.504C153.201 301.504 153.81 301.952 154.66 302.503C154.809 303.238 155.705 307.305 157.324 307.558L171.826 296.047C171.826 296.047 170.942 295.748 168.186 296.587Z" fill="#CE6447"/>
<path d="M155.28 305.387C155.28 305.387 155.498 307.282 157.324 308.374C157.427 308.442 157.576 308.419 157.668 308.339L171.964 296.265C172.102 296.15 172.056 295.932 171.884 295.886C171.287 295.714 169.874 295.541 167.382 296.392C167.382 296.392 166.648 299.528 163.811 300.987C157.783 304.066 155.28 305.387 155.28 305.387Z" fill="#8C3C31"/>
<path d="M72.4784 217.825L75.2228 216.964C75.2228 216.964 126.412 249.509 128.64 251.726C130.868 253.955 157.06 294.37 157.06 294.37L150.216 300.711C150.216 300.711 125.563 286.156 115.975 264.915L64.4406 240.595L72.4784 217.825Z" fill="#F5BAAC"/>
<path opacity="0.5" d="M121.084 268.304C123.886 270.509 126.229 273.324 127.882 276.506C128.307 277.287 128.629 278.16 129.019 278.907C129.409 279.677 130.236 279.975 131.063 280.331C131.913 280.699 132.659 281.273 133.302 281.905C133.956 282.537 134.542 283.203 135.151 283.847C137.585 286.443 140.054 289.028 142.431 291.682C144.796 294.347 147.162 297.012 149.424 299.769L149.378 299.815C146.829 297.322 144.383 294.726 141.925 292.141C139.48 289.545 137.137 286.868 134.749 284.214C133.543 282.916 132.452 281.446 130.868 280.734C130.477 280.55 130.052 280.377 129.65 280.136C129.249 279.895 128.893 279.516 128.674 279.102C128.261 278.264 127.986 277.448 127.572 276.655C126.022 273.473 123.783 270.613 121.039 268.349L121.084 268.304Z" fill="#F5BAAC"/>
<path d="M94.6973 303.032L104.699 291.463C102.839 289.924 101.208 287.845 99.6578 286.363C98.3833 285.145 97.1202 283.904 95.8686 282.652C92.5041 290.774 89.7253 298.551 89.7253 298.551C89.7253 298.551 89.4498 299.252 89.1397 300.229C88.4737 300.562 84.7763 302.492 84.96 304.123L99.853 315.14C99.853 315.14 99.9105 314.198 98.3833 311.751C97.3039 309.982 95.593 305.479 94.6973 303.032Z" fill="#CE6447"/>
<path d="M86.8662 301.515C86.8662 301.515 85.0863 302.182 84.4433 304.203C84.4089 304.318 84.4548 304.456 84.5581 304.525L99.6463 315.588C99.7841 315.691 99.9908 315.6 100.002 315.427C100.025 314.795 99.8645 313.394 98.4521 311.165C98.4521 311.165 95.237 311.188 93.1472 308.764C88.7263 303.641 86.8662 301.515 86.8662 301.515Z" fill="#8C3C31"/>
<path d="M44.0589 212.863C44.0589 212.863 34.1264 227.59 45.4253 241.123L106.203 261.503C106.203 261.503 99.0148 271.267 95.2485 279.481C91.4822 287.707 87.5437 296.61 87.5437 296.61L98.8426 304.146C98.8426 304.146 116.652 276.988 123.99 261.342C126.24 256.54 124.552 250.807 120.074 247.97L72.4784 217.814L44.0589 212.863Z" fill="#F5BAAC"/>
<g opacity="0.5">
<path opacity="0.5" d="M128.709 254.07C128.433 252.967 127.802 252.06 127.136 251.244C126.447 250.44 125.678 249.716 124.816 249.096L124.77 249.153C125.482 249.911 126.16 250.693 126.757 251.543C127.331 252.381 127.882 253.277 128.043 254.219C128.112 254.449 128.1 254.679 128.112 254.909C128.077 255.127 128.077 255.357 127.974 255.575C127.894 255.793 127.825 256.023 127.698 256.264C127.595 256.494 127.492 256.724 127.365 256.953C126.906 257.872 126.389 258.78 125.873 259.676C124.816 261.468 123.691 263.226 122.554 264.961C121.429 266.707 120.281 268.453 119.109 270.176L119.167 270.211C121.647 266.856 124.081 263.479 126.344 259.952C126.906 259.067 127.469 258.183 127.974 257.252C128.112 257.022 128.215 256.781 128.33 256.54C128.456 256.31 128.56 256.046 128.64 255.782C128.755 255.529 128.766 255.207 128.801 254.92C128.789 254.633 128.789 254.346 128.709 254.07Z" fill="#F5BAAC"/>
<path opacity="0.5" d="M110.36 259.619C110.164 259.619 109.981 259.642 109.786 259.653C109.808 259.435 109.831 259.205 109.831 258.987V258.757L109.625 258.665C109.085 258.435 108.545 258.217 108.006 257.999C108.327 257.424 108.672 256.862 109.028 256.31L108.97 256.264C108.545 256.793 108.132 257.333 107.742 257.895C101.943 255.483 96.1097 253.174 90.2536 250.899C83.7659 248.383 77.2552 245.948 70.7101 243.593C67.449 242.387 64.1305 241.33 60.9498 239.974C57.7921 238.607 54.7148 236.804 52.5445 234.104C51.4652 232.76 50.604 231.232 50.0758 229.589C49.5705 227.946 49.4442 226.177 49.8117 224.488C49.9035 224.063 50.0069 223.638 50.0413 223.202C50.0873 222.765 50.0298 222.306 49.9265 221.881C49.6969 221.031 49.3524 220.238 49.295 219.365C49.1457 217.63 49.7083 215.93 50.248 214.299L50.1791 214.276C49.6165 215.907 49.0423 217.607 49.1801 219.376C49.2375 220.261 49.582 221.088 49.8002 221.915C50.0413 222.754 49.8691 223.615 49.6624 224.454C49.272 226.166 49.3868 227.969 49.8806 229.658C50.3973 231.335 51.2585 232.898 52.3493 234.265C54.5425 237.033 57.6428 238.883 60.8121 240.296C64.0157 241.697 67.3227 242.766 70.5723 243.995C77.0944 246.396 83.5936 248.866 90.0469 251.428C95.8341 253.714 101.587 256.092 107.34 258.481C106.869 259.182 106.433 259.906 106.031 260.653L105.732 261.215L106.352 261.032C107.179 260.779 108.04 260.664 108.89 260.469C108.557 261.56 107.914 262.594 107.202 263.536C106.685 264.225 106.134 264.892 105.583 265.581C105.032 266.27 104.504 266.959 103.987 267.672C101.931 270.521 100.048 273.439 98.1421 276.38C97.2006 277.862 96.3508 279.401 95.6389 281.009C94.9155 282.606 94.3299 284.26 93.7443 285.903C92.573 289.189 91.5052 292.52 89.7024 295.519L89.7598 295.553C91.643 292.601 92.8716 289.281 94.0773 286.018C94.6859 284.387 95.3059 282.755 96.0408 281.182C96.7642 279.608 97.6254 278.103 98.5785 276.655C100.508 273.76 102.46 270.854 104.526 268.074C105.043 267.373 105.571 266.684 106.111 266.006C106.651 265.328 107.213 264.65 107.742 263.95C108.27 263.237 108.764 262.491 109.154 261.675C109.361 261.238 109.521 260.779 109.636 260.308C109.889 260.25 110.141 260.193 110.394 260.136C110.842 260.021 111.301 259.917 111.761 259.768L111.749 259.699C111.301 259.607 110.83 259.607 110.36 259.619ZM108.947 259.745C108.224 259.848 107.512 260.055 106.812 260.296C107.087 259.722 107.374 259.159 107.673 258.596C108.166 258.803 108.649 258.998 109.143 259.205C109.131 259.377 109.12 259.55 109.085 259.722C109.039 259.734 108.993 259.734 108.947 259.745Z" fill="#F5BAAC"/>
</g>
<path d="M106.72 234.632C106.674 234.667 106.628 234.701 106.593 234.736C110.716 237.883 114.034 239.767 114.803 238.435C115.504 237.217 114.298 233.989 112.243 230.049C110.394 231.68 108.454 233.185 106.72 234.632Z" fill="#CE6447"/>
<path d="M118.903 243.271C118.903 243.271 120.774 247.326 120.878 247.889C120.981 248.452 120.878 249.67 120.66 249.773C120.43 249.877 120.04 248.257 120.04 248.257L117.353 243.604L118.903 243.271Z" fill="#CE6447"/>
<path d="M110.325 236.861C110.325 236.861 113.299 234.506 114.792 235.218C116.296 235.93 120.189 241.008 120.625 242.111C121.062 243.214 123.278 248.866 122.876 249.348C122.474 249.831 118.466 244.19 118.466 244.19C118.466 244.19 117.8 243.26 117.123 244.317C117.123 244.317 113.919 243.283 113.127 242.26C112.335 241.226 110.773 238.331 110.325 236.861Z" fill="#CE6447"/>
<path d="M116.79 242.938C116.79 242.938 117.445 245.695 117.743 246.178C118.042 246.66 118.375 247.878 117.927 247.924C117.479 247.97 113.345 243.225 113.047 241.916C112.748 240.595 114.838 240.376 114.838 240.376L116.79 242.938Z" fill="#CE6447"/>
<path d="M71.6287 162.798L91.9415 199.674C91.9415 199.674 93.4228 200.697 93.7673 201.846C94.1117 202.983 114.08 231.071 114.08 231.071C114.08 231.071 114.999 232.438 114.769 233.127L106.662 236.666C106.662 236.666 85.5457 217.136 80.6426 208.922C75.7395 200.697 51.7637 174.78 50.8566 171.012C49.938 167.244 59.0667 161.42 71.6287 162.798Z" fill="#DD3E3A"/>
<path d="M66.5993 153.906C66.3812 153.504 66.186 153.091 66.0137 152.666C64.6013 149.093 64.808 146.416 64.808 146.416L59.882 146.726L54.9444 143.142C54.9444 143.142 54.2325 148.702 52.7857 152.229C57.3788 152.918 61.9833 153.458 66.5993 153.906Z" fill="#CE6447"/>
<path d="M64.9688 148.84C63.0512 149.013 60.9039 148.61 58.9404 147.186C58.4352 146.818 57.9644 146.393 57.5395 145.922C60.0427 147.324 62.7067 147.278 64.808 146.577C64.808 146.899 64.808 147.703 64.9688 148.84Z" fill="#C2443D"/>
<path d="M51.3159 153.998C51.3159 153.998 52.6824 149.208 52.6824 148.519C52.6824 147.829 53.4861 147.037 53.8191 147.151C54.1636 147.266 65.1181 149.093 65.5774 149.552C66.0367 150.012 67.1735 153.895 67.1735 153.895C67.1735 153.895 80.0685 171.368 81.1019 173.08C82.1239 174.791 80.7574 182.328 80.4129 185.188C80.0685 188.037 74.8209 215.907 74.8209 215.907C74.8209 215.907 75.0505 217.274 74.7061 220.02C74.7061 220.02 51.2011 217.504 43.324 213.965C43.324 213.965 43.324 210.772 44.6904 209.175C44.6904 209.175 44.1163 180.972 42.635 172.413C41.1538 163.82 45.609 156.859 51.3159 153.998Z" fill="#DD3E3A"/>
<path d="M99.4167 234.632C99.3708 234.667 99.3249 234.701 99.2904 234.736C103.413 237.883 106.731 239.767 107.5 238.435C108.201 237.217 106.995 233.989 104.94 230.049C103.091 231.68 101.151 233.185 99.4167 234.632Z" fill="#CE6447"/>
<path d="M111.6 243.271C111.6 243.271 113.472 247.327 113.575 247.889C113.678 248.452 113.575 249.67 113.357 249.773C113.127 249.877 112.737 248.257 112.737 248.257L110.05 243.604L111.6 243.271Z" fill="#CE6447"/>
<path d="M103.011 236.861C103.011 236.861 105.985 234.506 107.478 235.218C108.982 235.93 112.874 241.008 113.311 242.111C113.747 243.214 115.963 248.866 115.561 249.348C115.159 249.831 111.152 244.19 111.152 244.19C111.152 244.19 110.486 243.26 109.809 244.317C109.809 244.317 106.605 243.283 105.813 242.26C105.032 241.226 103.459 238.331 103.011 236.861Z" fill="#CE6447"/>
<path d="M109.487 242.938C109.487 242.938 110.142 245.695 110.44 246.178C110.739 246.66 111.072 247.878 110.624 247.924C110.176 247.97 106.042 243.225 105.744 241.916C105.445 240.595 107.535 240.376 107.535 240.376L109.487 242.938Z" fill="#CE6447"/>
<path d="M62.7182 155.71L84.6271 199.674C84.6271 199.674 86.1083 200.697 86.4528 201.846C86.7973 202.983 106.766 231.071 106.766 231.071C106.766 231.071 107.684 232.438 107.455 233.127L99.3478 236.666C99.3478 236.666 78.2312 217.136 73.3282 208.922C68.4251 200.697 44.4493 174.78 43.5422 171.012C42.635 167.244 50.1677 154.343 62.7182 155.71Z" fill="#DD3E3A"/>
<g opacity="0.5">
<path opacity="0.5" d="M49.6739 177.686L62.5345 194.241C64.6702 196.998 66.8519 199.743 68.9188 202.546C70.9857 205.372 73.0526 208.176 75.0046 211.082L74.9472 211.128C72.6851 208.463 70.5264 205.706 68.3677 202.96C66.2204 200.203 64.165 197.377 62.0866 194.574L49.6165 177.732L49.6739 177.686Z" fill="#DD3E3A"/>
<path opacity="0.5" d="M80.2637 179.616C78.3576 176.905 76.4629 174.183 74.5912 171.437C73.6497 170.07 72.6736 168.726 71.7895 167.324C70.9283 165.9 70.0556 164.498 69.3092 163.005L69.3666 162.97C70.446 164.246 71.3991 165.601 72.3636 166.957C73.3167 168.312 74.1664 169.748 75.0506 171.15C76.8304 173.953 78.5872 176.767 80.3326 179.593L80.2637 179.616Z" fill="#DD3E3A"/>
<path opacity="0.5" d="M107.478 231.163C105.824 227.889 104.182 224.615 102.551 221.329C101.736 219.686 100.875 218.067 100.14 216.389C99.4167 214.712 98.6703 213.035 98.0618 211.289L98.1192 211.254C99.0837 212.828 99.9105 214.459 100.749 216.091C101.575 217.722 102.287 219.411 103.045 221.088C104.561 224.42 106.054 227.774 107.535 231.128L107.478 231.163Z" fill="#DD3E3A"/>
<path opacity="0.5" d="M57.528 188.669L58.194 195.125C58.2744 196.205 58.2859 197.354 57.8151 198.411C57.3328 199.445 56.5175 200.226 56.4486 201.225C56.3453 202.225 56.7127 203.27 56.7587 204.407C56.8161 205.533 56.6438 206.636 56.4486 207.693C56.0238 209.818 55.6219 211.932 55.0707 214.034L55.0018 214.023C55.1626 211.863 55.4726 209.715 55.7712 207.578C55.9319 206.51 56.0927 205.464 56.0812 204.419C56.0927 203.397 55.7367 202.328 55.8975 201.145C55.9664 200.559 56.242 200.008 56.552 199.56C56.8505 199.1 57.1835 198.675 57.4017 198.215C57.8495 197.296 57.8955 196.205 57.8495 195.137L57.4476 188.669H57.528Z" fill="#DD3E3A"/>
</g>
<path d="M71.6517 136.192C71.468 135.79 70.7905 134.492 70.6297 133.929C70.423 132.47 70.09 131.172 69.7456 130.23C69.7341 130.218 69.7341 130.207 69.7341 130.207C69.5504 129.575 69.3207 128.943 69.0222 128.311C66.473 123.073 60.5595 120.695 55.7942 123.004C51.5456 125.072 49.6624 130.172 51.1092 134.974C51.6374 137.318 53.1991 142.878 56.6553 145.371C60.9269 148.438 65.9793 146.807 67.8969 144.705C68.5858 144.073 69.114 143.326 69.5389 142.533C69.78 142.062 69.9867 141.591 70.1589 141.086C70.1819 141.04 70.2049 140.982 70.2049 140.925C70.3197 140.58 70.4116 140.236 70.4919 139.88C70.5034 139.834 70.5149 139.788 70.5264 139.73C70.5379 139.661 70.5494 139.592 70.5723 139.535C70.6297 139.271 70.6642 139.018 70.6986 138.742C70.7216 138.535 70.7446 138.317 70.7675 138.11C70.9857 138.064 71.1694 138.007 71.1694 138.007C71.5943 137.938 71.9502 137.536 71.9502 137.099C71.9502 136.789 71.7895 136.491 71.6517 136.192Z" fill="#CE6447"/>
<path d="M64.2684 143.188C66.0123 143.188 67.4261 141.774 67.4261 140.029C67.4261 138.284 66.0123 136.87 64.2684 136.87C62.5244 136.87 61.1106 138.284 61.1106 140.029C61.1106 141.774 62.5244 143.188 64.2684 143.188Z" fill="#DE7457"/>
<path d="M57.0458 137.444C56.7817 137.065 56.6324 136.617 56.5864 136.146C56.5635 135.928 56.575 135.618 56.7931 135.434C56.9998 135.25 57.2984 135.204 57.5395 135.273C58.0562 135.411 58.3777 135.859 58.5844 136.261C58.8026 136.686 58.9863 137.088 59.1586 137.525C59.3193 137.961 59.4571 138.409 59.503 138.892C59.5145 139.018 59.5145 139.156 59.4341 139.317C59.3538 139.477 59.1356 139.558 58.9748 139.512C58.6648 139.42 58.527 139.225 58.3663 139.041C58.0677 138.662 57.8955 138.191 57.8725 137.72C57.861 137.26 58.0103 136.732 58.4352 136.502C58.0677 136.801 57.9873 137.283 58.0447 137.708C58.0907 138.145 58.2859 138.558 58.5729 138.88C58.7107 139.029 58.8945 139.202 59.0323 139.225C59.1011 139.236 59.1356 139.213 59.1586 139.167C59.193 139.11 59.193 139.018 59.1815 138.915C59.1356 138.49 58.9978 138.053 58.8371 137.651C58.6763 137.237 58.4926 136.812 58.2974 136.41C58.1022 136.02 57.8381 135.663 57.4591 135.526C57.2754 135.457 57.0687 135.48 56.9194 135.595C56.7587 135.698 56.7357 135.905 56.7357 136.134C56.7357 136.583 56.8391 137.031 57.0458 137.444Z" fill="#3B0D0D"/>
<path d="M70.2623 137.065C70.2738 137.157 70.4001 137.214 70.5608 137.191C70.7216 137.18 70.8364 137.088 70.8249 137.008C70.8135 136.916 70.6871 136.858 70.5264 136.881C70.3771 136.904 70.2508 136.985 70.2623 137.065Z" fill="#F1CEB7"/>
<path d="M70.0671 137.961C69.9178 137.973 69.8259 137.892 69.7341 137.823C69.6652 137.731 69.5848 137.651 69.5848 137.502C69.7456 137.502 69.8259 137.571 69.9178 137.639C69.9867 137.72 70.0556 137.8 70.0671 137.961Z" fill="#3B0D0D"/>
<path d="M70.2049 140.925C70.1934 140.982 70.1819 141.04 70.1589 141.086C69.8834 141.074 69.5963 141.017 69.3666 140.856C69.6537 140.902 69.9293 140.925 70.2049 140.925Z" fill="#3B0D0D"/>
<path d="M70.6986 138.754C70.6642 139.018 70.6182 139.282 70.5723 139.546C70.5608 139.604 70.5493 139.673 70.5264 139.742C69.9752 139.788 69.3092 139.73 68.5858 139.409C68.5858 139.409 68.6203 139.374 68.6777 139.328C68.9073 139.133 69.5159 138.673 70.3427 138.708C70.469 138.719 70.5838 138.731 70.6986 138.754Z" fill="#E27F5C"/>
<path d="M70.5723 139.546C70.5608 139.604 70.5494 139.673 70.5264 139.742C70.5149 139.788 70.5034 139.834 70.4919 139.891C70.4116 139.903 70.3427 139.914 70.2623 139.914C69.803 139.926 69.3322 139.845 68.9188 139.684C68.494 139.523 68.0921 139.282 67.7935 138.949C68.0806 139.11 68.3791 139.236 68.6892 139.34C68.7925 139.374 68.8959 139.397 68.9992 139.432C69.4126 139.523 69.8374 139.592 70.2623 139.581C70.3656 139.558 70.469 139.558 70.5723 139.546Z" fill="#3B0D0D"/>
<path d="M68.2988 135.388C68.2988 135.801 68.1954 136.18 68.0347 136.399C67.8739 136.341 67.5868 136.238 67.2538 136.203C67.162 135.997 67.0931 135.698 67.0931 135.388C67.0931 135.215 67.116 135.043 67.1505 134.894C67.2424 134.457 67.449 134.159 67.7017 134.159C68.0347 134.159 68.2988 134.71 68.2988 135.388Z" fill="#3B0D0D"/>
<path d="M67.7017 134.159C67.7017 134.159 66.8634 134.193 66.473 133.848C66.473 133.848 66.5993 134.779 67.3227 134.951L67.7017 134.159Z" fill="#3B0D0D"/>
<path d="M68.3676 132.458C67.9887 132.654 67.7246 132.631 67.4376 132.596C67.1505 132.585 66.8749 132.608 66.5993 132.654C66.3237 132.711 66.0482 132.803 65.7841 132.941C65.5085 133.067 65.2673 133.251 64.9917 133.435L64.9803 133.446C64.8999 133.504 64.7965 133.481 64.7391 133.4C64.7047 133.343 64.6932 133.274 64.7276 133.228C65.0377 132.596 65.6118 132.033 66.3467 131.792C66.7141 131.666 67.0931 131.608 67.472 131.62C67.8509 131.62 68.2413 131.712 68.494 132.137C68.5514 132.24 68.5169 132.366 68.4136 132.424C68.4136 132.424 68.4136 132.424 68.4021 132.424L68.3676 132.458Z" fill="#3B0D0D"/>
<path d="M68.6203 131.712C68.4595 131.861 68.3677 131.999 68.2758 132.114L68.1495 132.286C68.1036 132.343 68.0347 132.389 67.9543 132.47C68.1495 132.608 68.4251 132.493 68.5514 132.32C68.6662 132.137 68.7121 131.907 68.6203 131.712Z" fill="#3B0D0D"/>
<path d="M71.1235 123.302C69.9293 122.165 68.1954 121.775 66.5534 121.66C64.8999 121.533 63.2234 121.625 61.6273 121.2C60.3987 120.878 59.2275 120.258 57.9529 120.189C56.0697 120.074 54.2899 121.189 53.1187 122.659C51.9475 124.13 51.8671 126.462 50.4892 127.748C46.8607 131.114 50.3514 139.121 52.1427 142.602C52.8316 143.958 54.3703 144.705 55.8401 144.291C55.8516 144.291 55.8745 144.279 55.886 144.279C56.5176 144.096 57.2639 143.326 57.9184 142.51C58.573 141.695 58.3318 140.523 57.4477 139.96C55.4841 138.708 54.0718 135.192 56.3109 134.618C57.241 134.377 58.1136 134.687 58.883 135.227C58.9863 135.56 59.0552 135.951 59.1356 136.376C59.2504 136.962 59.3997 137.674 59.8016 138.271C60.169 138.846 60.8006 139.386 61.5699 139.409C61.7192 139.409 61.8685 139.317 61.9029 139.156C61.9488 138.972 61.8455 138.788 61.6618 138.742H61.6388C61.2025 138.627 60.8924 138.225 60.7317 137.777C60.5594 137.329 60.5594 136.835 60.5709 136.249C60.5824 135.675 60.6398 135.043 60.4676 134.285C60.4331 134.124 60.3757 133.94 60.2953 133.756C60.4217 133.573 60.5594 133.389 60.6858 133.205C61.2714 132.32 61.4321 131.172 61.1221 130.161C60.9958 129.736 61.2369 129.184 61.6388 128.989C61.9488 128.84 62.3048 128.805 62.6493 128.817C63.5105 128.851 64.3372 129.15 65.164 129.414C65.8759 129.632 66.5878 129.805 67.3227 129.885C67.8509 129.942 68.471 130.023 68.9877 129.897C69.114 129.862 69.6078 129.977 69.5504 129.782L70.4919 133.205C71.3991 131.677 72.3521 130 72.5818 128.231C72.8344 126.45 72.3981 124.532 71.1235 123.302Z" fill="#F6A83C"/>
<g opacity="0.5">
<path opacity="0.5" d="M52.5561 126.76C53.8421 126.875 55.1282 127.013 56.4142 127.174C57.0573 127.254 57.7118 127.277 58.3318 127.427C58.9634 127.576 59.5834 127.76 60.192 128.058L60.1805 128.127C59.5146 128.208 58.86 128.173 58.217 128.104C57.574 128.047 56.9539 127.852 56.3224 127.714C55.0593 127.438 53.8077 127.139 52.5446 126.829L52.5561 126.76Z" fill="#F6A83C"/>
<path opacity="0.5" d="M53.9799 127.507C52.7857 129.828 52.3609 132.493 52.7398 135.009C52.935 136.272 53.3828 137.467 53.8881 138.627C54.3933 139.788 55.0593 140.891 55.8286 141.947L55.7827 141.993C54.7378 141.178 53.8881 140.109 53.268 138.915C52.6479 137.72 52.3264 136.387 52.1886 135.066C51.913 132.401 52.5331 129.69 53.911 127.461L53.9799 127.507Z" fill="#F6A83C"/>
<path opacity="0.5" d="M55.4612 127.53C54.8526 128.736 54.5885 130.069 54.6459 131.367C54.6689 132.022 54.8411 132.654 54.9444 133.285C55.0593 133.917 55.2315 134.549 55.4037 135.215L55.3463 135.25C54.8411 134.756 54.4966 134.124 54.2784 133.446C54.0488 132.769 54.0603 132.045 54.0947 131.356C54.1636 129.965 54.6114 128.598 55.4037 127.484L55.4612 127.53Z" fill="#F6A83C"/>
<path opacity="0.5" d="M57.6659 127.702C57.597 127.346 57.7462 126.979 57.9759 126.703C58.1941 126.427 58.4696 126.197 58.7567 125.991C59.3194 125.577 59.882 125.175 60.5365 124.876C61.191 124.578 61.9259 124.451 62.6378 124.463C63.3613 124.474 64.0617 124.635 64.7392 124.819C66.0941 125.209 67.3687 125.703 68.6777 126.06C69.3207 126.243 69.9982 126.404 70.6527 126.531C70.9742 126.588 71.2958 126.588 71.5713 126.473C71.8584 126.37 72.1225 126.14 72.2029 125.818H72.2718C72.2948 126.197 72.0307 126.542 71.7206 126.749C71.3761 126.956 70.9857 127.002 70.6183 127.002C69.8949 126.979 69.2059 126.864 68.517 126.726C67.1276 126.439 65.8645 125.784 64.5899 125.347C63.3153 124.911 61.9374 124.67 60.6858 125.186C60.0542 125.428 59.4686 125.784 58.8945 126.163C58.6074 126.347 58.3319 126.542 58.1022 126.795C57.884 127.036 57.7118 127.358 57.7577 127.691L57.6659 127.702Z" fill="#F6A83C"/>
</g>
<path d="M53.8881 243.915H27.1565C24.0217 243.915 21.2773 241.824 20.4391 238.814L8.10674 194.643C7.88857 193.873 8.09526 193.103 8.56605 192.54L23.4935 202.167C38.4439 211.817 49.2835 226.694 53.8881 243.915Z" fill="#F2E7E1"/>
<path d="M216.034 207.061C202.956 205.786 183.493 204.982 161.779 204.982C140.054 204.982 120.602 205.786 107.523 207.061H90.4488V210.91C90.4488 214.184 122.382 216.849 161.779 216.849C201.176 216.849 233.098 214.184 233.098 210.91V207.061H216.034Z" fill="#EFC39C"/>
<path d="M161.779 213C201.174 213 233.109 210.341 233.109 207.061C233.109 203.781 201.174 201.122 161.779 201.122C122.384 201.122 90.4488 203.781 90.4488 207.061C90.4488 210.341 122.384 213 161.779 213Z" fill="#F2E7E1"/>
<path d="M164.948 215.964H158.61V305.881H164.948V215.964Z" fill="#EFC39C"/>
<path d="M198.156 311.705C193.368 310.843 163.237 303.824 163.237 303.824H162.388H161.193H160.344C160.344 303.824 130.213 310.843 125.425 311.705C120.637 312.567 120.797 315.645 120.797 315.645H202.795C202.772 315.634 202.944 312.555 198.156 311.705Z" fill="#EFC39C"/>
<path d="M158.587 188.91C158.334 187.405 158.506 185.866 158.667 184.349C158.828 182.833 158.977 181.282 158.667 179.789C158.311 178.02 157.335 176.25 157.84 174.527C158.173 173.378 159.126 172.402 159.104 171.207C159.092 170.196 158.369 169.323 158.185 168.335C158.024 167.416 158.334 166.486 158.644 165.613C159.184 164.073 159.724 162.545 160.252 161.006C160.47 160.363 160.826 159.627 161.492 159.535C162.055 159.467 162.571 159.949 162.767 160.477C162.973 161.006 162.962 161.603 163.042 162.166C163.226 163.384 163.823 164.487 164.305 165.613C164.799 166.738 165.189 167.979 164.925 169.174C164.673 170.323 163.857 171.299 163.743 172.459C163.559 174.309 165.224 175.963 165.086 177.824C165.006 178.95 164.282 179.915 163.949 180.984C163.49 182.454 163.777 184.051 164.098 185.567C164.42 187.084 164.776 188.646 164.431 190.151C164.133 191.472 162.732 193.482 161.136 192.954C159.666 192.471 158.816 190.3 158.587 188.91Z" fill="#786C35"/>
<path d="M159.747 182.58C159.127 181.845 158.38 181.19 157.99 180.306C157.094 178.307 158.288 175.952 157.84 173.815C157.611 172.689 156.945 171.713 156.29 170.771C155.67 169.863 155.027 168.944 154.223 168.197C153.833 167.841 153.293 167.508 152.811 167.726C152.409 167.91 152.248 168.404 152.306 168.841C152.363 169.277 152.581 169.668 152.742 170.07C153.179 171.115 153.305 172.299 153.098 173.413C152.8 175.01 151.858 176.549 152.191 178.134C152.49 179.559 153.764 180.593 154.212 181.983C154.729 183.614 154.005 185.36 154.04 187.061C154.074 188.738 154.889 190.392 156.21 191.438C157.243 192.253 160.608 193.666 161.423 192.012C162.319 190.197 162.089 187.589 161.492 185.74C161.124 184.602 160.539 183.511 159.747 182.58Z" fill="#9E8F46"/>
<path d="M158.587 190.162C158.69 188.393 158.024 186.716 157.278 185.142C156.543 183.557 155.67 181.983 155.234 180.214C154.786 178.433 154.958 176.607 154.958 174.895C154.958 173.206 154.637 171.414 153.362 170.162L153.408 170.104C154.189 170.564 154.74 171.357 155.085 172.195C155.441 173.045 155.578 173.964 155.636 174.86C155.728 176.664 155.406 178.399 155.762 180.087C156.107 181.776 156.899 183.362 157.576 184.993C158.254 186.613 158.851 188.37 158.644 190.162H158.587Z" fill="#786C35"/>
<path d="M162.962 182.58C163.582 181.845 164.328 181.19 164.719 180.306C165.614 178.307 164.42 175.952 164.868 173.815C165.097 172.689 165.763 171.713 166.418 170.771C167.038 169.863 167.681 168.944 168.485 168.197C168.875 167.841 169.415 167.508 169.897 167.726C170.299 167.91 170.46 168.404 170.402 168.841C170.345 169.277 170.127 169.668 169.966 170.07C169.53 171.115 169.403 172.299 169.61 173.413C169.909 175.01 170.85 176.549 170.517 178.134C170.219 179.559 168.944 180.593 168.496 181.983C167.98 183.614 168.703 185.36 168.669 187.061C168.634 188.738 167.819 190.392 166.498 191.438C165.465 192.253 162.101 193.666 161.285 192.012C160.39 190.197 160.619 187.589 161.216 185.74C161.584 184.602 162.169 183.511 162.962 182.58Z" fill="#9E8F46"/>
<path d="M164.087 189.852C163.915 188.956 164.064 188.014 164.397 187.164C164.719 186.314 165.178 185.521 165.614 184.729C166.544 183.189 167.222 181.535 167.509 179.789C167.658 178.916 167.716 178.043 167.693 177.158C167.67 176.273 167.601 175.377 167.601 174.458C167.624 173.551 167.693 172.597 168.003 171.713C168.29 170.828 168.806 169.99 169.553 169.45L169.599 169.496C169.002 170.162 168.646 170.989 168.462 171.839C168.278 172.689 168.244 173.562 168.29 174.447C168.313 175.331 168.393 176.227 168.37 177.147C168.347 178.066 168.255 178.985 168.049 179.881C167.681 181.684 166.889 183.384 165.901 184.889C165.419 185.648 164.937 186.406 164.581 187.221C164.213 188.026 164.03 188.933 164.144 189.818L164.087 189.852Z" fill="#786C35"/>
<path d="M152.57 190.461H170.965C172.113 190.461 172.963 191.529 172.699 192.655C171.964 195.734 170.609 201.283 169.748 204.143C169.518 204.901 168.829 205.418 168.037 205.418H155.911C155.131 205.418 154.453 204.913 154.212 204.178C153.431 201.708 151.674 196.102 150.836 192.667C150.572 191.552 151.422 190.461 152.57 190.461Z" fill="#F6A83C"/>
<path d="M279.338 307.891C279.338 307.891 281.107 301.894 282.944 294.668H271.737L272.77 308.557C270.623 310.016 266.627 312.659 264.744 313.428C262.103 314.497 261.598 315.301 261.598 315.301H279.867C280.969 314.083 279.166 310.281 278.833 309.614C279.143 308.626 279.338 307.891 279.338 307.891Z" fill="#E69469"/>
<path d="M279.614 311.751C279.614 311.751 280.429 310.637 279.832 309.787C279.58 309.419 276.755 311.372 276.066 311.246C275.377 311.119 273.494 308.672 273.494 308.672C273.494 308.672 271.611 306.271 271.013 306.444C270.416 306.616 270.37 309.051 270.37 309.051C270.37 309.051 264.078 313.072 262.838 313.336C261.954 313.52 261.115 314.118 260.725 314.795C260.507 315.174 260.782 315.645 261.219 315.645H279.476C279.717 315.645 279.935 315.496 280.016 315.255C280.28 314.428 280.739 312.509 279.614 311.751Z" fill="#24264F"/>
<path d="M291.154 166.727C291.154 166.727 292.865 178.031 293.209 183.683C293.554 189.335 287.043 252.531 287.043 252.531L283.449 305.122H270.784L264.79 166.555L291.154 166.727Z" fill="#F6A83C"/>
<path opacity="0.5" d="M281.704 304.778C283.518 282.709 285.286 260.641 286.997 238.561L288.329 221.456L289.569 204.35C289.925 198.641 290.281 192.931 290.58 187.222C290.626 185.786 290.752 184.384 290.741 182.914C290.741 182.546 290.752 182.19 290.741 181.822L290.614 180.765L290.396 178.64C290.121 175.802 289.879 172.942 289.661 170.093H289.592C289.73 172.953 289.879 175.802 290.086 178.663L290.27 180.8L290.385 181.868C290.396 182.224 290.373 182.569 290.362 182.925C290.35 184.327 290.212 185.774 290.132 187.187C289.753 192.885 289.317 198.595 288.88 204.293L286.446 238.504L281.612 304.766H281.704V304.778Z" fill="#F6A83C"/>
<path d="M262.218 307.891C262.218 307.891 263.159 304.686 264.388 300.148H255.03L255.65 308.557C253.502 310.016 249.506 312.659 247.623 313.428C244.982 314.497 244.477 315.301 244.477 315.301H262.746C263.848 314.083 262.045 310.281 261.712 309.614C262.023 308.626 262.218 307.891 262.218 307.891Z" fill="#E69469"/>
<path d="M263.056 311.751C263.056 311.751 263.871 310.637 263.274 309.787C263.021 309.419 260.197 311.372 259.508 311.246C258.819 311.119 256.936 308.672 256.936 308.672C256.936 308.672 255.053 306.271 254.455 306.444C253.858 306.616 253.812 309.051 253.812 309.051C253.812 309.051 247.52 313.072 246.28 313.336C245.396 313.52 244.557 314.118 244.167 314.795C243.949 315.174 244.224 315.645 244.661 315.645H262.918C263.159 315.645 263.377 315.496 263.458 315.255C263.71 314.428 264.181 312.509 263.056 311.751Z" fill="#24264F"/>
<path d="M248.014 167.06C248.014 167.06 246.647 178.709 246.475 182.649C246.303 186.59 253.491 305.122 253.491 305.122H265.812L269.061 185.223L276.249 166.899L248.014 167.06Z" fill="#F6A83C"/>
<path opacity="0.5" d="M264.158 304.778H264.285L264.652 286.225C264.721 282.732 264.824 279.229 264.801 275.736C264.767 272.244 264.744 268.74 264.583 265.248H264.514C264.285 268.74 264.216 272.244 264.124 275.736C264.055 279.229 264.101 282.732 264.112 286.225L264.158 304.778Z" fill="#F6A83C"/>
<path d="M293.382 168.174H269.67V168.255H247.669C247.669 168.255 246.245 180.823 246.016 186.98C245.786 193.149 248.99 264.398 248.99 264.398C248.99 264.398 249.621 264.444 250.747 264.513C250.953 264.524 251.183 264.536 251.436 264.559C252.756 264.639 254.559 264.731 256.683 264.823C256.913 264.834 257.131 264.846 257.372 264.846C258.98 264.903 260.736 264.972 262.62 265.018C262.849 265.03 263.067 265.03 263.309 265.03C264.985 265.075 266.742 265.087 268.556 265.098C268.786 265.11 269.004 265.11 269.245 265.11C270.967 265.121 272.736 265.098 274.493 265.064C274.722 265.052 274.952 265.052 275.182 265.041C276.938 264.995 278.707 264.938 280.429 264.846C280.659 264.834 280.889 264.823 281.118 264.811C282.531 264.731 283.908 264.627 285.263 264.513C285.929 264.455 286.446 263.892 286.446 263.214L287.33 170.231H293.393V168.174H293.382Z" fill="#24264F"/>
<g opacity="0.5">
<g opacity="0.5">
<path opacity="0.5" d="M251.424 168.266V264.57C251.183 264.547 250.953 264.536 250.735 264.524V168.266H251.424Z" fill="#24264F"/>
</g>
<g opacity="0.5">
<path opacity="0.5" d="M257.361 168.266V264.857C257.131 264.846 256.901 264.834 256.672 264.834V168.266H257.361Z" fill="#24264F"/>
</g>
<g opacity="0.5">
<path opacity="0.5" d="M263.297 168.266V265.041C263.067 265.03 262.838 265.03 262.608 265.03V168.266H263.297Z" fill="#24264F"/>
</g>
<g opacity="0.5">
<path opacity="0.5" d="M269.222 168.266V265.121C268.992 265.121 268.763 265.121 268.533 265.11V168.266H269.222Z" fill="#24264F"/>
</g>
<g opacity="0.5">
<path opacity="0.5" d="M275.159 168.266V265.052C274.929 265.064 274.699 265.064 274.47 265.075V168.266H275.159Z" fill="#24264F"/>
</g>
<g opacity="0.5">
<path opacity="0.5" d="M281.095 168.266V264.823C280.866 264.834 280.647 264.846 280.406 264.857V168.266H281.095Z" fill="#24264F"/>
</g>
</g>
<g opacity="0.5">
<path opacity="0.5" d="M262.447 200.869C263.171 203.971 264.663 206.809 266.466 209.382C267.373 210.668 268.395 211.875 269.371 213.115C270.324 214.379 271.346 215.585 272.265 216.895L272.219 216.941C271.002 215.895 269.911 214.735 268.843 213.552C267.787 212.346 266.88 211.036 266.018 209.68C265.157 208.336 264.376 206.923 263.745 205.453C263.125 203.982 262.654 202.443 262.378 200.869H262.447Z" fill="#24264F"/>
<path opacity="0.5" d="M259.692 201.501C259.956 205.648 261.069 209.703 262.872 213.414C263.779 215.264 264.893 216.998 266.064 218.687C267.224 220.387 268.568 221.95 269.969 223.489L269.923 223.535C268.246 222.283 266.799 220.743 265.513 219.078C264.239 217.412 263.228 215.551 262.378 213.632C260.656 209.807 259.703 205.66 259.634 201.49L259.692 201.501Z" fill="#24264F"/>
</g>
<path d="M231.341 129.426C228.757 134.963 225.91 141.499 223.751 147.531C219.583 141.178 210.856 128.989 205.758 124.922C205.413 124.153 204.77 123.509 203.909 123.211C202.772 122.808 201.635 122.487 200.992 122.372C200.946 122.36 200.889 122.36 200.831 122.36C199.029 121.694 193.873 121.177 193.597 121.487C193.299 121.82 194.378 122.498 194.918 122.636C195.205 122.717 195.974 123.176 196.64 123.601C196.675 123.831 196.663 124.003 196.617 124.141L191.806 122.671C191.806 122.671 190.417 121.752 190.313 121.981C190.21 122.211 190.979 123.165 191.439 123.509C191.553 123.59 191.875 123.75 192.311 123.957C190.635 123.693 188.97 123.498 188.981 123.808C189.016 124.428 194.505 127.059 195.572 127.576C196.353 127.955 199.959 128.621 202.462 128.759C204.426 137.605 212.084 154.975 213.451 158.168C214.898 161.557 219.594 164.671 221.489 165.819C221.546 165.865 221.592 165.923 221.65 165.969C224.853 168.588 234.418 158.295 243.547 146.818C238.391 141.89 234.315 135.985 231.341 129.426Z" fill="#E69469"/>
<path d="M226.277 153.78C226.231 153.217 226.162 152.643 226.001 152.103C225.864 151.563 225.68 151.023 225.45 150.517C225.221 150.012 224.956 149.506 224.646 149.047C224.336 148.587 223.98 148.151 223.659 147.737L222.407 146.118L224.095 147.197C224.796 147.645 225.485 148.128 226.105 148.725L226.07 148.783C225.244 148.541 224.486 148.185 223.739 147.795L224.176 147.255C224.601 147.703 224.888 148.208 225.163 148.737C225.439 149.254 225.668 149.794 225.864 150.345C226.059 150.897 226.197 151.459 226.277 152.045C226.369 152.62 226.369 153.206 226.357 153.769H226.277V153.78Z" fill="#D46D4D"/>
<path d="M256.051 101.292C256.051 101.292 246.636 102.831 239.792 111.573C232.948 120.304 227.804 134.354 227.804 134.354C227.804 134.354 232.432 147.197 242.18 149.771L254.674 138.467L256.051 101.292Z" fill="#3D509D"/>
<path d="M200.12 125.267C215.98 125.267 228.838 123.292 228.838 120.856C228.838 118.419 215.98 116.444 200.12 116.444C184.259 116.444 171.401 118.419 171.401 120.856C171.401 123.292 184.259 125.267 200.12 125.267Z" fill="#F8BF8A"/>
<path d="M207.262 121.786C211.936 121.786 215.724 120.228 215.724 118.305C215.724 116.383 211.936 114.824 207.262 114.824C202.588 114.824 198.799 116.383 198.799 118.305C198.799 120.228 202.588 121.786 207.262 121.786Z" fill="#E3CFC5"/>
<path d="M215.724 118.305C215.724 120.224 211.935 121.786 207.262 121.786C202.588 121.786 198.799 120.224 198.799 118.305C198.799 118.213 198.811 118.121 198.822 118.041C199.155 119.845 202.807 121.258 207.262 121.258C211.717 121.258 215.369 119.845 215.702 118.041C215.713 118.133 215.724 118.225 215.724 118.305Z" fill="white"/>
<path d="M215.449 114.101C214.932 112.55 213.175 112.607 212.624 112.676C212.636 112.4 212.636 112.113 212.636 111.826H201.888C201.888 111.826 201.601 115.881 203.909 118.397C204.265 118.776 204.701 119.075 205.183 119.247C205.999 119.534 207.411 119.81 209.202 119.247C209.845 119.052 210.397 118.65 210.798 118.11C210.89 117.995 210.971 117.869 211.074 117.719C213.439 117.237 216.046 115.881 215.449 114.101ZM211.878 116.203C212.084 115.686 212.28 115.1 212.417 114.434C212.762 114.101 213.554 113.423 214.163 113.607C214.932 113.848 215.07 115.824 211.878 116.203Z" fill="#F2E7E1"/>
<path d="M212.636 111.826C212.636 112.653 210.236 113.331 207.262 113.331C204.299 113.331 201.888 112.653 201.888 111.826C201.888 110.999 204.288 110.321 207.262 110.321C210.236 110.321 212.636 110.987 212.636 111.826Z" fill="#E3CFC5"/>
<path d="M212.59 112.021C212.245 112.756 209.995 113.319 207.262 113.319C204.54 113.319 202.29 112.756 201.934 112.021C202.278 111.286 204.529 110.723 207.262 110.723C209.995 110.723 212.245 111.286 212.59 112.021Z" fill="#8C3C31"/>
<path d="M257.119 103.279C262.356 104.244 267.661 104.692 272.977 104.118C275.618 103.83 278.167 103.198 280.624 102.268C276.847 100.418 275.733 99.0628 275.733 99.0628C273.551 96.6848 272.162 87.9655 272.162 87.9655L267.224 91.5497L262.298 91.2395C262.298 91.2395 261.873 97.018 259.6 99.2926C259.6 99.2926 258.784 100.177 255.902 101.602C256.293 102.165 256.695 102.716 257.119 103.279Z" fill="#E69469"/>
<path d="M261.988 93.5027C264.25 94.1 267.04 93.9277 269.555 92.1241C270.669 91.3315 271.588 90.2171 272.334 88.9879C272.3 88.7926 272.265 88.6203 272.242 88.4709C271.725 89.1258 271.128 89.7231 270.462 90.1941C267.706 92.1701 264.641 92.193 262.287 91.4004C262.241 91.722 262.16 92.5147 261.988 93.5027Z" fill="#D46D4D"/>
<path d="M256.052 101.292C256.052 101.292 257.418 99.5798 258.957 99.0628C258.957 99.0628 265.249 104.198 275.71 99.0628C275.71 99.0628 278.293 99.7521 279.155 101.119C279.155 101.119 291.648 106.254 292.853 107.288C294.048 108.311 295.081 123.727 294.737 130.069C294.392 136.41 291.659 168.266 291.659 168.266C291.659 168.266 271.289 176.147 247.658 168.266C247.658 168.266 241.319 113.802 241.492 111.573C241.675 109.345 246.808 103.348 256.052 101.292Z" fill="#3D509D"/>
<g opacity="0.5">
<path opacity="0.5" d="M245.109 146.818C244.512 142.947 243.995 139.075 243.478 135.192C243.214 133.251 242.915 131.321 242.732 129.38C242.571 127.427 242.399 125.485 242.364 123.521L242.433 123.509C242.847 125.428 243.122 127.369 243.409 129.299C243.673 131.241 243.823 133.182 244.018 135.135L244.592 140.971C244.776 142.912 244.948 144.865 245.166 146.807L245.109 146.818Z" fill="#3D509D"/>
<path opacity="0.5" d="M262.206 136.008C263.4 137.352 264.572 138.708 265.731 140.075L267.477 142.097C268.039 142.775 268.614 143.395 269.36 143.935L269.337 143.992C268.418 143.797 267.638 143.2 266.983 142.556C266.317 141.913 265.846 141.143 265.307 140.419C264.239 138.972 263.182 137.513 262.149 136.043L262.206 136.008Z" fill="#3D509D"/>
<path opacity="0.5" d="M260.162 137.8C260.782 139.788 261.655 141.683 262.723 143.441C263.263 144.325 263.883 145.141 264.468 145.98L266.248 148.53L266.202 148.576C265.341 147.956 264.595 147.197 263.929 146.382C263.263 145.566 262.746 144.636 262.264 143.694C261.276 141.833 260.553 139.845 260.116 137.8H260.162Z" fill="#3D509D"/>
</g>
<path d="M258.176 167.359C258.176 167.359 253.732 166.899 253.204 166.704C252.676 166.509 251.665 165.796 251.7 165.555C251.734 165.314 253.319 165.796 253.319 165.796L258.681 165.854L258.176 167.359Z" fill="#E69469"/>
<path d="M268.074 163.246C268.074 163.246 268.591 167.003 267.201 167.933C265.812 168.864 259.473 169.622 258.302 169.438C257.131 169.243 251.137 168.266 250.93 167.68C250.724 167.095 257.613 166.52 257.613 166.52C257.613 166.52 258.75 166.428 258.187 165.302C258.187 165.302 260.713 163.074 262 162.913C263.286 162.752 266.57 162.878 268.074 163.246Z" fill="#E69469"/>
<path d="M259.542 165.716C259.542 165.716 256.844 164.866 256.27 164.877C255.696 164.889 254.478 164.544 254.674 164.142C254.869 163.74 261.046 162.591 262.333 163.016C263.619 163.43 262.746 165.337 262.746 165.337L259.542 165.716Z" fill="#E69469"/>
<path d="M303.13 136.916C303.13 136.916 307.195 147.979 306.989 156.905C306.874 161.822 303.188 165.934 298.342 166.761C291.889 167.864 280.728 169.116 267.201 167.933L266.673 163.12L292.693 154.389L284.643 140.006L303.13 136.916Z" fill="#E69469"/>
<path d="M292.727 154.09C293.175 153.918 293.646 153.769 294.105 153.631C294.335 153.562 294.564 153.435 294.817 153.447C295.07 153.458 295.322 153.493 295.586 153.642L295.598 153.711C295.391 153.941 295.161 154.044 294.932 154.125C294.702 154.217 294.461 154.159 294.208 154.171C293.726 154.182 293.232 154.182 292.739 154.159L292.727 154.09Z" fill="#D46D4D"/>
<path d="M279.166 101.131C279.166 101.131 292.693 106.438 294.404 108.15C296.114 109.862 304.681 136.927 304.681 136.927C304.681 136.927 296.459 144.808 283.277 142.924L269.406 115.18L279.166 101.131Z" fill="#3D509D"/>
<g opacity="0.5">
<path opacity="0.5" d="M256.752 101.854C258.394 102.854 260.208 103.589 262.057 104.083C263.906 104.589 265.835 104.818 267.741 104.749L268.453 104.726C268.694 104.715 268.924 104.669 269.165 104.646C269.636 104.577 270.106 104.543 270.577 104.439C271.496 104.221 272.437 104.049 273.333 103.715C274.263 103.486 275.113 103.061 275.997 102.693C276.456 102.532 276.858 102.268 277.283 102.05C277.708 101.831 278.133 101.602 278.58 101.395L278.615 101.452C277.834 102.027 277.076 102.647 276.215 103.13C275.354 103.589 274.481 104.06 273.551 104.37C273.08 104.52 272.632 104.738 272.139 104.818L270.692 105.117C270.21 105.197 269.716 105.209 269.222 105.266C268.981 105.289 268.728 105.312 268.487 105.324L267.752 105.312C265.789 105.312 263.837 105.002 261.977 104.428C260.116 103.83 258.337 103.015 256.729 101.923L256.752 101.854Z" fill="#3D509D"/>
<path opacity="0.5" d="M286.572 143.073L283.484 143.027H283.426L283.392 142.97L278.247 133.469C277.375 131.895 276.525 130.31 275.756 128.679C274.975 127.059 274.206 125.428 273.528 123.75L273.586 123.716C274.562 125.244 275.446 126.806 276.318 128.38C277.203 129.954 278.006 131.562 278.787 133.182L283.575 142.866L283.484 142.809L286.561 142.993L286.572 143.073Z" fill="#3D509D"/>
<path opacity="0.5" d="M277.225 102.475C280.957 103.945 284.689 105.37 288.352 107.013C288.582 107.116 288.811 107.231 289.03 107.357C289.248 107.506 289.489 107.679 289.627 107.932C289.776 108.184 289.822 108.483 289.822 108.747C289.822 109 289.81 109.31 289.856 109.322C289.914 109.368 290.201 109.345 290.419 109.287C290.649 109.23 290.89 109.161 291.119 109.08C291.602 108.942 292.004 108.701 292.589 108.598C292.739 108.575 292.945 108.609 293.095 108.713C293.255 108.816 293.336 108.954 293.405 109.069C293.542 109.322 293.611 109.551 293.703 109.793L294.22 111.206L295.23 114.032C296.574 117.811 297.94 121.568 299.203 125.37C300.443 129.184 301.684 132.987 302.797 136.847L302.728 136.87C301.247 133.136 299.915 129.368 298.56 125.6C297.217 121.82 296 118.006 294.725 114.215L293.761 111.366L293.267 109.953C293.106 109.505 292.945 108.942 292.624 109.034C292.222 109.092 291.717 109.333 291.246 109.471C291.005 109.54 290.764 109.62 290.499 109.666C290.373 109.689 290.247 109.724 290.098 109.724C289.96 109.735 289.788 109.735 289.604 109.609C289.409 109.436 289.443 109.241 289.432 109.115L289.443 108.736C289.443 108.506 289.409 108.288 289.305 108.104C289.11 107.725 288.639 107.529 288.191 107.3C284.597 105.577 280.877 104.06 277.191 102.509L277.225 102.475Z" fill="#3D509D"/>
</g>
<path d="M277.662 79.5333C277.168 79.1887 276.514 79.292 276.1 79.4184C277.34 74.7313 275.457 69.8375 271.323 67.8271C266.558 65.518 260.645 67.8845 258.095 73.1345C257.797 73.7548 257.556 74.3867 257.384 75.03C257.372 75.0415 257.372 75.0415 257.372 75.053C256.798 76.6268 256.247 79.1312 256.293 81.762C256.316 83.6805 256.672 85.6564 257.579 87.3566C257.992 88.1493 258.532 88.896 259.221 89.5278C261.15 91.6301 266.191 93.2499 270.462 90.1941C272.047 89.0568 273.23 87.2762 274.091 85.4496C277.857 86.0929 278.431 80.0732 277.662 79.5333Z" fill="#E69469"/>
<path d="M269.222 88.0114C270.966 88.0114 272.38 86.597 272.38 84.8522C272.38 83.1074 270.966 81.693 269.222 81.693C267.478 81.693 266.064 83.1074 266.064 84.8522C266.064 86.597 267.478 88.0114 269.222 88.0114Z" fill="#EAAB88"/>
<path d="M256.281 81.762C256.304 83.6805 256.66 85.6564 257.567 87.3566C258.325 86.7937 258.807 85.8747 258.807 84.8522C258.807 83.3243 257.728 82.0607 256.281 81.762Z" fill="#EAAB88"/>
<path d="M276.445 82.2789C276.64 81.8653 276.755 81.4173 276.732 80.9808C276.732 80.751 276.709 80.5442 276.548 80.4408C276.399 80.326 276.192 80.303 276.008 80.3719C275.63 80.5098 275.354 80.8544 275.17 81.2565C274.975 81.6586 274.791 82.0836 274.631 82.4972C274.47 82.9107 274.332 83.3358 274.286 83.7609C274.275 83.8528 274.286 83.9561 274.309 84.0136C274.332 84.0595 274.366 84.0825 274.435 84.071C274.573 84.0366 274.757 83.8757 274.895 83.7264C275.182 83.4047 275.377 82.9912 275.423 82.5546C275.48 82.1296 275.4 81.6356 275.032 81.3484C275.446 81.5781 275.607 82.1066 275.595 82.5661C275.572 83.0371 275.4 83.5081 275.101 83.8872C274.941 84.071 274.803 84.2663 274.493 84.3582C274.343 84.4042 274.114 84.3238 274.033 84.1629C273.953 84.0136 273.953 83.8757 273.965 83.7379C274.01 83.2554 274.137 82.8074 274.309 82.3708C274.493 81.9343 274.676 81.5322 274.883 81.1071C275.101 80.7051 275.411 80.257 275.928 80.1192C276.181 80.0502 276.479 80.0962 276.674 80.28C276.893 80.4638 276.904 80.774 276.881 80.9923C276.858 81.4518 276.709 81.8998 276.445 82.2789Z" fill="#3B0D0D"/>
<path d="M263.217 81.8998C263.205 81.9917 263.079 82.0492 262.918 82.0262C262.757 82.0147 262.643 81.9228 262.654 81.8424C262.666 81.7505 262.792 81.693 262.953 81.716C263.113 81.7275 263.228 81.8079 263.217 81.8998Z" fill="#F1CEB7"/>
<path d="M262.7 79.6597C262.712 79.9698 262.666 80.28 262.585 80.5902C262.516 80.9004 262.367 81.1876 262.264 81.4633C262.137 81.7275 262.091 82.0032 262.195 82.2674C262.298 82.5202 262.505 82.7499 262.803 82.8533C262.482 82.8533 262.172 82.6465 262.011 82.3479C261.827 82.0377 261.896 81.6471 262.011 81.3599C262.149 81.0727 262.275 80.8085 262.39 80.5213C262.516 80.2456 262.608 79.9584 262.7 79.6597Z" fill="#3B0D0D"/>
<path d="M263.412 82.7844C263.423 82.6236 263.492 82.5432 263.561 82.4627C263.653 82.3938 263.734 82.3364 263.894 82.3249C263.894 82.4742 263.814 82.5546 263.745 82.6466C263.653 82.727 263.561 82.7959 263.412 82.7844Z" fill="#3B0D0D"/>
<path d="M264.124 85.6793C263.86 85.8631 263.527 85.9091 263.217 85.9206C263.056 85.9091 262.895 85.8976 262.746 85.8516C262.597 85.8172 262.447 85.7482 262.31 85.6793C262.93 85.7482 263.504 85.7942 264.124 85.6793Z" fill="#3B0D0D"/>
<path d="M265.697 83.7723C265.387 84.1055 264.985 84.3352 264.572 84.4961C264.147 84.6569 263.688 84.7488 263.228 84.7373C262.769 84.7144 262.31 84.6454 261.896 84.4616C261.678 84.3927 261.494 84.2663 261.288 84.1629C261.104 84.0366 260.92 83.9102 260.748 83.7723C261.161 83.9332 261.563 84.1055 261.977 84.2089C262.39 84.3238 262.815 84.3812 263.24 84.3927C263.665 84.4157 264.089 84.3467 264.503 84.2433C264.905 84.14 265.307 83.9791 265.697 83.7723Z" fill="#3B0D0D"/>
<path d="M260.048 80.2226C260.048 80.5327 260.105 80.8199 260.208 81.0382C260.541 81.0727 260.828 81.1761 260.989 81.2335C261.15 81.0037 261.253 80.6361 261.253 80.2226C261.253 79.5448 260.978 78.9933 260.656 78.9933C260.312 78.9933 260.048 79.5448 260.048 80.2226Z" fill="#3B0D0D"/>
<path d="M261.311 77.2931C260.932 77.4884 260.668 77.4654 260.381 77.431C260.093 77.4195 259.818 77.4425 259.542 77.4884C259.267 77.5459 258.991 77.6378 258.727 77.7756C258.451 77.902 258.21 78.0858 257.935 78.2696L257.923 78.2811C257.843 78.3385 257.74 78.3155 257.682 78.2351C257.648 78.1777 257.636 78.1088 257.671 78.0628C257.981 77.431 258.555 76.8681 259.29 76.6268C259.657 76.5005 260.036 76.443 260.415 76.4545C260.794 76.4545 261.184 76.5464 261.437 76.9715C261.494 77.0748 261.46 77.2012 261.357 77.2587C261.357 77.2587 261.357 77.2587 261.345 77.2587L261.311 77.2931Z" fill="#3B0D0D"/>
<path d="M261.552 76.535C261.391 76.6843 261.299 76.8222 261.207 76.9371L261.081 77.1094C261.035 77.1668 260.966 77.2128 260.886 77.2932C261.081 77.431 261.357 77.3162 261.483 77.1438C261.609 76.96 261.655 76.7418 261.552 76.535Z" fill="#3B0D0D"/>
<path d="M265.18 80.2226C265.18 80.6361 265.284 81.0152 265.444 81.2335C265.605 81.1761 265.892 81.0727 266.225 81.0382C266.317 80.8314 266.386 80.5327 266.386 80.2226C266.386 79.5448 266.11 78.9933 265.789 78.9933C265.444 78.9933 265.18 79.5448 265.18 80.2226Z" fill="#3B0D0D"/>
<path d="M264.984 76.9715C265.225 76.5464 265.627 76.4545 266.006 76.4545C266.385 76.443 266.775 76.489 267.131 76.6268C267.866 76.8681 268.452 77.431 268.75 78.0628C268.796 78.1547 268.75 78.2581 268.67 78.2926C268.613 78.3156 268.544 78.3156 268.498 78.2811L268.486 78.2696C268.211 78.0858 267.97 77.8905 267.694 77.7756C267.43 77.6378 267.154 77.5459 266.879 77.4884C266.603 77.431 266.328 77.408 266.041 77.431C265.754 77.4655 265.489 77.4884 265.111 77.2931L265.065 77.2702C264.961 77.2127 264.927 77.0863 264.984 76.9715C264.984 76.983 264.984 76.983 264.984 76.9715Z" fill="#3B0D0D"/>
<path d="M264.87 76.5349C265.031 76.6843 265.123 76.8221 265.215 76.937L265.341 77.1093C265.387 77.1668 265.456 77.2127 265.536 77.2931C265.341 77.431 265.065 77.3161 264.939 77.1438C264.813 76.96 264.767 76.7417 264.87 76.5349Z" fill="#3B0D0D"/>
<path d="M279.843 74.0536C279.258 73.2034 278.213 72.8243 277.237 72.4797C275.951 68.7461 272.483 65.6903 268.671 64.6794C266.914 64.2199 264.996 64.1624 263.285 64.7943C260.323 63.7029 257.291 65.6903 256.603 68.0339C255.879 70.5153 256.809 76.9026 256.809 76.9026C256.809 76.9026 256.844 76.8681 256.913 76.7877C258.325 76.489 259.726 76.2018 261.138 75.9031C262.252 75.6734 263.389 75.4321 264.376 74.8577C264.916 74.5475 265.444 74.134 266.064 74.1569C266.638 74.1799 267.178 74.5705 267.741 74.5016C268.372 74.4097 268.774 73.7893 269.302 73.4332C270.198 72.8358 271.679 73.1 272.219 74.0421C271.863 75.1909 271.507 76.489 272.093 77.5459C272.23 77.7871 272.403 78.0054 272.517 78.2581C272.69 78.6602 272.678 79.1197 272.77 79.5448C272.919 80.2456 273.39 80.8659 274.01 81.2106C274.78 80.349 275.824 79.6712 276.938 79.2921C277.179 79.3035 277.432 79.361 277.65 79.5218C277.88 79.6827 277.995 80.349 277.926 81.1646C278.913 80.1077 279.66 78.8096 280.085 77.408C280.418 76.3052 280.521 75.0071 279.843 74.0536Z" fill="#3B0D0D"/>
<path opacity="0.5" d="M272.701 73.3183C273.207 73.0081 273.712 72.7094 274.229 72.4337C274.493 72.2959 274.722 72.1006 275.009 72.0316C275.297 71.9627 275.595 71.9168 275.94 71.9857L275.963 72.0546C275.767 72.3418 275.526 72.5141 275.274 72.675C275.021 72.8358 274.722 72.8588 274.435 72.9392C273.873 73.1 273.299 73.2494 272.724 73.3872L272.701 73.3183Z" fill="#3B0D0D"/>
<path d="M0 315.645H303.119" stroke="#9CB3DF" stroke-width="1.1927" stroke-miterlimit="10"/>
</g>
<path d="M176.073 38.7249C174.951 37.6039 173.419 36.9193 171.716 36.9193H135.293C131.886 36.9193 129.13 39.6748 129.13 43.0807H177.879C177.879 41.3692 177.186 39.8374 176.073 38.7249Z" fill="#362D2C"/>
<path d="M163.447 33.5048H144.212C142.381 33.5048 140.9 34.9852 140.9 36.8165V36.9192H166.759V36.8165C166.759 34.9938 165.279 33.5048 163.447 33.5048Z" fill="#4C4E61"/>
<path d="M159.595 43.0807C158.927 45.0489 156.847 46.4952 154.382 46.4952C151.916 46.4952 149.828 45.0489 149.16 43.0807H159.595Z" fill="#FFC933"/>
<path d="M155.315 0.780579H153.5V33.5048H155.315V0.780579Z" fill="#362D2C"/>
<path d="M98.8873 38.7249C97.7659 37.6039 96.2337 36.9193 94.5302 36.9193H58.1074C54.7005 36.9193 51.9442 39.6748 51.9442 43.0807H100.693C100.693 41.3692 100.009 39.8374 98.8873 38.7249Z" fill="#362D2C"/>
<path d="M86.2698 33.5048H67.0355C65.2037 33.5048 63.7228 34.9852 63.7228 36.8165V36.9192H89.5825V36.8165C89.5825 34.9938 88.1017 33.5048 86.2698 33.5048Z" fill="#4C4E61"/>
<path d="M82.4178 43.0807C81.7502 45.0489 79.6701 46.4952 77.2048 46.4952C74.7395 46.4952 72.6509 45.0489 71.9832 43.0807H82.4178Z" fill="#FFC933"/>
<path d="M78.1378 0.780579H76.3231V33.5048H78.1378V0.780579Z" fill="#362D2C"/>
<path d="M253.25 38.7249C252.128 37.6039 250.596 36.9193 248.893 36.9193H212.47C209.063 36.9193 206.307 39.6748 206.307 43.0807H255.056C255.056 41.3692 254.371 39.8374 253.25 38.7249Z" fill="#362D2C"/>
<path d="M240.632 33.5048H221.398C219.566 33.5048 218.085 34.9852 218.085 36.8165V36.9192H243.945V36.8165C243.945 34.9938 242.464 33.5048 240.632 33.5048Z" fill="#4C4E61"/>
<path d="M236.78 43.0807C236.113 45.0489 234.033 46.4952 231.567 46.4952C229.102 46.4952 227.013 45.0489 226.346 43.0807H236.78Z" fill="#FFC933"/>
<path d="M232.492 0.780579H230.677V33.5048H232.492V0.780579Z" fill="#362D2C"/>
<path d="M252.924 0.780579H55.9418V3.42487H252.924V0.780579Z" fill="#362D2C"/>
<defs>
<clipPath id="clip0_691_2146">
<rect width="307" height="252" fill="white" transform="translate(0 64.3232)"/>
</clipPath>
</defs>
</svg>
