<svg width="40" height="40" viewBox="0 0 40 40" fill="none" xmlns="http://www.w3.org/2000/svg">
<path fill-rule="evenodd" clip-rule="evenodd" d="M0 20.0002C0 8.97241 8.97192 0 20.0002 0C31.0286 0 40.0005 8.97241 40.0005 20.0002C40.0005 31.0286 31.0286 40 20.0002 40C8.97192 40 0 31.0281 0 20.0002ZM38.8876 19.7069C38.8822 19.3296 38.8642 18.9552 38.8364 18.5833L38.338 18.4759L38.0159 18.5686L37.8309 19.0294H38.0617H38.2926L38.5699 19.3076L38.8007 19.5849L38.8876 19.7069ZM33.5814 15.5199V15.1968C33.5814 15.1968 33.4891 14.919 33.7659 14.7799L34.0431 14.6413H34.6899H35.013H35.197V14.4104H35.752V14.2259V13.9487H35.5211L35.2439 13.6714H34.6899H34.458L34.4121 13.4406H34.2272C34.2272 13.4406 34.2271 13.3019 34.089 13.2561C33.9494 13.2097 33.6731 13.2561 33.6731 13.2561L33.0728 13.8564L32.9805 14.0414V14.3645C32.9805 14.3645 33.0728 14.4573 32.9805 14.6882L32.8883 14.919L32.7501 15.1631L32.796 15.4276L32.426 15.1631H32.242C32.242 15.1631 32.2879 14.8732 32.1498 14.7809C32.0107 14.6882 31.7646 14.2723 31.7646 14.2723L31.3873 13.9492V13.7183H31.0871L30.9031 13.626L30.498 13.5924L30.3482 13.5802C30.3482 13.5802 30.579 13.9033 30.6713 14.0424L30.7635 14.1805L30.9026 14.4578L31.0408 14.6887L31.1789 14.8732L31.1321 15.1631H30.9939L30.763 15.5663L30.5312 15.6585L30.2549 15.7049L30.1168 15.474L30.209 15.1636L30.3008 14.8736L30.2549 14.5969L29.9777 14.3655L29.7927 14.181L29.5618 13.9965L29.2387 13.7193L28.9614 13.4884L28.6383 13.5806L28.4074 13.7652L28.1766 13.9038L27.8525 14.3196L27.5762 14.6428L27.2521 14.8736L27.0212 15.5204H27.2521H27.6689L28.3152 15.7513L28.5002 15.9826H28.731L29.1001 16.3521H29.3773V16.5366L29.8395 16.9061L30.1627 17.0906H30.5317H30.7176V16.9061L31.0867 16.7675L31.3639 16.6289L31.5489 16.5825C31.5489 16.5825 31.9174 16.5825 32.1493 16.6289L32.3801 16.6748L32.611 16.7211L32.9342 16.8598L33.166 17.0911H33.4423H33.6273L34.0895 16.8598V16.6289V16.3053L33.9973 16.0285L33.5814 15.5199ZM7.81511 5.57566L7.80535 5.62252L7.63255 5.96908L7.80583 6.00374L8.42915 5.93442L8.63708 5.51856L8.77522 5.06803L8.83525 4.76931C8.48528 5.02654 8.14604 5.29549 7.81511 5.57566ZM2.16915 13.7573C1.48239 15.7132 1.1041 17.8125 1.1041 20.0002C1.1041 27.6431 5.66792 34.2354 12.2135 37.209L12.0104 36.7219V36.2138V35.937C12.0104 35.6598 11.7795 35.5675 11.7795 35.5675V34.7821H11.6155C11.6155 34.7821 11.6404 34.1813 11.6155 33.9504C11.5924 33.7436 11.5938 33.2048 11.5944 32.9938C11.5945 32.9688 11.5945 32.9484 11.5945 32.9337C11.5945 32.8996 11.5973 32.8375 11.6008 32.7592C11.6116 32.5192 11.6291 32.1265 11.5945 31.9174V31.2707L11.3637 30.5317C11.3637 30.5317 11.3168 30.3467 11.1328 30.1622C10.9478 29.9772 11.1328 29.7927 11.1328 29.7927C11.1328 29.7927 10.6247 29.0073 10.5778 28.8223C10.5319 28.6373 10.0697 27.6675 10.0697 27.6675L9.69969 27.298V27.0671H9.42342L8.91433 26.6512L9.19255 25.8659L9.37657 25.2655L9.42342 24.9887L9.69969 23.2799V23.0953L9.42342 22.8645L9.00756 22.5409L8.82256 22.31H8.63757L7.94446 22.0327L7.48222 21.6169L6.88233 20.8779H6.60509V20.7392H6.2351L5.17297 20.5547L4.80299 20.1852L4.433 19.1226H4.10987L3.41774 18.7068V17.8291V17.5983V17.136L3.00089 18.2445L2.77002 17.9673V17.7364H2.586V16.8124L2.37709 16.3965V15.7962V15.2876L2.16915 14.5486V13.8559V13.7573ZM13.1077 37.5883C15.2441 38.4288 17.5685 38.8954 20.0002 38.8954C26.5946 38.8954 32.407 35.4977 35.7881 30.3643C35.7823 30.3018 35.772 30.2232 35.751 30.1182C35.7025 29.8753 35.651 29.8369 35.6475 29.7946C35.6443 29.7564 35.6801 29.715 35.792 29.5179L36.0283 29.102L36.3514 28.8248C36.3514 28.8248 36.5364 28.5012 36.6286 28.3166L36.7209 28.1321L36.9747 27.9008H37.1568C38.2321 25.5749 38.8471 22.9958 38.8871 20.2785L38.8461 20.6602L38.3839 21.1112L38.153 21.3421H37.8299H37.6449H37.3676H37.1827L36.5823 21.6193L35.9819 20.7924L35.936 19.846H35.7969C35.7969 19.846 35.6129 19.54 35.566 19.4013C35.5201 19.2627 35.381 18.7546 35.381 18.7546L35.1048 18.3387L34.8275 18.5232V19.0314C34.8275 19.0314 34.8744 19.1241 34.8744 19.3086V19.8455L34.7353 20.4635L34.7821 20.6597L34.8744 20.792L35.1965 21.2947L35.8438 22.0337L36.49 22.4955H36.676H36.86H37.23H37.3681L37.5072 22.8191L37.6913 23.05V23.2808C37.6913 23.2808 37.5985 23.0041 37.4604 23.2808C37.3213 23.5586 36.9523 24.0203 36.9523 24.0203L36.7673 24.2053L36.4441 24.5748L36.121 25.1752L35.936 25.4519L35.6588 25.6828L35.5665 26.1914L35.3356 26.6995L35.2434 27.1618L35.0584 27.6235V27.8549C35.0584 27.8549 35.1048 28.2703 35.0125 28.5011C34.9203 28.732 34.9203 29.0556 34.9203 29.0556L34.7353 29.3788L34.5503 29.6555L34.3423 30.1178L34.0422 30.395L33.904 30.7645L33.8572 31.0418L33.5809 31.7808L33.534 32.0121C33.534 32.0121 33.3032 32.1044 33.1182 32.3352C32.9337 32.5666 32.5178 32.8439 32.5178 32.8439L32.2415 33.0747L31.5943 33.3983L31.0862 33.6751L30.3008 33.4442L30.0245 32.7047V32.058L29.9777 31.7808L29.7927 31.1804L29.6545 30.6259L29.6087 30.0714L29.5164 29.286L29.3314 28.6393L29.2392 27.623V27.2994C29.2392 27.2994 29.3314 27.2531 29.3314 26.8836V26.1446L28.9614 25.3128L28.7306 24.7583L28.6847 24.5738L28.3147 24.0193L27.9906 23.8807H27.5293H27.2521C27.2521 23.8807 26.6512 23.8807 26.5131 23.8348C26.4214 23.8044 26.3549 23.7941 26.2444 23.7771C26.1885 23.7685 26.1213 23.7582 26.0338 23.7426L25.7746 23.6962L25.4973 23.6498H25.0361L24.8169 23.5112L24.343 23.1876V22.9567L23.8807 22.125V21.8941L23.6498 21.6632V21.4319L23.2799 20.791V20.0002V19.3999C23.2799 19.3999 23.0036 19.1685 23.2799 19.0299C23.5571 18.8918 23.788 18.4759 23.788 18.4759L24.343 18.1528L24.8169 17.7369L25.1742 17.4138L25.7277 16.6264L25.7746 16.3956L26.0338 16.0724V15.8874L25.4046 15.4262C25.4046 15.4262 24.9887 15.2871 25.0585 15.1026L25.1273 14.9181L25.0585 14.3177V14.1332L25.2655 14.0409L25.4973 13.5787L25.6823 13.5323C25.6823 13.5323 25.7863 13.6251 26.0342 13.6709L26.2832 13.7173C26.2832 13.7173 26.4213 13.7632 26.7913 13.6709L27.1603 13.5787L27.2526 13.2092L26.9294 12.9783L26.7454 12.6088L26.2832 12.4702L26.0342 12.2388L26.3291 12.1466L26.7459 11.9621L27.2531 11.8235L27.5772 11.4076H27.7612L27.9462 11.1303L28.1312 10.899C28.1312 10.899 28.2703 10.8067 28.4543 10.6681C28.6393 10.53 28.7774 10.3913 28.7774 10.3913L29.0547 10.1141H29.3319L29.9782 10.1605H30.21H30.5322L31.1794 10.0218L31.5494 9.69823L31.7646 9.37461H32.1498V9.19011L32.242 8.91286L32.1498 8.53116L32.0575 8.17387V7.94299V7.63011L31.7646 7.11077L31.5025 7.63011H31.2717L31.1325 7.94299V8.31249L30.8563 8.86698L30.764 9.1906L30.5322 9.3751H29.9782H29.7932L29.5169 9.60647H29.286L28.916 9.3751L28.6388 9.09786H28.3157V8.77473L28.4767 8.53116V8.31249L28.6388 8.03573H28.8706C28.8706 8.03573 29.0088 7.43487 29.1469 7.29674C29.286 7.15811 29.4242 7.11125 29.4242 7.11125L29.7004 6.59191H30.0245L30.2554 6.09599L30.6254 5.58787L30.9485 5.31062H31.1325C31.1325 5.31062 31.2258 5.44924 31.4108 5.31062L31.5948 5.172H31.6919C29.6184 3.53391 27.1969 2.31949 24.5553 1.66299L24.504 1.70692L24.2961 1.81088L24.0882 2.01882L23.8109 2.46934V2.60796V2.74659V2.91987L23.6381 3.16246L23.2921 3.37039V3.47485L23.0831 3.68229V3.85557V4.02885V4.30609V4.70439L22.8752 4.89524V5.10318L22.3559 5.17249V5.55321L22.1128 5.7958C22.1128 5.7958 21.9058 5.86511 21.8019 5.89977C21.6979 5.93442 21.4548 5.96908 21.4548 5.96908L21.2469 6.03839L21.0048 6.1775L20.8315 6.45426C20.8315 6.45426 20.4845 6.69685 20.3815 6.76616C20.2775 6.83547 19.7225 7.11272 19.7225 7.11272L19.5834 7.14737C19.4453 7.18203 19.1734 7.35482 19.1734 7.35482L18.9264 7.45879C18.9264 7.45879 18.4759 8.01328 18.4061 8.11725C18.3378 8.22121 18.1298 8.53311 18.1298 8.53311H17.9565H17.7486V8.29052H17.5407V7.94397L17.1936 7.73603C17.1936 7.73603 17.2634 7.5281 17.1936 7.35482C17.1248 7.18203 16.9515 6.9741 16.9515 6.9741V6.55823V6.14236L16.7782 5.96908V5.27645L16.7094 4.99921L16.7782 4.72196L16.9515 4.44472V4.16747V4.02885L16.7436 3.47436L16.6738 3.26642C16.6738 3.26642 16.5005 3.12829 16.3975 3.05898C16.2926 2.98967 16.1886 3.05898 16.1886 3.05898H15.9465H15.2192L14.942 2.85104V2.53914L15.1153 2.22724L15.3583 1.88068L15.8074 1.67275L16.0349 1.52729C13.4962 2.07153 11.146 3.12926 9.09639 4.58334L9.9867 4.79127L10.0218 5.03386L10.1946 5.27645L10.2298 5.48439L10.4719 5.41508L10.671 5.34577V4.96455L10.8521 4.68731L11.0254 4.16796V3.99468L11.3383 3.64861L11.4071 3.47533H11.5452C11.5452 3.47533 11.823 3.5793 11.9621 3.78675C12.1002 3.99468 12.2042 3.78675 12.2042 3.78675L12.5502 4.06399C12.8973 4.34124 13.0706 4.06399 13.0706 4.06399L13.4166 4.37589H13.5548C13.5548 4.37589 14.04 4.93038 14.1781 5.17297C14.3177 5.41508 14.2479 5.5537 14.2479 5.5537L14.5949 5.76163V6.03839L14.8722 6.45426L14.9054 6.76616L14.5944 7.25134H14.3865H14.0395C13.8662 7.25134 13.5543 7.286 13.5543 7.286H13.3122L12.7928 7.14786L12.827 6.97458V6.62803L12.5849 5.90026V5.72747L12.5498 5.55419H12.4116H12.2037L12.0646 5.72747L11.7883 5.93491C11.5106 6.14285 11.4764 6.14285 11.4764 6.14285L11.3724 6.45475L11.1992 6.80082V6.9741L11.061 7.14737H10.671H10.2298H10.1248H9.9867L9.95253 7.38997L9.7446 7.56275L9.57132 7.97862L9.39804 7.73603L9.15594 8.11725V8.42915L9.29408 8.67174L9.43319 8.84502L9.50201 9.01781L9.70946 9.29505L10.0907 9.84954L10.6705 10.1268L10.8184 10.1961L10.9912 10.2654L11.3724 10.1614L11.6497 9.6421C11.6497 9.6421 11.6839 9.46882 11.7878 9.3302C11.8918 9.19108 11.8918 8.49846 11.8918 8.49846C11.8918 8.49846 11.926 8.32518 11.926 8.22121C11.926 8.11725 11.9958 7.77069 11.9958 7.77069V7.56324H12.3428L12.4809 7.73603H12.5849C12.5849 7.73603 12.7928 7.97862 13.0701 8.35984C13.3464 8.74105 13.2082 8.35984 13.2082 8.35984L13.6241 8.53263H13.832H14.2479L14.6989 8.84453L14.8029 9.12129L14.9059 9.32922L15.1489 9.74509L15.4262 10.1956L16.2233 11.0615L16.2574 11.3734L16.3965 12.0319V12.2047L15.9114 12.4477H15.7381C15.7381 12.4477 15.3579 12.3438 15.1489 12.3438L14.7677 12.2047L14.5949 11.616L14.3587 11.8049L14.0756 12.0314H13.8667L13.5206 12.6894L13.7627 12.9666H14.1786L14.4905 13.0013L14.7677 13.0706L14.6545 13.1584L14.4104 13.3483L14.2254 13.4869L13.6251 13.5792L13.3942 13.6256L13.2092 13.6719L12.9773 13.7183H12.7465L12.1461 13.8105L11.8698 13.9492L11.823 14.8732V15.2427L11.7771 15.5199L11.3148 15.8435L10.9917 16.1671L10.6715 16.3516V16.5825L10.0223 16.767L10.0682 17.506L9.88322 18.1528L9.97548 18.6145C9.97548 18.6145 9.7446 18.5218 9.55961 18.4295C9.37462 18.3373 9.37461 18.3373 9.19061 18.1987L9.1906 18.1986C9.0056 18.0595 8.77375 17.9673 8.77375 17.9673L8.49748 17.6437H7.85123C7.52664 17.6437 7.43438 17.69 7.43438 17.69L6.64902 17.9209L6.41814 18.0595L6.28001 18.429L6.18775 18.7063L6.28001 19.3066H6.83401L7.019 19.353H7.43487L7.57301 19.3994C7.7126 19.4453 7.98985 19.4916 7.98985 19.4916L8.12799 20.0002L7.85172 20.5084L8.63611 20.9242L8.77424 21.1092L8.95923 21.2015L9.19108 21.5246L9.60598 21.8941L9.93008 22.2636L10.4382 22.4481H10.672V22.3095L11.0381 22.125L11.3153 22.0327L11.5462 22.1714H12.0104L12.3335 22.2177C12.3335 22.2177 13.7656 22.7258 13.9048 22.8181C14.0434 22.9104 14.3206 22.864 14.3206 22.864L15.9831 24.0647L16.1213 24.342L16.2145 24.6651V25.1498H16.8149L17.6002 25.6355C17.6002 25.6355 17.8311 25.7277 18.1074 25.8663C18.246 25.9357 18.246 25.9356 18.2286 25.9299C18.2112 25.9241 18.1764 25.9125 18.2455 25.9586C18.3846 26.0508 18.5227 26.0972 18.5227 26.0972L18.7077 26.1895L19.0309 26.3281C19.355 26.4662 19.0309 26.7894 19.0309 26.7894V27.0666V27.5283L18.9391 27.667C18.9315 27.6782 18.9233 27.6903 18.9147 27.7032C18.8159 27.8495 18.6509 28.094 18.5432 28.2215C18.4725 28.3044 18.4957 28.4867 18.5202 28.679C18.5366 28.8081 18.5536 28.9416 18.5432 29.0527C18.5174 29.3304 18.5223 29.2841 18.5223 29.2841C18.5223 29.2841 18.5691 29.5613 18.5223 29.7922C18.4764 30.0231 18.2445 30.6234 18.1064 30.9007C17.9683 31.1784 17.5992 31.4093 17.5992 31.4093C17.5992 31.4093 17.2293 31.7788 17.0901 31.871C16.952 31.9633 16.767 32.1483 16.767 32.1483L15.9358 32.2869L15.3808 33.0723C15.3808 33.0723 15.4276 33.534 15.3808 33.719C15.3349 33.9035 14.9649 34.5039 14.9649 34.5039C14.9649 34.5039 14.1791 35.0125 13.8569 35.1511C13.5328 35.2893 13.8569 35.2893 13.8569 35.2893C13.8569 35.2893 13.7637 35.5206 13.5787 35.8438C13.4748 36.0264 13.5031 36.106 13.5391 36.207C13.5668 36.2851 13.5991 36.3759 13.5787 36.5369C13.5328 36.9064 13.3478 37.0914 13.3478 37.0914L13.1638 37.4609C13.1384 37.5126 13.1208 37.5536 13.1077 37.5883ZM38.8935 20.0002V20.0852C38.8935 20.0711 38.894 20.0571 38.8944 20.0431C38.8949 20.0289 38.8954 20.0147 38.8954 20.0002V19.9968L38.8935 20.0002ZM23.8109 7.63151H24.2268H24.504H24.6773V7.26787H24.8164V7.07702L24.6431 6.90374H24.504L24.0881 6.73095C24.0881 6.73095 24.054 6.86957 23.95 6.73095C23.846 6.59233 23.7592 6.59233 23.7592 6.59233H23.4302H23.2569H23.1188C23.0429 6.64269 22.9489 6.65646 22.8666 6.66851C22.7224 6.68962 22.6143 6.70546 22.7029 6.90374V7.21564H22.841L23.1529 7.42357C23.1529 7.42357 23.6039 7.5622 23.7069 7.59637L23.8109 7.63151ZM11.0261 20.0004H10.7499L10.5361 19.6885V19.4806H10.4028L10.2647 19.2038L9.95277 19.0305H9.77998H9.60573H9.46759V19.1691V19.3078L9.8488 19.6538L9.95277 19.8447V20.0009V20.1737L10.5361 20.5895H10.7142H10.8524H11.0256C11.0256 20.5895 10.9568 20.5202 11.1989 20.5895L11.442 20.6588H11.7192H11.9613L12.0995 20.3299L11.4771 20.0004H11.0261ZM24.8163 10.8536V10.6691V10.6681H25.0584L25.3055 10.3544C25.1477 10.3359 25.0464 10.3218 25.3121 10.3462L25.307 10.3534C25.449 10.3704 25.6363 10.3914 25.6363 10.3914H25.8204H26.0341L26.2372 10.1141L26.4681 9.79099L26.5603 9.37512H26.7453H27.0216H27.2525V9.74462V10.5764V10.9459L27.0685 11.0845C26.8835 11.2236 27.0685 11.4081 27.0685 11.4081H26.6985H26.4212H26.0054H25.6822H25.3122H25.0633H24.8163V11.0845V10.8536Z" fill="black"/>
</svg>
