<svg width="60" height="56" viewBox="0 0 60 56" fill="none" xmlns="http://www.w3.org/2000/svg">
<rect width="60" height="56" rx="10" fill="#F7F7F7"/>
<rect x="9" y="7" width="42.4998" height="41.3045" rx="10" fill="white"/>
<g clip-path="url(#clip0_2_833)">
<path d="M38.7851 28.2072C38.7851 27.5954 38.7355 26.9803 38.6297 26.3784H30.1406V29.8442H35.0019C34.8002 30.9619 34.152 31.9507 33.2029 32.579V34.8278H36.1031C37.8063 33.2603 38.7851 30.9454 38.7851 28.2072Z" fill="#4285F4"/>
<path d="M30.1407 37.0007C32.568 37.0007 34.6151 36.2038 36.1065 34.828L33.2063 32.5793C32.3994 33.1282 31.3577 33.4391 30.144 33.4391C27.796 33.4391 25.8052 31.8551 25.0909 29.7253H22.0981V32.0435C23.6259 35.0827 26.7378 37.0007 30.1407 37.0007Z" fill="#34A853"/>
<path d="M25.0875 29.7253C24.7105 28.6075 24.7105 27.3972 25.0875 26.2794V23.9612H22.098C20.8215 26.5043 20.8215 29.5004 22.098 32.0435L25.0875 29.7253Z" fill="#FBBC04"/>
<path d="M30.1407 22.5622C31.4238 22.5424 32.6639 23.0252 33.5932 23.9115L36.1628 21.342C34.5357 19.8141 32.3762 18.9742 30.1407 19.0006C26.7378 19.0006 23.6259 20.9187 22.0981 23.9611L25.0876 26.2793C25.7986 24.1463 27.7927 22.5622 30.1407 22.5622Z" fill="#EA4335"/>
</g>
<defs>
<clipPath id="clip0_2_833">
<rect width="18" height="18" fill="white" transform="translate(21 19)"/>
</clipPath>
</defs>
</svg>
