<svg width="12" height="12" viewBox="0 0 12 12" fill="none" xmlns="http://www.w3.org/2000/svg">
<g clip-path="url(#clip0_617_3725)">
<path d="M7.76817 1.5135L7.52497 1.27051H5.94866V1.95801H6.46429C6.65414 1.95801 6.80804 2.1119 6.80804 2.30176V2.70996C6.80804 2.76928 6.75993 2.81738 6.70062 2.81738H4.50921C4.44989 2.81738 4.40179 2.76928 4.40179 2.70996V2.30176C4.40179 2.1119 4.55568 1.95801 4.74554 1.95801H5.26116V1.27051H4.92706C4.74191 1.27051 4.58266 1.12815 4.57405 0.943193C4.56485 0.745795 4.72203 0.583008 4.91741 0.583008H7.66713C7.75838 0.583008 7.84588 0.619252 7.9104 0.68377L8.25415 1.02752C8.38843 1.16158 8.38843 1.37943 8.25415 1.5135C8.12009 1.64777 7.90224 1.64777 7.76817 1.5135Z" fill="#39BDB7"/>
<path d="M3.71387 5.09056C5.98391 5.04388 5.11443 5.0416 7.49512 5.09056C8.18305 5.2474 8.69824 5.86378 8.69824 6.59855V10.5517C8.69824 11.1204 8.23568 11.5829 7.66699 11.5829H3.54199C2.9733 11.5829 2.51074 11.1204 2.51074 10.5517V6.59855C2.51074 5.86378 3.02594 5.2474 3.71387 5.09056ZM5.60449 9.52042C6.26793 9.52042 6.80762 8.98074 6.80762 8.3173C6.80762 7.49165 5.92396 6.73884 5.8232 6.6557C5.69623 6.55085 5.51275 6.55085 5.38578 6.6557C5.28502 6.73884 4.40137 7.49165 4.40137 8.3173C4.40137 8.98074 4.94105 9.52042 5.60449 9.52042Z" fill="#39BDB7"/>
<path d="M6.12012 8.31745C6.12012 8.60169 5.88873 8.83308 5.60449 8.83308C5.32025 8.83308 5.08887 8.60169 5.08887 8.31745C5.08887 8.04406 5.31325 7.72038 5.52431 7.48188C5.56687 7.43378 5.64211 7.43378 5.68469 7.48186C5.89576 7.72021 6.12012 8.04389 6.12012 8.31745Z" fill="#39BDB7"/>
<path d="M7.49512 3.84863V4.25684C7.49512 4.31615 7.44701 4.36426 7.3877 4.36426H3.82129C3.76197 4.36426 3.71387 4.31615 3.71387 4.25684V3.84863C3.71387 3.65878 3.86776 3.50488 4.05762 3.50488H7.15137C7.34122 3.50488 7.49512 3.65878 7.49512 3.84863Z" fill="#39BDB7"/>
</g>
<defs>
<clipPath id="clip0_617_3725">
<rect width="11" height="11" fill="white" transform="matrix(-1 0 0 1 11.1045 0.583008)"/>
</clipPath>
</defs>
</svg>
