<svg width="12" height="13" viewBox="0 0 12 13" fill="none" xmlns="http://www.w3.org/2000/svg">
<path d="M4.978 6.55818H3.4596V1.00491C3.4596 0.331698 2.4166 0.331698 2.4166 1.00491V6.55818H0.898C0.4088 6.55818 0 7.02178 0 7.57719C0 8.133 0.4086 8.5968 0.898 8.5968H2.4166V11.9952C2.4166 12.6683 3.4596 12.6683 3.4596 11.9952V8.5968H4.978C5.4678 8.5968 5.8762 8.1332 5.8762 7.57719C5.8762 7.02158 5.4678 6.55818 4.978 6.55818ZM9.5478 11.2722H7.0744C6.305 11.2722 6.305 12.4998 7.0744 12.4998H9.5478C10.3174 12.4998 10.3174 11.2722 9.5478 11.2722ZM9.9228 9.11781H7.0744C6.305 9.11781 6.305 10.3456 7.0744 10.3456H9.9228C10.6924 10.3456 10.6924 9.11781 9.9228 9.11781ZM10.2978 6.96338H7.0744C6.305 6.96338 6.305 8.191 7.0744 8.191H10.2978C11.0674 8.191 11.0674 6.96338 10.2978 6.96338ZM10.6728 4.80895H7.0744C6.305 4.80895 6.305 6.03657 7.0744 6.03657H10.6728C11.4424 6.03657 11.4424 4.80895 10.6728 4.80895ZM10.6728 5.63656H7.0744C6.9204 5.63656 6.8974 5.50256 6.8974 5.42296C6.8974 5.34316 6.9204 5.20916 7.0744 5.20916H10.6728C10.827 5.20916 10.8498 5.34316 10.8498 5.42296C10.8498 5.50256 10.827 5.63656 10.6728 5.63656ZM11.0478 2.65473H7.0744C6.305 2.65473 6.305 3.88234 7.0744 3.88234H11.0478C11.8174 3.88234 11.8174 2.65473 11.0478 2.65473ZM11.0478 3.48234H7.0744C6.9204 3.48234 6.8974 3.34834 6.8974 3.26873C6.8974 3.18893 6.9204 3.05493 7.0744 3.05493H11.0478C11.202 3.05493 11.2248 3.18893 11.2248 3.26873C11.2248 3.34834 11.202 3.48234 11.0478 3.48234ZM11.4228 0.5001H7.0744C6.305 0.5001 6.305 1.72772 7.0744 1.72772H11.4228C12.1924 1.72772 12.1924 0.5001 11.4228 0.5001ZM11.4228 1.32771H7.0744C6.9204 1.32771 6.8974 1.19371 6.8974 1.11391C6.8974 1.03431 6.9204 0.900305 7.0744 0.900305H11.4228C11.577 0.900305 11.5998 1.03431 11.5998 1.11391C11.5998 1.19371 11.577 1.32771 11.4228 1.32771Z" fill="#D70404"/>
</svg>
