<svg width="29" height="15" viewBox="0 0 29 15" fill="none" xmlns="http://www.w3.org/2000/svg">
<path fill-rule="evenodd" clip-rule="evenodd" d="M17.1971 4.49127C16.4294 4.14579 15.6232 3.8387 14.8171 3.64676C14.6252 3.60837 14.51 3.45483 14.5868 3.26289V0.383869C14.5868 0.153548 14.7403 0 14.9707 0C16.199 0.038387 17.389 0.268709 18.5406 0.614191C18.7326 0.690965 18.8477 0.921287 18.771 1.11322L17.7345 4.26095C17.6577 4.49127 17.389 4.60643 17.1971 4.49127ZM10.6717 3.10904C10.7101 3.26259 10.902 3.37775 11.0556 3.37775C11.401 3.33936 11.7849 3.33936 12.1304 3.33936H12.1304C12.7062 3.33936 13.2436 3.37775 13.781 3.45452C14.0114 3.49291 14.2417 3.30098 14.2417 3.07065V0.421955C14.2417 0.191634 14.0497 0.0380859 13.8578 0.0380859C12.6294 0.0764729 11.401 0.306795 10.2878 0.652277C10.0959 0.729051 9.98072 0.920986 10.0575 1.15131L10.6717 3.10904ZM21.4582 11.1321L12.0918 13.0898C12.0468 13.0898 12.0018 13.103 11.9646 13.1139C11.9382 13.1216 11.9157 13.1282 11.8998 13.1282C11.4008 13.3585 11.1705 13.8959 11.3624 14.395C11.5927 14.894 12.1301 15.1243 12.6292 14.9324L21.4582 11.2089C21.5349 11.2089 21.4966 11.1321 21.4582 11.1321ZM11.8614 14.4717C11.6311 14.2798 11.6311 13.9343 11.823 13.704C12.015 13.4737 12.3605 13.4737 12.5908 13.6656C12.8211 13.8576 12.8211 14.203 12.6292 14.4334C12.4372 14.6253 12.0918 14.6637 11.8614 14.4717ZM26.679 6.25661L21.9958 9.67305C21.8423 9.78821 21.8039 9.98015 21.8807 10.1721C22.183 10.7095 22.3089 11.0706 22.49 11.5896L22.4902 11.5903L22.4906 11.5913L22.4912 11.5932L22.4918 11.5948C22.5171 11.6674 22.5435 11.743 22.5716 11.8227C22.6484 12.0147 22.8403 12.1298 23.0323 12.053L28.56 10.2489C28.7519 10.1721 28.8671 9.98015 28.7903 9.74982C28.4065 8.6366 27.7923 7.29306 27.2165 6.33338C27.1013 6.14145 26.8326 6.10306 26.679 6.25661ZM10.0189 3.49362C9.05925 3.68556 8.13796 4.03104 7.25506 4.4533C7.10151 4.53007 6.90958 4.49168 6.79442 4.33813L6.02668 3.2633C5.91152 3.07137 5.9499 2.84104 6.10345 2.72588C7.06312 1.99653 8.13796 1.42073 9.25118 0.960083C9.44312 0.883309 9.67344 0.99847 9.75021 1.1904L10.326 2.99459C10.4028 3.22491 10.2492 3.45523 10.0189 3.49362ZM19.0015 1.22821L17.9267 4.52949C17.8883 4.68304 17.9267 4.87497 18.0802 4.95175C18.7328 5.33562 19.3854 5.79626 19.9612 6.33368C20.1147 6.48722 20.3835 6.44884 20.537 6.29529L22.7251 3.26272C22.8402 3.10917 22.8018 2.84046 22.6483 2.7253C21.6886 1.99595 20.6138 1.42015 19.5006 0.959503C19.3086 0.921116 19.0783 1.03628 19.0015 1.22821ZM22.034 8.75206C21.6501 8.13787 21.1895 7.60046 20.6904 7.06304C20.5753 6.94788 20.5369 6.71756 20.6137 6.6024L22.8785 3.49305C23.032 3.30112 23.3008 3.26273 23.4543 3.41628C24.3372 4.18402 25.1433 5.06692 25.8343 6.02659C25.9495 6.21853 25.9111 6.44885 25.7575 6.56401L22.5714 8.86723C22.3795 8.98239 22.1492 8.944 22.034 8.75206ZM3.99232 6.87141C4.68328 6.10367 5.48941 5.45109 6.37231 4.91367C6.56424 4.79851 6.60263 4.5298 6.48747 4.37625L5.83489 3.45497C5.71973 3.26303 5.45102 3.22465 5.25908 3.37819C4.37618 4.14593 3.57006 5.02883 2.87909 5.98851C2.76393 6.14205 2.80232 6.41076 2.95587 6.52592L3.49328 6.90979C3.64683 7.06334 3.87715 7.02495 3.99232 6.87141ZM1.22816 10.5946L1.03623 10.5179C0.844295 10.4795 0.729134 10.2492 0.805908 10.0572C1.15139 8.944 1.65042 7.86916 2.26461 6.90949C2.37977 6.71756 2.64848 6.64078 2.76364 6.79433L3.22429 7.10143C3.41622 7.21659 3.45461 7.4853 3.30106 7.63884C2.64848 8.44497 2.11106 9.36626 1.68881 10.3643C1.61203 10.5563 1.4201 10.6714 1.22816 10.5946ZM23.7232 12.4757C23.8767 13.1282 23.9919 13.8192 24.0687 14.5102C24.0687 14.7021 24.2606 14.8556 24.4525 14.8556H28.368C28.5983 14.8556 28.7519 14.6637 28.7519 14.4718C28.7135 13.2818 28.5599 12.1686 28.2528 11.0553C28.2144 10.825 27.9841 10.7099 27.7538 10.7866L23.9919 12.015C23.7999 12.0918 23.6848 12.2837 23.7232 12.4757ZM1.34354 11.324C0.959674 12.4373 0.729352 13.6273 0.690965 14.8556H0C0 13.5505 0.191934 12.2837 0.49903 11.0553C0.575804 10.825 0.806126 10.7099 0.998061 10.7866L1.11322 10.825C1.30516 10.9018 1.42032 11.1321 1.34354 11.324Z" fill="#D70404"/>
</svg>
