<svg width="22" height="19" viewBox="0 0 22 19" fill="none" xmlns="http://www.w3.org/2000/svg">
<g opacity="0.65" filter="url(#filter0_b_153_2227)">
<path d="M10.5846 18.3237C9.42528 16.9669 7.92456 15.7501 6.51465 14.607L6.4749 14.5748L6.4747 14.5746C4.95121 13.3407 3.4548 12.126 2.33239 10.7428C1.2196 9.37136 0.5 7.86399 0.5 6.04932C0.5 4.39019 1.085 3.01002 2.06304 2.04506C3.04157 1.07963 4.44392 0.5 6.132 0.5C8.00855 0.5 9.66886 1.83911 10.6385 2.84233L10.998 3.21431L10.205 18.6491M10.5846 18.3237C10.5848 18.3239 10.585 18.3241 10.5851 18.3243L10.205 18.6491M10.5846 18.3237C10.5845 18.3236 10.5844 18.3235 10.5843 18.3233L10.205 18.6491M10.5846 18.3237C10.6804 18.435 10.8216 18.5 10.97 18.5H11.028C11.1764 18.5 11.3169 18.4348 11.4123 18.3237M10.205 18.6491C10.396 18.8715 10.676 19 10.97 19H11.028C11.323 19 11.602 18.8705 11.792 18.6491M11.4123 18.3237C11.4123 18.3238 11.4122 18.3239 11.4121 18.324L11.792 18.6491M11.4123 18.3237C11.4124 18.3237 11.4125 18.3236 11.4126 18.3235L11.792 18.6491M11.4123 18.3237C12.5837 16.9552 14.0992 15.7283 15.5216 14.5768L15.5243 14.5746C15.5243 14.5746 15.5244 14.5746 15.5244 14.5745L15.839 14.9632L11.792 18.6491M10.998 2.49485L10.6385 2.14737C10.6399 2.14588 10.6413 2.1444 10.6428 2.14291C10.7706 2.26409 10.8892 2.38227 10.998 2.49485ZM10.998 2.49485L11.3575 2.14737C11.3561 2.14591 11.3547 2.14444 11.3533 2.14298C11.2254 2.26413 11.1068 2.38229 10.998 2.49485Z" stroke="black"/>
</g>
<defs>
<filter id="filter0_b_153_2227" x="-4" y="-4" width="30" height="27" filterUnits="userSpaceOnUse" color-interpolation-filters="sRGB">
<feFlood flood-opacity="0" result="BackgroundImageFix"/>
<feGaussianBlur in="BackgroundImageFix" stdDeviation="2"/>
<feComposite in2="SourceAlpha" operator="in" result="effect1_backgroundBlur_153_2227"/>
<feBlend mode="normal" in="SourceGraphic" in2="effect1_backgroundBlur_153_2227" result="shape"/>
</filter>
</defs>
</svg>
