<svg width="14" height="15" viewBox="0 0 14 15" fill="none" xmlns="http://www.w3.org/2000/svg">
<path d="M10.3306 2.45197C9.98121 2.33472 9.61371 2.28281 9.24563 2.28281C8.43479 2.27697 7.64788 2.54531 6.99979 3.04056C6.94729 3.00031 6.88313 2.96472 6.82479 2.93031C6.76646 2.89472 6.66146 2.80781 6.57396 2.76114L6.35229 2.66197C6.23563 2.59781 6.11371 2.55114 5.98479 2.50972C5.97313 2.49864 5.95563 2.48639 5.93229 2.47531H5.89788C5.55313 2.35806 5.19729 2.29389 4.82979 2.28281H4.76563C4.60229 2.28281 4.43954 2.29389 4.27563 2.31781H4.20563C4.03063 2.34056 3.85621 2.38139 3.68704 2.43972C1.51063 3.15197 0.734793 5.51448 1.39396 7.57948C1.76729 8.63473 2.36871 9.59198 3.15038 10.3789C4.28729 11.4756 5.53038 12.4439 6.86563 13.2722L7.01729 13.3661L7.16313 13.2781C8.49371 12.4439 9.72979 11.4756 10.8562 10.3847C11.6431 9.59781 12.244 8.63473 12.6115 7.57948C13.2595 5.51448 12.4837 3.15197 10.3306 2.45197Z" fill="#61C7CF"/>
</svg>
