<svg width="25" height="25" viewBox="0 0 25 25" fill="none" xmlns="http://www.w3.org/2000/svg">
<path d="M9.54835 21.079V18.0213C9.54835 17.2407 10.1857 16.608 10.972 16.608H13.8462C14.2238 16.608 14.5859 16.7569 14.8529 17.0219C15.1199 17.287 15.2698 17.6464 15.2698 18.0213V21.079C15.2675 21.4035 15.3956 21.7155 15.6259 21.9458C15.8562 22.1761 16.1696 22.3057 16.4965 22.3057H18.4574C19.3732 22.308 20.2523 21.9485 20.9007 21.3065C21.5492 20.6644 21.9136 19.7926 21.9136 18.8835V10.1725C21.9135 9.43812 21.5856 8.74151 21.0182 8.27033L14.3476 2.98153C13.1872 2.05423 11.5247 2.08417 10.399 3.05264L3.88059 8.27033C3.28631 8.72762 2.93113 9.4263 2.91357 10.1725V18.8746C2.91357 20.7695 4.46096 22.3057 6.36975 22.3057H8.28586C8.9648 22.3057 9.51657 21.7619 9.52149 21.0879L9.54835 21.079Z" fill="#39BDB7"/>
</svg>
