<svg width="25" height="25" viewBox="0 0 25 25" fill="none" xmlns="http://www.w3.org/2000/svg">
<path d="M9.57128 20.8827V17.816C9.57126 17.036 10.2072 16.4022 10.9951 16.3969H13.8812C14.6728 16.3969 15.3146 17.0323 15.3146 17.816V17.816V20.8923C15.3144 21.5545 15.8483 22.0958 16.5171 22.1113H18.4412C20.3592 22.1113 21.9141 20.572 21.9141 18.6732V18.6732V9.94916C21.9038 9.20216 21.5495 8.50068 20.952 8.04436L14.3718 2.79663C13.219 1.88289 11.5803 1.88289 10.4275 2.79663L3.87609 8.05388C3.27632 8.50835 2.92145 9.21099 2.91406 9.95869V18.6732C2.91406 20.572 4.46894 22.1113 6.38697 22.1113H8.31102C8.99642 22.1113 9.55204 21.5613 9.55204 20.8827V20.8827" stroke="#231F20" stroke-opacity="0.3" stroke-width="1.5" stroke-linecap="round" stroke-linejoin="round"/>
</svg>
