<svg width="19" height="18" viewBox="0 0 19 18" fill="none" xmlns="http://www.w3.org/2000/svg">
<path d="M12.8268 0H6.18314C5.923 0 5.66285 0.11 5.48275 0.29L0.79016 4.98C0.610061 5.16 0.5 5.42 0.5 5.68V12.31C0.5 12.58 0.610061 12.83 0.79016 13.02L5.47275 17.7C5.66285 17.89 5.923 18 6.18314 18H12.8168C13.087 18 13.3371 17.89 13.5272 17.71L18.2098 13.03C18.303 12.9369 18.3766 12.8261 18.4265 12.7042C18.4763 12.5823 18.5013 12.4517 18.5 12.32V5.68C18.5 5.41 18.3899 5.16 18.2098 4.97L13.5272 0.29C13.3471 0.11 13.087 0 12.8268 0ZM9.50498 14.3C8.78458 14.3 8.20426 13.72 8.20426 13C8.20426 12.28 8.78458 11.7 9.50498 11.7C10.2254 11.7 10.8057 12.28 10.8057 13C10.8057 13.72 10.2254 14.3 9.50498 14.3ZM9.50498 10C8.95467 10 8.50443 9.55 8.50443 9V5C8.50443 4.45 8.95467 4 9.50498 4C10.0553 4 10.5055 4.45 10.5055 5V9C10.5055 9.55 10.0553 10 9.50498 10Z" fill="black"/>
</svg>
