<svg width="36" height="25" viewBox="0 0 36 25" fill="none" xmlns="http://www.w3.org/2000/svg">
<path fill-rule="evenodd" clip-rule="evenodd" d="M7.30438 8.24954C9.583 8.25047 11.4296 6.3588 11.4228 4.11847C11.4249 1.90265 9.596 -0.013923 7.30438 7.62128e-05C5.02337 7.62128e-05 3.18599 1.85013 3.18599 4.11847C3.18599 6.39941 5.02337 8.24954 7.30438 8.24954ZM28.796 8.24954C31.077 8.24954 32.9144 6.39941 32.9144 4.11847C32.9144 1.85013 31.077 7.62098e-05 28.796 7.62098e-05C26.5043 -0.013923 24.6755 1.90273 24.6776 4.11847C24.6707 6.35872 26.5174 8.25047 28.796 8.24954ZM22.8422 5.6372C22.8422 8.27988 20.6927 10.4294 18.0506 10.4294C15.4085 10.4294 13.259 8.27988 13.259 5.6372C13.259 2.99515 15.4085 0.845614 18.0506 0.845614C20.6927 0.845614 22.8422 2.99515 22.8422 5.6372ZM9.71675 25.0002V21.4437C9.71675 16.8488 13.4552 13.1104 18.0501 13.1104C22.6449 13.1104 26.3834 16.8488 26.3834 21.4437V25.0002H9.71675ZM23.6894 12.1646C24.9692 10.7834 26.7813 9.9343 28.7961 9.9343C32.6485 9.9343 35.7911 13.0643 35.7911 16.9166V20.0339H28.8215C28.3906 16.7012 26.4392 13.8373 23.6894 12.1646ZM7.30453 9.9343C9.31933 9.9343 11.1314 10.7834 12.4113 12.1646C9.66149 13.8373 7.71004 16.7012 7.27916 20.0339H0.30957V16.9166C0.30957 13.0643 3.4522 9.9343 7.30453 9.9343Z" fill="#C61620"/>
</svg>
