<svg width="20" height="20" viewBox="0 0 20 20" fill="none" xmlns="http://www.w3.org/2000/svg">
<path d="M1.85981 9.49502V16.652H4.88981L5.04281 16.67C7.85581 17.326 9.71981 17.799 10.6488 18.092C11.8828 18.481 12.3428 18.576 13.1798 18.632C13.8058 18.675 14.5168 18.434 14.8408 18.104C15.0198 17.922 15.1538 17.548 15.2068 16.968C15.2178 16.8464 15.2613 16.73 15.3327 16.6309C15.4041 16.5319 15.5009 16.4538 15.6128 16.405C15.8618 16.297 16.0688 16.121 16.2418 15.865C16.4018 15.631 16.5058 15.195 16.5248 14.564C16.5281 14.448 16.561 14.3348 16.6204 14.235C16.6797 14.1353 16.7635 14.0523 16.8638 13.994C17.4458 13.657 17.7338 13.277 17.7938 12.831C17.8598 12.338 17.6998 11.783 17.2808 11.151C17.1825 11.0028 17.1459 10.8221 17.1788 10.6473C17.2116 10.4725 17.3114 10.3174 17.4568 10.215C17.8578 9.93302 18.0778 9.54102 18.1328 8.98502C18.2208 8.09902 17.6558 7.44402 16.3768 7.31302C15.2377 7.20035 14.0875 7.29625 12.9828 7.59602C12.8575 7.62877 12.7254 7.62504 12.6021 7.58529C12.4789 7.54553 12.3695 7.47139 12.287 7.37159C12.2044 7.27179 12.152 7.15049 12.1361 7.02195C12.1201 6.89341 12.1412 6.76299 12.1968 6.64602C12.6968 5.58802 12.9748 4.71502 13.0398 4.03902C13.1248 3.14202 12.9178 2.49202 12.4338 1.95602C12.0668 1.55002 11.4798 1.31802 11.2598 1.36602C10.9698 1.42802 10.7808 1.59602 10.5348 2.18402C10.3898 2.53202 10.3198 2.82802 10.1998 3.51902C10.0848 4.17502 10.0218 4.47102 9.89081 4.85902C9.49581 6.03502 8.52681 7.25402 7.22581 8.09502C6.314 8.68373 5.32581 9.14469 4.28881 9.46502C4.22402 9.48499 4.1566 9.4951 4.08881 9.49502H1.85981V9.49502ZM1.81781 18.015C1.49481 18.024 1.20481 17.952 0.961807 17.782C0.651807 17.565 0.505807 17.223 0.502807 16.829L0.505807 9.50602C0.471807 9.11602 0.586807 8.75802 0.858807 8.49202C1.11381 8.24202 1.44681 8.12402 1.79881 8.13202H3.98381C4.86766 7.85039 5.71033 7.45294 6.48981 6.95002C7.53781 6.27202 8.30981 5.30002 8.60481 4.42402C8.70581 4.12202 8.75981 3.87202 8.86181 3.28402C8.99981 2.49502 9.08581 2.12802 9.28381 1.65602C9.69381 0.674018 10.2318 0.194018 10.9738 0.0330184C11.7038 -0.124982 12.7668 0.296018 13.4388 1.04002C14.1838 1.86402 14.5128 2.89502 14.3908 4.16902C14.3388 4.71702 14.1868 5.33002 13.9368 6.01302C14.7906 5.8886 15.6564 5.86979 16.5148 5.95702C18.5218 6.16202 19.6488 7.46902 19.4848 9.12102C19.4128 9.83302 19.1548 10.438 18.7158 10.913C19.0848 11.624 19.2318 12.327 19.1398 13.013C19.0338 13.803 18.5938 14.461 17.8618 14.972C17.8048 15.665 17.6458 16.218 17.3638 16.632C17.1416 16.9665 16.8517 17.2506 16.5128 17.466C16.4048 18.15 16.1778 18.685 15.8068 19.061C15.1918 19.687 14.0928 20.06 13.0888 19.992C12.1358 19.928 11.5718 19.812 10.2418 19.392C9.36481 19.115 7.54881 18.655 4.81181 18.015H1.81681H1.81781ZM3.51881 9.18402C3.51854 9.09455 3.53594 9.00591 3.56999 8.92318C3.60405 8.84045 3.6541 8.76525 3.71727 8.70189C3.78044 8.63854 3.85549 8.58827 3.93812 8.55397C4.02075 8.51967 4.10934 8.50202 4.19881 8.50202C4.28811 8.50228 4.37648 8.52013 4.45888 8.55454C4.54128 8.58896 4.6161 8.63927 4.67905 8.7026C4.74201 8.76593 4.79188 8.84104 4.82581 8.92364C4.85974 9.00624 4.87707 9.09472 4.87681 9.18402V16.862C4.87694 16.9513 4.85948 17.0398 4.82543 17.1223C4.79138 17.2049 4.7414 17.2799 4.67835 17.3431C4.6153 17.4064 4.54041 17.4566 4.45796 17.4909C4.3755 17.5252 4.28711 17.5429 4.19781 17.543C4.10851 17.5429 4.02011 17.5252 3.93766 17.4909C3.85521 17.4566 3.78032 17.4064 3.71727 17.3431C3.65422 17.2799 3.60424 17.2049 3.57019 17.1223C3.53613 17.0398 3.51868 16.9513 3.51881 16.862V9.18402V9.18402Z" fill="#FF0000"/>
</svg>
