<svg width="18" height="18" viewBox="0 0 18 18" fill="none" xmlns="http://www.w3.org/2000/svg">
<path d="M0 16.5H18V18H0V16.5ZM0 11.25H18V12.75H0V11.25ZM6 1.5V6H1.5V1.5H6ZM6 0H1.5C1.10218 0 0.720644 0.158035 0.43934 0.43934C0.158035 0.720644 0 1.10218 0 1.5V6C0 6.39782 0.158035 6.77936 0.43934 7.06066C0.720644 7.34196 1.10218 7.5 1.5 7.5H6C6.39782 7.5 6.77936 7.34196 7.06066 7.06066C7.34196 6.77936 7.5 6.39782 7.5 6V1.5C7.5 1.10218 7.34196 0.720644 7.06066 0.43934C6.77936 0.158035 6.39782 0 6 0ZM16.5 1.5V6H12V1.5H16.5ZM16.5 0H12C11.6022 0 11.2206 0.158035 10.9393 0.43934C10.658 0.720644 10.5 1.10218 10.5 1.5V6C10.5 6.39782 10.658 6.77936 10.9393 7.06066C11.2206 7.34196 11.6022 7.5 12 7.5H16.5C16.8978 7.5 17.2794 7.34196 17.5607 7.06066C17.842 6.77936 18 6.39782 18 6V1.5C18 1.10218 17.842 0.720644 17.5607 0.43934C17.2794 0.158035 16.8978 0 16.5 0Z" fill="#D70404"/>
</svg>
