<svg width="10" height="12" viewBox="0 0 10 12" fill="none" xmlns="http://www.w3.org/2000/svg">
<g opacity="0.5">
<path d="M4.94851 0.694363L5.07848 0.696896C7.40914 0.778423 9.2711 2.81755 9.26318 5.31268L9.26308 5.36794C9.23657 6.85629 8.53414 8.32179 7.36871 9.62969C6.79379 10.2646 6.15176 10.8267 5.45543 11.3047L5.4605 11.3008L5.43596 11.3228C5.1576 11.5349 4.78872 11.55 4.49743 11.3683L4.43166 11.3228L4.40094 11.2972L4.19036 11.147C3.31574 10.5077 2.53681 9.73219 1.88136 8.84862L1.72008 8.62549C1.03339 7.67137 0.643512 6.5133 0.604492 5.29843L0.606849 5.14459C0.683488 2.66605 2.60097 0.685934 4.94851 0.694363ZM4.9459 1.51377L4.82355 1.51553C2.91449 1.57723 1.38153 3.2389 1.37499 5.28418L1.38471 5.47697C1.45088 6.43842 1.77962 7.36007 2.33438 8.13092C3.02311 9.10901 3.8683 9.95059 4.8313 10.6172L4.87318 10.6507C4.90799 10.6827 4.95963 10.6827 4.99444 10.6507L5.03753 10.6163C5.68397 10.1725 6.27999 9.65073 6.81157 9.0637C7.8541 7.89371 8.47035 6.608 8.49265 5.36018L8.491 5.18118C8.43298 3.15099 6.87043 1.52075 4.9459 1.51377ZM4.93381 3.61096C5.8447 3.61096 6.58313 4.39624 6.58313 5.36493C6.58313 6.33362 5.8447 7.1189 4.93381 7.1189C4.02292 7.1189 3.28449 6.33362 3.28449 5.36493C3.28449 4.39624 4.02292 3.61096 4.93381 3.61096ZM4.93381 4.43035C4.44845 4.43035 4.05499 4.84878 4.05499 5.36493C4.05499 5.88109 4.44845 6.29951 4.93381 6.29951C5.41917 6.29951 5.81263 5.88109 5.81263 5.36493C5.81263 4.84878 5.41917 4.43035 4.93381 4.43035Z" fill="#231F20"/>
</g>
</svg>
