<svg width="11" height="13" viewBox="0 0 11 13" fill="none" xmlns="http://www.w3.org/2000/svg">
<path d="M5.17779 3.19509e-05L5.33269 0.00305084C8.11069 0.100226 10.33 2.53073 10.3206 5.50476L10.3205 5.57063C10.2889 7.34464 9.45162 9.09142 8.0625 10.6504C7.37723 11.4071 6.61198 12.0771 5.78199 12.6469L5.78804 12.6422L5.75879 12.6685C5.427 12.9212 4.98732 12.9392 4.64013 12.7226L4.56174 12.6685L4.52511 12.638L4.27411 12.4588C3.23163 11.6969 2.3032 10.7725 1.52194 9.71937L1.32971 9.45342C0.511218 8.31617 0.0465088 6.93583 0 5.48778L0.00280952 5.30441C0.0941581 2.35015 2.37967 -0.010014 5.17779 3.19509e-05ZM5.17467 0.976717L5.02884 0.978807C2.75337 1.05235 0.926176 3.03295 0.918385 5.47079L0.929973 5.70058C1.00884 6.84657 1.40068 7.94512 2.06191 8.86391C2.88283 10.0297 3.89025 11.0328 5.03808 11.8274L5.08799 11.8673C5.12949 11.9055 5.19104 11.9055 5.23253 11.8673L5.28389 11.8264C6.0544 11.2974 6.76481 10.6754 7.39843 9.97573C8.64105 8.58118 9.37559 7.0487 9.40216 5.56138L9.4002 5.34802C9.33104 2.92817 7.46859 0.985031 5.17467 0.976717ZM5.16026 3.47643C6.24598 3.47643 7.12614 4.41243 7.12614 5.56704C7.12614 6.72166 6.24598 7.65766 5.16026 7.65766C4.07454 7.65766 3.19438 6.72166 3.19438 5.56704C3.19438 4.41243 4.07454 3.47643 5.16026 3.47643ZM5.16026 4.45309C4.58175 4.45309 4.11277 4.95182 4.11277 5.56704C4.11277 6.18226 4.58175 6.681 5.16026 6.681C5.73877 6.681 6.20775 6.18226 6.20775 5.56704C6.20775 4.95182 5.73877 4.45309 5.16026 4.45309Z" fill="white"/>
</svg>
