<svg width="23" height="23" viewBox="0 0 23 23" fill="none" xmlns="http://www.w3.org/2000/svg">
<path d="M11.3347 20.7177C16.3889 20.7177 20.5007 16.6059 20.5007 11.5517C20.5007 6.4976 16.3889 2.38574 11.3347 2.38574C6.28062 2.38574 2.16876 6.4976 2.16876 11.5517C2.16876 16.6059 6.28062 20.7177 11.3347 20.7177ZM11.3347 3.76064C15.6308 3.76064 19.1258 7.25563 19.1258 11.5517C19.1258 15.8478 15.6308 19.3428 11.3347 19.3428C7.03865 19.3428 3.54366 15.8478 3.54366 11.5517C3.54366 7.25563 7.03865 3.76064 11.3347 3.76064Z" fill="#231F20"/>
<path d="M11.3339 5.13573C11.7133 5.13573 12.0213 4.82775 12.0213 4.44828V1.24018C12.0213 0.860711 11.7133 0.552734 11.3339 0.552734C10.9544 0.552734 10.6464 0.860711 10.6464 1.24018V4.44828C10.6464 4.82775 10.9544 5.13573 11.3339 5.13573Z" fill="#231F20"/>
<path d="M1.0223 12.2392H4.2304C4.60987 12.2392 4.91785 11.9312 4.91785 11.5517C4.91785 11.1722 4.60987 10.8643 4.2304 10.8643H1.0223C0.642831 10.8643 0.334855 11.1722 0.334855 11.5517C0.334855 11.9312 0.642831 12.2392 1.0223 12.2392Z" fill="#231F20"/>
<path d="M11.3339 22.5513C11.7133 22.5513 12.0213 22.2433 12.0213 21.8638V18.6557C12.0213 18.2762 11.7133 17.9683 11.3339 17.9683C10.9544 17.9683 10.6464 18.2762 10.6464 18.6557V21.8638C10.6464 22.2433 10.9544 22.5513 11.3339 22.5513Z" fill="#231F20"/>
<path d="M18.4375 12.2392H21.6456C22.025 12.2392 22.333 11.9312 22.333 11.5517C22.333 11.1722 22.025 10.8643 21.6456 10.8643H18.4375C18.058 10.8643 17.75 11.1722 17.75 11.5517C17.75 11.9312 18.058 12.2392 18.4375 12.2392Z" fill="#231F20"/>
<path d="M11.3347 14.3018C12.8507 14.3018 14.0845 13.0681 14.0845 11.552C14.0845 10.036 12.8507 8.80225 11.3347 8.80225C9.81862 8.80225 8.58488 10.036 8.58488 11.552C8.58488 13.0681 9.81862 14.3018 11.3347 14.3018ZM11.3347 10.1771C12.0927 10.1771 12.7096 10.794 12.7096 11.552C12.7096 12.3101 12.0927 12.9269 11.3347 12.9269C10.5767 12.9269 9.95978 12.3101 9.95978 11.552C9.95978 10.794 10.5767 10.1771 11.3347 10.1771Z" fill="#231F20"/>
</svg>
