<svg width="25" height="25" viewBox="0 0 25 25" fill="none" xmlns="http://www.w3.org/2000/svg">
<path fill-rule="evenodd" clip-rule="evenodd" d="M18.1931 7.99195V9.52529C19.9155 10.0629 21.1704 11.6221 21.1704 13.4844V18.4212C21.1704 20.7267 19.2591 22.5959 16.9026 22.5959H8.43921C6.08177 22.5959 4.17041 20.7267 4.17041 18.4212V13.4844C4.17041 11.6221 5.42636 10.0629 7.1477 9.52529V7.99195C7.15786 5.01073 9.62708 2.59595 12.6552 2.59595C15.7239 2.59595 18.1931 5.01073 18.1931 7.99195ZM12.6755 4.33499C14.7383 4.33499 16.4149 5.97466 16.4149 7.99195V9.30965H8.92594V7.97208C8.9361 5.96472 10.6127 4.33499 12.6755 4.33499ZM13.5595 17.0509C13.5595 17.5378 13.1632 17.9254 12.6653 17.9254C12.1776 17.9254 11.7813 17.5378 11.7813 17.0509V14.8448C11.7813 14.3678 12.1776 13.9802 12.6653 13.9802C13.1632 13.9802 13.5595 14.3678 13.5595 14.8448V17.0509Z" fill="#61C7CF"/>
</svg>
