<svg width="15" height="15" viewBox="0 0 15 15" fill="none" xmlns="http://www.w3.org/2000/svg">
<path fill-rule="evenodd" clip-rule="evenodd" d="M6.06916 7.13685C5.81395 7.13685 5.61216 7.33519 5.61216 7.58602C5.61216 7.83102 5.81395 8.03519 6.06916 8.03519H9.63021V10.8235C9.63021 12.2527 8.44913 13.4194 6.9891 13.4194H4.09872C2.64462 13.4194 1.46354 12.2585 1.46354 10.8294V4.34852C1.46354 2.91352 2.65056 1.75269 4.10465 1.75269H7.00097C8.44913 1.75269 9.63021 2.91352 9.63021 4.34269V7.13685H6.06916ZM11.7479 5.56781L13.4512 7.26531C13.5387 7.35281 13.5854 7.46365 13.5854 7.58615C13.5854 7.70281 13.5387 7.81948 13.4512 7.90115L11.7479 9.59865C11.6604 9.68615 11.5437 9.73281 11.4329 9.73281C11.3162 9.73281 11.1996 9.68615 11.1121 9.59865C10.9371 9.42365 10.9371 9.13781 11.1121 8.96281L12.0454 8.03531H9.63041V7.13698H12.0454L11.1121 6.20948C10.9371 6.03448 10.9371 5.74865 11.1121 5.57365C11.2871 5.39281 11.5729 5.39281 11.7479 5.56781Z" fill="#61C7CF"/>
</svg>
