<svg width="97" height="97" viewBox="0 0 97 97" fill="none" xmlns="http://www.w3.org/2000/svg">
<path d="M92.4051 29.1653L48.5 72.2817L22.5424 50.1754L35.3188 37.0542L48.4974 52.117L79.5976 11.6311C71.2374 4.39202 60.3734 0 48.5 0C22.1792 0 0.754639 21.5425 0.754639 48.0225C0.754639 56.5612 2.99388 64.5754 6.89373 71.5301L2.18432 95.2621L24.7791 89.6697C31.7744 93.7172 39.8699 96.0424 48.5 96.0424C74.8259 96.0424 96.2427 74.5025 96.2427 48.0225C96.2427 41.3314 94.8753 34.9561 92.4051 29.1653ZM48.5 89.7532C25.6224 89.7532 7.00271 71.0343 7.00271 48.0199C7.00271 25.0107 25.6224 6.28661 48.5 6.28661C57.2208 6.28661 65.3163 9.01107 72.0003 13.6484L67.0911 20.042C61.7719 16.4537 55.3734 14.3556 48.4974 14.3556C30.0386 14.3556 15.023 29.4576 15.023 48.0199C15.023 66.5822 30.0386 81.6868 48.4974 81.6868C66.9536 81.6868 81.9718 66.5822 81.9718 48.0199C81.9718 47.404 81.951 46.7908 81.9225 46.1775L89.0475 39.1811C89.6573 42.0308 89.9946 44.9849 89.9946 48.0199C89.9972 71.0343 71.3801 89.7532 48.5 89.7532Z" fill="url(#paint0_linear_617_1899)"/>
<defs>
<linearGradient id="paint0_linear_617_1899" x1="48.4996" y1="-12.7167" x2="48.4996" y2="91.4099" gradientUnits="userSpaceOnUse">
<stop stop-color="#81D2E8"/>
<stop offset="0.1296" stop-color="#79CFE1"/>
<stop offset="0.3449" stop-color="#61C7CF"/>
<stop offset="0.5674" stop-color="#36BEB9"/>
<stop offset="0.8652" stop-color="#079DA1"/>
<stop offset="0.9944" stop-color="#068083"/>
</linearGradient>
</defs>
</svg>
