<svg width="186" height="53" viewBox="0 0 186 53" fill="none" xmlns="http://www.w3.org/2000/svg">
<g clip-path="url(#clip0_617_5240)">
<path d="M67.9336 16.0511H72.9567L77.3731 30.5044L82.1541 15.9912H86.1709L90.9533 30.5044L95.3697 16.0511H100.27L92.9938 37.5464H88.9129L84.1027 23.5822L79.2896 37.5464H75.2101L67.9336 16.0511Z" fill="#454545"/>
<path d="M98.6617 29.3144V29.253C98.6617 24.5886 101.98 20.7463 106.732 20.7463C112.182 20.7463 114.679 24.9858 114.679 29.6196C114.679 29.9861 114.647 30.414 114.618 30.8405H103.259C103.715 32.9449 105.178 34.0401 107.248 34.0401C108.803 34.0401 109.927 33.5538 111.206 32.3636L113.857 34.7119C112.335 36.6017 110.14 37.7626 107.188 37.7626C102.285 37.7626 98.6617 34.3162 98.6617 29.3144ZM110.172 27.9416C109.897 25.8693 108.68 24.4674 106.732 24.4674C104.812 24.4674 103.564 25.8387 103.199 27.9416H110.172Z" fill="#454545"/>
<path d="M114.344 16.0513H119.52L125.092 31.0829L130.665 16.0513H135.723L127.105 37.5466H122.964L114.344 16.0513Z" fill="#454545"/>
<path d="M137.4 15.137H142.272V19.2538H137.4V15.137ZM137.523 21.0515H142.149V37.3946H137.523V21.0515Z" fill="#454545"/>
<path d="M144.496 29.3144V29.253C144.496 24.5886 147.814 20.7463 152.564 20.7463C158.016 20.7463 160.513 24.9858 160.513 29.6196C160.513 29.9861 160.482 30.414 160.452 30.8405H149.096C149.551 32.9449 151.014 34.0401 153.083 34.0401C154.637 34.0401 155.764 33.5538 157.042 32.3636L159.692 34.7119C158.168 36.6017 155.979 37.7626 153.022 37.7626C148.119 37.7626 144.496 34.3162 144.496 29.3144ZM156.005 27.9416C155.732 25.8693 154.514 24.4674 152.563 24.4674C150.645 24.4674 149.398 25.8387 149.032 27.9416H156.005Z" fill="#454545"/>
<path d="M161.244 21.0513H165.934L168.551 30.9614L171.628 20.99H175.617L178.724 30.9921L181.405 21.0513H186L180.915 37.5156H176.743L173.607 27.4857L170.41 37.5156H166.268L161.244 21.0513Z" fill="#454545"/>
<path d="M50.8015 16.0948L26.4662 39.8887L12.078 27.6887L19.1605 20.4482L26.4662 28.7607L43.7029 6.41836C39.0678 2.42423 33.047 0 26.4662 0C11.8752 0 0 11.8889 0 26.5C0 31.2126 1.2412 35.6347 3.40271 39.4725L0.791973 52.5692L13.3162 49.482C17.193 51.7149 21.6823 52.9985 26.4647 52.9985C41.0586 52.9985 52.9295 41.1111 52.9295 26.4985C52.9295 22.8082 52.1725 19.2901 50.8015 16.0948ZM26.4662 49.5301C13.7844 49.5301 3.46397 39.2009 3.46397 26.5C3.46397 13.802 13.7844 3.46986 26.4662 3.46986C31.2997 3.46986 35.7876 4.97404 39.4937 7.53262L36.7735 11.0609C33.8244 9.08062 30.2773 7.92255 26.4677 7.92255C16.2362 7.92255 7.91244 16.2569 7.91244 26.5C7.91244 36.7431 16.2362 45.0789 26.4677 45.0789C36.6977 45.0789 45.0229 36.7445 45.0229 26.5C45.0229 26.1597 45.0112 25.8209 44.9952 25.4836L48.9448 21.6223C49.2832 23.1952 49.4699 24.8264 49.4699 26.5C49.467 39.2009 39.148 49.5301 26.4662 49.5301Z" fill="url(#paint0_linear_617_5240)"/>
</g>
<defs>
<linearGradient id="paint0_linear_617_5240" x1="26.4649" y1="-7.01761" x2="26.4649" y2="50.4439" gradientUnits="userSpaceOnUse">
<stop stop-color="#81D2E8"/>
<stop offset="0.1296" stop-color="#79CFE1"/>
<stop offset="0.3449" stop-color="#61C7CF"/>
<stop offset="0.5674" stop-color="#36BEB9"/>
<stop offset="0.8652" stop-color="#079DA1"/>
<stop offset="0.9944" stop-color="#068083"/>
</linearGradient>
<clipPath id="clip0_617_5240">
<rect width="186" height="53" fill="white"/>
</clipPath>
</defs>
</svg>
