<svg width="16" height="16" viewBox="0 0 16 16" fill="none" xmlns="http://www.w3.org/2000/svg">
<path d="M1.33331 4.00008C1.33331 3.64646 1.47379 3.30732 1.72384 3.05727C1.97389 2.80722 2.31302 2.66675 2.66665 2.66675H13.3333C13.6869 2.66675 14.0261 2.80722 14.2761 3.05727C14.5262 3.30732 14.6666 3.64646 14.6666 4.00008V12.0001C14.6666 12.3537 14.5262 12.6928 14.2761 12.9429C14.0261 13.1929 13.6869 13.3334 13.3333 13.3334H2.66665C2.31302 13.3334 1.97389 13.1929 1.72384 12.9429C1.47379 12.6928 1.33331 12.3537 1.33331 12.0001V4.00008ZM3.67931 4.00008L7.99998 7.78075L12.3206 4.00008H3.67998H3.67931ZM13.3333 4.88608L8.43931 9.16875C8.31774 9.27526 8.16161 9.33399 7.99998 9.33399C7.83835 9.33399 7.68222 9.27526 7.56065 9.16875L2.66665 4.88608V12.0001H13.3333V4.88608Z" fill="#231F20"/>
</svg>
