<svg width="11" height="11" viewBox="0 0 11 11" fill="none" xmlns="http://www.w3.org/2000/svg">
<g clip-path="url(#clip0_617_3731)">
<path d="M10.5156 3.02321C10.4208 2.96976 10.3133 2.94304 10.2045 2.9459C10.0958 2.94875 9.98984 2.98107 9.898 3.03942L9.40469 3.34776C8.91027 3.16844 8.41236 2.96858 7.92349 2.75272C7.52045 2.57475 7.22642 2.4316 6.99017 2.31658C6.47054 2.06362 6.23324 1.94787 5.82521 1.95815C5.42677 1.96791 5.19537 2.09192 4.81199 2.29721C4.58607 2.41819 4.3049 2.56869 3.89064 2.7528C3.3605 2.98822 2.81524 3.18799 2.25849 3.35078L1.76023 3.03942C1.6684 2.98107 1.56245 2.94875 1.45369 2.9459C1.34493 2.94304 1.23744 2.96976 1.14267 3.02321C1.04712 3.07524 0.96749 3.15223 0.912268 3.24598C0.857047 3.33972 0.828308 3.44669 0.829118 3.55549V5.39565C0.828791 5.49893 0.854904 5.60057 0.904972 5.69091C0.95504 5.78124 1.0274 5.85726 1.11515 5.91172L2.07912 6.51422V6.67529C2.07889 6.78964 2.10386 6.90262 2.15225 7.00622C2.20064 7.10982 2.27127 7.20148 2.3591 7.27469C4.02052 8.66086 5.81123 8.6769 5.82912 8.6769C7.40408 8.6769 8.59527 7.91061 9.31724 7.26776C9.39956 7.19442 9.46545 7.10452 9.51058 7.00394C9.55571 6.90335 9.57907 6.79437 9.57912 6.68412V6.576L10.5431 5.97352C10.6308 5.91906 10.7032 5.84305 10.7533 5.75271C10.8033 5.66238 10.8294 5.56073 10.8291 5.45744V3.55549C10.8299 3.44669 10.8012 3.33972 10.746 3.24598C10.6907 3.15223 10.6111 3.07524 10.5156 3.02321ZM3.22634 5.87383C4.06035 6.17814 4.94133 6.3336 5.82912 6.33315C6.71691 6.33361 7.59788 6.17814 8.43189 5.87383L8.53886 6.16744C7.67058 6.48427 6.7534 6.64613 5.82912 6.64565C4.90485 6.64613 3.98767 6.48427 3.11939 6.16746L3.22634 5.87383ZM3.11937 4.76119L3.22634 4.46758C4.06035 4.77189 4.94133 4.92735 5.82912 4.9269C6.71691 4.92736 7.59788 4.7719 8.43189 4.46758L8.53886 4.76119C7.67058 5.07802 6.7534 5.23988 5.82912 5.2394C4.90485 5.23988 3.98767 5.07802 3.11939 4.76121L3.11937 4.76119ZM1.28078 5.6467C1.23809 5.62021 1.20288 5.58323 1.17852 5.53928C1.15417 5.49534 1.14146 5.44589 1.14162 5.39565V3.55549C1.14162 3.50264 1.15577 3.45076 1.1826 3.40522C1.20942 3.35969 1.24795 3.32217 1.29417 3.29655C1.34039 3.27093 1.39263 3.25815 1.44546 3.25954C1.49829 3.26092 1.54979 3.27643 1.59461 3.30444L2.07912 3.60725V6.14565L1.28078 5.6467ZM10.5166 5.45744C10.5168 5.50769 10.5041 5.55714 10.4797 5.60108C10.4554 5.64503 10.4202 5.68201 10.3775 5.7085L9.57912 6.20746V3.60725L10.0636 3.30451C10.1084 3.27651 10.1599 3.26101 10.2128 3.25962C10.2656 3.25823 10.3178 3.271 10.364 3.29661C10.4103 3.32222 10.4488 3.35973 10.4756 3.40525C10.5024 3.45077 10.5166 3.50265 10.5166 3.55549V5.45744Z" fill="#39BDB7"/>
</g>
<defs>
<clipPath id="clip0_617_3731">
<rect width="10" height="10" fill="white" transform="translate(0.829102 0.0830078)"/>
</clipPath>
</defs>
</svg>
