<svg width="27" height="15" viewBox="0 0 27 15" fill="none" xmlns="http://www.w3.org/2000/svg">
<path fill-rule="evenodd" clip-rule="evenodd" d="M10.3125 4.75955C10.3485 4.90378 10.5288 5.01195 10.673 5.01195C10.9975 4.97589 11.3581 4.93983 11.6826 4.93983C12.1632 4.93983 12.3591 4.9683 12.7509 5.02523L12.7509 5.02523L12.7509 5.02523L12.7509 5.02523L12.9086 5.04801C13.1249 5.08406 13.3413 4.90378 13.3413 4.68743V0.360572C13.3413 0.144229 13.161 0 12.9807 0C11.8269 0.0360572 10.3846 0.288458 9.33891 0.612972C9.15862 0.685087 9.05045 0.865372 9.12256 1.08172L10.3125 4.75955ZM11.6104 5.26459L10.4927 13.9544V14.1347C10.5287 14.6395 10.9614 15 11.4662 15C11.971 14.964 12.3316 14.5313 12.3316 14.0265L11.6826 5.26459C11.7186 5.22853 11.6465 5.22853 11.6104 5.26459ZM11.6826 14.5673C11.4302 14.7116 11.1417 14.6395 10.9975 14.3871C10.8532 14.1347 10.9254 13.8462 11.1778 13.702C11.4302 13.5577 11.7186 13.6299 11.8628 13.8823C12.0071 14.0986 11.935 14.4231 11.6826 14.5673ZM16.1174 5.08441C15.3963 4.7599 14.6391 4.47144 13.8819 4.29116C13.7377 4.2551 13.6295 4.14693 13.6656 3.93058V1.22629C13.6656 1.00995 13.8098 0.865723 14.0261 0.865723C15.18 0.90178 16.2977 1.11812 17.3794 1.44264C17.5597 1.51475 17.6679 1.73109 17.5958 1.91138L16.6222 4.86807C16.5501 5.08441 16.2977 5.19258 16.1174 5.08441ZM24.3386 7.28345L21.3098 9.48294C21.1655 9.59111 21.1295 9.7714 21.2016 9.95168C21.5261 10.5286 21.7785 11.1055 21.9948 11.7185C22.067 11.8988 22.2472 12.0069 22.4275 11.9348L25.9611 10.781C26.1414 10.7089 26.2496 10.5286 26.1775 10.3123C25.8169 9.26659 25.3482 8.257 24.8073 7.35557C24.7352 7.21134 24.4828 7.13922 24.3386 7.28345ZM9.41074 4.18288C8.50931 4.36317 7.64394 4.68768 6.81463 5.08431C6.6704 5.15642 6.45405 5.12037 6.38194 4.97614L5.6608 3.96654C5.55262 3.78625 5.58868 3.56991 5.73291 3.46174C6.63434 2.77665 7.64394 2.23579 8.6896 1.80311C8.86989 1.73099 9.08623 1.83916 9.15834 2.01945L9.6992 3.71414C9.77131 3.93048 9.62709 4.14682 9.41074 4.18288ZM17.8123 2.05517L16.8027 5.15608C16.7666 5.30031 16.8027 5.4806 16.9469 5.55271C17.5599 5.91329 18.1728 6.34597 18.7137 6.85077C18.8579 6.995 19.1103 6.95894 19.2546 6.81472L21.3098 3.9662C21.418 3.82197 21.3819 3.56957 21.2377 3.4614C20.3363 2.77631 19.3267 2.23545 18.281 1.80277C18.1007 1.73065 17.8844 1.83882 17.8123 2.05517ZM20.6968 9.12267C20.3362 8.54576 19.9036 8.04096 19.4348 7.53616C19.2906 7.42799 19.2906 7.21164 19.3988 7.06741L21.4901 4.18284C21.6343 4.00255 21.8867 3.9665 22.0309 4.11072C22.8603 4.83187 23.6175 5.66118 24.2665 6.56261C24.3747 6.7429 24.3386 6.95924 24.1944 7.06741L21.2016 9.23084C21.0213 9.33902 20.805 9.30296 20.6968 9.12267ZM3.74984 7.35531C4.39887 6.63416 5.15607 6.02119 5.98538 5.51639C6.16567 5.40822 6.20172 5.15582 6.09355 5.01159L5.44452 4.14622C5.33635 3.96593 5.08395 3.92987 4.90367 4.0741C4.07435 4.79525 3.31715 5.62456 2.66812 6.52599C2.55995 6.67022 2.59601 6.92262 2.74023 7.03079L3.24504 7.39136C3.42532 7.53559 3.64166 7.49954 3.74984 7.35531ZM1.15371 10.8529L0.97342 10.7808C0.793134 10.7087 0.684963 10.5284 0.72102 10.3481C1.04553 9.30246 1.51428 8.29286 2.09119 7.39143C2.19936 7.21114 2.41571 7.17509 2.59599 7.28326L3.02868 7.57172C3.20897 7.67989 3.24502 7.93229 3.10079 8.07652C2.48782 8.83372 1.98302 9.69909 1.58639 10.6366C1.51428 10.8169 1.33399 10.925 1.15371 10.8529ZM22.2833 12.62C22.4275 13.233 22.5357 13.882 22.6078 14.531C22.6078 14.7113 22.7881 14.8555 22.9684 14.8555H26.6462C26.8625 14.8555 27.0068 14.6753 27.0068 14.495C26.9707 13.3772 26.8265 12.3315 26.538 11.2859C26.502 11.0695 26.2856 10.9614 26.0693 11.0335L22.5357 12.1873C22.3193 12.2594 22.2472 12.4397 22.2833 12.62ZM1.262 11.5383C0.90143 12.5839 0.685086 13.7017 0.649029 14.8555H0C0 13.6296 0.180286 12.4397 0.468743 11.2859C0.540858 11.0695 0.757201 10.9614 0.937487 11.0335L1.04566 11.0695C1.22594 11.1417 1.33412 11.358 1.262 11.5383Z" fill="#D70404"/>
</svg>
