<svg width="25" height="25" viewBox="0 0 25 25" fill="none" xmlns="http://www.w3.org/2000/svg">
<path fill-rule="evenodd" clip-rule="evenodd" d="M17.6098 3.00269C18.9508 3.00269 20.2408 3.53269 21.1898 4.48369C22.1398 5.43269 22.6708 6.71269 22.6708 8.05269V15.9527C22.6708 18.7427 20.4008 21.0027 17.6098 21.0027H7.73078C4.93978 21.0027 2.67078 18.7427 2.67078 15.9527V8.05269C2.67078 5.26269 4.92978 3.00269 7.73078 3.00269H17.6098ZM19.2008 9.54269L19.2808 9.46269C19.5198 9.17269 19.5198 8.75269 19.2698 8.46269C19.1308 8.31369 18.9398 8.22269 18.7408 8.20269C18.5308 8.19169 18.3308 8.26269 18.1798 8.40269L13.6708 12.0027C13.0908 12.4837 12.2598 12.4837 11.6708 12.0027L7.17078 8.40269C6.85978 8.17269 6.42978 8.20269 6.17078 8.47269C5.90078 8.74269 5.87078 9.17269 6.09978 9.47269L6.23078 9.60269L10.7808 13.1527C11.3408 13.5927 12.0198 13.8327 12.7308 13.8327C13.4398 13.8327 14.1308 13.5927 14.6898 13.1527L19.2008 9.54269Z" fill="#61C7CF"/>
</svg>
