<svg width="55" height="55" viewBox="0 0 55 55" fill="none" xmlns="http://www.w3.org/2000/svg">
<path d="M5.67594 27.1971C5.75924 27.061 5.84271 26.9248 5.92618 26.7888L9.46905 22.9694C9.96821 22.4439 10.798 22.4204 11.3261 22.9167C11.8554 23.4121 11.8848 24.2422 11.3919 24.7738L8.67882 27.6976L11.3919 30.6215C11.923 31.1185 11.9507 31.9519 11.4537 32.483C10.9567 33.0141 10.1233 33.0417 9.59219 32.5447C9.54823 32.5035 9.50708 32.4594 9.46905 32.4125L5.92618 28.593C5.84271 28.4569 5.75941 28.3207 5.67594 28.1848C5.57485 27.8634 5.57485 27.5187 5.67594 27.1971Z" fill="white"/>
<path d="M46.3207 27.7107L43.6075 24.7869C43.109 24.2571 43.1346 23.4236 43.6643 22.9252C43.6673 22.9224 43.6704 22.9196 43.6734 22.9167C44.205 22.4238 45.0351 22.4532 45.5304 22.9825L49.0733 26.802C49.1568 26.9379 49.2402 27.0741 49.3235 27.2102C49.4246 27.5318 49.4246 27.8765 49.3235 28.198C49.2401 28.3342 49.1568 28.4702 49.0733 28.6063L45.5304 32.4258C44.9993 32.9228 44.1658 32.8951 43.669 32.364C43.2195 31.8838 43.1933 31.1454 43.6075 30.6346L46.3207 27.7107Z" fill="white"/>
<path d="M22.7853 9.45639L26.6048 5.91353C26.7411 5.83055 26.8772 5.74709 27.013 5.66329C27.0919 5.65621 27.1712 5.65621 27.2501 5.66329C27.4128 5.61094 27.5879 5.61094 27.7506 5.66329C27.8294 5.65621 27.9088 5.65621 27.9877 5.66329C28.1235 5.74709 28.2596 5.83055 28.3959 5.91353L32.2154 9.45639C32.718 9.98223 32.6991 10.8159 32.1732 11.3185C31.9423 11.5393 31.639 11.6685 31.3198 11.6822C30.9871 11.6811 30.667 11.554 30.4242 11.3266L27.5003 8.66616L24.5765 11.3793C24.0115 11.8375 23.1821 11.7509 22.7239 11.1858C22.3097 10.675 22.3359 9.93662 22.7853 9.45639Z" fill="white"/>
<path d="M22.8337 43.6557C23.3139 43.2062 24.0521 43.1801 24.5631 43.5944H24.5763L27.5002 46.3075L30.424 43.5944C30.989 43.1363 31.8184 43.2229 32.2766 43.7879C32.6908 44.2987 32.6646 45.0371 32.2154 45.5173L28.3958 49.0602C28.3144 49.1229 28.226 49.1759 28.1323 49.2182L27.9875 49.3104C27.6707 49.4385 27.3164 49.4385 26.9997 49.3104L26.8548 49.2182C26.7611 49.1761 26.6727 49.1229 26.5914 49.0602L22.772 45.5173C22.2749 44.9862 22.3026 44.1527 22.8337 43.6557Z" fill="white"/>
<path d="M27.5005 20.625C31.2901 20.625 34.3623 23.6972 34.3623 27.4868C34.3623 31.2765 31.2901 34.3487 27.5005 34.3487C23.7108 34.3487 20.6387 31.2765 20.6387 27.4868C20.6387 23.6972 23.7108 20.625 27.5005 20.625ZM27.5005 31.7146C29.8354 31.7146 31.7282 29.8218 31.7282 27.4868C31.7282 25.1519 29.8354 23.2591 27.5005 23.2591C25.1655 23.2591 23.2728 25.1519 23.2728 27.4868C23.2728 29.8218 25.1655 31.7146 27.5005 31.7146Z" fill="white"/>
</svg>
