<svg width="18" height="18" viewBox="0 0 18 18" fill="none" xmlns="http://www.w3.org/2000/svg">
<path d="M0 7.20003C0 5.88003 0.2664 4.63143 0.7992 3.45423C1.3314 2.27643 2.0925 1.26003 3.0825 0.405029L4.365 1.66503C3.555 2.37003 2.925 3.19863 2.475 4.15083C2.025 5.10363 1.8 6.12003 1.8 7.20003H0ZM16.2 7.20003C16.2 6.12003 15.975 5.10363 15.525 4.15083C15.075 3.19863 14.445 2.37003 13.635 1.66503L14.9175 0.405029C15.9075 1.26003 16.6689 2.27643 17.2017 3.45423C17.7339 4.63143 18 5.88003 18 7.20003H16.2Z" fill="black"/>
<path d="M1.79883 15.3V13.5H3.59883V7.2C3.59883 5.955 3.97383 4.8486 4.72383 3.8808C5.47383 2.9136 6.44883 2.28 7.64883 1.98V1.35C7.64883 0.974999 7.78023 0.6564 8.04303 0.3942C8.30523 0.1314 8.62383 0 8.99883 0C9.37383 0 9.69243 0.1314 9.95463 0.3942C10.2174 0.6564 10.3488 0.974999 10.3488 1.35V1.98C11.5488 2.28 12.5238 2.9136 13.2738 3.8808C14.0238 4.8486 14.3988 5.955 14.3988 7.2V13.5H16.1988V15.3H1.79883Z" fill="black"/>
<path d="M9.00039 18.0001C8.50539 18.0001 8.08179 17.824 7.72959 17.4718C7.37679 17.119 7.20039 16.6951 7.20039 16.2001H10.8004C10.8004 16.6951 10.6243 17.119 10.2721 17.4718C9.91929 17.824 9.49539 18.0001 9.00039 18.0001ZM5.40039 13.5001H12.6004V7.2001C12.6004 6.2101 12.2479 5.3626 11.5429 4.6576C10.8379 3.9526 9.99039 3.6001 9.00039 3.6001C8.01039 3.6001 7.16289 3.9526 6.45789 4.6576C5.75289 5.3626 5.40039 6.2101 5.40039 7.2001V13.5001Z" fill="black"/>
</svg>
