<svg width="375" height="333" viewBox="0 0 375 333" fill="none" xmlns="http://www.w3.org/2000/svg">
<g clip-path="url(#clip0_617_2325)">
<path d="M351.801 176.351C299.482 151.038 361.071 94.3611 341.195 62.1075C330.503 44.7528 292.976 45.0523 270.78 35.9042C229.298 18.8062 196.325 -20.1822 142.868 15.1606C73.3438 61.1234 51.0194 26.2769 32.8978 59.7713C8.40768 105.032 56.3094 126.948 38.4105 165.911C20.5115 204.874 -11.4258 232.344 40.2509 277.613H363.006C363.006 277.613 404.119 201.665 351.801 176.351Z" fill="#F6FBFA"/>
<path d="M188.554 292.739C289.984 292.739 372.209 282.472 372.209 269.807C372.209 257.141 289.984 246.874 188.554 246.874C87.1247 246.874 4.89969 257.141 4.89969 269.807C4.89969 282.472 87.1247 292.739 188.554 292.739Z" fill="#F1F2F7"/>
<path opacity="0.35" d="M64.955 269.372C64.955 271.888 48.6226 273.925 28.4809 273.925C8.33921 273.925 -7.99327 271.888 -7.99327 269.372C-7.99327 266.856 8.33921 264.82 28.4809 264.82C48.6226 264.82 64.955 266.856 64.955 269.372Z" fill="#A8B2C9"/>
<path opacity="0.35" d="M365.36 269.372C365.36 271.888 356.363 273.925 345.269 273.925C334.176 273.925 325.179 271.888 325.179 269.372C325.179 266.856 334.176 264.82 345.269 264.82C356.363 264.82 365.36 266.856 365.36 269.372Z" fill="#A8B2C9"/>
<path d="M214.113 133.871L214.55 141.522C214.55 141.522 217.349 141.291 217.683 142.592L210.424 142.985C210.424 142.985 210.424 142.181 211.031 142.018C211.639 141.856 213.617 141.796 213.617 141.796V134.094L214.113 133.871Z" fill="white"/>
<path d="M163.455 100.523C163.455 100.523 164.183 107.6 165.929 109.2C167.675 110.8 167.196 111.382 167.495 112.845C167.786 114.309 166.468 116.055 166.468 116.055C166.468 116.055 171.827 123.893 173.95 124.313C176.081 124.732 175.987 124.766 177.031 121.651C178.075 118.536 181.731 112.486 182.903 110.355C184.076 108.224 184.958 104.853 184.778 102.799C184.598 100.745 182.758 90.3304 175.79 91.2119C168.822 92.0933 163.755 100.163 163.755 100.163" fill="#FFBF9F"/>
<path d="M172.828 265.179C172.392 267.378 161.829 266.197 159.047 265.769C156.384 265.35 157.377 261.85 157.805 259.231C157.831 259.112 157.848 258.975 157.865 258.855C158.259 256.202 158.593 251.136 158.456 243.93C158.387 240.584 158.25 235.168 158.131 230.315C158.122 229.785 158.096 229.152 158.079 228.441C158.071 228.202 158.062 227.953 158.054 227.705C158.045 227.474 158.036 227.235 158.028 227.004C157.994 225.891 157.959 224.65 157.908 223.35C157.908 223.187 157.9 223.033 157.891 222.862C157.874 222.383 157.857 221.895 157.84 221.398C157.831 221.073 157.822 220.748 157.805 220.414C157.805 220.312 157.797 220.2 157.797 220.089C157.788 219.867 157.78 219.653 157.771 219.422C157.745 218.805 157.728 218.189 157.703 217.573C157.677 216.88 157.651 216.17 157.626 215.494C157.617 215.331 157.617 215.177 157.608 215.014C157.6 214.766 157.591 214.518 157.583 214.287C157.574 214.065 157.566 213.851 157.557 213.637C157.557 213.491 157.549 213.337 157.54 213.192C157.523 212.755 157.506 212.319 157.489 211.917C157.489 211.72 157.48 211.531 157.472 211.343C157.412 209.88 157.369 208.665 157.335 207.86C157.326 207.681 157.317 207.527 157.317 207.398C157.309 207.287 157.309 207.184 157.3 207.107C157.292 206.893 157.292 206.791 157.292 206.791H167.778C167.778 206.791 167.778 206.808 167.769 206.842C167.761 206.919 167.726 207.09 167.684 207.338C167.675 207.432 167.649 207.552 167.632 207.672C167.607 207.8 167.589 207.954 167.555 208.108C167.538 208.22 167.521 208.348 167.495 208.476C167.461 208.682 167.427 208.887 167.393 209.118C167.367 209.238 167.35 209.375 167.333 209.503C167.298 209.7 167.264 209.888 167.23 210.102C167.204 210.274 167.17 210.436 167.144 210.616C167.093 210.95 167.033 211.3 166.965 211.66C166.922 211.899 166.888 212.148 166.845 212.396C166.836 212.456 166.819 212.524 166.81 212.593C166.674 213.414 166.528 214.27 166.382 215.151C166.297 215.69 166.203 216.238 166.117 216.777C166.083 216.983 166.049 217.179 166.014 217.393C165.946 217.864 165.869 218.318 165.792 218.771C165.749 219.036 165.706 219.293 165.672 219.55C165.629 219.798 165.595 220.055 165.552 220.286C165.518 220.534 165.484 220.774 165.441 221.005C165.312 221.869 165.184 222.639 165.09 223.298C165.047 223.615 165.004 223.906 164.97 224.162C164.944 224.419 164.919 224.642 164.893 224.813C164.884 224.873 164.884 224.924 164.876 224.984C164.876 225.027 164.867 225.07 164.867 225.112C164.302 232.694 163.061 250.203 163.404 252.668C163.746 255.124 166.228 258.316 167.898 260.113C168.394 260.643 168.805 261.046 169.087 261.277C170.234 262.304 173.265 262.971 172.828 265.179Z" fill="#FFBF9F"/>
<path d="M193.415 263.776C193.86 266.06 179.231 265.025 177.819 264.366C176.774 263.887 176.894 261.765 177.185 258.581C177.288 257.426 177.416 256.142 177.519 254.73C177.75 251.555 176.338 240.285 175.165 231.77C174.386 226.097 171.63 207.176 171.63 207.176H180.909C180.909 207.176 180.72 221.886 180.909 224.907C181.457 233.807 182.544 251.504 182.655 252.385C182.783 253.412 184.033 255.569 185.326 257.426C185.514 257.691 185.694 257.948 185.882 258.196C187.354 260.181 192.97 261.499 193.415 263.776Z" fill="#FFBF9F"/>
<path opacity="0.52" d="M172.828 265.179C172.392 267.378 161.829 266.197 159.047 265.769C156.384 265.35 157.377 261.85 157.805 259.231C157.831 259.112 157.848 258.975 157.865 258.855C158.259 256.202 158.593 251.136 158.456 243.93C158.387 240.584 158.25 235.168 158.131 230.315C158.122 229.785 158.096 229.152 158.079 228.441C158.071 228.202 158.062 227.953 158.054 227.705C158.045 227.474 158.036 227.235 158.028 227.004C157.994 225.891 157.959 224.65 157.908 223.35C157.908 223.187 157.9 223.033 157.891 222.862C157.874 222.383 157.857 221.895 157.84 221.398C157.831 221.073 157.822 220.748 157.805 220.414C157.805 220.312 157.797 220.2 157.797 220.089C157.788 219.867 157.78 219.653 157.771 219.422C157.745 218.805 157.728 218.189 157.703 217.573C157.677 216.88 157.651 216.17 157.626 215.494C157.617 215.331 157.617 215.177 157.608 215.014C157.6 214.766 157.591 214.518 157.583 214.287C157.574 214.065 157.566 213.851 157.557 213.637C157.557 213.491 157.549 213.337 157.54 213.192C157.523 212.755 157.506 212.319 157.489 211.917C157.489 211.72 157.48 211.531 157.472 211.343C157.412 209.88 157.369 208.665 157.335 207.86C157.326 207.681 157.317 207.527 157.317 207.398C157.309 207.287 157.309 207.184 157.3 207.107C157.292 206.893 157.292 206.791 157.292 206.791H167.778C167.778 206.791 167.778 206.808 167.769 206.842C167.761 206.919 167.726 207.09 167.684 207.338C167.675 207.432 167.658 207.552 167.632 207.672C167.607 207.8 167.589 207.954 167.555 208.108C167.538 208.22 167.521 208.348 167.495 208.476C167.461 208.682 167.427 208.887 167.393 209.118C167.367 209.238 167.35 209.375 167.333 209.503C167.298 209.7 167.264 209.888 167.23 210.102C167.204 210.274 167.17 210.436 167.144 210.616C167.093 210.95 167.033 211.3 166.965 211.66C166.922 211.899 166.888 212.148 166.845 212.396C166.836 212.456 166.819 212.524 166.81 212.593C166.674 213.414 166.528 214.27 166.382 215.151C166.297 215.69 166.203 216.238 166.117 216.777C166.083 216.983 166.049 217.179 166.014 217.393C165.946 217.864 165.869 218.318 165.792 218.771C165.749 219.036 165.706 219.293 165.672 219.55C165.629 219.798 165.595 220.055 165.552 220.286C165.518 220.534 165.484 220.774 165.441 221.005C165.312 221.869 165.184 222.639 165.09 223.298C165.047 223.615 165.004 223.906 164.97 224.162C164.944 224.419 164.919 224.642 164.893 224.813C164.884 224.873 164.884 224.924 164.876 224.984C164.876 225.027 164.867 225.07 164.867 225.112C164.302 232.694 163.061 250.203 163.404 252.668C163.746 255.124 166.228 258.316 167.898 260.113C168.394 260.643 168.805 261.046 169.087 261.277C170.234 262.304 173.265 262.971 172.828 265.179Z" fill="#ED8772"/>
<path opacity="0.52" d="M193.415 263.776C193.86 266.06 179.231 265.025 177.819 264.366C176.774 263.887 176.894 261.765 177.185 258.581C177.288 257.426 177.416 256.142 177.519 254.73C177.75 251.555 176.338 240.285 175.165 231.77C174.386 226.097 171.63 207.176 171.63 207.176H180.909C180.909 207.176 180.72 221.886 180.909 224.907C181.457 233.807 182.544 251.504 182.655 252.385C182.783 253.412 184.033 255.569 185.326 257.426C185.514 257.691 185.694 257.948 185.882 258.196C187.354 260.181 192.97 261.499 193.415 263.776Z" fill="#ED8772"/>
<path d="M172.828 265.179C172.392 267.378 161.829 266.206 159.047 265.769C156.393 265.35 157.377 261.85 157.814 259.231C158.738 260.275 160.288 261.576 162.667 261.79C166.682 262.158 165.749 262.158 165.989 260.84C166.109 260.198 166.982 260.079 167.846 260.121C168.334 260.643 168.754 261.054 169.028 261.277C170.243 262.304 173.273 262.963 172.828 265.179Z" fill="#1C2B49"/>
<path d="M193.415 263.776C193.86 266.06 179.231 265.025 177.819 264.366C176.774 263.887 176.894 261.765 177.185 258.581C177.331 258.615 177.476 258.667 177.622 258.709C181.534 260.027 182.655 261.559 183.34 259.95C183.751 259 184.504 258.016 185.326 257.417C185.514 257.683 185.694 257.939 185.882 258.187C187.354 260.181 192.97 261.499 193.415 263.776Z" fill="#1C2B49"/>
<path d="M180.917 216.041L173.256 218.455C172.477 212.781 171.638 207.176 171.638 207.176H180.917C180.917 207.176 180.729 213.021 180.917 216.041Z" fill="#ED8772"/>
<path d="M167.752 206.765C167.752 206.765 167.752 206.782 167.744 206.816C167.735 206.893 167.701 207.064 167.658 207.313C167.649 207.407 167.632 207.527 167.607 207.646C167.581 207.775 167.564 207.929 167.53 208.083C167.512 208.194 167.495 208.322 167.47 208.451C167.435 208.656 167.401 208.862 167.367 209.093C167.341 209.212 167.324 209.349 167.307 209.478C167.273 209.675 167.238 209.863 167.204 210.077C167.179 210.248 167.144 210.41 167.119 210.59C167.067 210.924 167.007 211.275 166.939 211.634C166.896 211.874 166.862 212.122 166.819 212.37C166.81 212.43 166.793 212.499 166.785 212.567C166.648 213.389 166.502 214.244 166.357 215.126C166.271 215.665 166.177 216.213 166.091 216.752C166.057 216.957 166.023 217.154 165.989 217.368L157.805 220.063C157.797 219.841 157.788 219.627 157.78 219.396C157.754 218.78 157.737 218.164 157.711 217.547C157.686 216.854 157.66 216.144 157.634 215.468C157.626 215.305 157.626 215.151 157.617 214.989C157.608 214.741 157.6 214.492 157.591 214.261C157.583 214.039 157.574 213.825 157.566 213.611C157.566 213.466 157.557 213.311 157.549 213.166C157.531 212.73 157.514 212.293 157.497 211.891C157.497 211.694 157.489 211.506 157.48 211.318C157.42 209.854 157.377 208.639 157.343 207.835C157.335 207.655 157.326 207.501 157.326 207.373C157.317 207.261 157.317 207.159 157.309 207.082C157.3 206.868 157.3 206.765 157.3 206.765H167.752Z" fill="#ED8772"/>
<path d="M157.763 158.286C157.763 158.286 155.674 165.141 154.065 175.41C152.447 185.679 153.346 212.815 153.346 212.815L187.081 210.53C187.081 210.53 182.458 181.229 180.292 172.047C178.127 162.873 178.024 159.852 178.024 159.852L157.763 158.286Z" fill="#1C2B49"/>
<path d="M185.831 131.398C185.831 131.398 183.571 145.373 184.624 146.254C185.668 147.136 202.84 146.802 204.766 146.254C206.692 145.707 207.351 144.44 208.78 144.44C210.21 144.44 212.966 145.484 215.551 145.048C218.136 144.611 219.181 143.781 219.069 144.611C218.958 145.433 215.551 148.685 212.247 148.513C208.943 148.351 207.291 149.172 206.084 149.831C204.877 150.49 184.05 153.682 182.159 153.571C180.275 153.46 179.197 151.731 179.197 151.731L182.963 131.407H185.831V131.398Z" fill="#FFBF9F"/>
<path d="M171.013 89.3378C171.013 89.3378 171.013 84.2802 165.989 85.8891C160.964 87.5065 163.969 93.0004 163.969 93.0004C163.969 93.0004 161.401 97.8012 161.366 101.986C161.332 106.171 166.391 109.867 166.391 109.867C166.391 109.867 164.26 107.12 164.593 104.767C164.927 102.422 166.614 102.936 167.341 103.963C168.077 104.99 168.771 105.469 168.882 104.913C168.993 104.365 170.791 94.866 174.865 93.9503C178.94 93.0347 181.945 96.1496 183.049 98.3147C184.153 100.48 184.555 105.469 184.555 105.469C184.555 105.469 186.13 99.1961 184.555 94.9772C182.98 90.7583 179.197 89.5089 176.226 89.1067C173.256 88.7045 171.013 89.3378 171.013 89.3378Z" fill="#1C2B49"/>
<path d="M169.027 105.614C169.027 105.614 171.116 105.871 173.907 105.435C176.697 104.998 176.809 103.715 179.736 104.373C182.672 105.032 184.324 105.691 184.581 106.248C184.838 106.795 185.497 114.061 180.763 115.601C176.03 117.141 171.775 114.429 170.414 113.034C169.053 111.639 168.471 111.348 167.666 110.8C166.862 110.253 166.382 109.885 166.382 109.885L165.92 109.208C165.92 109.208 167.521 110.697 168.95 108.789C170.38 106.881 167.076 104.793 167.333 103.988C167.589 103.184 168.146 105.246 169.027 105.614Z" fill="#E8FBFC"/>
<path d="M185.831 131.398H182.972C182.972 131.398 183.853 133.598 183.853 136.019C183.853 138.441 181.654 141.625 180.224 147.238C178.786 152.852 178.024 158.346 178.024 159.844C178.024 160.032 177.998 160.177 177.947 160.297V160.306C177.579 161.179 175.884 160.64 172.511 160.545C168.668 160.443 166.134 160.879 163.703 158.783C161.289 156.695 163.6 136.67 163.6 136.67C163.6 136.67 153.765 136.738 153.106 136.67C152.447 136.601 151.865 131.022 154.21 125.228C156.564 119.435 165.929 116.037 165.929 116.037C165.929 116.037 171.142 124.013 174.061 123.328C176.971 122.635 176.569 115.952 176.569 115.952L180.772 115.584C180.772 115.584 182.261 115.823 184.239 118.185C186.216 120.564 185.831 131.398 185.831 131.398Z" fill="#994A3F"/>
<path d="M166.751 115.233C166.751 115.233 173.778 121.001 173.616 121.608C173.453 122.216 170.389 125.023 170.183 124.141C169.986 123.26 165.621 116.174 165.621 116.174L166.751 115.233Z" fill="#D37946"/>
<path d="M176.586 117.15C176.586 117.15 177.853 117.039 178.075 118.528C178.298 120.017 178.409 126.075 177.639 124.304C176.868 122.541 176.672 121.42 176.124 121.762C175.576 122.105 174.84 123.303 174.84 123.303L176.586 117.15Z" fill="#D37946"/>
<path d="M177.938 160.306V160.314C177.57 161.187 175.876 160.648 172.503 160.554C168.659 160.451 166.126 160.888 163.695 158.791C161.281 156.703 163.592 136.678 163.592 136.678C163.592 136.678 165.526 136.901 165.92 136.088C166.297 135.309 164.85 127.316 164.765 126.863C164.927 127.222 167.898 133.991 166.965 137.705C166.014 141.513 162.864 142.018 166.528 151.269C170.2 160.528 177.938 160.306 177.938 160.306Z" fill="#7C342C"/>
<path d="M185.831 131.398H182.972L182.159 126.846C182.159 126.846 183.477 130.448 185.831 131.398Z" fill="#7C342C"/>
<path d="M154.904 136.713C154.904 136.713 156.333 156.267 158.208 159.347C160.082 162.428 171.082 178.268 171.304 180.801C171.527 183.334 170.868 186.629 172.734 188.888C174.609 191.147 180.258 193.235 180.258 192.063C180.258 190.891 177.545 190.009 176.372 187.955C175.199 185.902 175.567 184.875 176.449 185.902C177.331 186.928 179.967 190.668 180.267 189.273C180.558 187.878 179.094 184.926 177.699 182.701C176.304 180.476 176.749 180.254 174.985 178.422C173.222 176.591 166.477 160.083 165.595 158.252C164.713 156.421 164.79 155.83 164.79 155.026C164.79 154.221 163.618 136.687 163.618 136.687L154.904 136.713Z" fill="#FFBF9F"/>
<path d="M198.046 185.867V188.135C198.046 189.111 197.258 189.898 196.283 189.898H183.853C182.886 189.898 182.09 189.111 182.09 188.135V185.867C182.09 184.892 182.886 184.104 183.853 184.104H196.283C197.258 184.104 198.046 184.883 198.046 185.867Z" fill="#F2B655"/>
<path opacity="0.46" d="M198.046 187.408V188.135C198.046 189.111 197.258 189.898 196.283 189.898H183.853C182.886 189.898 182.09 189.111 182.09 188.135V186.295C182.946 186.158 183.896 186.167 184.786 186.518C187.269 187.51 187.166 186.406 188.561 186.21C189.965 186.021 190.453 186.869 191.438 186.732C192.431 186.586 192.756 186.543 193.424 187.005C194.074 187.459 194.562 185.756 196.017 186.466C196.719 186.8 197.395 187.185 198.046 187.408Z" fill="#994A3F"/>
<path d="M193.792 184.104H185.899C185.103 184.104 184.453 183.454 184.453 182.658V182.573C184.453 181.777 185.103 181.126 185.899 181.126H193.792C194.588 181.126 195.238 181.777 195.238 182.573V182.658C195.238 183.454 194.596 184.104 193.792 184.104Z" fill="#994A3F"/>
<path d="M191.335 179.86C191.335 180.562 190.77 181.126 190.068 181.126C189.366 181.126 188.801 180.562 188.801 179.86C188.801 179.158 189.366 178.593 190.068 178.593C190.77 178.593 191.335 179.167 191.335 179.86Z" fill="#7C342C"/>
<path d="M177.819 189.282L199.304 189.966C199.587 189.975 199.664 190.36 199.407 190.471C197.909 191.139 195.101 192.328 193.244 192.765C190.599 193.381 183.28 192.79 181.508 191.986C180.318 191.447 178.64 190.394 177.665 189.77C177.442 189.624 177.553 189.273 177.819 189.282Z" fill="white"/>
<path d="M217.417 126.666L213.403 127.111L209.773 127.445C209.773 127.445 209.337 134.719 213.788 134.719C218.239 134.71 217.417 126.666 217.417 126.666Z" fill="white"/>
<path d="M223.906 133.871L224.342 141.522C224.342 141.522 227.141 141.291 227.475 142.592L220.216 142.985C220.216 142.985 220.216 142.181 220.824 142.018C221.432 141.856 223.409 141.796 223.409 141.796V134.094L223.906 133.871Z" fill="white"/>
<path d="M227.21 126.666L223.195 127.111L219.566 127.445C219.566 127.445 219.129 134.719 223.58 134.719C228.032 134.71 227.21 126.666 227.21 126.666Z" fill="white"/>
<path d="M195.786 138.193C195.786 138.193 195.247 143.464 201.513 143.464C207.779 143.464 208.549 140.743 208.549 137.611L195.786 138.193Z" fill="#A8B2C9"/>
<path d="M209.191 136.841C209.165 136.396 208.789 136.062 208.344 136.088L195.641 136.781C195.195 136.807 194.862 137.183 194.887 137.628V137.671C194.913 138.116 195.29 138.45 195.735 138.424L208.438 137.731C208.883 137.705 209.217 137.329 209.191 136.884V136.841Z" fill="white"/>
<path d="M231.396 142.72C231.37 142.232 230.951 141.864 230.471 141.89L192.456 143.969C191.968 143.995 191.6 144.414 191.626 144.894V144.945C191.652 145.433 192.071 145.801 192.55 145.775L230.565 143.696C231.053 143.67 231.421 143.251 231.396 142.771V142.72Z" fill="#4C4E61"/>
<path d="M183.331 257.597C181.782 257.922 168.36 256.604 166.81 254.405C165.338 252.291 165.064 251.701 165.047 250.597V250.451C165.047 249.245 162.402 243.528 160.981 241.868C159.552 240.216 154.304 233.627 152.139 229.442C149.973 225.249 150.307 222.725 150.307 222.725L158.559 218.455C158.559 218.455 168.026 243.408 170.774 246.489C173.256 249.27 175.567 251.598 178.743 253.31C179.086 253.506 179.436 253.678 179.805 253.857C183.545 255.612 184.872 257.263 183.331 257.597Z" fill="#FFBF9F"/>
<path d="M183.331 257.597C181.782 257.922 168.36 256.604 166.81 254.405C165.338 252.291 165.064 251.701 165.047 250.597C165.629 250.554 166.314 250.691 167.127 251.11C171.21 253.207 177.442 255.312 178.735 253.318C178.735 253.318 178.735 253.31 178.743 253.31C179.086 253.506 179.436 253.678 179.805 253.857C183.545 255.612 184.872 257.263 183.331 257.597Z" fill="#1E2F97"/>
<path d="M162.642 276.869C162.085 279.53 147.782 277.844 145.684 276.869C143.596 275.902 144.152 274.652 143.921 273.138C143.904 273.018 143.87 272.615 143.835 272.008C143.382 265.367 141.627 232.763 141.627 232.763L148.886 225.035L149.322 248.689C149.322 248.689 150.084 265.41 152.627 270.031C153.594 271.785 155.349 272.812 157.129 273.548C160.022 274.763 162.976 275.217 162.642 276.869Z" fill="#FFBF9F"/>
<path d="M162.642 276.869C162.085 279.53 147.782 277.844 145.684 276.869C143.596 275.902 144.152 274.652 143.921 273.138C143.904 273.018 143.87 272.616 143.835 272.008C147.174 273.557 152.695 275.833 154.929 275.089C156.128 274.695 156.778 274.122 157.121 273.548C160.022 274.763 162.976 275.217 162.642 276.869Z" fill="#1E2F97"/>
<path d="M162.094 219.31C161.538 220.406 153.731 221.835 151.308 226.353C149.699 229.348 147.944 229.725 146.275 230.153C145.428 230.367 144.606 230.598 143.827 231.188C141.524 232.951 138.511 235.15 137.818 232.617C137.33 230.837 137.236 230.521 136.987 229.434C136.893 228.963 136.756 228.373 136.568 227.449C136.089 225.232 136.919 224.496 136.739 223.735C136.671 223.435 136.44 223.127 135.909 222.725C134.051 221.296 127.297 219.884 122.684 221.159C122.632 221.176 122.598 221.184 122.598 221.184C121.083 221.612 119.123 221.903 117.034 221.98C112.737 222.117 107.943 221.321 105.641 218.882C102.234 215.245 100.47 208.528 99.2635 200.064C98.048 191.601 94.0847 183.779 92.4326 180.596C90.7891 177.404 89.779 174.092 89.1285 171.448C88.4693 168.812 90.1214 163.532 91.8848 161.23C93.6481 158.911 97.9453 160.237 97.9453 160.237C97.9453 160.237 102.345 158.8 105.752 162.659C109.159 166.519 117.085 174.546 117.419 176.411C117.753 178.285 117.967 183.454 117.967 183.454C117.967 183.454 118.01 193.321 126.227 194.134C134.445 194.947 145.933 194.134 151.865 200.954C157.805 207.758 162.642 218.198 162.094 219.31Z" fill="#ED56A8"/>
<path d="M109.15 166.493C109.15 166.493 111.239 162.976 110.143 158.791C109.039 154.606 111.247 151.902 112.343 148.744C113.447 145.587 115.425 140.084 113.002 133.923C110.58 127.761 105.632 128.643 105.632 128.643C105.632 128.643 98.6729 125.699 93.2972 128.6C87.9215 131.501 85.6103 139.862 86.2694 144.817C86.9285 149.771 87.5876 157.576 84.506 163.626C81.4244 169.676 83.9582 172.432 86.8173 171.987C89.6763 171.55 88.9059 172.646 90.0101 167.477C91.1144 162.308 93.0917 164.508 95.1804 164.944C97.269 165.38 98.4845 165.714 100.351 166.921C102.225 168.127 105.632 171.542 104.973 170.002C104.314 168.461 102.996 166.484 101.01 164.61C99.0324 162.736 97.9367 160.212 97.9367 160.212C97.9367 160.212 99.9141 159.33 103.655 161.975C107.395 164.627 109.15 166.493 109.15 166.493Z" fill="#1C2B49"/>
<path d="M110.588 146.605C111.025 149.164 108.825 153.836 107.182 154.94C105.898 155.796 101.078 153.725 98.9982 152.758C98.4075 152.484 98.0394 152.304 98.0394 152.304C98.0394 152.304 97.8169 152.963 97.7056 154.624C97.6628 155.283 97.6885 156.327 97.7398 157.328C97.8169 158.817 97.9367 160.229 97.9367 160.229C97.9367 160.229 93.5198 155.873 93.3058 149.207V149.112C93.2886 148.488 93.3058 147.889 93.3486 147.324C93.477 145.612 93.8622 144.183 94.333 143.011C94.4186 142.78 94.5213 142.566 94.6154 142.352C95.6426 140.178 96.978 139.1 97.3803 139.1C98.0908 139.1 100.291 138.27 101.78 136.456C103.27 134.642 107.173 132.99 107.173 132.99C107.173 132.99 108.491 132.716 109.921 135.463C111.025 137.585 110.554 141.539 110.486 144.414C110.469 145.262 110.486 146.023 110.588 146.605Z" fill="#FFBF9F"/>
<path d="M107.182 154.94C105.898 155.796 101.078 153.725 98.9981 152.758C98.4075 152.484 98.0394 152.304 98.0394 152.304C98.0394 152.304 96.7725 152.133 94.7866 150.379C94.4699 150.097 94.059 149.78 93.6053 149.438C93.5112 149.361 93.3999 149.292 93.2972 149.207V149.112C93.2886 149.027 93.2886 148.933 93.2886 148.847C93.2886 148.565 93.2886 148.291 93.2972 148.026C93.3057 147.778 93.3229 147.546 93.34 147.324C95.7368 147.957 96.5072 147.606 96.764 146.032C96.9609 144.868 95.5313 143.747 94.3244 143.011C94.41 142.78 94.5127 142.566 94.6069 142.352C95.1889 142.609 95.9422 142.951 96.9352 143.387C101.121 145.262 102.105 145.818 104.091 145.373C106.06 144.936 106.617 143.824 108.491 144.594C109.313 144.936 109.989 144.74 110.477 144.406C110.46 145.253 110.477 146.015 110.571 146.597C111.025 149.172 108.825 153.845 107.182 154.94Z" fill="#E8FBFC"/>
<path d="M97.7398 157.319C96.7126 155.342 94.8209 151.723 93.6139 149.429C94.059 149.771 94.4785 150.088 94.7952 150.37C96.7725 152.133 98.048 152.296 98.048 152.296C98.048 152.296 97.8254 152.955 97.7141 154.615C97.6628 155.274 97.6885 156.318 97.7398 157.319Z" fill="#ED8772"/>
<path opacity="0.66" d="M146.266 230.153C145.419 230.367 144.597 230.598 143.818 231.188C141.516 232.951 138.503 235.15 137.809 232.617C137.321 230.837 137.227 230.521 136.979 229.434C137.809 229.905 139.127 229.956 140.959 229.648C143.63 229.194 145.274 229.597 146.266 230.153Z" fill="#BF3C8A"/>
<path opacity="0.66" d="M137.809 221.176C137.381 222.109 137.013 222.956 136.722 223.726C136.654 223.427 136.422 223.118 135.892 222.716C134.034 221.287 127.28 219.875 122.667 221.15C123.574 220.859 131.004 218.42 136.987 215.117C143.373 211.6 151.514 213.91 151.514 213.91C151.514 213.91 141.036 214.244 137.809 221.176Z" fill="#BF3C8A"/>
<path opacity="0.66" d="M117.017 221.972C112.72 222.109 107.926 221.313 105.624 218.874C102.217 215.237 100.453 208.519 99.2464 200.056C98.0309 191.592 94.0676 183.771 92.4155 180.587C90.772 177.395 89.7619 174.083 89.1113 171.439C90.1813 164.405 89.8047 162.094 94.5812 164.781C99.3491 167.486 118.19 192.748 118.19 192.748C118.19 192.748 117.513 194.296 116.88 196.804C116.238 199.32 109.048 196.735 103.835 192.748C98.8184 188.905 106.899 216.529 117.017 221.972Z" fill="#BF3C8A"/>
<path d="M116.871 182.692L123.463 187.065C123.463 187.065 140.189 189.924 145.145 190.035C150.101 190.146 151.42 190.257 153.731 190.035C156.042 189.812 157.694 189.41 160.442 190.163C163.19 190.916 167.487 193.997 165.835 194.22C164.183 194.442 160.553 193.449 158.353 193.338C156.153 193.227 156.376 194.168 154.167 194.254C151.967 194.331 149.981 193.783 147.011 193.783C144.041 193.783 124.892 195.614 123.017 194.921C121.143 194.228 114.158 190.814 114.158 190.814C114.158 190.814 112.24 190.155 112.566 187.399C112.9 184.652 116.871 182.692 116.871 182.692Z" fill="#FFBF9F"/>
<path d="M92.7579 166.279C92.7579 166.279 87.9985 170.9 93.2972 176.839C98.5958 182.778 106.077 188.169 109.159 191.361C112.24 194.553 113.114 199.174 114.158 197.411C115.211 195.649 113.764 192.679 114.158 188.717C114.552 184.755 117.959 183.762 116.529 181.452C115.099 179.141 104.973 170.01 104.973 170.01C104.973 170.01 99.1608 165.937 96.7297 165.312C94.2987 164.687 92.7579 166.279 92.7579 166.279Z" fill="#FF6EC4"/>
<path d="M130.516 221.672L106.736 221.527C105.076 221.518 103.629 220.389 103.21 218.771L92.2358 175.949C91.1572 171.747 86.8087 169.274 82.6485 170.498C78.5911 171.687 76.2628 175.949 77.4526 180.005L91.0373 226.362C91.491 227.919 92.9291 228.989 94.5469 228.989H130.49C132.511 228.989 134.154 227.354 134.154 225.326C134.154 223.315 132.536 221.681 130.516 221.672Z" fill="#FFCF7D"/>
<path d="M86.8515 278.905L96.7383 238.565L99.0752 228.989H94.5469L92.1844 238.565L82.1949 278.905H86.8515Z" fill="#D16439"/>
<path d="M136.491 278.905H141.148L131.158 238.565L128.778 228.989H124.267L126.604 238.565L136.491 278.905Z" fill="#D16439"/>
<path opacity="0.5" d="M128.778 228.989H124.267L126.604 238.565H131.158L128.778 228.989Z" fill="#BC4D26"/>
<path opacity="0.5" d="M92.1844 238.565H96.7383L99.0752 228.989H94.547L92.1844 238.565Z" fill="#BC4D26"/>
<path d="M207.839 264.417C207.839 264.417 206.298 268.491 206.734 271.349C207.171 274.207 206.512 276.74 204.534 276.852C202.557 276.963 182.081 276.68 183.845 273.138C185.608 269.595 194.964 271.768 198.594 269.09C202.223 266.403 202.334 261.893 202.334 261.893L207.839 264.417Z" fill="#1C2B49"/>
<path d="M222.117 207.176C222.117 207.176 212.024 208.528 209.824 215.348C207.625 222.169 199.921 263.758 200.468 264.195C201.016 264.631 208.284 267.823 208.943 266.839C209.602 265.846 218.735 223.709 222.476 217.881C226.217 212.053 234.914 207.432 234.914 207.432L222.117 207.176Z" fill="#172233"/>
<path d="M251.349 147.238C251.349 147.238 247.531 153.836 244.895 165.132C242.25 176.428 239.185 187.947 239.185 187.947H247.352L251.349 147.238Z" fill="#162366"/>
<path d="M231.721 266.283C231.721 266.283 233.039 272.992 226.328 274.532C219.617 276.073 216.972 278.05 220.499 279.59C224.017 281.13 241.411 277.613 241.522 276.175C241.633 274.746 238.107 266.274 238.107 266.274H231.721V266.283Z" fill="#1C2B49"/>
<path d="M272.552 204.951C272.552 204.951 272.167 217.659 266.723 220.132C261.279 222.605 243.388 221.561 237.559 222.391C231.73 223.213 229.632 226.242 229.521 227.56C229.41 228.878 233.322 239.72 235.958 249.014C238.603 258.307 240.084 266.394 239.425 267.002C238.766 267.609 229.906 270.305 229.076 268.431C228.254 266.557 219.882 242.356 219.882 242.356C219.882 242.356 212.452 223.161 213 219.31C213.548 215.459 218.059 211.386 224.668 209.52C231.267 207.646 234.905 207.432 234.905 207.432H253.831V204.959H272.552V204.951Z" fill="#1C2B49"/>
<path d="M263.402 132.032C262.871 132.4 262.254 132.639 261.544 132.716C261.347 132.733 261.142 132.742 260.919 132.742C260.465 132.733 259.969 132.673 259.447 132.562C258.89 132.468 258.3 132.305 257.692 132.109C256.956 131.869 256.177 131.569 255.398 131.236C250.339 129.053 244.92 125.288 244.92 125.288C244.92 125.288 244.963 120.393 244.09 119.957C243.217 119.52 238.321 119.247 239.314 114.129C240.298 109.003 245.306 109.559 247.343 110.612C249.389 111.647 250.536 110.715 254.884 111.262C259.224 111.819 260.251 111.87 261.638 113.907C263.033 115.952 265.336 114.951 265.995 118.913C266.577 122.327 266.689 129.704 263.402 132.032Z" fill="#1C2B49"/>
<path d="M230.677 182.727C230.677 182.727 226.987 183.257 225.224 182.162C223.461 181.058 216.493 178.131 217.811 179.672C219.129 181.212 221.329 182.093 219.497 181.871C217.665 181.648 211.502 179.415 211.502 181.049C211.502 182.684 211.648 185.397 215.902 186.201C220.156 187.005 221.475 185.174 224.856 186.201C228.228 187.228 230.677 187.964 230.677 187.964V182.727Z" fill="#FFBF9F"/>
<path d="M262.357 141.522C262.357 141.522 269.257 147.974 270.429 158.098C271.602 168.222 274.538 203.427 273.22 205.19C271.902 206.953 258.548 207.244 252.967 206.072C247.394 204.899 246.068 206.072 245.922 203.427C245.776 200.783 246.804 184.378 247.54 170.138C248.276 155.899 251.358 147.247 251.358 147.247C251.358 147.247 252.239 150.328 256.93 147.247C261.621 144.158 262.357 141.522 262.357 141.522Z" fill="#1E2F97"/>
<path d="M261.082 135.446C261.03 136.131 261.03 136.909 261.107 137.722C261.381 140.469 262.357 141.513 262.357 141.513C262.357 141.513 261.433 146.357 257.589 148.608C253.746 150.858 251.828 150.927 251.358 147.238C251.358 147.238 251.375 146.023 252.582 144.26C252.779 143.969 252.924 143.644 253.035 143.285C253.506 141.804 253.309 139.922 253.224 139.271V139.263C253.207 139.126 253.189 139.04 253.189 139.04C253.189 139.04 247.934 139.417 245.905 136.336C243.885 133.255 244.433 126.94 245.263 123.688C246.093 120.436 246.196 120 246.196 120C246.196 120 248.071 118.459 249.5 119.726C250.938 120.992 254.559 120 255.389 121.651C256.22 123.294 256.434 128.968 258.42 128.36C260.397 127.761 262.16 124.347 263.538 125.391C264.908 126.435 264.472 128.574 263.538 130.337C262.605 132.1 261.561 132.708 261.561 132.708C261.561 132.708 261.561 132.708 261.553 132.725C261.493 132.887 261.184 133.948 261.082 135.446Z" fill="#FFBF9F"/>
<path d="M261.638 132.519C261.621 132.571 261.595 132.639 261.553 132.725C261.553 132.725 255.115 138.783 252.034 139.819C251.94 139.853 251.837 139.879 251.734 139.905C248.704 140.7 245.075 138.133 244.518 135.583C243.945 132.939 243.833 129.918 245.049 129.858C246.264 129.807 247.523 128.925 249.671 130.517C251.118 131.587 253.54 131.621 255.415 131.236C256.322 131.047 257.118 130.765 257.598 130.457C259.087 129.524 259.738 127.599 259.738 127.599L260.782 126.657C260.782 126.657 260.072 129.088 258.805 130.457C258.283 131.022 257.897 131.629 257.709 132.1C257.418 132.793 257.538 133.238 258.257 132.981C258.582 132.87 259.01 132.708 259.464 132.562C260.568 132.22 261.784 131.929 261.638 132.519Z" fill="#E8FBFC"/>
<path d="M263.453 148.633C263.453 148.633 259.858 146.211 256.922 152.963C253.986 159.715 252.89 174.383 252.154 177.977C251.418 181.571 251.204 182.744 249.808 182.821C248.413 182.898 231.978 181.058 231.028 182.085C230.077 183.112 229.709 189.128 230.368 189.496C231.028 189.864 247.095 192.14 252.231 192.063C257.367 191.986 257.221 192.208 258.317 190.3C259.421 188.392 264.848 169.326 265.875 162.651C266.903 155.967 267.194 150.473 263.453 148.633Z" fill="#2C42AF"/>
<path d="M261.535 132.733C261.493 132.879 261.184 133.948 261.082 135.446C258.497 137.799 255.484 140.786 253.035 143.285C253.506 141.804 253.309 139.922 253.224 139.271V139.263C256.451 137.491 261.373 132.887 261.535 132.733Z" fill="#ED8772"/>
<path d="M296.015 170.823C291.855 169.599 287.498 172.072 286.428 176.274L275.454 219.096C275.043 220.705 273.596 221.835 271.927 221.852L248.148 221.997C246.136 222.006 244.51 223.64 244.51 225.66C244.51 227.68 246.145 229.323 248.173 229.323H284.117C285.743 229.323 287.173 228.253 287.626 226.696L301.211 180.339C302.401 176.274 300.081 172.021 296.015 170.823Z" fill="#FFCF7D"/>
<path d="M291.744 278.905H296.4L286.488 238.899L284.125 229.314H279.597L281.934 238.899L291.744 278.905Z" fill="#D16439"/>
<path d="M242.258 278.905L252.068 238.899L254.405 229.314H249.894L247.514 238.899L237.602 278.905H242.258Z" fill="#D16439"/>
<path opacity="0.5" d="M249.894 229.314H254.405L252.068 238.899H247.514L249.894 229.314Z" fill="#BC4D26"/>
<path opacity="0.5" d="M286.488 238.899H281.934L279.597 229.314H284.125L286.488 238.899Z" fill="#BC4D26"/>
<path d="M146.455 278.905L158.464 207.176H149.733L140.497 278.905H146.455Z" fill="#65454B"/>
<path d="M250.33 278.905L241.103 207.176H232.372L244.373 278.905H250.33Z" fill="#65454B"/>
<path d="M262.468 194.921H128.582V201.964H262.468V194.921Z" fill="white"/>
<path d="M253.849 201.964H138.22V207.586H253.849V201.964Z" fill="#C6C6C6"/>
<path opacity="0.5" d="M253.849 201.964H138.22V204.566H253.849V201.964Z" fill="#C6C6C6"/>
<path d="M210.073 60.8324C208.951 59.7114 207.419 59.0268 205.716 59.0268H169.293C165.886 59.0268 163.13 61.7823 163.13 65.1883H211.879C211.879 63.4767 211.186 61.9449 210.073 60.8324Z" fill="#362D2C"/>
<path d="M197.447 55.6123H178.212C176.381 55.6123 174.9 57.0928 174.9 58.9241V59.0268H200.759V58.9241C200.759 57.1013 199.279 55.6123 197.447 55.6123Z" fill="#4C4E61"/>
<path d="M193.595 65.1882C192.927 67.1565 190.847 68.6027 188.382 68.6027C185.916 68.6027 183.828 67.1565 183.16 65.1882H193.595Z" fill="#FFC933"/>
<path d="M189.315 22.8881H187.5V55.6123H189.315V22.8881Z" fill="#362D2C"/>
<path d="M132.887 60.8324C131.766 59.7114 130.234 59.0268 128.53 59.0268H92.1074C88.7005 59.0268 85.9442 61.7823 85.9442 65.1883H134.693C134.693 63.4767 134.009 61.9449 132.887 60.8324Z" fill="#362D2C"/>
<path d="M120.27 55.6123H101.035C99.2036 55.6123 97.7227 57.0928 97.7227 58.9241V59.0268H123.582V58.9241C123.582 57.1013 122.102 55.6123 120.27 55.6123Z" fill="#4C4E61"/>
<path d="M116.418 65.1882C115.75 67.1565 113.67 68.6027 111.205 68.6027C108.739 68.6027 106.651 67.1565 105.983 65.1882H116.418Z" fill="#FFC933"/>
<path d="M112.138 22.8881H110.323V55.6123H112.138V22.8881Z" fill="#362D2C"/>
<path d="M287.25 60.8324C286.128 59.7114 284.596 59.0268 282.893 59.0268H246.47C243.063 59.0268 240.307 61.7823 240.307 65.1883H289.056C289.056 63.4767 288.371 61.9449 287.25 60.8324Z" fill="#362D2C"/>
<path d="M274.632 55.6123H255.398C253.566 55.6123 252.085 57.0928 252.085 58.9241V59.0268H277.945V58.9241C277.945 57.1013 276.464 55.6123 274.632 55.6123Z" fill="#4C4E61"/>
<path d="M270.78 65.1882C270.113 67.1565 268.032 68.6027 265.567 68.6027C263.102 68.6027 261.013 67.1565 260.346 65.1882H270.78Z" fill="#FFC933"/>
<path d="M266.492 22.8881H264.677V55.6123H266.492V22.8881Z" fill="#362D2C"/>
<path d="M286.924 22.8881H89.9417V25.5324H286.924V22.8881Z" fill="#362D2C"/>
<path d="M30.7835 238.06C36.2448 231.59 31.7593 228.082 34.0791 223.598C36.3989 219.114 32.0761 217.924 33.6426 212.798C35.209 207.663 29.4824 206.962 31.4854 199.619C33.4885 192.277 27.8646 194.006 28.1385 189.136C28.4124 184.276 23.439 184.438 21.2734 180.219C16.8992 186.646 18.5684 190.215 20.8967 193.723C23.2165 197.232 17.875 200.912 21.65 206.038C25.4335 211.172 17.6525 213.329 19.9722 220.081C22.292 226.832 14.7849 229.965 19.8609 236.451L30.7835 238.06Z" fill="#737F4F"/>
<path d="M22.8912 186.381C22.9426 188.477 23.7215 190.514 24.6203 192.397C25.5705 194.237 26.7689 196.154 26.7432 198.361C26.7603 199.44 26.5121 200.492 26.3494 201.528C26.1782 202.563 26.1526 203.616 26.3152 204.643C26.5634 206.739 27.6591 208.571 28.3953 210.59C29.0715 212.618 29.277 214.835 28.849 216.948C28.4466 219.071 27.5393 221.03 26.6833 222.956C25.8187 224.881 24.997 226.832 24.7145 228.886C24.4063 230.94 24.7145 233.028 25.4164 234.979V234.988C25.4763 235.15 25.3907 235.33 25.2281 235.39C25.0654 235.45 24.8857 235.364 24.8258 235.202C24.1153 233.165 23.8071 230.949 24.1581 228.809C24.4834 226.661 25.3479 224.676 26.2296 222.75C27.1113 220.825 28.0101 218.908 28.421 216.863C28.849 214.826 28.6778 212.695 28.0443 210.71C27.3681 208.759 26.2467 206.842 26.0156 204.685C25.853 203.624 25.8958 202.529 26.0841 201.476C26.2553 200.424 26.5121 199.397 26.5035 198.353C26.495 197.317 26.281 196.273 25.853 195.315C25.4592 194.348 24.9114 193.432 24.4577 192.474C23.5674 190.557 22.8056 188.52 22.7714 186.364C22.7714 186.329 22.797 186.295 22.8398 186.295C22.8741 186.295 22.9083 186.321 22.9083 186.364L22.8912 186.381Z" fill="#4F543C"/>
<path d="M22.4546 239.138C22.4546 239.138 28.0357 231.693 23.3449 226.379C18.6454 221.065 20.7769 212.909 16.3428 209.187C10.8045 204.54 12.4737 198.019 1.72231 196.513C-2.08689 208.827 5.18055 208.656 3.57983 213.876C1.98767 219.105 10.6675 221.227 9.52047 226.55C8.36487 231.864 10.4107 235.467 18.1147 240.807L22.4546 239.138Z" fill="#8C9B50"/>
<path d="M4.69262 201.031C5.89958 201.981 6.69567 203.316 7.42327 204.643C8.12519 205.986 8.69014 207.398 9.1695 208.836C10.0769 211.72 11.1041 214.552 12.5764 217.188C13.9888 219.841 15.8206 222.263 17.1474 225.018C18.4999 227.757 19.2104 230.786 19.5442 233.807C19.5613 233.978 19.4415 234.132 19.2617 234.158C19.082 234.183 18.9365 234.055 18.9108 233.875V233.867C18.6283 230.889 17.9863 227.928 16.6937 225.224C15.4354 222.511 13.6378 220.046 12.2511 217.342C10.813 214.664 9.82006 211.78 8.9555 208.887C8.50182 207.45 7.95399 206.046 7.28631 204.694C6.59295 203.376 5.81399 202.033 4.64983 201.083L4.64127 201.074C4.62415 201.057 4.62414 201.031 4.6327 201.014C4.64982 201.023 4.6755 201.023 4.69262 201.031Z" fill="#4F543C"/>
<path d="M32.778 236.22C27.9416 227.218 34.7126 225.343 33.7795 217.856C32.8465 210.368 41.8516 210.222 41.629 203.376C41.415 196.53 48.614 197.257 48.4 191.995C48.186 186.74 56.395 185.944 58.4152 181.409C62.738 188.109 60.5038 192.431 58.4152 195.529C56.3266 198.627 58.2012 206.833 53.7329 210.077C49.2646 213.32 52.1493 222.896 47.3214 226.353C42.4936 229.81 48.2545 232.831 42.7076 236.87L32.778 236.22Z" fill="#97A75E"/>
<path d="M55.7274 190.36C54.1609 191.721 53.1508 193.663 52.7228 195.683C52.5002 196.693 52.4917 197.745 52.2606 198.772C52.0551 199.808 51.61 200.783 51.045 201.665C49.898 203.453 48.0576 204.626 47.0561 206.431C46.5682 207.321 46.2258 208.305 46.1658 209.332C46.0717 209.837 46.1402 210.359 46.1145 210.873C46.0974 211.395 46.0802 211.934 46.0374 212.464C45.7036 214.595 44.471 216.418 43.2383 218.07C41.98 219.738 40.6703 221.347 39.6602 223.144C38.6416 224.933 37.9568 226.892 37.6658 228.912C37.3148 230.94 37.5716 233.011 37.837 235.039V235.065C37.8626 235.236 37.7342 235.399 37.563 235.416C37.3918 235.441 37.2292 235.313 37.2121 235.142C36.9638 233.054 36.7327 230.932 37.1094 228.826C37.4346 226.738 38.1708 224.71 39.2322 222.896C40.2851 221.065 41.6376 219.456 42.9045 217.813C44.1542 216.178 45.3526 214.433 45.695 212.404C45.7378 211.899 45.7635 211.395 45.7806 210.873C45.8063 210.342 45.755 209.82 45.8491 209.289C45.9262 208.237 46.2942 207.201 46.8078 206.286C47.8778 204.42 49.7354 203.273 50.8653 201.545C51.4302 200.689 51.8754 199.739 52.0894 198.729C52.329 197.728 52.3547 196.676 52.5858 195.649C53.0395 193.612 54.0753 191.669 55.676 190.309C55.6846 190.3 55.7017 190.3 55.7188 190.309C55.7445 190.326 55.7445 190.351 55.7274 190.36Z" fill="#4F543C"/>
<path d="M7.2435 234.158L11.1897 265.812C11.4293 267.703 13.0301 269.124 14.9389 269.124H42.0142C43.9231 269.124 45.5324 267.703 45.7635 265.812L49.7097 234.158H7.2435Z" fill="white"/>
<path d="M7.2435 234.158L45.2841 238.873L8.70726 245.873L7.2435 234.158Z" fill="#E8E8E8"/>
<path d="M5.51439 231.308V237.564C5.51439 238.291 6.10503 238.873 6.82407 238.873H50.1377C50.8653 238.873 51.4473 238.282 51.4473 237.564V231.308H5.51439Z" fill="white"/>
<path d="M346.784 173.107C347.272 173.852 349.952 173.253 351.236 173.869C351.51 173.997 351.724 174.185 351.835 174.459C352.46 175.982 352.588 185.327 354.3 187.484C356.012 189.64 356.902 189.461 356.757 191.258C356.611 193.055 357.407 217.324 357.407 217.324L357.861 204.385C357.861 204.385 357.074 190.813 357.861 189.375C358.649 187.937 360.566 185.25 359.445 180.937C358.323 176.624 352.588 167.279 349.421 167.81C346.254 168.34 346.185 172.209 346.784 173.107Z" fill="#97A75E"/>
<path d="M346.784 173.108C347.272 173.852 349.952 173.253 351.236 173.87C351.681 173.647 352.057 173.399 352.323 173.108C354.694 170.592 359.445 180.93 359.445 180.93C358.323 176.617 352.588 167.272 349.421 167.802C346.254 168.341 346.185 172.209 346.784 173.108Z" fill="#ADBA74"/>
<path d="M346.904 247.893C346.904 247.893 345.732 207.347 347.521 206.115C349.31 204.882 356.115 197.369 355.173 195.323C354.232 193.278 358.691 188.905 360.284 187.673C361.884 186.441 364.067 185.08 365.813 182.924C367.56 180.776 375.349 181.28 376.265 182.924C377.19 184.567 371.24 188.965 370.419 191.943C369.597 194.913 364.041 194.399 361.439 195.529C358.837 196.658 351.201 206.183 349.686 207.621C348.171 209.058 347.512 246.583 347.512 246.583L346.904 247.893Z" fill="#737F4F"/>
<path d="M339.628 198.978C341.161 200.458 337.685 207.124 337.685 207.124L339.628 206.508C339.628 206.508 341.785 202.717 341.203 198.978C340.621 195.238 341.785 190.625 342.376 189.393C342.633 188.862 342.898 188.888 343.309 189.179C343.352 189.213 343.378 189.23 343.378 189.23C343.908 189.641 344.687 190.471 345.988 191.139C348.351 192.371 349.173 188.683 348.959 184.686C348.762 180.69 346.502 181.298 345.552 182.016C344.602 182.735 343.112 183.146 341.272 183.257C340.099 183.334 338.182 183.685 336.444 185.08C335.442 185.884 334.501 187.031 333.79 188.674C331.839 193.167 338.096 197.497 339.628 198.978Z" fill="#737F4F"/>
<path d="M341.263 183.257C340.091 183.334 338.173 183.685 336.435 185.08C339.868 186.184 342.838 188.76 343.309 189.188C343.352 189.222 343.378 189.239 343.378 189.239C343.908 189.65 344.687 190.48 345.988 191.147C348.351 192.38 349.173 188.691 348.959 184.695C348.762 180.699 346.502 181.306 345.552 182.025C344.593 182.744 343.112 183.146 341.263 183.257Z" fill="#97A75E"/>
<path d="M349.703 241.971C349.703 241.971 351.475 224.984 355.182 221.903C358.888 218.823 359.025 219.259 359.025 217.599C359.017 215.939 361.071 210.359 366.267 209.195C371.463 208.031 374.125 208.511 375.015 210.291C375.906 212.071 375.906 219.037 373.372 219.516C370.847 219.995 366.678 221.433 364.76 219.995C362.843 218.557 360.241 218.497 357.51 222.391C354.779 226.285 352.802 234.278 352.802 234.278L349.703 241.971Z" fill="#737F4F"/>
<path d="M342.145 246.763C342.145 246.763 329.844 213.046 328.92 209.563C327.995 206.08 323.073 205.824 320.308 204.309C317.544 202.794 315.797 199.619 314.873 197.677C313.948 195.726 311.183 193.372 308.624 195.529C306.065 197.677 305.243 201.981 304.01 199.217C302.778 196.453 304.318 193.68 306.159 192.354C308.008 191.019 309.437 189.179 310.156 188.049C310.875 186.92 318.151 185.696 321.224 189.384C324.297 193.073 332.806 198.61 332.703 203.119C332.601 207.629 330.957 208.964 332.087 212.139C333.217 215.314 343.771 247.388 343.771 247.388L342.145 246.763Z" fill="#ADBA74"/>
<path d="M346.142 246.866C346.142 246.866 354.035 231.907 353.624 229.545C353.213 227.192 354.446 224.419 357.005 222.99C359.565 221.552 367.97 222.785 368.792 225.138C369.614 227.491 364.589 224.214 362.543 226.37C360.498 228.518 359.351 228.724 357.51 229.032C355.67 229.34 354.643 230.778 353.727 233.131C352.802 235.484 346.913 247.884 346.913 247.884L346.142 246.866Z" fill="#97A75E"/>
<path d="M362.184 209.657C362.184 209.657 359.128 204.814 362.835 200.167C366.541 195.52 362.646 189.307 361.277 190.463C359.907 191.627 357.51 197.429 357.51 197.429C357.51 197.429 354.377 206.311 357.793 209.315C361.208 212.336 362.184 209.657 362.184 209.657Z" fill="#ADBA74"/>
<path d="M347.529 246.583C347.529 246.583 352.939 219.576 352.391 217.257C351.843 214.929 350.003 206.534 352.802 202.435C355.601 198.336 357.57 196.556 357.51 197.446C357.45 198.336 356.492 205.233 359.359 207.15C362.227 209.067 364.624 211.591 361.003 214.39C357.382 217.188 354.172 219.584 353.282 223.067C352.391 226.55 350.14 240.011 350.14 240.011L347.529 246.583Z" fill="#97A75E"/>
<path d="M336.162 209.221C336.915 211.78 340.176 213.679 340.912 214.689C340.981 214.783 341.049 214.98 341.126 215.288C342.308 219.858 345.013 246.874 345.013 246.874L345.629 245.745C345.629 245.745 342.35 216.435 342.659 214.689C342.736 214.236 342.95 213.774 343.224 213.312C344.011 212.019 345.381 210.813 346.134 210.291C346.168 210.274 346.194 210.248 346.228 210.231C346.434 210.12 346.665 210.077 346.921 210.085C347.101 210.094 347.29 210.137 347.495 210.188C348.479 210.462 349.789 211.198 351.57 211.72C354.334 212.541 354.959 210.393 352.186 205.772C349.412 201.16 339.791 201.468 336.812 205.772C335.948 207.022 335.845 208.177 336.162 209.221Z" fill="#ADBA74"/>
<path d="M336.162 209.221C336.915 211.78 340.176 213.679 340.912 214.689C340.981 214.783 341.049 214.98 341.126 215.288C341.666 214.629 342.419 213.953 343.224 213.311C344.011 212.019 345.381 210.813 346.134 210.291C346.168 210.274 346.194 210.248 346.228 210.231C343.01 210.667 339.098 207.621 338.045 207.621C337.488 207.621 336.761 208.417 336.162 209.221Z" fill="#97A75E"/>
<path d="M335.956 269.124H354.574L358.152 242.715H332.387L335.956 269.124Z" fill="white"/>
<path d="M356.209 257.066C348.625 248.962 337.274 245.779 332.66 244.769L332.378 242.715H358.144L356.209 257.066Z" fill="#E8E8E8"/>
<path d="M330.972 247.221H359.57V242.224H330.972V247.221Z" fill="white"/>
</g>
<defs>
<clipPath id="clip0_617_2325">
<rect width="428" height="332" fill="white" transform="translate(-26.5 0.818115)"/>
</clipPath>
</defs>
</svg>
