<svg width="21" height="20" viewBox="0 0 21 20" fill="none" xmlns="http://www.w3.org/2000/svg">
<path d="M19.3464 0H4.73099C4.42498 0 4.13149 0.121566 3.9151 0.337954C3.69871 0.554342 3.57715 0.847827 3.57715 1.15385V15.7692C3.57715 16.0753 3.69871 16.3687 3.9151 16.5851C4.13149 16.8015 4.42498 16.9231 4.73099 16.9231H19.3464C19.6524 16.9231 19.9459 16.8015 20.1623 16.5851C20.3787 16.3687 20.5002 16.0753 20.5002 15.7692V1.15385C20.5002 0.847827 20.3787 0.554342 20.1623 0.337954C19.9459 0.121566 19.6524 0 19.3464 0ZM18.9618 15.3846H5.11561V1.53846H18.9618V15.3846Z" fill="#D70404"/>
<path d="M2.03846 18.4618V3.07715H0.5V18.8464C0.5 19.1524 0.621565 19.4459 0.837954 19.6623C1.05434 19.8787 1.34783 20.0002 1.65385 20.0002H17.4231V18.4618H2.03846Z" fill="#D70404"/>
</svg>
