<svg width="20" height="20" viewBox="0 0 20 20" fill="none" xmlns="http://www.w3.org/2000/svg">
<path d="M10.375 0C7.83182 0.0306827 5.40145 1.05459 3.60302 2.85302C1.80459 4.65145 0.780683 7.08182 0.75 9.625C0.780683 12.1682 1.80459 14.5985 3.60302 16.397C5.40145 18.1954 7.83182 19.2193 10.375 19.25C12.9182 19.2193 15.3485 18.1954 17.147 16.397C18.9454 14.5985 19.9693 12.1682 20 9.625C19.9693 7.08182 18.9454 4.65145 17.147 2.85302C15.3485 1.05459 12.9182 0.0306827 10.375 0ZM15.875 10.3125H11.0625V15.125H9.6875V10.3125H4.875V8.9375H9.6875V4.125H11.0625V8.9375H15.875V10.3125Z" fill="#D70404"/>
</svg>
