<svg width="25" height="25" viewBox="0 0 25 25" fill="none" xmlns="http://www.w3.org/2000/svg">
<g opacity="0.3">
<circle cx="12.1654" cy="7.5837" r="4.77803" stroke="#231F20" stroke-width="1.5" stroke-linecap="round" stroke-linejoin="round"/>
<path fill-rule="evenodd" clip-rule="evenodd" d="M4.58644 19.0072C4.58516 18.6713 4.66028 18.3395 4.80612 18.037C5.26379 17.1216 6.55441 16.6365 7.62534 16.4168C8.3977 16.252 9.18073 16.1419 9.96859 16.0873C11.4273 15.9592 12.8944 15.9592 14.353 16.0873C15.1408 16.1425 15.9238 16.2526 16.6963 16.4168C17.7672 16.6365 19.0578 17.0759 19.5155 18.037C19.8088 18.6538 19.8088 19.3698 19.5155 19.9866C19.0578 20.9477 17.7672 21.3871 16.6963 21.5976C15.9248 21.7693 15.1415 21.8825 14.353 21.9363C13.1658 22.0369 11.973 22.0553 10.7832 21.9912C10.5086 21.9912 10.2432 21.9912 9.96859 21.9363C9.18306 21.8831 8.40274 21.7699 7.6345 21.5976C6.55441 21.3871 5.27294 20.9477 4.80612 19.9866C4.66102 19.6805 4.58598 19.346 4.58644 19.0072Z" stroke="#231F20" stroke-width="1.5" stroke-linecap="round" stroke-linejoin="round"/>
</g>
</svg>
