<svg width="25" height="25" viewBox="0 0 25 25" fill="none" xmlns="http://www.w3.org/2000/svg">
<circle cx="12.2493" cy="7.81587" r="4.77803" stroke="#61C7CF" stroke-width="1.5" stroke-linecap="round" stroke-linejoin="round"/>
<path fill-rule="evenodd" clip-rule="evenodd" d="M4.67037 19.2392C4.66908 18.9033 4.7442 18.5715 4.89004 18.269C5.34771 17.3536 6.63833 16.8685 7.70927 16.6488C8.48163 16.484 9.26465 16.3739 10.0525 16.3193C11.5112 16.1912 12.9783 16.1912 14.437 16.3193C15.2248 16.3745 16.0077 16.4846 16.7802 16.6488C17.8511 16.8685 19.1418 17.3079 19.5994 18.269C19.8927 18.8858 19.8927 19.6018 19.5994 20.2186C19.1418 21.1797 17.8511 21.6191 16.7802 21.8296C16.0087 22.0012 15.2254 22.1145 14.437 22.1683C13.2497 22.2689 12.0569 22.2873 10.8672 22.2232C10.5926 22.2232 10.3271 22.2232 10.0525 22.1683C9.26698 22.1151 8.48667 22.0019 7.71842 21.8296C6.63833 21.6191 5.35686 21.1797 4.89004 20.2186C4.74495 19.9125 4.6699 19.5779 4.67037 19.2392Z" stroke="#61C7CF" stroke-width="1.5" stroke-linecap="round" stroke-linejoin="round"/>
</svg>
