<svg width="30" height="25" viewBox="0 0 30 25" fill="none" xmlns="http://www.w3.org/2000/svg">
<path d="M21.4569 0C18.699 0 16.3425 1.94309 15.0477 3.2827C13.753 1.94309 11.4017 0 8.64508 0C3.89377 0 0.57666 3.27359 0.57666 7.95963C0.57666 13.123 4.6964 16.4603 8.68192 19.6884C10.5635 21.214 12.5109 22.7903 14.0043 24.5383C14.2556 24.8309 14.624 25 15.0109 25H15.0872C15.4753 25 15.8425 24.8296 16.0925 24.5383C17.5885 22.7903 19.5346 21.2127 21.4175 19.6884C25.4017 16.4616 29.524 13.1243 29.524 7.95963C29.524 3.27359 26.2069 0 21.4569 0Z" fill="#C61620"/>
</svg>
