<svg width="22" height="20" viewBox="0 0 22 20" fill="none" xmlns="http://www.w3.org/2000/svg">
<path d="M0.664819 3.41613H11.8582C12.1569 4.61229 13.2374 5.50262 14.5248 5.50262C15.8123 5.50262 16.893 4.61255 17.1915 3.41613H20.613C20.9801 3.41613 21.2778 3.11842 21.2778 2.75131C21.2778 2.3842 20.9801 2.08649 20.613 2.08649H17.1915C16.893 0.890069 15.8123 0 14.5248 0C13.2374 0 12.1567 0.890324 11.8579 2.08649H0.664819C0.297707 2.08649 0 2.3842 0 2.75131C0 3.11842 0.297453 3.41613 0.664819 3.41613ZM14.5248 1.32964C15.3086 1.32964 15.9463 1.96725 15.9463 2.75131C15.9463 3.53536 15.3086 4.17298 14.5248 4.17298C13.741 4.17298 13.1032 3.53536 13.1032 2.75131C13.1032 1.96725 13.741 1.32964 14.5248 1.32964ZM20.613 9.44882H8.30986C8.01139 8.2524 6.93065 7.36233 5.64296 7.36233C4.35527 7.36233 3.27477 8.25266 2.97605 9.44882H0.664819C0.297707 9.44882 0 9.74653 0 10.1136C0 10.4808 0.297707 10.7785 0.664819 10.7785H2.97631C3.27503 11.9746 4.35552 12.865 5.64296 12.865C6.93039 12.865 8.01114 11.9749 8.3096 10.7785H20.613C20.9801 10.7785 21.2778 10.4808 21.2778 10.1136C21.2778 9.74653 20.9803 9.44882 20.613 9.44882ZM5.64296 11.5353C4.85916 11.5353 4.22128 10.8977 4.22128 10.1136C4.22128 9.32959 4.8589 8.69197 5.64296 8.69197C6.42676 8.69197 7.06412 9.32933 7.06463 10.1131V10.1136V10.1142C7.06412 10.898 6.42676 11.5353 5.64296 11.5353ZM20.613 16.5839H13.574C13.2755 15.3875 12.1948 14.4974 10.9074 14.4974C9.61992 14.4974 8.53918 15.3875 8.24071 16.5839H0.664819C0.297707 16.5839 0 16.8816 0 17.2487C0 17.6158 0.297707 17.9135 0.664819 17.9135H8.24045C8.53892 19.1099 9.61967 20 10.9071 20C12.1945 20 13.2753 19.1099 13.5738 17.9135H20.613C20.9801 17.9135 21.2778 17.6158 21.2778 17.2487C21.2778 16.8816 20.9803 16.5839 20.613 16.5839ZM10.9071 18.6704C10.1233 18.6704 9.48543 18.0327 9.48543 17.2489C9.48543 16.4651 10.123 15.8273 10.9071 15.8273C11.6909 15.8273 12.3283 16.4646 12.3285 17.2482V17.2487V17.2492C12.3285 18.033 11.6909 18.6704 10.9071 18.6704Z" fill="#979797"/>
</svg>