<svg width="21" height="20" viewBox="0 0 21 20" fill="none" xmlns="http://www.w3.org/2000/svg">
<path fill-rule="evenodd" clip-rule="evenodd" d="M2.80908 9.12347C2.80908 5.31202 5.89888 2.22222 9.71033 2.22222C13.5218 2.22222 16.6116 5.31202 16.6116 9.12347C16.6116 10.9824 15.8766 12.6696 14.6815 13.9104C14.6474 13.9367 14.6147 13.9654 14.5834 13.9966C14.5522 14.0278 14.5235 14.0606 14.4973 14.0946C13.2564 15.2898 11.5692 16.0247 9.71033 16.0247C5.89888 16.0247 2.80908 12.9349 2.80908 9.12347ZM15.2578 16.0851C13.7363 17.2991 11.8081 18.0247 9.71033 18.0247C4.79431 18.0247 0.809082 14.0395 0.809082 9.12347C0.809082 4.20745 4.79431 0.222221 9.71033 0.222221C14.6264 0.222221 18.6116 4.20745 18.6116 9.12347C18.6116 11.2212 17.8859 13.1495 16.672 14.6709L20.294 18.2929C20.6845 18.6834 20.6845 19.3166 20.294 19.7071C19.9034 20.0976 19.2703 20.0976 18.8798 19.7071L15.2578 16.0851Z" fill="black"/>
</svg>
