<svg width="14" height="14" viewBox="0 0 14 14" fill="none" xmlns="http://www.w3.org/2000/svg">
<g opacity="0.5">
<path d="M6.7452 0.699463C10.2191 0.699463 13.0353 3.45345 13.0353 6.85066C13.0353 8.45388 12.4081 9.91385 11.3806 11.0087L13.4014 12.979C13.5909 13.1638 13.5913 13.4637 13.4023 13.649C13.2306 13.8174 12.9615 13.833 12.7716 13.6956L12.7172 13.6498L10.6726 11.6558C9.5963 12.4981 8.2309 13.0019 6.7452 13.0019C3.27126 13.0019 0.455078 10.2479 0.455078 6.85066C0.455078 3.45345 3.27126 0.699463 6.7452 0.699463ZM6.7452 1.64691C3.80634 1.64691 1.42393 3.97671 1.42393 6.85066C1.42393 9.72461 3.80634 12.0544 6.7452 12.0544C9.68405 12.0544 12.0665 9.72461 12.0665 6.85066C12.0665 3.97671 9.68405 1.64691 6.7452 1.64691Z" fill="#231F20"/>
</g>
</svg>
