<svg width="20" height="20" viewBox="0 0 20 20" fill="none" xmlns="http://www.w3.org/2000/svg">
<g clip-path="url(#clip0_617_3544)">
<path d="M18.4359 15.7853H16.3277C15.9849 14.6445 14.9367 13.8062 13.6859 13.8062C12.4351 13.8062 11.3877 14.6445 11.0441 15.7853H1.01919C0.582193 15.7853 0.227539 16.14 0.227539 16.577C0.227539 17.014 0.582193 17.3687 1.01919 17.3687H11.0441C11.3868 18.5094 12.435 19.3478 13.6858 19.3478C14.9367 19.3478 15.9841 18.5094 16.3276 17.3687H18.4358C18.8736 17.3687 19.2275 17.014 19.2275 16.577C19.2275 16.14 18.8737 15.7853 18.4359 15.7853ZM13.6859 17.7645C13.0312 17.7645 12.4984 17.2317 12.4984 16.577C12.4984 15.9223 13.0312 15.3895 13.6859 15.3895C14.3406 15.3895 14.8734 15.9223 14.8734 16.577C14.8734 17.2317 14.3406 17.7645 13.6859 17.7645Z" fill="white"/>
<path d="M18.4359 3.11856H16.3277C15.9841 1.97778 14.9367 1.1394 13.6859 1.1394C12.4351 1.1394 11.3877 1.97778 11.0441 3.11856H1.01919C0.582193 3.11856 0.227539 3.47321 0.227539 3.91021C0.227539 4.34721 0.582193 4.70187 1.01919 4.70187H11.0441C11.3877 5.84269 12.435 6.68106 13.6859 6.68106C14.9367 6.68106 15.9841 5.84268 16.3277 4.70191H18.4359C18.8737 4.70191 19.2275 4.34725 19.2275 3.91025C19.2275 3.47325 18.8737 3.11856 18.4359 3.11856ZM13.6859 5.09771C13.0312 5.09771 12.4984 4.56493 12.4984 3.91021C12.4984 3.25549 13.0312 2.72271 13.6859 2.72271C14.3406 2.72271 14.8734 3.25549 14.8734 3.91021C14.8734 4.56493 14.3406 5.09771 13.6859 5.09771Z" fill="white"/>
<path d="M18.4359 9.45205H8.41101C8.06741 8.31128 7.02004 7.4729 5.76923 7.4729C4.51842 7.4729 3.47101 8.31128 3.12745 9.45205H1.01919C0.582193 9.45205 0.227539 9.80671 0.227539 10.2437C0.227539 10.6807 0.582193 11.0354 1.01919 11.0354H3.12741C3.47101 12.1761 4.51838 13.0145 5.76919 13.0145C7.02 13.0145 8.06741 12.1761 8.41097 11.0354H18.4358C18.8736 11.0354 19.2275 10.6807 19.2275 10.2437C19.2275 9.80671 18.8737 9.45205 18.4359 9.45205ZM5.76919 11.4312C5.11447 11.4312 4.58169 10.8984 4.58169 10.2437C4.58169 9.58899 5.11447 9.05621 5.76919 9.05621C6.42391 9.05621 6.95669 9.58899 6.95669 10.2437C6.95669 10.8984 6.42391 11.4312 5.76919 11.4312Z" fill="white"/>
</g>
<defs>
<clipPath id="clip0_617_3544">
<rect width="19" height="19" fill="white" transform="translate(0.227539 0.743652)"/>
</clipPath>
</defs>
</svg>
