<svg width="26" height="25" viewBox="0 0 26 25" fill="none" xmlns="http://www.w3.org/2000/svg">
<mask id="mask0_1234_2097" style="mask-type:luminance" maskUnits="userSpaceOnUse" x="0" y="0" width="26" height="25">
<path d="M25.8345 0H0.26709V25H25.8345V0Z" fill="white"/>
</mask>
<g mask="url(#mask0_1234_2097)">
<path d="M13.0167 17.6005C10.1168 17.6005 7.76686 15.3028 7.76686 12.4672C7.76686 9.63165 10.1168 7.33388 13.0167 7.33388C15.9166 7.33388 18.2665 9.63165 18.2665 12.4672C18.2665 15.3028 15.9166 17.6005 13.0167 17.6005ZM24.8663 14.4317C25.3663 14.4317 25.7754 14.0317 25.7754 13.5428V11.3917C25.7754 10.9028 25.3663 10.5028 24.8663 10.5028H23.9209C23.4209 10.5028 22.8891 10.1206 22.7437 9.64944L21.9346 7.73389C21.6983 7.30278 21.7937 6.66722 22.1482 6.32056L22.8164 5.66721C23.1709 5.32054 23.1709 4.75609 22.8164 4.40942L21.2574 2.88498C20.9028 2.53832 20.3256 2.53832 19.971 2.88498L19.3029 3.53833C18.9483 3.885 18.2984 3.97832 17.8575 3.74721L15.8984 2.96053C15.4212 2.81831 15.0303 2.29832 15.0303 1.80943V0.884983C15.0303 0.396094 14.6212 -0.00390625 14.1212 -0.00390625H11.9213C11.4213 -0.00390625 11.0122 0.396094 11.0122 0.884983V1.80943C11.0122 2.29832 10.6213 2.81831 10.1441 2.96053L8.18503 3.74721C7.74414 3.97832 7.09416 3.885 6.73962 3.53833L6.07146 2.88498C5.71693 2.53832 5.13967 2.53832 4.78513 2.88498L3.22609 4.40942C2.87156 4.75609 2.87156 5.32054 3.22609 5.66721L3.89425 6.32056C4.24879 6.66722 4.34424 7.30278 4.10788 7.73389L3.29882 9.64944C3.15337 10.1161 2.62156 10.4983 2.12158 10.4983H1.17615C0.676168 10.4983 0.26709 10.8983 0.26709 11.3872V13.5428C0.26709 14.0317 0.676168 14.4317 1.17615 14.4317H2.12158C2.62156 14.4317 3.15337 14.8139 3.29882 15.2805L4.10788 17.1961C4.34424 17.6272 4.24879 18.2628 3.89425 18.6094L3.22609 19.2628C2.87156 19.6094 2.87156 20.1739 3.22609 20.5205L4.78059 22.045C5.13512 22.3916 5.71238 22.3916 6.06691 22.045L6.73508 21.3917C7.08961 21.045 7.73959 20.9516 8.18049 21.1828L10.1395 21.9739C10.6168 22.1161 11.0077 22.6361 11.0077 23.125V24.0494C11.0077 24.5383 11.4168 24.9383 11.9167 24.9383H14.1167C14.6167 24.9383 15.0257 24.5383 15.0257 24.0494V23.125C15.0257 22.6361 15.4166 22.1161 15.8939 21.9739L17.8529 21.1872C18.2938 20.9561 18.9438 21.0494 19.2983 21.3961L19.9665 22.0494C20.321 22.3961 20.8983 22.3961 21.2528 22.0494L22.8119 20.525C23.1664 20.1783 23.1664 19.6139 22.8119 19.2672L22.1437 18.6139C21.7892 18.2672 21.6937 17.6317 21.9301 17.2005L22.7346 15.285C22.88 14.8183 23.4118 14.4361 23.9118 14.4361H24.8573L24.8663 14.4317Z" fill="#C61620"/>
</g>
</svg>
