<svg width="20" height="19" viewBox="0 0 20 19" fill="none" xmlns="http://www.w3.org/2000/svg">
<path d="M13.3025 0.18098C13.2135 0.0917232 13.1022 0.0322537 12.9821 0.0098944C12.8619 -0.0124649 12.7384 0.00326208 12.6265 0.0551389C12.5146 0.107016 12.4194 0.192777 12.3525 0.301864C12.2856 0.41095 12.25 0.538599 12.25 0.669091V3.59776C12.071 3.60204 11.8625 3.61381 11.63 3.63629C10.8625 3.71229 9.82198 3.91781 8.74198 4.44178C6.54099 5.50952 4.279 7.85321 3.754 12.7696C3.73971 12.9042 3.76391 13.0403 3.82342 13.1598C3.88293 13.2794 3.97494 13.3768 4.08728 13.4391C4.19962 13.5015 4.32699 13.5259 4.45256 13.5091C4.57812 13.4923 4.69597 13.435 4.7905 13.345C6.95799 11.2823 8.98898 10.3944 10.4585 10.0165C11.0298 9.86611 11.6137 9.777 12.2015 9.75053L12.25 9.74892V12.7113C12.25 12.8418 12.2856 12.9694 12.3525 13.0785C12.4194 13.1876 12.5146 13.2734 12.6265 13.3253C12.7384 13.3771 12.8619 13.3929 12.9821 13.3705C13.1022 13.3481 13.2135 13.2887 13.3025 13.1994L19.3024 7.17831C19.3648 7.11574 19.4145 7.04013 19.4485 6.95618C19.4825 6.87222 19.5 6.78169 19.5 6.6902C19.5 6.5987 19.4825 6.50817 19.4485 6.42422C19.4145 6.34026 19.3648 6.26466 19.3024 6.20209L13.3025 0.18098Z" fill="black"/>
<path d="M0.5 4.14804C0.5 3.26087 0.829239 2.41004 1.41529 1.78272C2.00134 1.1554 2.79619 0.802979 3.62499 0.802979H7.74997C7.91573 0.802979 8.0747 0.873463 8.19191 0.998928C8.30912 1.12439 8.37497 1.29456 8.37497 1.47199C8.37497 1.64942 8.30912 1.81959 8.19191 1.94505C8.0747 2.07052 7.91573 2.141 7.74997 2.141H3.62499C3.12771 2.141 2.6508 2.35246 2.29917 2.72885C1.94754 3.10524 1.74999 3.61574 1.74999 4.14804V15.655C1.74999 16.1873 1.94754 16.6978 2.29917 17.0742C2.6508 17.4506 3.12771 17.6621 3.62499 17.6621H14.3749C14.8722 17.6621 15.3491 17.4506 15.7008 17.0742C16.0524 16.6978 16.2499 16.1873 16.2499 15.655V14.4508C16.2499 14.2734 16.3158 14.1032 16.433 13.9778C16.5502 13.8523 16.7092 13.7818 16.8749 13.7818C17.0407 13.7818 17.1997 13.8523 17.3169 13.9778C17.4341 14.1032 17.4999 14.2734 17.4999 14.4508V15.655C17.4999 16.5422 17.1707 17.393 16.5846 18.0204C15.9986 18.6477 15.2037 19.0001 14.3749 19.0001H3.62499C2.79619 19.0001 2.00134 18.6477 1.41529 18.0204C0.829239 17.393 0.5 16.5422 0.5 15.655V4.14804Z" fill="black"/>
</svg>
