<svg width="19" height="19" viewBox="0 0 19 19" fill="none" xmlns="http://www.w3.org/2000/svg">
<path d="M12.8025 0.18098C12.7135 0.0917232 12.6022 0.0322537 12.4821 0.0098944C12.3619 -0.0124649 12.2384 0.00326208 12.1265 0.0551389C12.0146 0.107016 11.9194 0.192777 11.8525 0.301864C11.7856 0.41095 11.75 0.538599 11.75 0.669091V3.59776C11.571 3.60204 11.3625 3.61381 11.13 3.63629C10.3625 3.71229 9.32198 3.91781 8.24198 4.44178C6.04099 5.50952 3.779 7.85321 3.254 12.7696C3.23971 12.9042 3.26391 13.0403 3.32342 13.1598C3.38293 13.2794 3.47494 13.3768 3.58728 13.4391C3.69962 13.5015 3.82699 13.5259 3.95256 13.5091C4.07812 13.4923 4.19597 13.435 4.2905 13.345C6.45799 11.2823 8.48898 10.3944 9.95847 10.0165C10.5298 9.86611 11.1137 9.777 11.7015 9.75053L11.75 9.74892V12.7113C11.75 12.8418 11.7856 12.9694 11.8525 13.0785C11.9194 13.1876 12.0146 13.2734 12.1265 13.3253C12.2384 13.3771 12.3619 13.3929 12.4821 13.3705C12.6022 13.3481 12.7135 13.2887 12.8025 13.1994L18.8024 7.17831C18.8648 7.11574 18.9145 7.04013 18.9485 6.95618C18.9825 6.87222 19 6.78169 19 6.6902C19 6.5987 18.9825 6.50817 18.9485 6.42422C18.9145 6.34026 18.8648 6.26466 18.8024 6.20209L12.8025 0.18098Z" fill="#D70404"/>
<path d="M0 4.14804C0 3.26087 0.329239 2.41004 0.915287 1.78272C1.50134 1.1554 2.29619 0.802979 3.12499 0.802979H7.24997C7.41573 0.802979 7.5747 0.873463 7.69191 0.998928C7.80912 1.12439 7.87497 1.29456 7.87497 1.47199C7.87497 1.64942 7.80912 1.81959 7.69191 1.94505C7.5747 2.07052 7.41573 2.141 7.24997 2.141H3.12499C2.62771 2.141 2.1508 2.35246 1.79917 2.72885C1.44754 3.10524 1.24999 3.61574 1.24999 4.14804V15.655C1.24999 16.1873 1.44754 16.6978 1.79917 17.0742C2.1508 17.4506 2.62771 17.6621 3.12499 17.6621H13.8749C14.3722 17.6621 14.8491 17.4506 15.2008 17.0742C15.5524 16.6978 15.7499 16.1873 15.7499 15.655V14.4508C15.7499 14.2734 15.8158 14.1032 15.933 13.9778C16.0502 13.8523 16.2092 13.7818 16.3749 13.7818C16.5407 13.7818 16.6997 13.8523 16.8169 13.9778C16.9341 14.1032 16.9999 14.2734 16.9999 14.4508V15.655C16.9999 16.5422 16.6707 17.393 16.0846 18.0204C15.4986 18.6477 14.7037 19.0001 13.8749 19.0001H3.12499C2.29619 19.0001 1.50134 18.6477 0.915287 18.0204C0.329239 17.393 0 16.5422 0 15.655V4.14804Z" fill="#D70404"/>
</svg>
