<svg width="13" height="12" viewBox="0 0 13 12" fill="none" xmlns="http://www.w3.org/2000/svg">
<path fill-rule="evenodd" clip-rule="evenodd" d="M6.46866 10.9568C6.52403 10.9858 6.58595 11.0005 6.64786 11C6.70978 10.9995 6.77119 10.9843 6.82706 10.9549L8.611 10.0012C9.11689 9.73156 9.51304 9.43003 9.82211 9.07897C10.4941 8.3141 10.8611 7.33791 10.8545 6.33132L10.8334 3.01099C10.8314 2.62856 10.5802 2.2873 10.2087 2.16326L6.88998 1.04978C6.69014 0.98212 6.47118 0.983591 6.27486 1.05321L2.96874 2.20641C2.59926 2.33535 2.35261 2.67906 2.35463 3.06198L2.37577 6.37986C2.38231 7.38792 2.76185 8.3597 3.44492 9.11673C3.75701 9.46288 4.15669 9.76 4.66811 10.0253L6.46866 10.9568ZM5.99657 7.05445C6.07107 7.12604 6.16771 7.16134 6.26436 7.16036C6.36101 7.15987 6.45715 7.12359 6.53064 7.05102L8.48019 5.12904C8.62667 4.9844 8.62516 4.75199 8.47717 4.60931C8.32868 4.46664 8.08958 4.46762 7.9431 4.61226L6.25882 6.27242L5.56921 5.60953C5.42072 5.46685 5.18212 5.46832 5.03513 5.61296C4.88865 5.7576 4.89016 5.99001 5.03866 6.13268L5.99657 7.05445Z" fill="#39BDB7"/>
</svg>
