<svg width="100" height="100" viewBox="0 0 100 100" fill="none" xmlns="http://www.w3.org/2000/svg">
<mask id="mask0_1691_3238" style="mask-type:luminance" maskUnits="userSpaceOnUse" x="0" y="0" width="100" height="100">
<path d="M100 0H0V100H100V0Z" fill="white"/>
</mask>
<g mask="url(#mask0_1691_3238)">
<path d="M50 10C40.7323 9.98975 31.7479 13.1939 24.5782 19.0664C17.4085 24.9388 12.4973 33.116 10.6817 42.2042C8.86619 51.2923 10.2587 60.7288 14.6218 68.9052C18.985 77.0815 26.0487 83.4917 34.609 87.043C43.1693 90.5942 52.6963 91.0668 61.566 88.3802C70.4358 85.6935 78.0992 80.0139 83.2501 72.3095C88.401 64.605 90.7206 55.3526 89.8134 46.1295C88.9061 36.9063 84.8283 28.2832 78.275 21.73C70.7753 14.2298 60.6065 10.0112 50 10ZM50 5C58.9002 5 67.6004 7.6392 75.0007 12.5839C82.4009 17.5285 88.1686 24.5566 91.5746 32.7792C94.9805 41.0019 95.8717 50.0499 94.1353 58.7791C92.399 67.5082 88.1132 75.5264 81.8198 81.8198C75.5264 88.1132 67.5082 92.399 58.7791 94.1353C50.0499 95.8717 41.0019 94.9805 32.7792 91.5746C24.5566 88.1686 17.5285 82.4009 12.5839 75.0007C7.6392 67.6004 5 58.9002 5 50C5.01323 38.0693 9.75854 26.6311 18.1948 18.1948C26.6311 9.75854 38.0693 5.01323 50 5Z" fill="black"/>
<path d="M35 45C37.7614 45 40 42.7614 40 40C40 37.2386 37.7614 35 35 35C32.2386 35 30 37.2386 30 40C30 42.7614 32.2386 45 35 45Z" fill="black"/>
<path d="M65 45C67.7614 45 70 42.7614 70 40C70 37.2386 67.7614 35 65 35C62.2386 35 60 37.2386 60 40C60 42.7614 62.2386 45 65 45Z" fill="black"/>
<path d="M27.019 62.9813C26.5502 62.5125 26.2868 61.8766 26.2868 61.2136C26.2868 60.5505 26.5502 59.9147 27.019 59.4458C27.4879 58.977 28.1238 58.7136 28.7868 58.7136C29.4498 58.7136 30.0857 58.977 30.5546 59.4458C35.7157 64.5957 42.709 67.488 50 67.488C57.291 67.488 64.2843 64.5957 69.4454 59.4458C69.9143 58.977 70.5502 58.7136 71.2132 58.7136C71.8762 58.7136 72.5121 58.977 72.981 59.4458C73.4498 59.9147 73.7132 60.5505 73.7132 61.2136C73.7132 61.8766 73.4498 62.5125 72.981 62.9813C66.8815 69.0677 58.6167 72.4859 50 72.4859C41.3833 72.4859 33.1185 69.0677 27.019 62.9813Z" fill="black"/>
</g>
</svg>
