<svg width="129" height="117" viewBox="0 0 129 117" fill="none" xmlns="http://www.w3.org/2000/svg">
<path d="M0 77.2824H5.48906L10.315 93.1442L15.5385 77.2161H19.9275L25.1526 93.1442L29.9785 77.2824H35.3324L27.3824 100.874H22.9227L17.6678 85.5499L12.4081 100.874H7.95152L0 77.2824Z" fill="#454545"/>
<path d="M33.574 91.8386V91.7707C33.574 86.6531 37.1993 82.4348 42.3914 82.4348C48.3471 82.4348 51.0752 87.0861 51.0752 92.1721C51.0752 92.5736 51.039 93.043 51.0076 93.5108H38.5963C39.0945 95.8214 40.6926 97.0226 42.9555 97.0226C44.6542 97.0226 45.8815 96.4884 47.2801 95.1829L50.1747 97.7591C48.5121 99.8327 46.1141 101.107 42.8895 101.107C37.5324 101.11 33.574 97.3277 33.574 91.8386ZM46.1503 90.3324C45.8501 88.0581 44.5191 86.5187 42.3914 86.5187C40.2951 86.5187 38.9295 88.0233 38.5319 90.3324H46.1503Z" fill="#454545"/>
<path d="M50.7106 77.2825H56.3662L62.454 93.7796L68.5418 77.2825H74.0686L64.6525 100.874H60.1283L50.7106 77.2825Z" fill="#454545"/>
<path d="M75.8993 76.2789H81.2218V80.7975H75.8993V76.2789ZM76.0329 82.77H81.0882V100.705H76.0329V82.77Z" fill="#454545"/>
<path d="M83.6512 91.8386V91.7707C83.6512 86.6531 87.2766 82.4348 92.4671 82.4348C98.4228 82.4348 101.152 87.0861 101.152 92.1721C101.152 92.5736 101.119 93.043 101.085 93.5108H88.6767C89.1733 95.8214 90.7715 97.0226 93.0328 97.0226C94.7299 97.0226 95.9619 96.4884 97.3574 95.1829L100.252 97.7591C98.5863 99.8327 96.1945 101.107 92.9652 101.107C87.6097 101.11 83.6512 97.3277 83.6512 91.8386ZM96.2275 90.3324C95.9305 88.0581 94.5995 86.5187 92.4671 86.5187C90.3723 86.5187 89.0099 88.0233 88.6092 90.3324H96.2275Z" fill="#454545"/>
<path d="M101.951 82.7699H107.075L109.935 93.6452L113.297 82.702H117.654L121.048 93.6784L123.978 82.7683H129L123.443 100.838H118.885L115.459 89.8299L111.966 100.838H107.44L101.951 82.7699Z" fill="#454545"/>
<path d="M21.9264 116.172C21.7975 116.079 21.7032 115.924 21.7032 115.742C21.7032 115.447 21.9453 115.216 22.2344 115.216C22.3915 115.216 22.4905 115.262 22.566 115.317C23.0987 115.742 23.6644 115.979 24.359 115.979C25.0551 115.979 25.492 115.647 25.492 115.17V115.153C25.492 114.691 25.2359 114.445 24.0447 114.167C22.6854 113.836 21.9154 113.43 21.9154 112.245V112.227C21.9154 111.123 22.8284 110.359 24.1013 110.359C24.9074 110.359 25.5549 110.572 26.1332 110.957C26.262 111.031 26.3799 111.187 26.3799 111.407C26.3799 111.703 26.1442 111.932 25.8503 111.932C25.7403 111.932 25.6491 111.905 25.5564 111.848C25.063 111.526 24.5884 111.363 24.084 111.363C23.4256 111.363 23.0405 111.703 23.0405 112.125V112.142C23.0405 112.638 23.3328 112.859 24.568 113.153C25.9241 113.485 26.6172 113.974 26.6172 115.041V115.058C26.6172 116.265 25.6759 116.983 24.3307 116.983C23.4633 116.981 22.6398 116.706 21.9264 116.172Z" fill="#999999"/>
<path d="M27.5019 116.153L29.8842 110.817C30.01 110.533 30.2378 110.357 30.56 110.357H30.6134C30.934 110.357 31.154 110.533 31.2828 110.817L33.662 116.153C33.7076 116.237 33.7249 116.319 33.7249 116.392C33.7249 116.697 33.497 116.937 33.1937 116.937C32.9313 116.937 32.7474 116.78 32.6453 116.54L32.1235 115.334H29.0137L28.4747 116.576C28.3851 116.807 28.1918 116.935 27.9529 116.935C27.6606 116.935 27.4312 116.704 27.4312 116.41C27.4296 116.33 27.4564 116.246 27.5019 116.153ZM31.6945 114.332L30.5678 111.729L29.4411 114.332H31.6945Z" fill="#999999"/>
<path d="M34.938 111.018C34.938 110.697 35.1831 110.449 35.5037 110.449H39.2359C39.5188 110.449 39.7498 110.678 39.7498 110.963C39.7498 111.249 39.5203 111.478 39.2359 111.478H36.06V113.234H38.8242C39.107 113.234 39.3349 113.466 39.3349 113.751C39.3349 114.037 39.107 114.267 38.8242 114.267H36.06V116.374C36.06 116.687 35.8133 116.935 35.5037 116.935C35.1831 116.935 34.938 116.687 34.938 116.374V111.018Z" fill="#999999"/>
<path d="M40.9362 116.319V111.018C40.9362 110.697 41.1829 110.449 41.5034 110.449H45.2246C45.4996 110.449 45.7291 110.678 45.7291 110.955C45.7291 111.241 45.4996 111.46 45.2246 111.46H42.0597V113.136H44.8145C45.0895 113.136 45.3142 113.365 45.3142 113.651C45.3142 113.928 45.0879 114.149 44.8145 114.149H42.0597V115.879H45.2718C45.5452 115.879 45.7746 116.109 45.7746 116.384C45.7746 116.67 45.5452 116.891 45.2718 116.891H41.5034C41.1829 116.891 40.9362 116.641 40.9362 116.319Z" fill="#999999"/>
<path d="M47.0632 111.018C47.0632 110.697 47.3115 110.449 47.6321 110.449H49.917C50.7231 110.449 51.3533 110.688 51.7666 111.092C52.1044 111.441 52.2977 111.92 52.2977 112.481V112.5C52.2977 113.529 51.7037 114.155 50.841 114.422L52.0667 115.977C52.1767 116.115 52.2522 116.235 52.2522 116.41C52.2522 116.723 51.9866 116.935 51.71 116.935C51.4554 116.935 51.2904 116.815 51.1616 116.641L49.6074 114.645H48.19V116.376C48.19 116.689 47.9432 116.937 47.6337 116.937C47.3131 116.937 47.0648 116.689 47.0648 116.376V111.018H47.0632ZM49.8337 113.641C50.6398 113.641 51.1521 113.218 51.1521 112.565V112.548C51.1521 111.856 50.6587 111.479 49.8274 111.479H48.1884V113.643H49.8337V113.641Z" fill="#999999"/>
<path d="M57.9879 111.498H56.4337C56.143 111.498 55.9136 111.259 55.9136 110.973C55.9136 110.689 56.143 110.45 56.4337 110.45H60.6892C60.9721 110.45 61.1999 110.689 61.1999 110.973C61.1999 111.259 60.9721 111.498 60.6892 111.498H59.1256V116.375C59.1256 116.688 58.8695 116.937 58.5583 116.937C58.244 116.937 57.9879 116.688 57.9879 116.375V111.498Z" fill="#999999"/>
<path d="M61.7123 113.687V113.668C61.7123 111.855 63.103 110.337 65.0658 110.337C67.0348 110.337 68.4067 111.838 68.4067 113.651V113.668C68.4067 115.481 67.0175 117 65.0516 117C63.0826 117 61.7123 115.5 61.7123 113.687ZM67.2265 113.687V113.668C67.2265 112.418 66.3229 111.378 65.0516 111.378C63.7803 111.378 62.8909 112.399 62.8909 113.649V113.667C62.8909 114.918 63.7976 115.951 65.0658 115.951C66.3402 115.952 67.2265 114.941 67.2265 113.687Z" fill="#999999"/>
<path d="M69.483 113.687V113.668C69.483 111.865 70.8565 110.337 72.7846 110.337C73.7448 110.337 74.3859 110.569 74.9721 110.991C75.0821 111.073 75.2015 111.23 75.2015 111.451C75.2015 111.754 74.9532 112.012 74.6421 112.012C74.4944 112.012 74.3859 111.947 74.2948 111.882C73.8831 111.577 73.4337 111.378 72.7391 111.378C71.5573 111.378 70.6616 112.418 70.6616 113.649V113.667C70.6616 114.993 71.5306 115.968 72.8381 115.968C73.4431 115.968 73.9915 115.773 74.3844 115.48V114.275H73.1225C72.8459 114.275 72.6181 114.062 72.6181 113.787C72.6181 113.51 72.8459 113.289 73.1225 113.289H74.9045C75.2267 113.289 75.4718 113.537 75.4718 113.86V115.581C75.4718 115.903 75.3445 116.134 75.079 116.298C74.5305 116.666 73.7605 116.998 72.8019 116.998C70.8015 117 69.483 115.565 69.483 113.687Z" fill="#999999"/>
<path d="M76.9348 116.319V111.018C76.9348 110.697 77.1831 110.449 77.5021 110.449H81.2264C81.5014 110.449 81.7293 110.678 81.7293 110.955C81.7293 111.241 81.5014 111.46 81.2264 111.46H78.0615V113.136H80.8131C81.0897 113.136 81.3175 113.365 81.3175 113.651C81.3175 113.928 81.0897 114.149 80.8131 114.149H78.0615V115.879H81.272C81.547 115.879 81.7764 116.109 81.7764 116.384C81.7764 116.67 81.547 116.891 81.272 116.891H77.5037C77.1815 116.891 76.9348 116.641 76.9348 116.319Z" fill="#999999"/>
<path d="M84.6365 111.498H83.0792C82.7869 111.498 82.5591 111.259 82.5591 110.973C82.5591 110.689 82.7869 110.45 83.0792 110.45H87.3347C87.6191 110.45 87.8486 110.689 87.8486 110.973C87.8486 111.259 87.6207 111.498 87.3347 111.498H85.7664V116.375C85.7664 116.688 85.5134 116.937 85.2023 116.937C84.8895 116.937 84.6365 116.688 84.6365 116.375V111.498Z" fill="#999999"/>
<path d="M88.9878 110.964C88.9878 110.651 89.2361 110.404 89.5535 110.404C89.8647 110.404 90.1114 110.653 90.1114 110.964V113.128H93.1678V110.964C93.1678 110.651 93.4161 110.404 93.7273 110.404C94.0494 110.404 94.293 110.653 94.293 110.964V116.375C94.293 116.688 94.0494 116.937 93.7273 116.937C93.4161 116.937 93.1678 116.688 93.1678 116.375V114.177H90.1114V116.375C90.1114 116.688 89.8647 116.937 89.5535 116.937C89.2345 116.937 88.9878 116.688 88.9878 116.375V110.964Z" fill="#999999"/>
<path d="M95.9368 116.319V111.018C95.9368 110.697 96.1866 110.449 96.5041 110.449H100.227C100.502 110.449 100.731 110.678 100.731 110.955C100.731 111.241 100.502 111.46 100.227 111.46H97.0635V113.136H99.8151C100.092 113.136 100.318 113.365 100.318 113.651C100.318 113.928 100.092 114.149 99.8151 114.149H97.0635V115.879H100.271C100.549 115.879 100.774 116.109 100.774 116.384C100.774 116.67 100.549 116.891 100.271 116.891H96.5041C96.1866 116.891 95.9368 116.641 95.9368 116.319Z" fill="#999999"/>
<path d="M102.062 111.018C102.062 110.697 102.311 110.449 102.63 110.449H104.916C105.722 110.449 106.352 110.688 106.764 111.092C107.102 111.441 107.298 111.92 107.298 112.481V112.5C107.298 113.529 106.703 114.155 105.84 114.422L107.066 115.977C107.176 116.115 107.25 116.235 107.25 116.41C107.25 116.723 106.982 116.935 106.711 116.935C106.453 116.935 106.288 116.815 106.161 116.641L104.605 114.645H103.187V116.376C103.187 116.689 102.939 116.937 102.63 116.937C102.309 116.937 102.062 116.689 102.062 116.376V111.018ZM104.836 113.641C105.64 113.641 106.154 113.218 106.154 112.565V112.548C106.154 111.856 105.659 111.479 104.83 111.479H103.189V113.643H104.836V113.641Z" fill="#999999"/>
<path d="M91.0905 17.6635L64.5 43.7762L48.7793 30.3879L56.5171 22.4413L64.4985 31.5638L83.3338 7.04421C78.2706 2.65995 71.691 0 64.5 0C48.5593 0 35.5839 13.0469 35.5839 29.084C35.5839 34.2554 36.94 39.1091 39.3019 43.321L36.4497 57.694L50.1339 54.307C54.3705 56.7583 59.2734 58.1665 64.5 58.1665C80.4439 58.1665 93.4147 45.1212 93.4147 29.084C93.4147 25.0317 92.5865 21.1706 91.0905 17.6635ZM64.5 54.3576C50.6446 54.3576 39.3679 43.0207 39.3679 29.0825C39.3679 15.1473 50.6446 3.80738 64.5 3.80738C69.7817 3.80738 74.6846 5.45741 78.7326 8.26593L75.7595 12.1381C72.538 9.96495 68.6628 8.69424 64.4985 8.69424C53.3192 8.69424 44.2252 17.8405 44.2252 29.0825C44.2252 40.3244 53.3192 49.4723 64.4985 49.4723C75.6762 49.4723 84.7717 40.3244 84.7717 29.0825C84.7717 28.7095 84.7591 28.3381 84.7418 27.9666L89.057 23.7294C89.4263 25.4553 89.6306 27.2444 89.6306 29.0825C89.6322 43.0207 78.3571 54.3576 64.5 54.3576Z" fill="url(#paint0_linear_617_2799)"/>
<defs>
<linearGradient id="paint0_linear_617_2799" x1="64.4998" y1="-7.70165" x2="64.4998" y2="55.361" gradientUnits="userSpaceOnUse">
<stop stop-color="#81D2E8"/>
<stop offset="0.1296" stop-color="#79CFE1"/>
<stop offset="0.3449" stop-color="#61C7CF"/>
<stop offset="0.5674" stop-color="#36BEB9"/>
<stop offset="0.8652" stop-color="#079DA1"/>
<stop offset="0.9944" stop-color="#068083"/>
</linearGradient>
</defs>
</svg>
