<svg width="11" height="10" viewBox="0 0 11 10" fill="none" xmlns="http://www.w3.org/2000/svg">
<g clip-path="url(#clip0_617_3565)">
<path d="M10.0735 4.661C10.1767 4.58409 10.2533 4.4768 10.2925 4.35417C10.3317 4.23154 10.3315 4.09972 10.292 3.97719C10.2525 3.85467 10.1756 3.74759 10.0722 3.67095C9.96873 3.59432 9.8439 3.55199 9.71518 3.54989L7.21518 3.45544C7.20289 3.45459 7.1911 3.45021 7.18124 3.44281C7.17139 3.43542 7.16388 3.42534 7.15962 3.41377L6.29573 1.08044C6.25233 0.961729 6.17349 0.859223 6.0699 0.7868C5.96631 0.714378 5.84296 0.675537 5.71657 0.675537C5.59017 0.675537 5.46682 0.714378 5.36323 0.7868C5.25964 0.859223 5.1808 0.961729 5.1374 1.08044L4.27629 3.42211C4.27203 3.43367 4.26452 3.44376 4.25467 3.45115C4.24481 3.45854 4.23302 3.46293 4.22073 3.46377L1.72073 3.55822C1.59201 3.56032 1.46718 3.60266 1.36373 3.67929C1.26028 3.75592 1.18342 3.863 1.1439 3.98553C1.10439 4.10805 1.10421 4.23987 1.14339 4.3625C1.18258 4.48513 1.25916 4.59242 1.3624 4.66933L3.32351 6.211C3.33332 6.21872 3.34066 6.22915 3.34461 6.241C3.34856 6.25285 3.34895 6.2656 3.34573 6.27766L2.67073 8.66933C2.63575 8.79112 2.63914 8.92073 2.68044 9.04052C2.72173 9.16032 2.79893 9.26449 2.90152 9.33885C3.00412 9.41322 3.12713 9.45418 3.25383 9.45615C3.38053 9.45812 3.50476 9.42102 3.60962 9.34989L5.68184 7.961C5.69205 7.95395 5.70416 7.95017 5.71657 7.95017C5.72897 7.95017 5.74108 7.95395 5.75129 7.961L7.82351 9.34989C7.92696 9.42345 8.05074 9.46298 8.17768 9.46298C8.30461 9.46298 8.4284 9.42345 8.53184 9.34989C8.63446 9.27622 8.71174 9.17256 8.75302 9.05318C8.79431 8.93379 8.79759 8.80454 8.7624 8.68322L8.08184 6.28322C8.07824 6.27117 8.07844 6.2583 8.08241 6.24637C8.08639 6.23444 8.09395 6.22403 8.10407 6.21655L10.0735 4.661Z" fill="#FFD500"/>
</g>
<defs>
<clipPath id="clip0_617_3565">
<rect width="10" height="10" fill="white" transform="translate(0.628906)"/>
</clipPath>
</defs>
</svg>
