<svg width="16" height="16" viewBox="0 0 16 16" fill="none" xmlns="http://www.w3.org/2000/svg">
<path d="M7.99998 14.6666H3.99998C3.99998 14.313 4.14046 13.9738 4.3905 13.7238C4.64055 13.4737 4.97969 13.3333 5.33331 13.3333V5.33325H1.33331V3.33325H10.6666V5.33325H6.66665V13.3333C7.02027 13.3333 7.35941 13.4737 7.60946 13.7238C7.8595 13.9738 7.99998 14.313 7.99998 14.6666ZM14.6666 1.33325V14.6666H13.3333V9.99992H9.99998V14.6666H8.66665V9.33325C8.66665 8.97963 8.80712 8.64049 9.05717 8.39044C9.30722 8.14039 9.64636 7.99992 9.99998 7.99992H13.3333V1.33325H14.6666Z" fill="white"/>
</svg>
