<svg width="11" height="11" viewBox="0 0 11 11" fill="none" xmlns="http://www.w3.org/2000/svg">
<g clip-path="url(#clip0_617_3745)">
<path d="M4.48972 5.21787L4.37664 5.85908C4.34695 6.02725 4.22058 6.16358 4.05515 6.20615C3.98953 6.22295 3.92976 6.23819 3.87527 6.25225C3.86374 6.46436 3.85183 6.66963 3.83972 6.86651C3.93445 6.84209 4.05261 6.81162 4.20066 6.77373C4.58855 6.67412 4.88406 6.35518 4.95359 5.96084C4.96255 5.91008 5.11048 5.07172 5.12039 5.01514C4.81205 5.08602 4.68367 5.10416 4.48972 5.21787Z" fill="#39BDB7"/>
<path d="M5.43132 1.29346H1.16962C0.710246 1.29346 0.328605 1.63818 0.281926 2.09521C0.173742 3.15381 0.231008 2.59363 0.0561443 4.304C0.0280193 4.57803 0.125676 4.84502 0.323722 5.03643L0.363957 5.07549C0.535246 5.24092 0.62509 5.47178 0.611027 5.70928L0.336418 9.13174C0.322902 9.3025 0.457883 9.44814 0.62841 9.44814H2.78523C2.9362 9.44814 3.06237 9.3333 3.07683 9.18311C3.07819 9.17061 3.19909 7.90674 3.29187 6.18877C3.3364 5.3624 3.92663 4.68897 4.70183 4.51045L5.43132 1.29346ZM3.9364 3.17178H2.61843C2.45671 3.17178 2.32546 3.04053 2.32546 2.87881C2.32546 2.71709 2.45671 2.58584 2.61843 2.58584H3.9364C4.09812 2.58584 4.22937 2.71709 4.22937 2.87881C4.22937 3.04053 4.09812 3.17178 3.9364 3.17178Z" fill="#39BDB7"/>
<path d="M7.03225 1.29346H6.03225L5.31311 4.46397H6.44631C6.58323 4.46397 6.70178 4.36924 6.73206 4.23584L7.03967 2.87881L7.31799 1.65127C7.33772 1.56436 7.31682 1.47334 7.26116 1.40361C7.20569 1.33408 7.12131 1.29346 7.03225 1.29346Z" fill="#39BDB7"/>
<path d="M8.28001 1.71265C8.16478 1.59918 7.97923 1.60054 7.86575 1.71558C7.75208 1.83082 7.75345 2.01636 7.86868 2.13004C8.07064 2.32906 8.18197 2.59508 8.18197 2.87867C8.18197 3.16226 8.07064 3.42826 7.86868 3.62728C7.75345 3.74095 7.75208 3.9265 7.86575 4.04172C7.97943 4.15695 8.16484 4.15826 8.28001 4.04465C8.59466 3.73451 8.76791 3.32045 8.76791 2.87865C8.76791 2.43687 8.59466 2.02281 8.28001 1.71265Z" fill="#39BDB7"/>
<path d="M9.19197 0.803613C9.07752 0.68916 8.89216 0.68916 8.77771 0.803613C8.66326 0.917871 8.66306 1.10342 8.77752 1.21785C9.22107 1.6616 9.46539 2.25145 9.46539 2.87857C9.46539 3.5057 9.22105 4.09555 8.77752 4.5393C8.66306 4.65375 8.66326 4.8393 8.77771 4.95356C8.89173 5.06797 9.07724 5.0683 9.19197 4.95356C9.74605 4.39906 10.0513 3.66217 10.0513 2.87857C10.0513 2.095 9.74605 1.35809 9.19197 0.803613Z" fill="#39BDB7"/>
</g>
<defs>
<clipPath id="clip0_617_3745">
<rect width="10" height="10" fill="white" transform="translate(0.0517578 0.0830078)"/>
</clipPath>
</defs>
</svg>
