<svg width="15" height="15" viewBox="0 0 15 15" fill="none" xmlns="http://www.w3.org/2000/svg">
<path fill-rule="evenodd" clip-rule="evenodd" d="M11.8241 7.92221C11.8241 8.39675 12.2138 8.78285 12.6927 8.78285C12.9342 8.78285 13.1302 8.97706 13.1302 9.21636V10.7775C13.1302 12.0977 12.0464 13.1716 10.714 13.1716H3.88027C2.54794 13.1716 1.46352 12.0977 1.46352 10.7775V9.21636C1.46352 8.97706 1.65952 8.78285 1.90102 8.78285C2.38052 8.78285 2.77019 8.39675 2.77019 7.92221C2.77019 7.45981 2.39627 7.11185 1.90102 7.11185C1.78494 7.11185 1.6741 7.06619 1.59185 6.98469C1.5096 6.90319 1.46352 6.79279 1.46352 6.67835L1.46469 5.0663C1.46469 3.74614 2.54852 2.67163 3.88085 2.67163H10.7129C12.0452 2.67163 13.1296 3.74614 13.1296 5.0663L13.1302 6.62806C13.1302 6.74251 13.0841 6.85348 13.0024 6.9344C12.9202 7.0159 12.8094 7.06156 12.6927 7.06156C12.2138 7.06156 11.8241 7.44767 11.8241 7.92221ZM8.61018 8.29966L9.29793 7.63611C9.41752 7.52167 9.45893 7.35289 9.40702 7.19683C9.35568 7.04077 9.22152 6.92979 9.05935 6.90725L8.1091 6.76968L7.68385 5.91655C7.61093 5.76974 7.46277 5.67841 7.29768 5.67784H7.29652C7.13202 5.67784 6.98385 5.76916 6.90977 5.91597L6.48452 6.76968L5.53602 6.90667C5.3721 6.92979 5.23794 7.04077 5.18602 7.19683C5.13469 7.35289 5.1761 7.52167 5.2951 7.63611L5.98285 8.29966L5.82068 9.23776C5.79269 9.3996 5.8586 9.56028 5.99277 9.65681C6.0686 9.71056 6.15668 9.73831 6.24593 9.73831C6.31418 9.73831 6.38302 9.72154 6.44602 9.6886L7.29652 9.24585L8.14527 9.68744C8.29227 9.76547 8.46668 9.75333 8.60027 9.65623C8.73502 9.56028 8.80093 9.3996 8.77293 9.23776L8.61018 8.29966Z" fill="#61C7CF"/>
</svg>
