<svg width="18" height="18" viewBox="0 0 18 18" fill="none" xmlns="http://www.w3.org/2000/svg">
<path d="M9.37436 0.166748C9.15214 8.1379e-05 8.84658 8.1379e-05 8.62436 0.166748L5.29103 2.66675C5.01488 2.87385 4.95892 3.26561 5.16603 3.54175C5.37313 3.81789 5.76488 3.87385 6.04103 3.66675L8.37436 1.91675V13.1667C8.37436 13.5119 8.65418 13.7917 8.99936 13.7917C9.34454 13.7917 9.62436 13.5119 9.62436 13.1667V1.91675L11.9577 3.66675C12.2338 3.87385 12.6256 3.81789 12.8327 3.54175C13.0398 3.26561 12.9838 2.87385 12.7077 2.66675L9.37436 0.166748Z" fill="white"/>
<path d="M4.83268 5.87508L4.39382 5.87508C3.83022 5.87508 3.37559 5.87507 3.00558 5.90032C2.62512 5.92628 2.28869 5.98101 1.97013 6.11296C1.20442 6.43013 0.596061 7.03848 0.278892 7.8042C0.14694 8.12276 0.0922122 8.45918 0.0662533 8.83965C0.0410081 9.20965 0.0410115 9.66428 0.0410157 10.2279V12.7723C0.0410115 13.3359 0.0410081 13.7905 0.0662533 14.1605C0.0922122 14.541 0.14694 14.8774 0.278892 15.196C0.596061 15.9617 1.20442 16.57 1.97013 16.8872C2.28869 17.0192 2.62512 17.0739 3.00558 17.0998C3.37559 17.1251 3.83022 17.1251 4.39382 17.1251H13.6049C14.1685 17.1251 14.6231 17.1251 14.9931 17.0998C15.3736 17.0739 15.71 17.0192 16.0286 16.8872C16.7943 16.57 17.4026 15.9617 17.7198 15.196C17.8518 14.8774 17.9065 14.541 17.9324 14.1605C17.9577 13.7905 17.9577 13.3359 17.9577 12.7723V10.2279C17.9577 9.66428 17.9577 9.20965 17.9324 8.83965C17.9065 8.45918 17.8518 8.12276 17.7198 7.8042C17.4026 7.03848 16.7943 6.43013 16.0286 6.11296C15.71 5.98101 15.3736 5.92628 14.9931 5.90032C14.6231 5.87507 14.1685 5.87508 13.6049 5.87508L13.166 5.87508C12.8208 5.87508 12.541 6.1549 12.541 6.50008C12.541 6.84526 12.8208 7.12508 13.166 7.12508H13.5827C14.1737 7.12508 14.5856 7.12542 14.908 7.14742C15.2248 7.16904 15.4093 7.20946 15.5502 7.26781C16.0096 7.45811 16.3747 7.82312 16.565 8.28255C16.6233 8.42342 16.6637 8.60792 16.6853 8.92474C16.7073 9.24717 16.7077 9.6591 16.7077 10.2501V12.7501C16.7077 13.3411 16.7073 13.753 16.6853 14.0754C16.6637 14.3922 16.6233 14.5767 16.565 14.7176C16.3747 15.177 16.0096 15.5421 15.5502 15.7324C15.4093 15.7907 15.2248 15.8311 14.908 15.8527C14.5856 15.8747 14.1737 15.8751 13.5827 15.8751H4.41602C3.82504 15.8751 3.41311 15.8747 3.09067 15.8527C2.77385 15.8311 2.58935 15.7907 2.44848 15.7324C1.98906 15.5421 1.62404 15.177 1.43374 14.7176C1.37539 14.5767 1.33497 14.3922 1.31335 14.0754C1.29135 13.753 1.29102 13.3411 1.29102 12.7501V10.2501C1.29102 9.6591 1.29135 9.24717 1.31335 8.92474C1.33497 8.60792 1.37539 8.42342 1.43374 8.28255C1.62404 7.82312 1.98906 7.45811 2.44848 7.26781C2.58935 7.20946 2.77385 7.16904 3.09067 7.14742C3.41311 7.12542 3.82504 7.12508 4.41602 7.12508H4.83268C5.17786 7.12508 5.45768 6.84526 5.45768 6.50008C5.45768 6.1549 5.17786 5.87508 4.83268 5.87508Z" fill="white"/>
</svg>
