<svg width="20" height="20" viewBox="0 0 20 20" fill="none" xmlns="http://www.w3.org/2000/svg">
<path d="M18.1412 10.505L18.1412 3.34798L15.1112 3.34798L14.9582 3.32998C12.1452 2.67398 10.2812 2.20098 9.35217 1.90798C8.11817 1.51898 7.65817 1.42398 6.82117 1.36798C6.19517 1.32498 5.48417 1.56598 5.16017 1.89598C4.98117 2.07798 4.84717 2.45198 4.79417 3.03198C4.78319 3.15361 4.73971 3.27004 4.66828 3.36909C4.59685 3.46814 4.5001 3.54616 4.38817 3.59498C4.13917 3.70298 3.93217 3.87898 3.75917 4.13498C3.59917 4.36898 3.49517 4.80498 3.47617 5.43598C3.47283 5.55199 3.43994 5.66522 3.38062 5.76496C3.3213 5.86471 3.2375 5.94766 3.13717 6.00598C2.55517 6.34298 2.26717 6.72298 2.20717 7.16898C2.14117 7.66198 2.30117 8.21698 2.72017 8.84898C2.81848 8.9972 2.85509 9.17793 2.82222 9.35272C2.78936 9.52752 2.6896 9.6826 2.54417 9.78498C2.14317 10.067 1.92317 10.459 1.86817 11.015C1.78017 11.901 2.34517 12.556 3.62417 12.687C4.7633 12.7996 5.91343 12.7037 7.01817 12.404C7.14349 12.3712 7.27555 12.375 7.39883 12.4147C7.5221 12.4545 7.63145 12.5286 7.71402 12.6284C7.79659 12.7282 7.84894 12.8495 7.86491 12.978C7.88088 13.1066 7.85981 13.237 7.80417 13.354C7.30417 14.412 7.02617 15.285 6.96117 15.961C6.87617 16.858 7.08317 17.508 7.56717 18.044C7.93417 18.45 8.52117 18.682 8.74117 18.634C9.03117 18.572 9.22017 18.404 9.46617 17.816C9.61117 17.468 9.68117 17.172 9.80117 16.481C9.91617 15.825 9.97917 15.529 10.1102 15.141C10.5052 13.965 11.4742 12.746 12.7752 11.905C13.687 11.3163 14.6752 10.8553 15.7122 10.535C15.777 10.515 15.8444 10.5049 15.9122 10.505L18.1412 10.505ZM18.1832 1.98498C18.5062 1.97598 18.7962 2.04798 19.0392 2.21798C19.3492 2.43498 19.4952 2.77698 19.4982 3.17098L19.4952 10.494C19.5292 10.884 19.4142 11.242 19.1422 11.508C18.8872 11.758 18.5542 11.876 18.2022 11.868L16.0172 11.868C15.1333 12.1496 14.2907 12.5471 13.5112 13.05C12.4632 13.728 11.6912 14.7 11.3962 15.576C11.2952 15.878 11.2412 16.128 11.1392 16.716C11.0012 17.505 10.9152 17.872 10.7172 18.344C10.3072 19.326 9.76917 19.806 9.02717 19.967C8.29717 20.125 7.23417 19.704 6.56217 18.96C5.81717 18.136 5.48817 17.105 5.61017 15.831C5.66217 15.283 5.81417 14.67 6.06417 13.987C5.21039 14.1114 4.34454 14.1302 3.48617 14.043C1.47917 13.838 0.352168 12.531 0.516168 10.879C0.588168 10.167 0.84617 9.56198 1.28517 9.08698C0.916169 8.37598 0.76917 7.67298 0.861169 6.98698C0.96717 6.19698 1.40717 5.53898 2.13917 5.02798C2.19617 4.33498 2.35517 3.78198 2.63717 3.36798C2.85937 3.03351 3.14928 2.74939 3.48817 2.53398C3.59617 1.84998 3.82317 1.31498 4.19417 0.938981C4.80917 0.312982 5.90817 -0.0600193 6.91217 0.00798145C7.86517 0.0719805 8.42917 0.187982 9.75917 0.607982C10.6362 0.884982 12.4522 1.34498 15.1892 1.98498L18.1842 1.98498L18.1832 1.98498ZM16.4822 10.816C16.4824 10.9054 16.465 10.9941 16.431 11.0768C16.3969 11.1596 16.3469 11.2348 16.2837 11.2981C16.2205 11.3615 16.1455 11.4117 16.0629 11.446C15.9802 11.4803 15.8916 11.498 15.8022 11.498C15.7129 11.4977 15.6245 11.4799 15.5421 11.4455C15.4597 11.411 15.3849 11.3607 15.3219 11.2974C15.259 11.2341 15.2091 11.159 15.1752 11.0764C15.1412 10.9938 15.1239 10.9053 15.1242 10.816L15.1242 3.13798C15.124 3.04868 15.1415 2.96023 15.1755 2.87768C15.2096 2.79513 15.2596 2.72009 15.3226 2.65685C15.3857 2.59362 15.4606 2.54342 15.543 2.50913C15.6255 2.47483 15.7139 2.45711 15.8032 2.45698C15.8925 2.45711 15.9809 2.47483 16.0633 2.50913C16.1458 2.54342 16.2207 2.59362 16.2837 2.65685C16.3468 2.72009 16.3967 2.79513 16.4308 2.87768C16.4648 2.96023 16.4823 3.04868 16.4822 3.13798L16.4822 10.816Z" fill="black"/>
</svg>
