<svg width="19" height="17" viewBox="0 0 19 17" fill="none" xmlns="http://www.w3.org/2000/svg">
<path d="M16.9147 8.1665H12.9105C12.4225 8.1665 11.9898 8.46878 11.8402 8.91582C11.4435 10.0983 10.3096 10.8921 9.02 10.8921C7.72992 10.8921 6.59648 10.0983 6.20004 8.91582C6.05 8.46878 5.6177 8.1665 5.1293 8.1665H1.1253C0.5038 8.1665 0 8.6505 0 9.24868V15.4206C0 16.0176 0.5038 16.5023 1.1253 16.5023H16.9149C17.5369 16.5023 18.04 16.0176 18.04 15.4206V9.24868C18.0398 8.6505 17.5364 8.1665 16.9147 8.1665Z" fill="#D70404"/>
<path d="M5.89854 4.79182H7.3622V8.57318C7.3622 8.73489 7.49794 8.86491 7.66492 8.86491H10.3747C10.5423 8.86491 10.6774 8.73489 10.6774 8.57318V4.79182H12.1421C12.2552 4.79182 12.3591 4.73044 12.4108 4.6343C12.4363 4.58705 12.4478 4.53346 12.4438 4.47988C12.4399 4.42629 12.4206 4.37498 12.3883 4.33202L9.25618 0.121662C9.22738 0.0836976 9.19015 0.0529456 9.14742 0.0318324C9.1047 0.0107193 9.05766 -0.000177439 9.01 2.18516e-06H9.00934C8.91144 2.18516e-06 8.82036 0.0455423 8.76316 0.122762L5.65126 4.33224C5.61935 4.37538 5.60035 4.42668 5.59645 4.4802C5.59256 4.53371 5.60393 4.58722 5.62926 4.63452C5.68096 4.73154 5.78546 4.79182 5.89854 4.79182Z" fill="#D70404"/>
</svg>
