<svg width="25" height="24" viewBox="0 0 25 24" fill="none" xmlns="http://www.w3.org/2000/svg">
<path d="M17.0732 8.56097C17.0732 11.0854 15.0244 13.1341 12.5 13.1341C9.97561 13.1341 7.92683 11.0854 7.92683 8.56097C7.92683 6.03658 9.97561 3.9878 12.5 3.9878C15.0244 3.9878 17.0732 6.07317 17.0732 8.56097ZM24.5 12C24.5 18.622 19.122 24 12.5 24C5.87805 24 0.5 18.622 0.5 12C0.5 5.37805 5.87805 0 12.5 0C19.122 0 24.5 5.37805 24.5 12ZM21.6463 12C21.6463 6.95122 17.5488 2.85366 12.5 2.85366C7.45122 2.85366 3.35366 6.95122 3.35366 12C3.35366 14.5244 4.37805 16.7927 5.9878 18.4024C7.37805 16.2805 9.7561 14.8537 12.5 14.8537C15.2439 14.8537 17.6585 16.2805 19.0122 18.4024C20.622 16.7927 21.6463 14.5244 21.6463 12Z" fill="#D70404"/>
</svg>
