<svg width="36" height="36" viewBox="0 0 36 36" fill="none" xmlns="http://www.w3.org/2000/svg">
<path d="M9 0C6.0534 0 3.8466 1.89391 2.3616 4.01165C0.8802 6.1247 0 8.63217 0 10.9565C0 14.9979 3.2058 17.9452 7.2 18.6355V36H10.8V18.6355C14.7942 17.9452 18 14.9979 18 10.9565C18 8.63374 17.1216 6.12626 15.6366 4.01009C14.1552 1.89704 11.9466 0 9 0ZM21.6 0V10.9565C21.6 13.8553 23.9058 16.2751 27 16.9732V36H30.6V16.9732C33.6942 16.2751 36 13.8553 36 10.9565V0H32.4V10.9565C32.4 12.7049 30.8106 14.087 28.8 14.087C26.7894 14.087 25.2 12.7049 25.2 10.9565V0H21.6ZM27 0V10.9565C27 11.8174 27.81 12.5217 28.8 12.5217C29.79 12.5217 30.6 11.8174 30.6 10.9565V0H27ZM9 3.13043C10.0332 3.13043 11.4192 4.01635 12.5442 5.62539C13.6692 7.2313 14.4 9.38504 14.4 10.9565C14.4 14.0932 12.15 15.6522 9 15.6522C5.85 15.6522 3.6 14.0932 3.6 10.9565C3.6 9.38504 4.3308 7.23287 5.4558 5.62539C6.5808 4.01635 7.9668 3.13043 9 3.13043Z" fill="#D70404"/>
</svg>
