<svg width="12" height="13" viewBox="0 0 12 13" fill="none" xmlns="http://www.w3.org/2000/svg">
<path d="M3 0.5C2.0178 0.5 1.2822 1.1313 0.7872 1.83722C0.2934 2.54157 0 3.37739 0 4.15217C0 5.4993 1.0686 6.48174 2.4 6.71183V12.5H3.6V6.71183C4.9314 6.48174 6 5.4993 6 4.15217C6 3.37791 5.7072 2.54209 5.2122 1.8367C4.7184 1.13235 3.9822 0.5 3 0.5ZM7.2 0.5V4.15217C7.2 5.11843 7.9686 5.92504 9 6.15774V12.5H10.2V6.15774C11.2314 5.92504 12 5.11843 12 4.15217V0.5H10.8V4.15217C10.8 4.73496 10.2702 5.19565 9.6 5.19565C8.9298 5.19565 8.4 4.73496 8.4 4.15217V0.5H7.2ZM9 0.5V4.15217C9 4.43913 9.27 4.67391 9.6 4.67391C9.93 4.67391 10.2 4.43913 10.2 4.15217V0.5H9ZM3 1.54348C3.3444 1.54348 3.8064 1.83878 4.1814 2.37513C4.5564 2.91043 4.8 3.62835 4.8 4.15217C4.8 5.19774 4.05 5.71739 3 5.71739C1.95 5.71739 1.2 5.19774 1.2 4.15217C1.2 3.62835 1.4436 2.91096 1.8186 2.37513C2.1936 1.83878 2.6556 1.54348 3 1.54348Z" fill="white"/>
</svg>
