<svg width="15" height="15" viewBox="0 0 15 15" fill="none" xmlns="http://www.w3.org/2000/svg">
<path fill-rule="evenodd" clip-rule="evenodd" d="M13.1302 4.99778H10.6621V5.018C9.51658 5.018 8.58799 5.92335 8.58799 7.04015C8.58799 8.15695 9.51658 9.0623 10.6621 9.0623H13.1302V9.24429C13.1302 11.2007 11.9428 12.3584 9.93095 12.3584H4.6628C2.65095 12.3584 1.46354 11.2007 1.46354 9.24429V4.97251C1.46354 3.01608 2.65095 1.8584 4.6628 1.8584H9.93095C11.9428 1.8584 13.1302 3.01608 13.1302 4.99778ZM12.6946 5.86735H10.662C10.3052 5.87182 9.96876 6.02978 9.74274 6.2989C9.51671 6.56802 9.42424 6.92078 9.49011 7.26263C9.62164 7.81332 10.1287 8.20042 10.7086 8.19282H12.6946C12.9339 8.19009 13.1273 8.00155 13.1301 7.76817V6.292C13.1301 6.05747 12.9351 5.86735 12.6946 5.86735ZM10.9418 7.41934H10.7499C10.5028 7.41657 10.304 7.22046 10.304 6.97952C10.304 6.86467 10.3511 6.7546 10.4349 6.67387C10.5187 6.59314 10.6321 6.54846 10.7499 6.54981H10.9418C11.188 6.54981 11.3877 6.74446 11.3877 6.98458C11.3877 7.22469 11.188 7.41934 10.9418 7.41934Z" fill="#61C7CF"/>
</svg>
