<?xml version="1.0" encoding="utf-8"?>
<!-- Generator: Adobe Illustrator 16.0.0, SVG Export Plug-In . SVG Version: 6.00 Build 0)  -->
<!DOCTYPE svg PUBLIC "-//W3C//DTD SVG 1.1//EN" "http://www.w3.org/Graphics/SVG/1.1/DTD/svg11.dtd">
<svg version="1.1" id="Layer_1" xmlns="http://www.w3.org/2000/svg" xmlns:xlink="http://www.w3.org/1999/xlink" x="0px" y="0px"
	 width="256px" height="256px" viewBox="0 0 256 256" enable-background="new 0 0 256 256" xml:space="preserve">
<desc>Created with Fabric.js 1.7.22</desc>
<g transform="translate(128 128) scale(0.72 0.72)">
	<g transform="translate(-175.05 -175.05000000000004) scale(3.89 3.89)">
		<path fill="#FFFFFF" stroke="#000000" stroke-width="4" stroke-miterlimit="10" d="M45,0C25.463,0,9.625,15.838,9.625,35.375
			c0,8.722,3.171,16.693,8.404,22.861L45,90l26.97-31.765c5.233-6.167,8.404-14.139,8.404-22.861C80.375,15.838,64.537,0,45,0z
			 M45,48.705c-8.035,0-14.548-6.513-14.548-14.548S36.965,19.609,45,19.609c8.035,0,14.548,6.513,14.548,14.548
			S53.035,48.705,45,48.705z"/>
	</g>
</g>
</svg>
