<svg width="18" height="18" viewBox="0 0 18 18" fill="none" xmlns="http://www.w3.org/2000/svg">
<path d="M6.66 7.21023H17.46C17.559 7.21023 17.64 7.11818 17.64 7.00568V5.57386C17.64 5.46136 17.559 5.36932 17.46 5.36932H6.66C6.561 5.36932 6.48 5.46136 6.48 5.57386V7.00568C6.48 7.11818 6.561 7.21023 6.66 7.21023ZM6.48 12.4261C6.48 12.5386 6.561 12.6307 6.66 12.6307H17.46C17.559 12.6307 17.64 12.5386 17.64 12.4261V10.9943C17.64 10.8818 17.559 10.7898 17.46 10.7898H6.66C6.561 10.7898 6.48 10.8818 6.48 10.9943V12.4261ZM17.82 0H0.18C0.081 0 0 0.0920455 0 0.204545V1.63636C0 1.74886 0.081 1.84091 0.18 1.84091H17.82C17.919 1.84091 18 1.74886 18 1.63636V0.204545C18 0.0920455 17.919 0 17.82 0ZM17.82 16.1591H0.18C0.081 16.1591 0 16.2511 0 16.3636V17.7955C0 17.908 0.081 18 0.18 18H17.82C17.919 18 18 17.908 18 17.7955V16.3636C18 16.2511 17.919 16.1591 17.82 16.1591Z" fill="white"/>
</svg>
