<svg width="421" height="258" viewBox="0 0 421 258" fill="none" xmlns="http://www.w3.org/2000/svg">
<path d="M66.5835 225L-9 258H421L347.498 225H66.5835Z" fill="#1A4E55"/>
<path d="M180.48 163.64L166.2 186.84L193.59 219.37H221.21L246.96 186.29L231.02 163.64H180.48Z" fill="white"/>
<path d="M166.2 186.84C166.2 186.84 104.77 191.59 89.3599 207.68C73.9499 223.77 81.1999 241.24 96.2099 241.24C123.84 241.24 182.3 242.93 209.96 241.24L211.61 203.57L166.2 186.84Z" fill="white"/>
<path d="M245.37 186.04C245.37 186.04 309.7 191.59 325.11 207.68C340.52 223.77 331.64 234.43 318.26 241.24C299.43 250.83 231.56 249.24 196.36 237.59L202.87 203.57L245.37 186.04Z" fill="white"/>
<path d="M248.2 217.64L243.85 206.4L249.27 203.99C249.27 203.99 248.52 197.34 255.15 196.06C261.78 194.78 269.68 199.06 277.38 195.61C284.48 192.43 293.17 189.5 301.28 193.9C302.48 194.55 303.04 195.98 302.63 197.28L302.6 197.38C302.19 198.69 300.91 199.5 299.54 199.36C296.68 199.07 291.58 199.13 286.54 202.18C277.85 207.46 248.2 217.64 248.2 217.64Z" fill="#FEBBA0"/>
<path d="M298.81 218.28C298.81 218.28 255.88 210.65 165.45 209.47L156.72 221.31C156.72 221.31 179.22 234.17 200.34 238.82C221.46 243.47 294.37 258.11 326.93 235.56L298.81 218.28Z" fill="white"/>
<path d="M200.34 238.83C178.69 233.83 156.04 221.01 156.04 221.01L157.39 218.72" stroke="white" stroke-width="1.5925" stroke-miterlimit="10" stroke-linecap="round"/>
<path d="M165.45 209.47C165.45 209.47 264.8 207.2 291.31 222.58" stroke="white" stroke-width="1.5925" stroke-miterlimit="10" stroke-linecap="round"/>
<path d="M116.68 215.91C116.68 215.91 134.82 207.41 147.22 212.98" stroke="white" stroke-width="1.5925" stroke-miterlimit="10" stroke-linecap="round"/>
<path d="M158.81 219.35L165.44 209.25L158.81 205.66C158.81 205.66 156.49 199.85 149.99 198.05C143.48 196.26 138.85 199.15 131.44 195.11C124.61 191.38 116.17 187.79 107.75 191.54C106.51 192.09 105.83 193.47 106.14 194.8L106.16 194.9C106.47 196.24 107.68 197.14 109.05 197.11C111.92 197.04 117.01 197.5 121.79 200.94C130.04 206.88 158.81 219.35 158.81 219.35Z" fill="#FEBBA0"/>
<path d="M215.89 209.83L243.05 207.16" stroke="white" stroke-width="1.5925" stroke-miterlimit="10" stroke-linecap="round"/>
<path d="M181.35 198.06L196.5 209.03" stroke="white" stroke-width="1.5925" stroke-miterlimit="10" stroke-linecap="round"/>
<path d="M177.44 48.7702C178.08 55.0302 183.53 59.5902 189.61 58.9702C195.69 58.3502 200.1 52.7702 199.46 46.5202C198.82 40.2602 193.37 35.7002 187.29 36.3202C181.22 36.9302 176.81 42.5102 177.44 48.7702Z" fill="#0D1040"/>
<path d="M200.15 53.3202C200.15 53.3202 180.83 50.4002 177.79 32.1702C175.11 16.0602 185.92 3.1502 197.77 0.920197C197.78 0.920197 226.25 44.8002 200.15 53.3202Z" fill="#0D1040"/>
<path d="M200.59 2.65021C199.17 3.35021 197.82 4.27021 196.59 5.46021C185.58 16.0502 192.55 36.6102 202.41 45.8902C207.87 51.0202 215.85 53.4102 222.82 50.7902C233.01 46.9602 236.2 35.4202 234.13 25.1402C232.59 17.4802 228.34 10.2502 222.07 5.75021C215.8 1.26021 207.33 -0.63979 200.59 2.65021Z" fill="#FDBCA0"/>
<path d="M198.76 39.6902C196.83 41.6002 193.47 42.3802 190.89 41.4702C188.31 40.5602 186.19 38.1302 185.52 35.3102C184.92 32.7802 185.57 29.9002 187.43 28.3502C189.29 26.8002 192.64 26.9002 194.23 28.9102L198.76 39.6902Z" fill="#FDBCA0"/>
<path d="M195.94 32.9702L197.97 69.3102C198.24 76.0302 203.69 81.3702 210.41 81.5002C218.17 81.6602 224.26 74.8802 223.27 67.1802L219.17 33.4402L195.94 32.9702Z" fill="#FDBCA0"/>
<path d="M221.93 56.2202L221.42 51.2402C221.42 51.2402 211.42 54.3102 202.41 45.8802C202.41 45.8902 207.6 55.3602 221.93 56.2202Z" fill="#DF8370"/>
<path d="M191.97 27.4802C204.99 26.8102 216.87 18.0702 223.43 6.81021C223.43 6.81021 211.45 -4.55979 193.94 2.09021C179.43 7.59021 191.97 27.4802 191.97 27.4802Z" fill="#0D1040"/>
<path d="M193.4 35.8402C191.9 35.9902 190.59 35.1802 190.47 34.0302C190.38 33.1602 190.99 32.3502 191.93 31.9302" stroke="#0D1040" stroke-width="1.1144" stroke-miterlimit="10" stroke-linecap="round"/>
<path d="M224.68 33.0002C224.98 32.0902 225.5 31.3702 226.08 30.6902L226.36 31.5702C225.7 31.3202 225.34 30.9402 224.97 30.5702C224.62 30.1802 224.31 29.7902 224.03 29.3702C223.47 28.5402 223 27.6602 222.66 26.7302C223.36 27.4402 224 28.1702 224.67 28.8702C225.01 29.2102 225.33 29.5602 225.68 29.8602C226.01 30.1502 226.4 30.4502 226.67 30.5202L227.48 30.7102L226.95 31.4002C226.41 32.1102 225.81 32.7702 224.98 33.2502C224.88 33.3102 224.76 33.2702 224.7 33.1802C224.67 33.1102 224.67 33.0502 224.68 33.0002Z" fill="#0D1040"/>
<path d="M227.61 36.1802C227.21 37.0002 226.53 37.7102 225.65 38.1402C224.78 38.5902 223.7 38.6802 222.74 38.4002C221.76 38.1302 221 37.4902 220.35 36.8302C220.06 36.4702 219.77 36.1002 219.53 35.7202C219.32 35.3102 219.1 34.9102 218.94 34.4902C219.31 34.7702 219.63 35.0702 219.95 35.3702L220.94 36.1902C221.64 36.6502 222.3 37.1502 223.06 37.3302C223.79 37.5602 224.57 37.5502 225.34 37.3402C226.1 37.1202 226.86 36.6902 227.61 36.1802Z" fill="#0D1040"/>
<path d="M217.14 23.1102C217.53 24.2702 217.75 25.4702 217.67 26.7602C217.62 27.3902 217.47 28.0802 217 28.6902C216.52 29.3102 215.71 29.5802 215 29.5602C214.27 29.5502 213.55 29.2302 213.06 28.7802C212.55 28.3302 212.15 27.8102 211.85 27.2602C211.25 26.1502 210.87 24.9902 210.68 23.7702C210.65 23.5802 210.78 23.4002 210.97 23.3602C211.15 23.3302 211.31 23.4402 211.36 23.6002L211.37 23.6202C211.71 24.7002 212.16 25.7902 212.74 26.7302C213.32 27.6402 214.11 28.4802 215.04 28.4502C215.5 28.4702 215.93 28.3502 216.19 28.0202C216.48 27.7002 216.62 27.1802 216.7 26.6502C216.85 25.5802 216.75 24.4002 216.57 23.2702V23.2502C216.54 23.0902 216.66 22.9302 216.82 22.9102C216.95 22.8902 217.09 22.9802 217.14 23.1102Z" fill="#0D1040"/>
<path d="M231.66 20.8402C231.99 21.8202 232.17 22.8202 232.15 23.8902C232.14 24.4202 232.04 25.0002 231.7 25.5502C231.37 26.1302 230.63 26.4902 229.99 26.4602C229.32 26.4502 228.71 26.1002 228.32 25.6902C227.92 25.2702 227.61 24.8202 227.38 24.3402C226.93 23.3802 226.65 22.4002 226.51 21.3702C226.48 21.1802 226.62 21.0002 226.82 20.9702C226.99 20.9502 227.15 21.0502 227.2 21.2102L227.21 21.2302C227.5 22.1302 227.85 23.0502 228.3 23.8502C228.75 24.6302 229.36 25.3802 230.03 25.3402C230.37 25.3502 230.64 25.2502 230.82 24.9702C231.02 24.6902 231.12 24.2602 231.18 23.8102C231.28 22.9102 231.2 21.9202 231.09 20.9802V20.9602C231.07 20.8002 231.19 20.6502 231.35 20.6202C231.48 20.6202 231.62 20.7102 231.66 20.8402Z" fill="#0D1040"/>
<path d="M242.46 72.6102C242.37 66.5102 222.59 61.6302 222.59 61.6302C221.35 63.0002 219.22 65.3102 210.25 65.3102C201.67 65.3102 198.24 63.0902 196.9 61.6302H188.41C186.52 61.6302 184.79 62.7102 184 64.4302C166.99 101.64 176.55 143.2 180.47 163.63C180.83 165.51 216.33 164.24 232.34 165.51C235.8 165.8 242.8 94.7802 242.46 72.6102Z" fill="#FEE6C6"/>
<path d="M201.15 125.23C202.91 111.01 205.06 102.48 206.71 105.28C208.17 107.76 207.36 120.2 205.17 132.2C205.18 132.2 200.4 131.32 201.15 125.23Z" fill="#FEBBA0"/>
<path d="M212.77 125.23C211.01 111.01 208.86 102.48 207.21 105.28C205.75 107.76 206.56 120.2 208.75 132.2C208.74 132.2 213.52 131.32 212.77 125.23Z" fill="#FEBBA0"/>
<path d="M271.39 121.7H249.04L252.59 144.4L212.03 124.61C211.89 123.09 211.7 121.21 211.47 119.22C209.94 119.22 208.4 119.22 206.87 119.2C206.88 120.93 206.91 122.1 206.91 122.1C206.91 122.1 206.12 132.54 207.93 136.02C211.37 142.64 246.56 163.96 256.33 166.49C256.94 166.65 257.55 166.77 258.16 166.85C267.59 168.18 273.84 162.89 273.77 153.37L271.39 121.7Z" fill="#FEBBA0"/>
<path d="M202.05 119.12C201.7 121.36 201.39 123.52 201.15 125.23L161.76 143.47L163.42 121.71H141.07L138.7 153.4C138.64 162.92 144.89 168.2 154.31 166.88C154.92 166.79 155.53 166.67 156.14 166.52C165.91 163.99 198.64 146.3 205.63 135.98C207.7 132.93 206.72 122.66 206.72 122.66C206.72 122.66 206.72 121.24 206.68 119.22C205.14 119.19 203.6 119.16 202.05 119.12Z" fill="#FEBBA0"/>
<path d="M169.14 134.12C177.88 108.27 177.81 108.25 188.54 61.6402C181.36 62.1302 180.62 60.9602 174.96 63.9002C157.98 72.7202 141.99 101.69 137.28 134.12H169.14Z" fill="#FEE6C6"/>
<path d="M246.96 131.57C241.82 113.26 222.59 61.6402 222.59 61.6402C241.82 60.9902 268.06 86.0602 274.34 128.22L246.96 131.57Z" fill="#FEE6C6"/>
<path d="M242.47 91.1402L238.42 124.42" stroke="#EED2AD" stroke-width="1.5925" stroke-miterlimit="10" stroke-linecap="round"/>
<path d="M172.82 96.6002L176.04 132.2" stroke="#EED2AD" stroke-width="1.5925" stroke-miterlimit="10" stroke-linecap="round"/>
</svg>
