<svg width="21" height="22" viewBox="0 0 21 22" fill="none" xmlns="http://www.w3.org/2000/svg">
<path d="M15.5 12.2222C16.9587 12.2222 18.3576 12.7373 19.3891 13.6541C20.4205 14.571 21 15.8145 21 17.1111C21 18.4077 20.4205 19.6512 19.3891 20.5681C18.3576 21.4849 16.9587 22 15.5 22C14.0413 22 12.6424 21.4849 11.6109 20.5681C10.5795 19.6512 10 18.4077 10 17.1111C10 15.8145 10.5795 14.571 11.6109 13.6541C12.6424 12.7373 14.0413 12.2222 15.5 12.2222ZM10 1.34875e-08C10.96 -7.67022e-05 11.8835 0.327113 12.5802 0.91417C13.2769 1.50123 13.6938 2.30344 13.745 3.15556L13.75 3.33333H19.25C19.44 3.33339 19.6229 3.39755 19.7618 3.51286C19.9006 3.62818 19.9851 3.78604 19.998 3.95456C20.011 4.12308 19.9515 4.28968 19.8316 4.42071C19.7117 4.55174 19.5402 4.63742 19.352 4.66044L19.25 4.66667H18.191L17.557 11.6284C17.0774 11.4864 16.5806 11.3948 16.077 11.3556L16.687 4.66667H3.313L4.524 17.9396C4.56973 18.4404 4.82587 18.9076 5.24148 19.2482C5.65709 19.5888 6.2017 19.7779 6.767 19.7778L9.733 19.7787C10.019 20.2663 10.3816 20.7153 10.81 21.112L6.767 21.1111C5.82484 21.1112 4.91719 20.796 4.22457 20.2283C3.53195 19.6605 3.10513 18.8818 3.029 18.0471L1.808 4.66667H0.75C0.568762 4.66666 0.393658 4.60832 0.25707 4.50243C0.120481 4.39654 0.0316483 4.25027 0.00699997 4.09067L0 4C7.6429e-06 3.8389 0.0656429 3.68325 0.184767 3.56184C0.303892 3.44043 0.468446 3.36147 0.648 3.33956L0.75 3.33333H6.25C6.25 2.44928 6.64509 1.60143 7.34835 0.976311C8.05161 0.351189 9.00544 1.34875e-08 10 1.34875e-08ZM13.024 14.9102C12.9303 14.9936 12.8776 15.1066 12.8776 15.2244C12.8776 15.3423 12.9303 15.4553 13.024 15.5387L14.793 17.112L13.026 18.6818C12.9321 18.7651 12.8793 18.8782 12.8792 18.9961C12.8791 19.1141 12.9317 19.2272 13.0255 19.3107C13.1193 19.3941 13.2465 19.4411 13.3791 19.4411C13.5118 19.4412 13.6391 19.3944 13.733 19.3111L15.5 17.7404L17.27 19.3129C17.3161 19.3553 17.3713 19.3892 17.4323 19.4125C17.4933 19.4358 17.5589 19.448 17.6253 19.4486C17.6917 19.4491 17.7575 19.4378 17.819 19.4155C17.8804 19.3931 17.9363 19.3601 17.9832 19.3184C18.0301 19.2767 18.0673 19.227 18.0924 19.1724C18.1176 19.1178 18.1302 19.0593 18.1296 19.0003C18.129 18.9413 18.1153 18.8829 18.0891 18.8287C18.0628 18.7745 18.0248 18.7254 17.977 18.6844L16.208 17.1111L17.979 15.5378C18.0701 15.454 18.1205 15.3417 18.1193 15.2252C18.1182 15.1086 18.0656 14.9972 17.9729 14.9147C17.8802 14.8323 17.7548 14.7856 17.6237 14.7846C17.4926 14.7836 17.3663 14.8284 17.272 14.9093L15.501 16.4827L13.731 14.9093C13.6372 14.826 13.5101 14.7792 13.3775 14.7792C13.2449 14.7792 13.1178 14.826 13.024 14.9093V14.9102ZM10 1.33333C9.42987 1.33327 8.88098 1.5256 8.46425 1.87144C8.04751 2.21728 7.79402 2.69085 7.755 3.19644L7.75 3.33333H12.25L12.245 3.19644C12.206 2.69085 11.9525 2.21728 11.5358 1.87144C11.119 1.5256 10.5701 1.33327 10 1.33333Z" fill="#D70404"/>
</svg>
