<svg width="21" height="22" viewBox="0 0 21 22" fill="none" xmlns="http://www.w3.org/2000/svg">
<path d="M12.8932 1.7839C12.9262 1.74175 12.9672 1.70661 13.0138 1.6805C13.0603 1.65439 13.1115 1.63783 13.1645 1.63177C13.2174 1.62571 13.271 1.63027 13.3221 1.6452C13.3733 1.66012 13.4211 1.68511 13.4626 1.71872L14.3349 2.42431L11.1453 6.51935H13.2001L15.5973 3.44277L17.6198 5.0772C17.6622 5.11143 17.6973 5.15393 17.723 5.20215C17.7487 5.25038 17.7646 5.30334 17.7695 5.35787C17.7745 5.4124 17.7685 5.46739 17.752 5.51954C17.7354 5.57169 17.7086 5.61994 17.6731 5.6614L16.9397 6.51935H19.051C19.3291 6.09547 19.44 5.58203 19.362 5.07986C19.284 4.57769 19.0227 4.1231 18.6294 3.80535L14.4722 0.446861C14.2646 0.27913 14.0261 0.15445 13.7705 0.0799849C13.5149 0.00551969 13.2472 -0.0172627 12.9829 0.0129468C12.7186 0.0431562 12.4627 0.125762 12.2301 0.256017C11.9975 0.386273 11.7928 0.56161 11.6275 0.771954L7.11496 6.51935H9.17538L12.8932 1.7839ZM14.5385 13.8523C14.3242 13.8523 14.1188 13.9381 13.9673 14.0909C13.8159 14.2437 13.7308 14.451 13.7308 14.6671C13.7308 14.8832 13.8159 15.0904 13.9673 15.2432C14.1188 15.396 14.3242 15.4818 14.5385 15.4818H16.9615C17.1758 15.4818 17.3812 15.396 17.5327 15.2432C17.6841 15.0904 17.7692 14.8832 17.7692 14.6671C17.7692 14.451 17.6841 14.2437 17.5327 14.0909C17.3812 13.9381 17.1758 13.8523 16.9615 13.8523H14.5385ZM2.42308 4.07504C1.78044 4.07504 1.16412 4.33256 0.709703 4.79096C0.255288 5.24936 0 5.87108 0 6.51935V18.3335C0 19.3059 0.382932 20.2385 1.06455 20.9261C1.74618 21.6137 2.67066 22 3.63462 22H17.3654C18.3293 22 19.2538 21.6137 19.9354 20.9261C20.6171 20.2385 21 19.3059 21 18.3335V11.0006C21 10.0282 20.6171 9.0956 19.9354 8.408C19.2538 7.72041 18.3293 7.33412 17.3654 7.33412H2.42308C2.20886 7.33412 2.00342 7.24828 1.85195 7.09548C1.70048 6.94268 1.61538 6.73544 1.61538 6.51935C1.61538 6.30326 1.70048 6.09602 1.85195 5.94322C2.00342 5.79042 2.20886 5.70458 2.42308 5.70458H6.12231L7.41138 4.07504H2.42308ZM1.61538 18.3335V8.82515C1.86819 8.91478 2.14038 8.96366 2.42308 8.96366H17.3654C17.9009 8.96366 18.4145 9.17827 18.7932 9.56026C19.1719 9.94226 19.3846 10.4604 19.3846 11.0006V18.3335C19.3846 18.8738 19.1719 19.3919 18.7932 19.7739C18.4145 20.1559 17.9009 20.3705 17.3654 20.3705H3.63462C3.09908 20.3705 2.58548 20.1559 2.2068 19.7739C1.82812 19.3919 1.61538 18.8738 1.61538 18.3335Z" fill="#D70404"/>
</svg>
