<svg width="18" height="20" viewBox="0 0 18 20" fill="none" xmlns="http://www.w3.org/2000/svg">
<path d="M17.875 11C17.8764 10.3116 17.7055 9.63374 17.3778 9.0283C17.0501 8.42285 16.5761 7.90904 15.999 7.5337C15.4219 7.15835 14.76 6.93342 14.0737 6.87939C13.3874 6.82536 12.6985 6.94396 12.0698 7.22437C11.4411 7.50478 10.8925 7.9381 10.4741 8.48481C10.0558 9.03153 9.78088 9.67426 9.67453 10.3544C9.56818 11.0346 9.63375 11.7306 9.86526 12.3789C10.0968 13.0272 10.4869 13.6073 11 14.0662V19.25L13.75 17.9486L16.5 19.25V14.0662C16.9322 13.6808 17.2781 13.2084 17.5151 12.68C17.752 12.1516 17.8747 11.5791 17.875 11ZM15.125 17.0775L13.75 16.4264L12.375 17.0775V14.8844C13.2636 15.2053 14.2364 15.2053 15.125 14.8844V17.0775ZM13.75 13.75C13.2061 13.75 12.6744 13.5887 12.2222 13.2865C11.7699 12.9844 11.4175 12.5549 11.2093 12.0524C11.0012 11.5499 10.9467 10.9969 11.0528 10.4635C11.1589 9.93005 11.4209 9.44005 11.8055 9.05546C12.1901 8.67086 12.6801 8.40895 13.2135 8.30284C13.7469 8.19673 14.2999 8.25119 14.8024 8.45933C15.3049 8.66747 15.7344 9.01995 16.0365 9.47218C16.3387 9.92442 16.5 10.4561 16.5 11C16.4991 11.7291 16.2091 12.428 15.6935 12.9435C15.178 13.4591 14.4791 13.7491 13.75 13.75ZM3.4375 8.25H8.25V9.625H3.4375V8.25ZM3.4375 4.125H10.3125V5.5H3.4375V4.125Z" fill="#D70404"/>
<path d="M1.375 19.25C1.01044 19.2496 0.660914 19.1047 0.40313 18.8469C0.145347 18.5891 0.000364015 18.2396 0 17.875V1.375C0.000364015 1.01044 0.145347 0.660914 0.40313 0.40313C0.660914 0.145347 1.01044 0.000364015 1.375 0H12.375C12.7396 0.000364015 13.0891 0.145347 13.3469 0.40313C13.6047 0.660914 13.7496 1.01044 13.75 1.375V4.125H12.375V1.375H1.375V17.875H8.25V19.25H1.375Z" fill="#D70404"/>
</svg>
