<svg width="22" height="22" viewBox="0 0 22 22" fill="none" xmlns="http://www.w3.org/2000/svg">
<path d="M21.9995 10.2143C22.0013 9.42752 21.7909 8.65286 21.3876 7.96092C20.9843 7.26898 20.4009 6.68176 19.6906 6.2528C18.9804 5.82384 18.1658 5.56677 17.3211 5.50502C16.4764 5.44327 15.6285 5.57881 14.8547 5.89929C14.0808 6.21976 13.4057 6.71497 12.8908 7.33979C12.3759 7.96461 12.0375 8.69916 11.9067 9.47649C11.7758 10.2538 11.8565 11.0492 12.1414 11.7902C12.4263 12.5311 12.9065 13.1941 13.538 13.7186V21.2143L16.9226 19.734L20.3072 21.2143V13.7186C20.8392 13.2781 21.2649 12.7382 21.5566 12.1343C21.8482 11.5304 21.9992 10.8761 21.9995 10.2143ZM18.6149 18.7377L16.9226 17.9976L15.2303 18.7377V14.6536C16.3239 15.0203 17.5213 15.0203 18.6149 14.6536V18.7377ZM16.9226 13.3571C16.2532 13.3571 15.5988 13.1728 15.0422 12.8275C14.4856 12.4821 14.0518 11.9913 13.7956 11.417C13.5395 10.8427 13.4724 10.2108 13.603 9.60115C13.7336 8.9915 14.056 8.43149 14.5293 7.99196C15.0027 7.55242 15.6058 7.25309 16.2623 7.13182C16.9189 7.01056 17.5994 7.07279 18.2179 7.31067C18.8363 7.54855 19.3649 7.95137 19.7368 8.46821C20.1087 8.98505 20.3072 9.59269 20.3072 10.2143C20.3061 11.0475 19.9492 11.8463 19.3147 12.4355C18.6802 13.0247 17.8199 13.3561 16.9226 13.3571Z" fill="#D70404"/>
<path d="M8.46154 0C7.11554 0.00145562 5.82511 0.498605 4.87334 1.38239C3.92157 2.26617 3.38618 3.46443 3.38462 4.71429V9.42857H1.69231C1.24362 9.42899 0.813433 9.59468 0.49616 9.88929C0.178888 10.1839 0.000448019 10.5834 0 11V20.4286C0.000448019 20.8452 0.178888 21.2447 0.49616 21.5393C0.813433 21.8339 1.24362 21.9996 1.69231 22H11V20.4286H1.69231V11H9.30769V9.42857H5.07692V4.71429C5.07608 3.93489 5.38714 3.183 5.94973 2.60459C6.51232 2.02618 7.28628 1.66251 8.12139 1.58418C8.95649 1.50585 9.79315 1.71845 10.4689 2.18071C11.1447 2.64297 11.6114 3.3219 11.7785 4.08571L13.4369 3.77143C13.2003 2.70775 12.5766 1.75215 11.6705 1.06531C10.7644 0.378471 9.63121 0.00228204 8.46154 0Z" fill="#D70404"/>
</svg>
